<?xml version="1.0" encoding="utf-8"?>
<!-- Generator: Adobe Illustrator 16.0.0, SVG Export Plug-In . SVG Version: 6.00 Build 0)  -->
<!DOCTYPE svg PUBLIC "-//W3C//DTD SVG 1.1//EN" "http://www.w3.org/Graphics/SVG/1.1/DTD/svg11.dtd">
<svg version="1.1" id="Layer_1" xmlns="http://www.w3.org/2000/svg" xmlns:xlink="http://www.w3.org/1999/xlink" x="0px" y="0px"
	 width="3000px" height="1500px" viewBox="0 0 3000 1500" enable-background="new 0 0 3000 1500" xml:space="preserve">
<path fill="none" stroke="#fefefe18" stroke-miterlimit="10" d="M1722.42,625.154c25.69,90.997,211.024,38.615,295.744,34.331
	c104.96-5.292,290.521,18.032,213.733-140.753C2132.933,314.087,1664.838,421.192,1722.42,625.154z"/>
<path fill="none" stroke="#fefefe18" stroke-miterlimit="10" d="M1820.291,574.115c29.003,83.383,328.537,55.531,309.408-58.325
	C2101.464,347.731,1761.668,449.541,1820.291,574.115"/>
<path fill="none" stroke="#fefefe18" stroke-miterlimit="10" d="M968.165,1500c-52.349-56.203-121.745-114.971-138.964-192.592
	c-40.442-182.301,287.714,25.418,319.359,49.769c150.768,116.015,336.752,57.616,495.753,142.823"/>
<path fill="none" stroke="#fefefe18" stroke-miterlimit="10" d="M0,33.96C17.212,22.755,34.362,11.438,51.405,0"/>
<path fill="none" stroke="#fefefe18" stroke-miterlimit="10" d="M51.405,0h-3.54"/>
<path fill="none" stroke="#fefefe18" stroke-miterlimit="10" d="M0,67.945C31.38,45.559,61.873,21.865,93.615,0"/>
<path fill="none" stroke="#fefefe18" stroke-miterlimit="10" d="M93.615,0h-3.502"/>
<path fill="none" stroke="#fefefe18" stroke-miterlimit="10" d="M0,110.803C39.145,68.23,101.142,33.315,148.4,0"/>
<path fill="none" stroke="#fefefe18" stroke-miterlimit="10" d="M148.4,0h-3.478"/>
<path fill="none" stroke="#fefefe18" stroke-miterlimit="10" d="M0,152.527C58.104,96.228,121.13,45.288,188.195,0"/>
<path fill="none" stroke="#fefefe18" stroke-miterlimit="10" d="M188.195,0h-3.515"/>
<path fill="none" stroke="#fefefe18" stroke-miterlimit="10" d="M0,207.313C66.753,124.209,150.473,60.517,237.622,0"/>
<path fill="none" stroke="#fefefe18" stroke-miterlimit="10" d="M237.622,0h-3.87"/>
<path fill="none" stroke="#fefefe18" stroke-miterlimit="10" d="M0,258.058C76.091,153.701,166.82,71.506,274.022,0"/>
<path fill="none" stroke="#fefefe18" stroke-miterlimit="10" d="M274.022,0h-3.49"/>
<path fill="none" stroke="#fefefe18" stroke-miterlimit="10" d="M0,327.88C91.976,192.177,183.699,91.266,321.752,0"/>
<path fill="none" stroke="#fefefe18" stroke-miterlimit="10" d="M321.752,0h-3.515"/>
<path fill="none" stroke="#fefefe18" stroke-miterlimit="10" d="M0,379.223C107.268,223.773,205.097,109.448,361.377,0"/>
<path fill="none" stroke="#fefefe18" stroke-miterlimit="10" d="M361.377,0h-3.357"/>
<path fill="none" stroke="#fefefe18" stroke-miterlimit="10" d="M0,421.192c67.134-70.45,103.146-163.965,168.687-236.109
	C235.119,111.958,315.802,53.772,398.145,0"/>
<path fill="none" stroke="#fefefe18" stroke-miterlimit="10" d="M0,418.14v3.052"/>
<path fill="none" stroke="#fefefe18" stroke-miterlimit="10" d="M398.145,0h-3.578"/>
<path fill="none" stroke="#fefefe18" stroke-miterlimit="10" d="M0,469.322c86.681-60.619,121.884-179.361,190.714-257.245
	C267.082,125.664,349.237,63.007,447.865,0"/>
<path fill="none" stroke="#fefefe18" stroke-miterlimit="10" d="M0,466.527v2.795"/>
<path fill="none" stroke="#fefefe18" stroke-miterlimit="10" d="M447.865,0h-3.688"/>
<path fill="none" stroke="#fefefe18" stroke-miterlimit="10" d="M0,1000.563c218.487-25.305,465.071-141.315,612.828-306.804
	C785.762,500.069,762.668,220.063,884.85,0"/>
<path fill="none" stroke="#fefefe18" stroke-miterlimit="10" d="M0,998.78v1.782"/>
<path fill="none" stroke="#fefefe18" stroke-miterlimit="10" d="M0,1024.17c225.104-29.204,493.25-142.279,636.182-326.33
	C798.849,488.491,772.459,212.615,920.447,0"/>
<path fill="none" stroke="#fefefe18" stroke-miterlimit="10" d="M0,1022.362v1.808"/>
<path fill="none" stroke="#fefefe18" stroke-miterlimit="10" d="M0,1040.795c238.735-27.151,500.87-147.661,653.832-338.024
	C820.034,495.93,788.506,206.161,948.082,0"/>
<path fill="none" stroke="#fefefe18" stroke-miterlimit="10" d="M0,1038.77v2.025"/>
<path fill="none" stroke="#fefefe18" stroke-miterlimit="10" d="M0,1058.08c244.825-27.659,488.133-141.752,651.287-329.525
	C834.188,518.053,802.128,211.656,975.902,0"/>
<path fill="none" stroke="#fefefe18" stroke-miterlimit="10" d="M0,1056.152v1.928"/>
<path fill="none" stroke="#fefefe18" stroke-miterlimit="10" d="M0,1078.003c256.093-27.745,504.644-144.229,671.254-343.93
	C852.741,516.544,820.239,205.022,1010.29,0"/>
<path fill="none" stroke="#fefefe18" stroke-miterlimit="10" d="M0,1076v2.003"/>
<path fill="none" stroke="#fefefe18" stroke-miterlimit="10" d="M0,1095.777c265.039-24.902,518.491-148.072,688.151-355.707
	C867.978,519.994,835.174,198.239,1037.317,0"/>
<path fill="none" stroke="#fefefe18" stroke-miterlimit="10" d="M0,1093.8v1.978"/>
<path fill="none" stroke="#fefefe18" stroke-miterlimit="10" d="M0,982.643c209.878-29.707,456.236-139.126,600.255-298.098
	C771.414,495.617,743.844,221.297,848.169,0"/>
<path fill="none" stroke="#fefefe18" stroke-miterlimit="10" d="M0,980.665v1.978"/>
<path fill="none" stroke="#fefefe18" stroke-miterlimit="10" d="M0,502.575c94.632-66.802,132.076-179.378,201.225-267.526
	C277.696,137.567,387.099,59.506,494.64,0"/>
<path fill="none" stroke="#fefefe18" stroke-miterlimit="10" d="M0,500.05v2.525"/>
<path fill="none" stroke="#fefefe18" stroke-miterlimit="10" d="M494.64,0h-4.04"/>
<path fill="none" stroke="#fefefe18" stroke-miterlimit="10" d="M0,1115.795c279.004-34.923,501.903-137.466,692.127-348.388
	C892.073,545.867,846.492,197.694,1070.372,0"/>
<path fill="none" stroke="#fefefe18" stroke-miterlimit="10" d="M0,1113.843v1.952"/>
<path fill="none" stroke="#fefefe18" stroke-miterlimit="10" d="M0,1134.643c306.68-38.161,555.341-161.497,746.35-408.105
	C914.924,508.842,876.152,176.91,1097.84,0"/>
<path fill="none" stroke="#fefefe18" stroke-miterlimit="10" d="M0,1132.665v1.978"/>
<path fill="none" stroke="#fefefe18" stroke-miterlimit="10" d="M0,1157.25c149.741-19.303,308.008-48.04,440.967-123.07
	c126.374-71.314,226.009-180.111,319.225-289.295C948.189,524.832,891.207,176.674,1137.475,0"/>
<path fill="none" stroke="#fefefe18" stroke-miterlimit="10" d="M0,1155.322v1.928"/>
<path fill="none" stroke="#fefefe18" stroke-miterlimit="10" d="M0,1177.49c139.51-23.021,319.81-37.1,440.087-118.383
	C560.277,977.79,670.86,885.337,766.602,772.95C960.397,545.427,904.243,168.404,1170.557,0"/>
<path fill="none" stroke="#fefefe18" stroke-miterlimit="10" d="M0,1175.513v1.978"/>
<path fill="none" stroke="#fefefe18" stroke-miterlimit="10" d="M2909.739,1500c27.663-37.061,55.397-74.732,90.261-104.662"/>
<path fill="none" stroke="#fefefe18" stroke-miterlimit="10" d="M2162.572,1500c-182.105-147.736-314.602-333.622-564.915-347.469
	c-151.295-8.369-652.803-80.891-544.872-343.207c42.472-103.223,142.625-195.151,208.646-284.067
	c63.381-85.361,126.244-166.078,211.308-231.034c100.987-77.115,236.895-99.509,356.342-133.182
	c49.934-14.077,327.025-93.136,168.942-153.949"/>
<path fill="none" stroke="#fefefe18" stroke-miterlimit="10" d="M1998.022,7.092c-5.958-2.295-11.865-4.675-17.772-7.092"/>
<path fill="none" stroke="#fefefe18" stroke-miterlimit="10" d="M0,1205.47c128.802-20.644,283.054-41.851,403.955-94.875
	c163.216-71.537,286.58-212.627,402.65-343.712c109.917-124.008,138.983-311.021,182.911-465.17
	C1027.432,168.657,1094.988,72.425,1214.55,0"/>
<path fill="none" stroke="#fefefe18" stroke-miterlimit="10" d="M0,1203.59v1.88"/>
<path fill="none" stroke="#fefefe18" stroke-miterlimit="10" d="M2126.977,1500c-83.911-67.424-164.207-141.05-249.56-206.178
	c-111.954-85.415-212.183-106.406-350.85-113.539c-162.759-8.373-592.804-122.15-532.397-364.979
	c24.894-100.07,146.579-178.287,207.54-258.027c74.1-96.926,137.628-198.058,234.692-274.672
	c85.021-67.116,192.185-95.345,294.396-124.647C1785.221,142.355,2027.232,79.944,1894.58,0"/>
<path fill="none" stroke="#fefefe18" stroke-miterlimit="10" d="M0,1238.745c149.128-43.147,318.98-52.005,459.065-120.822
	c138.1-67.842,270.08-222.085,374.691-333.144c108.229-114.899,133.615-302.307,172.78-449.746
	C1048.071,178.672,1114.881,68.244,1267.552,0"/>
<path fill="none" stroke="#fefefe18" stroke-miterlimit="10" d="M0,1237.013v1.732"/>
<path fill="none" stroke="#fefefe18" stroke-miterlimit="10" d="M1267.552,0h-4.405"/>
<path fill="none" stroke="#fefefe18" stroke-miterlimit="10" d="M629.04,1500c-96.121-65.077-194.267-67.472-306.089-63.28
	c-112.739,4.244-218.335-19.224-322.95-60.547"/>
<path fill="none" stroke="#fefefe18" stroke-miterlimit="10" d="M629.04,1500"/>
<path fill="none" stroke="#fefefe18" stroke-miterlimit="10" d="M0,1376.173v2.024"/>
<path fill="none" stroke="#fefefe18" stroke-miterlimit="10" d="M3000,364.625c-178.365-28.622-327.491-100.135-490.53-174.568
	c-70.18-32.04-380.012-122.049-172.605-187.042"/>
<path fill="none" stroke="#fefefe18" stroke-miterlimit="10" d="M2336.864,3.015c3.346-1.05,6.716-2.05,10.107-3.015"/>
<path fill="none" stroke="#fefefe18" stroke-miterlimit="10" d="M0,957.47c178.091-25.827,380.296-118.978,520.844-229.234
	c100.717-79.01,157.259-187.814,188.523-310.31C742.725,287.227,784.105,133.701,795.312,0"/>
<path fill="none" stroke="#fefefe18" stroke-miterlimit="10" d="M0,955.59v1.88"/>
<path fill="none" stroke="#fefefe18" stroke-miterlimit="10" d="M0,541.163c113.988-63.952,155.718-185.06,228.967-285.485
	C313.378,139.825,440.263,67.021,564.185,0"/>
<path fill="none" stroke="#fefefe18" stroke-miterlimit="10" d="M0,538.953v2.21"/>
<path fill="none" stroke="#fefefe18" stroke-miterlimit="10" d="M564.185,0h-4.115"/>
<path fill="none" stroke="#fefefe18" stroke-miterlimit="10" d="M1329.382,0c-139.951,49.191-238.25,134.136-281.985,278.18
	c-18.175,59.862-33.008,121.459-45.726,182.633c-9.405,45.238-45.822,145.506-24.351,191.055"/>
<path fill="none" stroke="#fefefe18" stroke-miterlimit="10" d="M979.015,650.868c0.525,1.16-1.17,2.16-1.695,1"/>
<path fill="none" stroke="#fefefe18" stroke-miterlimit="10" d="M1805.2,0c95.097,57.614-25.858,103.21-78.717,121.28
	c-108.434,37.07-214.366,58.783-307.074,130.943c-48.554,37.792-390.223,481.364-440.395,398.645"/>
<path fill="none" stroke="#fefefe18" stroke-miterlimit="10" d="M1809.375,0h-4.175"/>
<path fill="none" stroke="#fefefe18" stroke-miterlimit="10" d="M2968.529,0c10.45,4.053,20.923,8.045,31.471,11.89"/>
<path fill="none" stroke="#fefefe18" stroke-miterlimit="10" d="M3000,341.308c-137.719-19.525-247.755-75.137-372.15-130.68
	C2552.155,176.83,2270.115,69.252,2465.942,0"/>
<path fill="none" stroke="#fefefe18" stroke-miterlimit="10" d="M3000,313.635c-121.73-20.501-230.956-61.012-341.436-115.892
	c-54.72-27.182-120.612-60.526-158.662-110.366C2463.102,39.14,2570.177,8.474,2595.654,0"/>
<path fill="none" stroke="#fefefe18" stroke-miterlimit="10" d="M2885.962,0c38.452,12.475,76.22,27.345,114.038,41.7"/>
<path fill="none" stroke="#fefefe18" stroke-miterlimit="10" d="M1496.277,0c-148.537,29.537-315.407,69.537-386.926,218.157
	c-12.459,25.89-98.809,311.281-6.071,284.449c63.225-18.293,117.708-106.338,157.688-152.608
	c60.201-69.67,129.606-143.98,210.678-189.063C1501.8,144.167,1809.881,50.789,1667.869,0.88"/>
<path fill="none" stroke="#fefefe18" stroke-miterlimit="10" d="M0,571.692c137.512-67.102,178.822-203.133,268.139-316.741
	C351.813,148.523,503.861,33,639.734,6.703"/>
<path fill="none" stroke="#fefefe18" stroke-miterlimit="10" d="M0,569.775v1.917"/>
<path fill="none" stroke="#fefefe18" stroke-miterlimit="10" d="M666.734,0.28c0.893-0.122,1.783-0.195,2.675-0.28"/>
<path fill="none" stroke="#fefefe18" stroke-miterlimit="10" d="M639.734,6.703c9.241-1.795,17.48-5.2,27-6.423"/>
<path fill="none" stroke="#fefefe18" stroke-miterlimit="10" d="M0,935.987c112.886-17.306,212.06-69.254,313.766-118.305
	c103.497-49.915,208.686-94.167,281.18-188.31c68.072-88.4,93.708-204.483,111.749-312.229
	C715.856,262.427,782.663,22.378,699.707,0"/>
<path fill="none" stroke="#fefefe18" stroke-miterlimit="10" d="M0,933.91v2.077"/>
<path fill="none" stroke="#fefefe18" stroke-miterlimit="10" d="M3000,84.192c-61.28-24.434-376.791-154.741-388.843-2.26
	c-3.827,47.806,103.55,99.85,136.734,117.166c78.312,40.865,165.559,62.237,252.108,77.109"/>
<path fill="none" stroke="#fefefe18" stroke-miterlimit="10" d="M3000,86.23v-2.038"/>
<path fill="none" stroke="#fefefe18" stroke-miterlimit="10" d="M3000,141.688c-27.886-13.862-262.383-135.206-268.238-42.615
	c-5.475,87.769,214.341,116.161,268.238,122.033"/>
<path fill="none" stroke="#fefefe18" stroke-miterlimit="10" d="M3000,143.81v-2.123"/>
<path fill="none" stroke="#fefefe18" stroke-miterlimit="10" d="M3000,221.105v-2.038"/>
<path fill="none" stroke="#fefefe18" stroke-miterlimit="10" d="M1.22,610.938c-0.415,0.17-0.817,0.342-1.22,0.513"/>
<path fill="none" stroke="#fefefe18" stroke-miterlimit="10" d="M0,905.933c85.082-15.079,160.331-52.132,235.732-92.598
	c91.837-49.286,194.006-66.458,275.991-134.473c142.437-118.167,172.206-311.096,170.954-486.92
	c-1.552-226.046-264.191-45.549-346.636,37.354C208.625,357.422,181.133,536.981,1.22,610.938"/>
<path fill="none" stroke="#fefefe18" stroke-miterlimit="10" d="M0,903.883v2.05"/>
<path fill="none" stroke="#fefefe18" stroke-miterlimit="10" d="M0,611.45v2.345"/>
<path fill="none" stroke="#fefefe18" stroke-miterlimit="10" d="M1142.15,280.03c-22.548,90.181,57.524,55.452,96.229,16.138
	c47.916-48.71,99.054-95.896,137.035-153.175c49.198-73.948-81.242-36.135-112.517-20.745
	C1201.105,152.655,1152.226,210.78,1142.15,280.03"/>
<path fill="none" stroke="#fefefe18" stroke-miterlimit="10" d="M1142.15,280.03c-0.183,1.258-2.075,0.72-1.89-0.525"/>
<path fill="none" stroke="#fefefe18" stroke-miterlimit="10" d="M1142.15,280.03c0.317-1.245-1.585-1.77-1.89-0.525"/>
<path fill="none" stroke="#fefefe18" stroke-miterlimit="10" d="M2207.447,1500c-121.089-94.978-210.536-236.904-334.236-323.815
	c-130.528-91.708-314.11-51.423-462.75-79.223c-114.482-21.412-300.902-88.228-309.919-229.503
	c-4.533-71.008,56.707-138.242,98.668-189.092c59.356-71.929,102.445-154.805,161.813-227.012
	c167.884-204.193,448.864-275.823,701.194-319.969C2388.907,74.23,2680.591,362.998,3000,394.715"/>
<path fill="none" stroke="#fefefe18" stroke-miterlimit="10" d="M2867.577,1500c41.31-51.197,79.248-107.275,132.423-145.482"/>
<path fill="none" stroke="#fefefe18" stroke-miterlimit="10" d="M0,872.827c77.387-15.573,142.576-49.963,209.362-90.895
	c82.369-50.488,184.353-52.089,265.167-106.011C614.08,582.808,664.26,393.208,644.432,233.182
	c-26.197-211.424-288.313,3.685-343.534,86.856C211.919,454.056,171.929,602.514,0,649.513"/>
<path fill="none" stroke="#fefefe18" stroke-miterlimit="10" d="M0,871.313v1.515"/>
<path fill="none" stroke="#fefefe18" stroke-miterlimit="10" d="M0,651.513c0.792-0.23,1.587-0.463,2.38-0.695"/>
<path fill="none" stroke="#fefefe18" stroke-miterlimit="10" d="M0,649.513v2"/>
<path fill="none" stroke="#fefefe18" stroke-miterlimit="10" d="M2243.627,1500c-65.114-51.252-128.02-105.288-184.05-166.52
	c-51.358-56.126-87.976-126.089-142.431-179.081c-102.26-99.513-279.655-62.069-408.255-71.971
	c-121.526-9.356-273.784-44.742-342.198-157.667c-77.916-128.607,114.659-291.467,170.441-391.802
	c73.231-131.699,213.065-227.54,351.847-276.766c146.448-51.945,331.562-112.248,488.409-97.423
	c152.568,14.42,298.811,83.245,436.675,144.723c129.446,57.725,246.273,83.799,381.906,111.863"/>
<path fill="none" stroke="#fefefe18" stroke-miterlimit="10" d="M2995.972,415.357c1.343,0.28,2.686,0.535,4.028,0.792"/>
<path fill="none" stroke="#fefefe18" stroke-miterlimit="10" d="M2833.202,1500c50.767-59.483,97.727-134.664,166.798-174.805"/>
<path fill="none" stroke="#fefefe18" stroke-miterlimit="10" d="M2283.813,1500c-119.132-81.257-211.7-190.201-279.37-316.26
	c-93.701-174.557-246.067-127.569-417.81-132.177c-116.817-3.135-251.498-14.769-335.564-106.612
	c-108.36-118.387,46.25-293.761,115.491-395.535c164.009-241.07,494.179-369.427,780.675-355.564
	C2451.475,208.575,2695.94,415.829,3000,438.575"/>
<path fill="none" stroke="#fefefe18" stroke-miterlimit="10" d="M2795.067,1500c70.194-70.595,112.344-163.899,204.933-210.645"/>
<path fill="none" stroke="#fefefe18" stroke-miterlimit="10" d="M2321.387,1500c-110.041-71.484-197.125-162.719-256.514-280.349
	c-63.828-126.421-76.606-238.091-245.99-214.328c-147.847,20.741-309.63,45.326-448.129-26.801
	c-65.946-34.344-117.031-90.647-102.486-170.047c10.451-57.048,53.329-173.062,100.884-209.978
	c36.939-28.753,62.735-87.919,95.243-122.877c41.992-45.157,92.222-86.388,144.427-119.245
	c131.529-82.783,301.468-125.421,455.02-135.66c165.146-10.981,326.708,41.126,475.43,108.103
	C2693.577,398.31,2828.996,447.55,3000,458.447"/>
<path fill="none" stroke="#fefefe18" stroke-miterlimit="10" d="M2758.397,1500c82.787-76.212,130.186-193.532,241.603-234.668"/>
<path fill="none" stroke="#fefefe18" stroke-miterlimit="10" d="M217.792,651.265C222.545,714.8,402,679.843,463.089,640.966
	c111.725-71.102,153.384-219.491,132.452-345.119c-21.637-129.857-164.096-50.172-218.344,6.028
	C302.889,378.855,208,520.397,217.792,651.265z"/>
<path fill="none" stroke="#fefefe18" stroke-miterlimit="10" d="M2374.364,1500c-120.246-58.956-215.851-162.696-270.143-284.57
	c-34.428-78.141-42.51-337.712-190.795-295.532c-139.792,39.868-300.388,99.942-445.416,49.348
	c-180.938-63.121-150.35-208.921-65.851-349.495c149.765-249.132,463.958-402.448,752.927-371.071
	c165.973,18.021,315.334,88.507,464.663,157.864c123.115,57.171,246.463,64.427,380.25,73.683"/>
<path fill="none" stroke="#fefefe18" stroke-miterlimit="10" d="M2710.057,1500c107.364-78.935,151.691-229.119,289.943-268.36"/>
<path fill="none" stroke="#fefefe18" stroke-miterlimit="10" d="M2662.135,1500c144.417-69.767,167.199-254.485,337.865-290.21"/>
<path fill="none" stroke="#fefefe18" stroke-miterlimit="10" d="M2426.27,1500c-114.826-42.31-230.408-140.169-275.707-256.64
	c-41.242-105.563-18.931-272.555-107.842-352.694c-106.91-96.361-275.115,47.236-390.588,61.035
	c-129.669,15.495-315.906-40.564-265.288-207.024c82.618-271.69,384.06-464.861,660.001-474.428
	c155.948-5.407,305.438,47.781,444.686,112.836c69.987,32.697,141.148,74.332,215.866,95.149
	c92.302,25.667,197.775,16.039,292.603,21.4"/>
<path fill="none" stroke="#fefefe18" stroke-miterlimit="10" d="M3000,521.51c-101.481-1.195-203.57,9.989-304.655-3.257
	c-82.115-10.76-158.829-62.167-231.32-99.902c-146.947-76.493-317.571-139.678-485.281-116.585
	c-175.799,24.206-337.125,125.517-444.076,265.787c-76.947,101.018-168.797,296.067,19.564,339.241
	c173.154,39.688,309.865-162.986,480.461-95.103c176.206,70.116,90.363,328.965,169.198,465.115
	c78.47,135.52,247.62,260.516,411.776,209.213c79.48-24.84,122.161-87.658,163.435-155.063
	c54.783-89.51,115.283-131.701,220.898-146.045"/>
<path fill="none" stroke="#fefefe18" stroke-miterlimit="10" d="M316.279,570.277c55.976,177.509,244.439-85.017,236.351-188.187
	c-7.316-93.316-98.43-90.477-150.623-33.322C346.821,409.201,291.173,490.662,316.279,570.277z"/>
<path fill="none" stroke="#fefefe18" stroke-miterlimit="10" d="M3000,539.795c-141.746,1.011-333.719,81.184-456.933-17.7
	c-123.288-98.841-327.168-194.335-485.802-201.542c-178.353-8.103-352.453,94.402-459.943,231.429
	c-42.367,54.01-89.703,127.047-97.945,197.345c-11.12,95.082,94.135,128.675,170.048,106.828
	c140.359-40.396,340.537-193.636,471.001-35.249c105.385,127.939,15.143,316.12,97.481,459.044
	c73.054,126.808,239.463,240.098,388.828,172.008c75.505-34.42,103.453-108.571,144.162-174.761
	c53.213-86.58,133.653-108.644,229.103-115.357"/>
<path fill="none" stroke="#fefefe18" stroke-miterlimit="10" d="M3000,563.038c-81.091,1.145-161.92,15.431-239.298,39.415
	c-86.859,26.923-147.939,64.922-233.609,11.948c-145.353-89.879-260.479-227.91-436.94-259.113
	c-159.521-28.208-318.41,49.875-416.467,173.762c-41.766,52.769-107.343,142.793-90.871,215.096
	c19.714,86.531,138.35,25.777,185.155,9.847c133.49-45.462,353.741-88.68,440.452,59.021
	c88.671,151.277-29.171,339.72,81.096,495.144c80.54,113.525,253.881,188.126,370.837,80.791
	c57.356-52.639,65.634-137.446,116.946-194.762c52.994-59.194,150.201-54,222.699-55.073"/>
<path fill="none" stroke="#fefefe18" stroke-miterlimit="10" d="M414.082,486.525c-1.57,31.133,44.775,13.001,52.069-2.841
	C492.441,426.584,406.39,428.567,414.082,486.525"/>
<path fill="none" stroke="#fefefe18" stroke-miterlimit="10" d="M3000,589.05c-84.86,5.827-175.303,20.903-243.556,75.33
	c-58.443,46.566-129.152,147.784-215.58,121.834c-50.042-15.026-173.376-117.871-214.472-33.724
	c-15.158,31.004-11.48,76.892-15.773,110.303c-9.308,72.612-25.005,144.557-32.047,217.43
	c-15.23,157.616,116.521,394.496,307.975,305.787c86.171-39.896,88.247-147.479,112.287-225.507
	c32.375-105.079,221.878-52.219,301.166-49.15"/>
<path fill="none" stroke="#fefefe18" stroke-miterlimit="10" d="M3000,610.243c-141.045,10.615-266.244,95.801-303.445,235.769
	c-47.94,180.37,170.355,234.864,303.445,243.758"/>
<path fill="none" stroke="#fefefe18" stroke-miterlimit="10" d="M3000,641.112c-106.653,15.522-210.104,82.611-229.281,196.024
	c-23.135,136.823,115.347,207.066,229.281,223.118"/>
<path fill="none" stroke="#fefefe18" stroke-miterlimit="10" d="M3000,668.822c-233.931,43.576-229.162,314.714,0,365.26"/>
<path fill="none" stroke="#fefefe18" stroke-miterlimit="10" d="M3000,704.395c-164.156,55.812-160.48,238.707,0,293.458"/>
<path fill="none" stroke="#fefefe18" stroke-miterlimit="10" d="M0,815.21c97.167-33.971,130.282-120.953,0-100.342"/>
<path fill="none" stroke="#fefefe18" stroke-miterlimit="10" d="M0,813.355v1.854"/>
<path fill="none" stroke="#fefefe18" stroke-miterlimit="10" d="M0,714.868v2.357"/>
<path fill="none" stroke="#fefefe18" stroke-miterlimit="10" d="M3000,743.652c-100.304,53.028-101.203,165.492,0,217.285"/>
<path fill="none" stroke="#fefefe18" stroke-miterlimit="10" d="M3000,825.268c-9.963,19.912-9.963,39.785,0,59.62"/>
<path fill="none" stroke="#fefefe18" stroke-miterlimit="10" d="M2083.422,1500c-106.85-83.761-227.507-211.26-357.91-255.445
	c-124.995-42.181-258.408-14.411-383.145-53.722c-102.914-32.434-279.522-110.865-340.683-204.578
	c-27.439-41.971-60.823-123.602-101.702-152.712c-36.354-25.887-113.432,39.758-141.083,60.5
	c-97.13,72.717-165.732,177.361-271.608,239.747c-119.696,70.629-272.474,58.391-398.318,114.893
	c-159.371,71.554,42.243,141.035,124.068,152.344c168.373,23.271,317.211-22.591,458.905,98.974"/>
<path fill="none" stroke="#fefefe18" stroke-miterlimit="10" d="M671.947,1500"/>
<path fill="none" stroke="#fefefe18" stroke-miterlimit="10" d="M2026.685,1500c-93.518-71.701-195.064-150.031-300.181-203.713
	c-123.408-63.021-267.208-23.647-395.638-67.436c-111.476-38.007-235.633-107.459-328.84-180.005
	c-61.608-47.952-127.724-157.78-217.665-111.537c-94.267,48.467-156.728,146.715-238.602,211.841
	c-105.867,84.211-238.555,60.222-346.895,124.947c-118.142,70.686,182.912,77.564,200.987,77.05
	C525.551,1347.587,636.563,1412.9,722.9,1500"/>
<path fill="none" stroke="#fefefe18" stroke-miterlimit="10" d="M722.9,1500h2.709"/>
<path fill="none" stroke="#fefefe18" stroke-miterlimit="10" d="M2325.414,1184.545c23.13,214.476,325.511,228.135,292.698-21.778
	c-10.13-77.153-67.28-226.35-162.84-233.837C2346.844,920.506,2316.328,1109.452,2325.414,1184.545"/>
<path fill="none" stroke="#fefefe18" stroke-miterlimit="10" d="M2327.393,1184.545c-0.148-1.268-2.101-1.268-1.979,0"/>
<path fill="none" stroke="#fefefe18" stroke-miterlimit="10" d="M2327.393,1184.545c0.146,1.271-1.83,1.245-1.979,0"/>
<path fill="none" stroke="#fefefe18" stroke-miterlimit="10" d="M1962.987,1500c-151.026-108.934-279.23-198.626-470.028-206.879
	c-198.744-8.598-360.557-125.702-524.394-227.866c-56.942-35.508-126.555-96.63-197.068-63.121
	c-66.167,31.441-117.829,100.007-169.33,150.41c-49.331,48.28-132.319,116.767-47.827,171.924
	c76.596,50.002,146.087,110.211,210.001,175.532"/>
<path fill="none" stroke="#fefefe18" stroke-miterlimit="10" d="M1873.314,1500c-61.879-46.04-126.712-89.345-197.68-120.201
	c-72.311-31.44-146.011-16.616-216.955-38.906c-64.674-20.148-126.224-16.163-190.785-47.973
	c-81.561-40.144-154.765-94.391-233.421-139.541c-133.134-76.421-255.576-127.318-359.782,14.679
	C573.028,1306.589,735.394,1404.437,821.117,1500"/>
<path fill="none" stroke="#fefefe18" stroke-miterlimit="10" d="M1783.104,1500c-100.267-73.549-199.551-101.785-322.026-112.162
	c-122.783-10.402-216.167-47.381-316.44-118.824c-81.321-57.94-171.46-111.094-270.895-129.634
	c-47.136-8.788-97.406,11.451-128.815,46.89c-15.944,17.989-27.148,40.264-30.248,64.231c-3.738,28.905,3.878,44.857,20.293,67.146
	c24.28,32.968,127.575,165.662,142.725,182.353"/>
<path fill="none" stroke="#fefefe18" stroke-miterlimit="10" d="M2427.106,1210.066c16.347,48.342,97.909,52.319,75.213-15.512
	C2482.387,1134.673,2405.315,1145.623,2427.106,1210.066z"/>
<path fill="none" stroke="#fefefe18" stroke-miterlimit="10" d="M566.504,1500c-85.335-45.034-186.319-33.48-279.237-36.915
	c-98.151-3.582-194.245-21.97-287.267-53.27"/>
<path fill="none" stroke="#fefefe18" stroke-miterlimit="10" d="M566.504,1500"/>
<path fill="none" stroke="#fefefe18" stroke-miterlimit="10" d="M0,1409.815v1.292"/>
<path fill="none" stroke="#fefefe18" stroke-miterlimit="10" d="M2946.557,1500c16.846-21.313,34.4-42.018,53.443-61.28"/>
<path fill="none" stroke="#fefefe18" stroke-miterlimit="10" d="M2989.625,1500c3.417-4.785,6.859-9.522,10.375-14.232"/>
<path fill="none" stroke="#fefefe18" stroke-miterlimit="10" d="M424.085,1500c-139.464-5.251-288.179-29.901-424.085-56.445"/>
<path fill="none" stroke="#fefefe18" stroke-miterlimit="10" d="M0,1445.702c3.49,0.686,6.995,1.343,10.485,2.075"/>
<path fill="none" stroke="#fefefe18" stroke-miterlimit="10" d="M0,1443.555v2.147"/>
<path fill="none" stroke="#fefefe18" stroke-miterlimit="10" d="M118.517,1500C79.159,1488.68,40.01,1477.986,0,1469.093"/>
<path fill="none" stroke="#fefefe18" stroke-miterlimit="10" d="M0,1469.093v2.024"/>
</svg>
