<svg width="295" height="179" viewBox="0 0 295 179" fill="none" xmlns="http://www.w3.org/2000/svg">
<path d="M291.247 57.721C291.247 93.165 268.486 112.963 231.382 112.963H190.323H143.893V105.59C143.893 94.664 140.268 87.461 132.933 83.801H190.441H223.202C243.473 83.801 252.482 77.162 252.482 58.432C252.482 42.31 243.591 33.063 227.587 33.063H190.441V80.966H151.203V74.051V47.718V29.625C151.203 10.302 158.315 2.834 176.808 2.834H233.396C268.842 2.834 291.247 24.41 291.247 57.721ZM151.203 154.194C151.203 167.709 158.197 175.296 170.644 175.296C183.209 175.296 190.323 167.591 190.323 154.194V115.798H151.203V154.194Z" fill="white"/>
<path d="M118.535 83.778H79.491C79.48 83.778 79.47 83.779 79.458 83.779H78.228C67.261 83.779 61.404 88.888 61.404 98.236C61.404 107.708 67.385 112.942 78.228 112.942H104.044V143.176H75.74V143.169C53.927 143.169 41.954 128.351 41.954 101.322V77.104L41.968 58.432C41.968 42.31 50.859 33.063 66.863 33.063H148.368V29.625C148.368 15.513 152.302 6.905 161.076 2.834H61.055C25.61 2.834 3.204 24.409 3.204 57.721L2.834 75.206V101.44C2.834 147.554 29.27 175.294 74.199 175.294H115.377C133.87 175.294 140.982 167.825 140.982 148.503V115.434L141.058 115.428V105.589C141.059 90.535 134.183 83.778 118.535 83.778Z" fill="white"/>
</svg>
