<?xml version="1.0" encoding="utf-8"?>
<!-- Generator: Adobe Illustrator 16.0.0, SVG Export Plug-In . SVG Version: 6.00 Build 0)  -->
<!DOCTYPE svg PUBLIC "-//W3C//DTD SVG 1.1//EN" "http://www.w3.org/Graphics/SVG/1.1/DTD/svg11.dtd">
<svg version="1.1" id="Layer_1" xmlns="http://www.w3.org/2000/svg" xmlns:xlink="http://www.w3.org/1999/xlink" x="0px" y="0px"
	 width="294.082px" height="178.13px" viewBox="0 0 294.082 178.13" enable-background="new 0 0 294.082 178.13"
	 xml:space="preserve">
<path fill="#FFFFFF" d="M233.396,0h-56.588c-6.098,0-11.12,0.833-15.163,2.579L161.076,0H61.055C24.19,0,0.37,22.657,0.37,57.662
	L0,75.207v26.234c0,48.021,27.738,76.689,74.199,76.689h41.178c19.935,0,28.44-8.86,28.44-29.626V118.06l0.076-0.006v-2.256h4.475
	v38.396c0,14.988,8.328,23.937,22.276,23.937c14.097,0,22.514-8.948,22.514-23.937v-38.396h38.224c39.261,0,62.7-21.711,62.7-58.077
	C294.082,22.657,270.262,0,233.396,0z M132.933,80.966l-0.597,2.533c-3.699-1.7-8.285-2.557-13.801-2.557l-40.307,0.001
	c-12.494,0-19.659,6.303-19.659,17.292c0,10.983,7.349,17.541,19.659,17.541h22.982v24.564H78.79l0-0.007h-3.05
	c-25.582,0-30.951-21.215-30.951-39.012V77.106l0.014-18.674c0-14.742,7.628-22.534,22.06-22.534h81.505v45.068H132.933z
	 M223.202,80.966h-29.926V35.898h34.312c14.432,0,22.06,7.792,22.06,22.534C249.647,75.07,242.728,80.966,223.202,80.966z"/>
<path fill="#282425" d="M291.247,57.721c0,35.444-22.761,55.242-59.865,55.242h-41.059h-46.43v-7.373
	c0-10.926-3.625-18.129-10.96-21.789h57.508h32.761c20.271,0,29.28-6.639,29.28-25.369c0-16.122-8.891-25.369-24.895-25.369h-37.146
	v47.903h-39.238v-6.915V47.718V29.625c0-19.323,7.112-26.791,25.605-26.791h56.588C268.842,2.834,291.247,24.41,291.247,57.721z
	 M151.203,154.194c0,13.515,6.994,21.102,19.441,21.102c12.565,0,19.679-7.705,19.679-21.102v-38.396h-39.12V154.194z"/>
<path fill="#282425" d="M118.535,83.778H79.491c-0.011,0-0.021,0.001-0.033,0.001h-1.23c-10.967,0-16.824,5.109-16.824,14.457
	c0,9.472,5.981,14.706,16.824,14.706h25.816v30.234H75.74l0-0.007c-21.813,0-33.786-14.818-33.786-41.847V77.104l0.014-18.672
	c0-16.122,8.891-25.369,24.895-25.369h81.505v-3.438c0-14.112,3.934-22.72,12.708-26.791H61.055
	c-35.445,0-57.851,21.575-57.851,54.887l-0.37,17.485v26.234c0,46.114,26.436,73.854,71.365,73.854h41.178
	c18.493,0,25.605-7.469,25.605-26.791v-33.069l0.076-0.006v-9.839C141.059,90.535,134.183,83.778,118.535,83.778z"/>
</svg>
