<?xml version="1.0" standalone="no"?>
<!DOCTYPE svg PUBLIC "-//W3C//DTD SVG 1.1//EN" "http://www.w3.org/Graphics/SVG/1.1/DTD/svg11.dtd" >
<svg xmlns="http://www.w3.org/2000/svg" xmlns:xlink="http://www.w3.org/1999/xlink" version="1.1">
<metadata>
Created by FontForge 20170731 at Wed Nov  4 01:30:28 2020
 By Aleksey,,,
(c) 2015-2020 Apple Inc. All rights reserved.
</metadata>
<defs>
<font id="SFCompactRounded-Light" horiz-adv-x="1119" >
  <font-face 
    font-family="SF Compact Rounded"
    font-weight="300"
    font-stretch="normal"
    units-per-em="2048"
    panose-1="0 0 0 0 0 0 0 0 0 0"
    ascent="1638"
    descent="-410"
    x-height="1045"
    cap-height="1374"
    bbox="-374 -494 2338 1950"
    underline-thickness="50"
    underline-position="-150"
    unicode-range="U+0020-FFFD"
  />
<missing-glyph horiz-adv-x="2048" 
d="M100 1642v308h1848v-308h-1848zM100 1215v308h1848v-308h-1848zM100 788v308h1848v-308h-1848zM100 360v308h1848v-308h-1848zM100 -67v308h1848v-308h-1848zM100 -494v308h1848v-308h-1848z" />
    <glyph glyph-name=".notdef" horiz-adv-x="2048" 
d="M100 1642v308h1848v-308h-1848zM100 1215v308h1848v-308h-1848zM100 788v308h1848v-308h-1848zM100 360v308h1848v-308h-1848zM100 -67v308h1848v-308h-1848zM100 -494v308h1848v-308h-1848z" />
    <glyph glyph-name=".null" horiz-adv-x="0" 
 />
    <glyph glyph-name="nonmarkingreturn" horiz-adv-x="0" 
 />
    <glyph glyph-name="space" unicode=" " horiz-adv-x="414" 
 />
    <glyph glyph-name="exclam" unicode="!" horiz-adv-x="504" 
d="M190 515l-13 796q0 32 22.5 54.5t54.5 22.5t54.5 -22.5t21.5 -54.5l-14 -796q0 -27 -18 -46t-44 -19q-27 0 -45.5 19t-18.5 46zM151 83q0 42 29.5 71.5t71.5 29.5t71.5 -29.5t29.5 -71.5t-29.5 -71.5t-71.5 -29.5t-71.5 29.5t-29.5 71.5z" />
    <glyph glyph-name="quotedbl" unicode="&#x22;" horiz-adv-x="684" 
d="M441 989l-16 321q-2 27 17.5 46.5t48.5 19.5t48.5 -19.5t17.5 -46.5l-17 -321q-2 -20 -16 -34.5t-33 -14.5q-20 0 -34 14.5t-16 34.5zM143 989l-17 321q-2 27 17.5 46.5t48.5 19.5q28 0 48 -19.5t18 -46.5l-17 -321q-2 -20 -16 -34.5t-34 -14.5t-34 14.5t-14 34.5z" />
    <glyph glyph-name="numbersign" unicode="#" horiz-adv-x="1187" 
d="M629 57l71 342h-310l-76 -364q-4 -23 -20.5 -36.5t-37.5 -13.5q-23 0 -38 15.5t-15 39.5q0 9 2 17l71 342h-148q-32 0 -48 16.5t-15 42.5q0 25 16 40t47 15h171l70 348h-137q-32 0 -48 16.5t-16 42.5q0 25 16 40t48 15h161l71 348q4 20 20 32t36 12q24 0 40 -16t15 -39
q0 -12 -1 -15l-67 -322h310l71 347q5 21 21 33t36 12q23 0 39 -16t16 -39q0 -9 -2 -15l-66 -322h157q32 0 48 -15.5t16 -41.5q-2 -57 -64 -57h-181l-71 -348h148q32 0 48 -15.5t16 -41.5q0 -25 -16 -41t-48 -16h-171l-75 -364q-4 -23 -21 -36.5t-38 -13.5q-23 0 -38 15.5
t-14 39.5q0 3 0.5 9t0.5 8zM484 861l-71 -348h310l71 348h-310z" />
    <glyph glyph-name="dollar" unicode="$" 
d="M560 -183q-31 0 -48.5 18.5t-17.5 50.5v113q-178 17 -294 110q-54 42 -85.5 94t-31.5 97q0 31 17 49.5t44 18.5q20 0 33 -10t38 -46q63 -98 147.5 -145.5t205.5 -47.5q148 0 234 67.5t86 182.5q0 93 -58 147t-186 88l-217 57q-151 39 -232 129t-81 222q0 154 104.5 253
t283.5 112v100q0 32 17 50.5t48 18.5t48.5 -18.5t17.5 -50.5v-103q166 -20 272 -117q47 -41 75 -89.5t28 -92.5q0 -28 -16.5 -45t-43.5 -17q-22 0 -38.5 12.5t-38.5 45.5q-57 95 -133 140t-185 45q-137 0 -218.5 -65t-81.5 -173q0 -170 212 -226l212 -56q182 -47 267 -132.5
t85 -226.5q0 -159 -108.5 -261.5t-295.5 -118.5v-111q0 -32 -17 -50.5t-48 -18.5z" />
    <glyph glyph-name="percent" unicode="%" horiz-adv-x="1370" 
d="M35 1063v43q0 143 66 228t183 85t181 -84.5t64 -228.5v-43q0 -139 -64.5 -226t-184.5 -87q-116 0 -180.5 85t-64.5 228zM164 79l480 630l483 635q18 24 45 24q25 0 41 -16t17 -40q1 -20 -13 -40l-479 -630l-484 -637q-18 -23 -47 -23q-22 0 -38.5 15.5t-17.5 35.5
q-2 26 13 46zM171 1105v-41q0 -99 30 -151.5t81 -52.5t81 52.5t30 151.5v41q0 100 -29.5 152t-81.5 52t-81.5 -52t-29.5 -152zM841 301v43q0 142 66 227t183 85t181 -84.5t64 -227.5v-43q0 -140 -64.5 -226.5t-184.5 -86.5q-116 0 -180.5 85t-64.5 228zM977 343v-41
q0 -100 30 -152.5t81 -52.5t81 52.5t30 152.5v41q0 99 -30 151.5t-81 52.5t-81 -52.5t-30 -151.5z" />
    <glyph glyph-name="ampersand" unicode="&#x26;" horiz-adv-x="1285" 
d="M84 355q0 237 271 376l56 28q-95 100 -135.5 172.5t-40.5 148.5q0 129 96.5 213.5t238.5 84.5q145 0 239.5 -86t94.5 -216q0 -103 -69.5 -183.5t-228.5 -163.5l359 -389q71 127 74 389v30q0 31 19 51t48 20q28 0 46.5 -21t18.5 -53q0 -23 -1 -28q-2 -313 -113 -482
l149 -156q19 -21 19 -46q0 -28 -19.5 -47.5t-46.5 -19.5q-29 0 -52 23l-134 146q-88 -84 -204.5 -129.5t-236.5 -45.5q-195 0 -321.5 107t-126.5 277zM528 810q134 68 187.5 127t53.5 136q0 84 -55.5 138t-143.5 54q-87 0 -143 -54.5t-56 -138.5q0 -60 35 -117.5t122 -144.5
zM435 645q-108 -55 -159.5 -124t-51.5 -158q0 -120 88.5 -196.5t229.5 -76.5q97 0 191.5 39.5t155.5 106.5l-399 437z" />
    <glyph glyph-name="quotesingle" unicode="'" horiz-adv-x="385" 
d="M142 989l-16 321q-2 27 17 46.5t48 19.5t49 -19.5t18 -46.5l-18 -321q-1 -20 -15.5 -34.5t-33.5 -14.5q-20 0 -34 14.5t-15 34.5z" />
    <glyph glyph-name="parenleft" unicode="(" horiz-adv-x="651" 
d="M477 -281q-22 27 -47 64t-66 118.5t-71.5 172t-53.5 226.5t-23 280q0 137 23 267.5t54 218.5t71.5 167.5t65.5 116.5t47 63q27 34 55 34q18 0 31.5 -11.5t13.5 -30.5q0 -14 -21 -49q-35 -57 -66 -125.5t-64 -166.5t-53 -224t-20 -260q0 -143 19.5 -274.5t53 -232
t64.5 -170t66 -126.5q21 -37 21 -50q0 -19 -13.5 -30t-31.5 -11q-27 0 -55 33z" />
    <glyph glyph-name="parenright" unicode=")" horiz-adv-x="651" 
d="M173 -281q-26 -33 -54 -33q-19 0 -32.5 11t-13.5 30q0 10 21 50q35 57 66.5 126.5t64.5 170t52.5 232t19.5 274.5q0 134 -19.5 260t-52.5 224t-64.5 166.5t-66.5 125.5q-21 38 -21 49q0 19 13.5 30.5t32.5 11.5q28 0 54 -34q22 -26 47 -63t65.5 -116.5t71.5 -167.5
t54 -218.5t23 -267.5q0 -144 -23 -280t-53.5 -226.5t-71.5 -172t-66 -118.5t-47 -64z" />
    <glyph glyph-name="asterisk" unicode="*" horiz-adv-x="933" 
d="M511 730q0 -15 -13.5 -28t-31.5 -13q-19 0 -32 13.5t-12 31.5l6 258l-221 -135q-15 -8 -35 -5q-16 4 -26 21q-10 16 -5.5 34t19.5 26l230 126l-227 124q-16 8 -21 25.5t4 34.5q8 15 28 22q18 5 31 -4l224 -135l-7 256q-1 19 12 32.5t32 13.5q18 0 31.5 -13t13.5 -30
l-6 -259l221 135q14 8 31 3q19 -5 27 -23q10 -16 5.5 -33.5t-21.5 -25.5l-224 -123l229 -126q13 -7 17 -25.5t-5 -32.5q-8 -16 -25 -22q-18 -5 -34 5l-221 134z" />
    <glyph glyph-name="plus" unicode="+" 
d="M615 57q0 -23 -17 -39.5t-40 -16.5t-39.5 16.5t-16.5 39.5v429h-388q-23 0 -40 17t-17 40q0 24 17 41t40 17h388v406q0 23 16.5 39.5t39.5 16.5t40 -16.5t17 -39.5v-406h389q24 0 41 -17t17 -41q0 -23 -17 -40t-41 -17h-389v-429z" />
    <glyph glyph-name="comma" unicode="," horiz-adv-x="408" 
d="M102 -188l82 294q16 58 72 58q36 0 58 -30t7 -63l-118 -290q-14 -36 -51 -36q-26 0 -42 21t-8 46z" />
    <glyph glyph-name="hyphen" unicode="&#x2011;" horiz-adv-x="780" 
d="M47 562q0 60 70 60h549q70 0 70 -60q0 -29 -17.5 -46t-52.5 -17h-549q-35 0 -52.5 17t-17.5 46z" />
    <glyph glyph-name="hyphen" unicode="&#x2010;" horiz-adv-x="780" 
d="M47 562q0 60 70 60h549q70 0 70 -60q0 -29 -17.5 -46t-52.5 -17h-549q-35 0 -52.5 17t-17.5 46z" />
    <glyph glyph-name="hyphen" unicode="-" horiz-adv-x="780" 
d="M47 562q0 60 70 60h549q70 0 70 -60q0 -29 -17.5 -46t-52.5 -17h-549q-35 0 -52.5 17t-17.5 46z" />
    <glyph glyph-name="period" unicode="." horiz-adv-x="463" 
d="M127 83q0 42 30 71.5t71 29.5q42 0 72 -29.5t30 -71.5t-30 -71.5t-72 -29.5q-41 0 -71 29.5t-30 71.5z" />
    <glyph glyph-name="slash" unicode="/" horiz-adv-x="651" 
d="M154 -270q-5 -20 -21 -32t-38 -12q-26 0 -44.5 17t-18.5 42q0 7 3 22l461 1635q6 20 22 32.5t38 12.5q26 0 44.5 -17.5t18.5 -42.5q0 -10 -4 -22z" />
    <glyph glyph-name="zero" unicode="0" horiz-adv-x="1136" 
d="M97 653v56q0 315 125.5 499.5t345.5 184.5t345.5 -184.5t125.5 -499.5v-56q0 -315 -125.5 -499t-345.5 -184t-345.5 184t-125.5 499zM237 709v-56q0 -260 89.5 -409.5t241.5 -149.5t241.5 149.5t89.5 409.5v56q0 260 -90 410.5t-242 150.5q-151 0 -240.5 -150.5
t-89.5 -410.5z" />
    <glyph glyph-name="one" unicode="1" horiz-adv-x="790" 
d="M441 67v1138h-8l-217 -156q-30 -23 -58 -23q-23 0 -39.5 16.5t-16.5 39.5q0 35 50 72l225 165q69 52 112 52q40 0 65 -26t25 -68v-1210q0 -36 -18.5 -57t-51.5 -21q-31 0 -49.5 21t-18.5 57z" />
    <glyph glyph-name="two" unicode="2" horiz-adv-x="1097" 
d="M145 78q0 23 12.5 45t51.5 67l438 507q88 100 124.5 173.5t36.5 147.5q0 113 -75.5 182.5t-198.5 69.5q-108 0 -183 -63t-92 -169q-14 -69 -69 -69q-29 0 -47.5 21t-18.5 55q0 138 117 243t301 105q181 0 295 -103t114 -266q0 -95 -47 -183.5t-177 -238.5l-404 -467v-10
h597q32 0 51.5 -17t19.5 -45q0 -29 -19 -46t-52 -17h-673q-47 0 -74.5 20.5t-27.5 57.5z" />
    <glyph glyph-name="three" unicode="3" horiz-adv-x="1116" 
d="M105 288q0 28 17.5 46t44.5 18q23 0 39 -14t30 -48q32 -90 115.5 -143t199.5 -53q142 0 228.5 74.5t86.5 197.5t-88 199t-231 76h-132q-28 0 -47 18t-19 45t18.5 44.5t47.5 17.5h122q122 0 200 72.5t78 184.5q0 110 -76.5 178.5t-200.5 68.5q-101 0 -172 -51.5
t-94 -138.5q-22 -68 -71 -68q-28 0 -45 19.5t-17 50.5q0 125 114 218t289 93q183 0 299.5 -99t116.5 -255q0 -117 -76 -212t-184 -112v-8q133 -13 221.5 -111t88.5 -231q0 -175 -128.5 -285t-331.5 -110q-187 0 -315 97t-128 221z" />
    <glyph glyph-name="four" unicode="4" horiz-adv-x="1144" 
d="M757 63v236h-550q-50 0 -79.5 25t-29.5 64q0 41 43 118q156 276 494 776q37 54 68 75.5t73 21.5q55 0 85 -32t30 -91v-831h125q35 0 54.5 -16.5t19.5 -46.5q0 -29 -19.5 -46t-54.5 -17h-125v-236q0 -35 -17.5 -54.5t-50.5 -19.5q-66 0 -66 74zM236 425h521v813h-8
q-312 -457 -513 -805v-8z" />
    <glyph glyph-name="five" unicode="5" horiz-adv-x="1166" 
d="M147 282q0 31 16.5 50t44.5 19q41 0 67 -61q35 -88 109 -142t181 -54q144 0 237 94.5t93 240.5q0 142 -89 234t-228 92q-130 0 -224 -92q-50 -48 -71 -62t-44 -14q-72 0 -66 104l52 580q9 94 117 94h562q36 0 56 -16.5t20 -46.5q0 -29 -19.5 -45.5t-56.5 -16.5h-550
l-48 -492h8q37 54 117.5 92t174.5 38q189 0 310 -124t121 -318q0 -202 -131.5 -334t-334.5 -132q-97 0 -180 29.5t-134.5 76t-80.5 100.5t-29 106z" />
    <glyph glyph-name="six" unicode="6" horiz-adv-x="1115" 
d="M97 640q0 363 130.5 557t372.5 194q176 0 296 -100q42 -30 67 -65.5t25 -64.5q0 -26 -17.5 -44t-43.5 -18q-32 0 -72 41q-106 128 -258 128q-176 0 -268.5 -156t-95.5 -462h7q35 98 136 161.5t222 63.5q190 0 312 -126t122 -321q0 -203 -126.5 -330t-329.5 -127
q-121 0 -216.5 48.5t-156.5 140.5q-106 161 -106 480zM257 428q0 -146 91.5 -239.5t233.5 -93.5q139 0 225 90t86 236q0 147 -87.5 238.5t-229.5 91.5q-139 0 -229 -91.5t-90 -231.5z" />
    <glyph glyph-name="seven" unicode="7" horiz-adv-x="1068" 
d="M268 47q0 23 15 51l525 1131v10h-647q-38 0 -57 17t-19 45t19.5 45.5t56.5 17.5h718q33 0 56 -22t23 -58q0 -32 -30 -100l-528 -1147q-23 -53 -69 -53q-26 0 -44.5 17.5t-18.5 45.5z" />
    <glyph glyph-name="eight" unicode="8" horiz-adv-x="1155" 
d="M574 -30q-205 0 -335.5 112t-130.5 287q0 125 78.5 222t202.5 125v9q-101 30 -164.5 115.5t-63.5 190.5q0 158 118 260t299 102q182 0 300 -102.5t118 -259.5q0 -104 -64.5 -190t-164.5 -116v-9q122 -27 201 -124.5t79 -221.5q0 -175 -133.5 -287.5t-339.5 -112.5z
M578 774q123 0 202 70t79 179t-78 178t-203 69q-124 0 -202.5 -69t-78.5 -178q0 -108 79.5 -178.5t201.5 -70.5zM578 92q146 0 240 79.5t94 202.5q0 122 -94.5 201.5t-239.5 79.5t-239.5 -79.5t-94.5 -201.5q0 -123 94 -202.5t240 -79.5z" />
    <glyph glyph-name="nine" unicode="9" horiz-adv-x="1115" 
d="M137 211q0 27 17 44t44 17q31 0 73 -45q104 -131 259 -131q358 0 358 614h-7q-40 -109 -132.5 -169.5t-218.5 -60.5q-192 0 -313 127.5t-121 329.5q0 205 127 331.5t333 126.5q230 0 349 -175t119 -514q0 -733 -493 -733q-171 0 -290 86q-46 33 -75 75.5t-29 76.5z
M861 926q0 152 -87 248.5t-227 96.5q-138 0 -225 -94t-87 -243q0 -148 87 -238.5t228 -90.5q137 0 224 89.5t87 231.5z" />
    <glyph glyph-name="colon" unicode=":" horiz-adv-x="495" 
d="M147 809q0 42 29.5 71.5t71.5 29.5t71.5 -29.5t29.5 -71.5t-29.5 -71.5t-71.5 -29.5t-71.5 29.5t-29.5 71.5zM147 88q0 41 29.5 71t71.5 30t71.5 -30t29.5 -71q0 -42 -29.5 -71.5t-71.5 -29.5t-71.5 29.5t-29.5 71.5z" />
    <glyph glyph-name="semicolon" unicode=";" horiz-adv-x="498" 
d="M147 809q0 42 29.5 71.5t71.5 29.5t71.5 -29.5t29.5 -71.5t-29.5 -71.5t-71.5 -29.5t-71.5 29.5t-29.5 71.5zM101 -182l81 288q16 58 72 58q36 0 58 -29.5t7 -63.5l-117 -284q-14 -36 -50 -36q-26 0 -42 21t-9 46z" />
    <glyph glyph-name="less" unicode="&#x3c;" 
d="M154 583l741 452q26 12 44 11q27 0 43.5 -17t16.5 -43q0 -37 -39 -58l-675 -407v-6l675 -400q39 -23 39 -59q0 -26 -16.5 -42.5t-43.5 -17.5q-20 -1 -44 12l-741 444q-43 26 -43 65q0 40 43 66z" />
    <glyph glyph-name="equal" unicode="=" 
d="M140 724q0 26 16 41.5t48 15.5h711q32 0 48 -15.5t16 -41.5t-16 -41.5t-48 -15.5h-711q-32 0 -48 15.5t-16 41.5zM140 367q0 26 16 41.5t48 15.5h711q32 0 48 -15.5t16 -41.5t-16 -41.5t-48 -15.5h-711q-32 0 -48 15.5t-16 41.5z" />
    <glyph glyph-name="greater" unicode="&#x3e;" 
d="M965 583q43 -26 43 -66q0 -39 -43 -65l-741 -444q-24 -13 -45 -12q-26 1 -43 17.5t-17 42.5q0 36 40 59l675 400v6l-676 407q-39 22 -39 58q0 26 17 43t43 17q19 1 45 -11z" />
    <glyph glyph-name="question" unicode="?" horiz-adv-x="926" 
d="M358 484q0 102 37.5 167t154.5 159q88 70 122 123.5t34 127.5q0 92 -68.5 151.5t-175.5 59.5q-200 0 -269 -191q-14 -34 -28.5 -47.5t-38.5 -13.5q-27 0 -42.5 17.5t-15.5 46.5q0 58 31.5 118t87.5 106q102 85 273 85q172 0 280 -92t108 -241q0 -94 -45 -167.5
t-150 -158.5q-94 -75 -122.5 -121.5t-34.5 -127.5q-6 -75 -69 -75q-31 0 -50 20t-19 54zM330 83q0 42 30 71.5t71 29.5q42 0 72 -29.5t30 -71.5t-30 -71.5t-72 -29.5q-41 0 -71 29.5t-30 71.5z" />
    <glyph glyph-name="at" unicode="@" horiz-adv-x="1656" 
d="M853 -261h-8q-340 0 -544 201t-204 542v57q0 169 55 311.5t153.5 242t238 155.5t304.5 56h8q156 0 290.5 -51t227.5 -140t146 -212.5t53 -265.5v-51q0 -199 -93.5 -320t-239.5 -121q-88 0 -151 39t-73 102h-9q-14 -54 -77 -97.5t-142 -43.5q-118 0 -188 85.5t-70 237.5
v89q0 147 71 233t195 86q74 0 128 -38.5t71 -91.5h7v45q0 31 15.5 48t43.5 17t43.5 -17.5t15.5 -47.5v-412q0 -64 38 -98t98 -34q90 0 145.5 92.5t55.5 256.5v37q0 246 -167.5 406.5t-433.5 160.5h-8q-281 0 -456.5 -183.5t-175.5 -481.5v-45q0 -295 172.5 -469.5
t456.5 -174.5h8q44 0 95.5 5t98 12t60.5 8q22 1 37 -11.5t15 -33.5q0 -48 -54 -61q-104 -24 -252 -24zM653 481q0 -112 46 -171t128 -59q80 0 127 56t47 162v90q0 95 -47.5 154.5t-128.5 59.5q-80 0 -126 -59.5t-46 -163.5v-69z" />
    <glyph glyph-name="A" unicode="A" horiz-adv-x="1188" 
d="M124 -13q-30 0 -48 16.5t-18 44.5q0 24 9 49l430 1198q15 41 37.5 60t59.5 19q36 0 59 -19t38 -60l429 -1198q10 -28 10 -49q0 -28 -18.5 -44.5t-48.5 -16.5q-29 0 -46.5 15t-29.5 50l-129 378h-529l-129 -378q-11 -35 -29 -50t-47 -15zM369 545h449l-221 647h-6z" />
    <glyph glyph-name="B" unicode="B" horiz-adv-x="1214" 
d="M173 126v1111q0 68 32 97.5t105 29.5h350q175 0 277.5 -90t102.5 -245q0 -115 -58 -195t-162 -111v-6q140 -19 219 -108t79 -230q0 -178 -124.5 -278.5t-344.5 -100.5h-339q-73 0 -105 29t-32 97zM313 765h245q340 0 340 240q0 110 -68 170.5t-190 60.5h-327v-471z
M313 128h272q204 0 297 59.5t93 187.5q0 124 -82 193.5t-228 69.5h-352v-510z" />
    <glyph glyph-name="C" unicode="C" horiz-adv-x="1243" 
d="M119 567v229q0 282 137.5 439.5t384.5 157.5q239 0 380 -147q50 -51 80.5 -112t30.5 -106q0 -31 -17 -48.5t-45 -17.5q-25 0 -42.5 13.5t-33.5 48.5q-106 242 -349 242q-184 0 -285 -122.5t-101 -346.5v-231q0 -224 101.5 -346t287.5 -122q123 0 213.5 60.5t138.5 177.5
q16 33 31.5 46.5t39.5 13.5q30 0 47 -17t17 -47q0 -48 -30.5 -108.5t-81.5 -111.5q-142 -142 -380 -142q-249 0 -386.5 156.5t-137.5 440.5z" />
    <glyph glyph-name="D" unicode="D" horiz-adv-x="1287" 
d="M173 126v1111q0 68 32 97.5t105 29.5h275q296 0 448.5 -173t152.5 -509q0 -337 -152 -509.5t-449 -172.5h-275q-73 0 -105 29t-32 97zM313 128h270q461 0 461 554q0 555 -461 555h-270v-1109z" />
    <glyph glyph-name="E" unicode="E" horiz-adv-x="1093" 
d="M173 126v1111q0 68 32 97.5t105 29.5h598q35 0 55 -17.5t20 -47.5q0 -29 -20 -46t-55 -17h-595v-475h559q34 0 54.5 -17.5t20.5 -46.5t-20 -46t-55 -17h-559v-506h594q35 0 55 -17.5t20 -47.5q0 -29 -20 -46t-55 -17h-597q-73 0 -105 29t-32 97z" />
    <glyph glyph-name="F" unicode="F" horiz-adv-x="1027" 
d="M242 -10q-32 0 -50.5 21t-18.5 56v1170q0 68 32 97.5t105 29.5h585q35 0 55 -17.5t20 -47.5q0 -29 -20 -46t-55 -17h-582v-499h529q35 0 55 -17.5t20 -47.5q0 -29 -20 -46t-55 -17h-529v-542q0 -35 -19.5 -56t-51.5 -21z" />
    <glyph glyph-name="G" unicode="G" horiz-adv-x="1267" 
d="M119 567v230q0 282 137.5 439t384.5 157q242 0 380 -147q49 -52 80 -113t31 -105q0 -31 -17 -48.5t-45 -17.5q-25 0 -42 14t-34 48q-105 242 -347 242q-184 0 -286 -123t-102 -346v-231q0 -220 106.5 -344t294.5 -124q157 0 254 87.5t97 231.5v151h-308q-35 0 -55 17
t-20 46q0 30 20 47t55 17h338q55 0 81 -26.5t26 -82.5v-169q0 -193 -139.5 -320t-351.5 -127q-253 0 -395.5 158.5t-142.5 438.5z" />
    <glyph glyph-name="H" unicode="H" horiz-adv-x="1352" 
d="M1109 -10q-32 0 -51 21t-19 56v578h-726v-578q0 -35 -19.5 -56t-51.5 -21t-50.5 21t-18.5 56v1230q0 35 18.5 56t50.5 21t51.5 -21t19.5 -56v-524h726v524q0 35 19 56t51 21t51 -21t19 -56v-1230q0 -35 -19 -56t-51 -21z" />
    <glyph glyph-name="I" unicode="I" horiz-adv-x="493" 
d="M246 -10q-32 0 -50.5 21t-18.5 56v1230q0 35 18.5 56t50.5 21t51 -21t19 -56v-1230q0 -35 -19 -56t-51 -21z" />
    <glyph glyph-name="J" unicode="J" horiz-adv-x="944" 
d="M638 1298q0 36 19 57t51 21t51 -21t19 -57v-923q0 -187 -100 -294.5t-273 -107.5q-185 0 -289 109q-74 76 -74 161q0 32 15.5 50.5t43.5 18.5q22 0 36.5 -13.5t29.5 -47.5q29 -73 89 -112t143 -39q113 0 176 71t63 198v929z" />
    <glyph glyph-name="K" unicode="K" horiz-adv-x="1163" 
d="M1023 -5q-40 0 -80 57l-449 632l-181 -188v-429q0 -35 -19.5 -56t-51.5 -21t-50.5 21t-18.5 56v1230q0 35 18.5 56t50.5 21t51.5 -21t19.5 -56v-617h5l605 643q42 46 73 46q27 0 45 -18t18 -44t-41 -69l-420 -457l456 -633q42 -56 42 -83q0 -31 -20.5 -50.5t-52.5 -19.5z
" />
    <glyph glyph-name="L" unicode="L" horiz-adv-x="991" 
d="M969 63q0 -29 -20 -46t-54 -17h-585q-73 0 -105 29t-32 97v1171q0 35 18.5 56t50.5 21t51.5 -21t19.5 -56v-1170h582q34 0 54 -17t20 -47z" />
    <glyph glyph-name="M" unicode="M" horiz-adv-x="1576" 
d="M241 -10q-64 0 -64 77v1217q0 44 19.5 67.5t55.5 23.5q33 0 51 -17.5t42 -73.5l441 -1031h5l441 1031q24 56 42 73.5t51 17.5q36 0 55.5 -23.5t19.5 -67.5v-1217q0 -77 -64 -77q-63 0 -63 77v992h-8l-374 -862q-23 -53 -45.5 -73.5t-57.5 -20.5q-34 0 -56.5 20.5
t-45.5 73.5l-374 862h-8v-992q0 -77 -63 -77z" />
    <glyph glyph-name="N" unicode="N" horiz-adv-x="1352" 
d="M313 67q0 -35 -18.5 -56t-50.5 -21t-50 20.5t-18 56.5v1210q0 96 82 96q31 0 53.5 -20.5t50.5 -65.5l670 -1048h7v1058q0 36 18 56.5t50 20.5t50.5 -21t18.5 -56v-1210q0 -96 -80 -96q-31 0 -52.5 16.5t-49.5 60.5l-675 1056h-6v-1057z" />
    <glyph glyph-name="O" unicode="O" horiz-adv-x="1308" 
d="M119 569v215q0 282 144 445.5t391 163.5q248 0 391.5 -163.5t143.5 -446.5v-214q0 -279 -143.5 -439t-391.5 -160q-251 0 -393 159.5t-142 439.5zM259 785v-218q0 -218 106 -343.5t289 -125.5t289 125.5t106 343.5v218q0 221 -106.5 351t-288.5 130t-288.5 -130
t-106.5 -351z" />
    <glyph glyph-name="P" unicode="P" horiz-adv-x="1141" 
d="M242 -10q-32 0 -50.5 21t-18.5 56v1170q0 68 32 97.5t105 29.5h339q194 0 311 -114t117 -302t-116.5 -300.5t-311.5 -112.5h-336v-468q0 -35 -19.5 -56t-51.5 -21zM313 661h242q203 0 291 66.5t88 220.5q0 137 -76.5 213t-213.5 76h-331v-576z" />
    <glyph glyph-name="Q" unicode="Q" horiz-adv-x="1308" 
d="M1070 -148q-43 0 -80 51l-88 120q-111 -53 -248 -53q-252 0 -393.5 159.5t-141.5 439.5v215q0 282 144 445.5t391 163.5q245 0 390.5 -164.5t145.5 -445.5v-214q0 -317 -179 -472l85 -117q32 -43 32 -68q0 -24 -16 -42t-42 -18zM259 567q0 -218 106 -343.5t289 -125.5
q91 0 167 35l-78 106q-35 47 -35 75q0 26 18 44t45 18q37 0 73 -50l85 -118q121 126 121 359v218q0 218 -111 349.5t-285 131.5q-182 0 -288.5 -130t-106.5 -351v-218z" />
    <glyph glyph-name="R" unicode="R" horiz-adv-x="1200" 
d="M313 67q0 -35 -19.5 -56t-51.5 -21t-50.5 21t-18.5 56v1170q0 68 32 97.5t105 29.5h338q196 0 311.5 -108.5t115.5 -292.5q0 -135 -70.5 -235t-192.5 -139l248 -475q13 -26 13 -55q0 -27 -19.5 -45t-48.5 -18q-25 0 -43 14.5t-35 48.5l-255 501h-359v-493zM313 687h311
q148 0 227.5 70.5t79.5 200.5q0 132 -79.5 205.5t-221.5 73.5h-317v-550z" />
    <glyph glyph-name="S" unicode="S" horiz-adv-x="1148" 
d="M94 282q0 31 17.5 50t45.5 19q26 0 46 -15.5t43 -53.5q97 -184 341 -184q150 0 238 66.5t88 180.5q0 95 -59.5 155.5t-189.5 95.5l-220 60q-322 88 -322 354q0 172 125.5 277.5t330.5 105.5t334 -107q111 -94 111 -201q0 -29 -17 -47t-45 -18q-52 0 -69 50
q-28 90 -112.5 143t-198.5 53q-142 0 -227 -67t-85 -180q0 -171 214 -229l215 -60q188 -52 272.5 -139.5t84.5 -230.5q0 -180 -129 -285t-348 -105q-233 0 -363 111q-57 48 -89 101t-32 100z" />
    <glyph glyph-name="T" unicode="T" horiz-adv-x="1045" 
d="M522 -10q-32 0 -50.5 21t-18.5 56v1169h-363q-34 0 -54 17t-20 46q0 30 20 47.5t54 17.5h865q35 0 55 -17.5t20 -47.5q0 -29 -20 -46t-55 -17h-363v-1169q0 -35 -19 -56t-51 -21z" />
    <glyph glyph-name="U" unicode="U" horiz-adv-x="1326" 
d="M1169 473q0 -227 -139 -365t-367 -138q-237 0 -371.5 137.5t-134.5 368.5v821q0 35 19 56t51 21t51 -21t19 -56v-824q0 -173 99 -274t267 -101q169 0 267.5 101t98.5 274v824q0 35 19 56t51 21t51 -21t19 -56v-824z" />
    <glyph glyph-name="V" unicode="V" horiz-adv-x="1191" 
d="M598 180l388 1129q24 69 76 69q30 0 51 -18t21 -47q0 -23 -13 -60l-428 -1172q-18 -49 -40.5 -70.5t-57.5 -21.5q-36 0 -59 21.5t-41 70.5l-426 1172q-12 38 -12 60q0 29 21 47t52 18q51 0 74 -69l387 -1129h7z" />
    <glyph glyph-name="W" unicode="W" horiz-adv-x="1673" 
d="M374 91l-316 1160q-7 24 -7 51q0 33 21.5 54.5t55.5 21.5q59 0 79 -86l255 -1075h8l273 1069q23 90 94 90q38 0 60.5 -22t33.5 -68l272 -1069h8l256 1075q20 86 79 86q34 0 55.5 -21.5t21.5 -54.5q0 -27 -7 -51l-316 -1160q-16 -56 -34 -75.5t-53 -19.5q-36 0 -57 21.5
t-34 73.5l-281 1045h-8l-281 -1045q-13 -52 -34 -73.5t-57 -21.5q-35 0 -53.5 20t-33.5 75z" />
    <glyph glyph-name="X" unicode="X" horiz-adv-x="1122" 
d="M65 55q0 21 31 68l378 563l-371 558q-30 43 -30 69q0 29 20.5 47t54.5 18q23 0 39 -12.5t39 -48.5l338 -520h8l340 520q24 36 39 48.5t36 12.5q31 0 51 -18t20 -47q0 -21 -31 -68l-383 -570l383 -551q30 -43 30 -69q0 -29 -21 -47t-55 -18q-22 0 -37.5 12.5t-39.5 48.5
l-345 515h-8l-340 -515q-24 -37 -39 -49t-36 -12q-32 0 -51.5 18t-19.5 47z" />
    <glyph glyph-name="Y" unicode="Y" horiz-adv-x="1082" 
d="M541 -10q-32 0 -51 21t-19 56v538l-390 639q-29 48 -29 69q0 29 18.5 47t47.5 18q23 0 39.5 -13t37.5 -48l343 -575h6l343 575q21 35 37.5 48t39.5 13q30 0 48 -18t18 -47q0 -21 -29 -69l-390 -638v-539q0 -35 -19 -56t-51 -21z" />
    <glyph glyph-name="Z" unicode="Z" horiz-adv-x="1144" 
d="M86 74q0 19 14 45.5t64 99.5l690 1007v10h-678q-34 0 -54 17.5t-20 46.5q0 30 20 47t55 17h774q34 0 54 -18.5t20 -50.5q0 -21 -14.5 -49t-63.5 -103l-683 -1006v-9h713q34 0 54 -17.5t20 -47.5q0 -29 -20 -46t-55 -17h-813q-35 0 -56 20.5t-21 53.5z" />
    <glyph glyph-name="bracketleft" unicode="[" horiz-adv-x="651" 
d="M199 -208v1549q0 50 26 73t79 23h260q26 0 41.5 -16.5t15.5 -39.5t-15.5 -39.5t-41.5 -16.5h-233v-1517h233q26 0 41.5 -16.5t15.5 -39.5t-15.5 -39.5t-41.5 -16.5h-260q-54 0 -79.5 22.5t-25.5 73.5z" />
    <glyph glyph-name="backslash" unicode="\" horiz-adv-x="651" 
d="M496 -270l-461 1635q-3 18 -3 22q0 25 18.5 42.5t44.5 17.5q22 0 38 -12.5t21 -32.5l461 -1635q4 -10 4 -22q0 -25 -18.5 -42t-44.5 -17q-47 0 -60 44z" />
    <glyph glyph-name="bracketright" unicode="]" horiz-adv-x="651" 
d="M30 -248q0 24 15 40t42 16h232v1517h-232q-27 0 -42 16t-15 40t15 40t42 16h260q53 0 79 -23t26 -73v-1549q0 -51 -25.5 -73.5t-79.5 -22.5h-260q-27 0 -42 16t-15 40z" />
    <glyph glyph-name="asciicircum" unicode="^" horiz-adv-x="741" 
d="M458 1309l202 -461q8 -19 8 -30q1 -22 -15 -38.5t-40 -16.5q-36 0 -51 35l-191 450h-3l-192 -451q-14 -34 -52 -34q-23 0 -38.5 16t-13.5 39q0 17 9 33l202 458q25 58 86 58q30 0 54 -16.5t35 -41.5z" />
    <glyph glyph-name="underscore" unicode="_" horiz-adv-x="843" 
d="M-73 -163q0 25 17.5 40t52.5 15h849q35 0 52.5 -15t17.5 -40q0 -56 -70 -56h-849q-70 0 -70 56z" />
    <glyph glyph-name="grave" unicode="`" horiz-adv-x="910" 
d="M472 1208l-148 173q-14 17 -14 39q0 25 18 42.5t42 17.5q33 0 53 -30l122 -184q11 -18 11 -29q0 -19 -14 -33t-33 -14q-21 0 -37 18z" />
    <glyph glyph-name="a" unicode="a" horiz-adv-x="1039" 
d="M750 148q-44 -78 -126 -122t-185 -44q-153 0 -247 88t-94 231q0 142 96.5 223.5t266.5 81.5h291v115q0 108 -63.5 164.5t-184.5 56.5q-73 0 -127.5 -28.5t-100.5 -89.5q-27 -35 -67 -35q-25 0 -40 15.5t-15 41.5q0 42 32 84.5t89 76.5q93 56 237 56q182 0 280 -87.5
t98 -250.5v-657q0 -36 -18 -56.5t-49 -20.5t-49 20.5t-18 56.5v80h-6zM241 304q0 -90 63.5 -145.5t167.5 -55.5q119 0 199.5 73t80.5 181v129h-288q-107 0 -165 -47t-58 -135z" />
    <glyph glyph-name="b" unicode="b" horiz-adv-x="1151" 
d="M621 -18q-117 0 -201 51t-119 132h-7v-97q0 -37 -17 -57t-49 -20q-31 0 -48 20t-17 57v1297q0 36 18 56.5t50 20.5t51 -21t19 -56v-495h7q22 79 109 136t209 57q183 0 292.5 -120t109.5 -323v-194q0 -206 -111.5 -325t-295.5 -119zM301 422q0 -137 85 -226.5t218 -89.5
q132 0 208 91.5t76 259.5v125q0 168 -77 262.5t-211 94.5q-138 0 -218.5 -91.5t-80.5 -241.5v-184z" />
    <glyph glyph-name="c" unicode="c" horiz-adv-x="1036" 
d="M117 432v183q0 206 112.5 327t310.5 121q143 0 246 -64q55 -34 92 -81.5t37 -92.5q0 -29 -16 -48t-45 -19q-19 0 -34.5 9t-22.5 18t-19 26q-86 127 -238 127q-136 0 -210 -90t-74 -242v-166q0 -152 74 -242t212 -90q153 0 239 124q37 53 75 53q25 0 43 -17t18 -49
q0 -45 -36 -92.5t-94 -82.5q-104 -62 -242 -62q-202 0 -315 120.5t-113 329.5z" />
    <glyph glyph-name="d" unicode="d" horiz-adv-x="1148" 
d="M843 176q-22 -78 -111 -136t-212 -58q-182 0 -292.5 118t-110.5 314v216q0 198 113 315.5t294 117.5q117 0 199.5 -51.5t113.5 -131.5h7v485q0 35 18.5 56t50.5 21t50.5 -21t18.5 -56v-1297q0 -37 -17 -57t-49 -20q-31 0 -48 20t-17 57v108h-8zM257 450q0 -162 77.5 -253
t211.5 -91q136 0 217 91t81 237v193q0 135 -85.5 223.5t-217.5 88.5q-130 0 -207 -90.5t-77 -253.5v-145z" />
    <glyph glyph-name="e" unicode="e" horiz-adv-x="1072" 
d="M117 441v159q0 209 118.5 336t307.5 127q184 0 300 -123.5t116 -324.5q0 -72 -17 -98.5t-63 -26.5h-623v-57q0 -153 82.5 -240t225.5 -87q137 0 233 100q34 34 48 43t32 9q24 0 40 -17.5t16 -43.5q0 -22 -15.5 -51.5t-40.5 -54.5q-48 -51 -133 -80t-186 -29
q-206 0 -323.5 122t-117.5 337zM256 610h564v3q0 151 -75 239.5t-202 88.5q-129 0 -208 -90t-79 -238v-3z" />
    <glyph glyph-name="f" unicode="f" horiz-adv-x="655" 
d="M356 67q0 -36 -18.5 -56.5t-50.5 -20.5t-50.5 20.5t-18.5 56.5v859h-104q-30 0 -48 16t-18 44t17.5 43.5t48.5 15.5h104v112q0 145 70.5 215.5t213.5 70.5q79 0 115 -26q27 -21 27 -50q0 -24 -14.5 -39t-39.5 -15q-17 0 -46.5 4t-54.5 4q-68 0 -100.5 -37.5t-32.5 -118.5
v-120h174q30 0 48 -16t18 -44q0 -27 -18 -43t-48 -16h-174v-859z" />
    <glyph glyph-name="g" unicode="g" horiz-adv-x="1147" 
d="M836 192q-32 -72 -111.5 -124.5t-196.5 -52.5q-175 0 -293 118t-118 315v179q0 100 33 183.5t89 138t130 84.5t158 30q120 0 203 -56t113 -129h7v99q0 38 17.5 57.5t47.5 19.5t48 -19.5t18 -57.5v-956q0 -199 -115.5 -303t-312.5 -104q-174 0 -289 76q-48 31 -77.5 70
t-29.5 75q0 27 16.5 44t43.5 17q11 0 19.5 -2.5t17.5 -9t14 -10.5t15.5 -15.5t14.5 -15.5q95 -105 249 -105q139 0 218 74.5t79 202.5v177h-8zM257 480q0 -154 84 -248t216 -94q133 0 209.5 92.5t76.5 220.5v169q0 133 -78.5 226t-212.5 93q-131 0 -213 -93.5t-82 -250.5
v-115z" />
    <glyph glyph-name="h" unicode="h" horiz-adv-x="1137" 
d="M992 67q0 -35 -19 -56t-51 -21t-50 20.5t-18 56.5v603q0 127 -67 198t-187 71q-136 0 -218 -93.5t-82 -250.5v-528q0 -36 -18.5 -56.5t-50.5 -20.5t-50.5 20.5t-18.5 56.5v1298q0 35 18.5 56t50.5 21t50.5 -21t18.5 -56v-515h7q28 95 120 154t211 59q164 0 259 -94.5
t95 -257.5v-644z" />
    <glyph glyph-name="i" unicode="i" horiz-adv-x="477" 
d="M142 1311q0 41 27.5 68t67.5 27q42 0 70 -27t28 -68t-28 -69t-70 -28q-39 0 -67 28t-28 69zM307 67q0 -38 -19 -57.5t-50 -19.5t-50 20t-19 57v911q0 37 19.5 57t50.5 20q30 0 49 -20t19 -57v-911z" />
    <glyph glyph-name="j" unicode="j" horiz-adv-x="477" 
d="M142 1311q0 40 27.5 67.5t67.5 27.5q42 0 70 -27t28 -68t-28 -69t-70 -28q-40 0 -67.5 28t-27.5 69zM53 -361q-59 0 -87 17q-28 15 -28 46q0 26 17 41t47 15q5 0 22.5 -1t23.5 -1q65 0 93 47.5t28 160.5v1014q0 36 18.5 56.5t50.5 20.5t50.5 -21t18.5 -56v-1055
q0 -140 -65 -212t-189 -72z" />
    <glyph glyph-name="k" unicode="k" horiz-adv-x="962" 
d="M301 67q0 -36 -19 -56.5t-51 -20.5t-50 20.5t-18 56.5v1298q0 36 18 56.5t50 20.5t51 -21t19 -56v-798h5l463 458q37 38 67 38q25 0 41 -16.5t16 -41.5q0 -29 -31 -60l-338 -338l376 -486q25 -32 25 -61q0 -25 -19 -44.5t-45 -19.5q-32 0 -66 44l-369 476l-125 -117v-332
z" />
    <glyph glyph-name="l" unicode="l" horiz-adv-x="474" 
d="M237 -10q-31 0 -50 19.5t-19 57.5v1298q0 38 19 57.5t50 19.5t50 -19.5t19 -57.5v-1298q0 -38 -19 -57.5t-50 -19.5z" />
    <glyph glyph-name="m" unicode="m" horiz-adv-x="1711" 
d="M1556 67q0 -36 -18.5 -56.5t-50.5 -20.5t-50.5 20.5t-18.5 56.5v632q0 115 -63.5 177.5t-173.5 62.5q-112 0 -183 -75t-71 -187v-610q0 -36 -19 -56.5t-51 -20.5t-50 20.5t-18 56.5v625q0 115 -66 181t-176 66q-112 0 -181 -74.5t-69 -190.5v-607q0 -36 -18.5 -56.5
t-50.5 -20.5t-50.5 20.5t-18.5 56.5v910q0 36 19 57t51 21t50 -21t18 -57v-100h8q28 84 102 135t183 51q113 0 191.5 -55t104.5 -148h7q36 92 119 147.5t200 55.5q162 0 253 -86t91 -243v-667z" />
    <glyph glyph-name="n" unicode="n" horiz-adv-x="1134" 
d="M987 67q0 -36 -19 -56.5t-51 -20.5t-50.5 20.5t-18.5 56.5v604q0 128 -64.5 198t-184.5 70q-140 0 -220.5 -93.5t-80.5 -250.5v-528q0 -36 -18.5 -56.5t-50.5 -20.5t-50.5 20.5t-18.5 56.5v910q0 36 19 57t51 21q31 0 49.5 -21t18.5 -57v-127h7q32 99 116 156t209 57
q167 0 262 -92.5t95 -258.5v-645z" />
    <glyph glyph-name="o" unicode="o" horiz-adv-x="1113" 
d="M557 1063q192 0 315.5 -122t123.5 -336v-165q0 -214 -123.5 -336t-315.5 -122q-193 0 -316.5 122t-123.5 336v165q0 215 123.5 336.5t316.5 121.5zM557 939q-136 0 -218 -94.5t-82 -254.5v-135q0 -162 82 -255.5t218 -93.5q137 0 218.5 93t81.5 256v135q0 160 -82 254.5
t-218 94.5z" />
    <glyph glyph-name="p" unicode="p" horiz-adv-x="1142" 
d="M301 -299q0 -35 -19 -56t-51 -21t-50 20.5t-18 56.5v1276q0 37 17 57.5t48 20.5t48.5 -20.5t17.5 -57.5v-107h7q30 82 116 137.5t207 55.5q183 0 292 -120t109 -323v-194q0 -206 -111.5 -325t-295.5 -119q-115 0 -195 50.5t-115 132.5h-7v-464zM301 418q0 -137 83 -224.5
t216 -87.5t210 92t77 261v128q0 168 -77 260t-214 92t-216 -89.5t-79 -238.5v-193z" />
    <glyph glyph-name="q" unicode="q" horiz-adv-x="1150" 
d="M910 -376q-31 0 -49.5 21t-18.5 56v467h-8q-32 -80 -116 -133t-202 -53q-181 0 -290 119.5t-109 321.5v199q0 201 111.5 321t290.5 120q118 0 202.5 -53t119.5 -138h7v105q0 37 17.5 57.5t48.5 20.5t48.5 -20.5t17.5 -57.5v-1276q0 -35 -19 -56t-51 -21zM255 450
q0 -163 77.5 -253.5t212.5 -90.5q137 0 217 90t80 238v194q0 135 -84 223t-216 88q-130 0 -208.5 -91t-78.5 -253v-145z" />
    <glyph glyph-name="r" unicode="r" horiz-adv-x="677" 
d="M298 67q0 -36 -18 -56.5t-50 -20.5t-51 20.5t-19 56.5v911q0 35 19 56t51 21q31 0 49.5 -21t18.5 -56v-71h4q80 156 247 156q45 0 71 -15q32 -15 32 -52q0 -40 -32 -54q-21 -10 -72 -10q-120 0 -185 -69.5t-65 -208.5v-587z" />
    <glyph glyph-name="s" unicode="s" horiz-adv-x="978" 
d="M95 217q0 30 17 47.5t46 17.5q34 0 71 -52q88 -131 266 -131q110 0 177 47t67 130q0 63 -44 105.5t-121 61.5l-192 46q-134 33 -200.5 100.5t-66.5 175.5q0 137 100.5 217.5t268.5 80.5q157 0 266 -73q48 -34 75 -76.5t27 -79.5q0 -28 -16.5 -44t-43.5 -16
q-21 0 -35.5 9.5t-39.5 39.5q-47 63 -102 93t-136 30q-104 0 -165.5 -45.5t-61.5 -125.5q0 -63 41.5 -103t127.5 -62l185 -46q136 -35 202.5 -100.5t66.5 -175.5q0 -142 -105.5 -224t-281.5 -82q-156 0 -273 68q-55 32 -87.5 77.5t-32.5 89.5z" />
    <glyph glyph-name="t" unicode="t" horiz-adv-x="666" 
d="M219 265v661h-95q-30 0 -48 16t-18 43q0 28 17.5 44t48.5 16h95v188q0 36 18.5 56.5t50.5 20.5t50.5 -20.5t18.5 -56.5v-188h171q31 0 48.5 -16t17.5 -44q0 -27 -18 -43t-48 -16h-171v-669q0 -87 31 -119t111 -32q19 0 42 1.5t30 1.5q25 0 40.5 -14.5t15.5 -38.5
q0 -39 -38 -55q-36 -17 -113 -17q-141 0 -199 62t-58 219z" />
    <glyph glyph-name="u" unicode="u" horiz-adv-x="1129" 
d="M822 181q-31 -83 -111.5 -141t-216.5 -58q-157 0 -253 83.5t-96 252.5v664q0 37 19 55.5t50 18.5t50 -18.5t19 -55.5v-630q0 -126 67.5 -186t175.5 -60q133 0 218.5 79t85.5 194v603q0 37 19 55.5t50 18.5t50.5 -18.5t19.5 -55.5v-917q0 -37 -19.5 -55.5t-50.5 -18.5
t-50 18.5t-19 55.5v116h-8z" />
    <glyph glyph-name="v" unicode="v" horiz-adv-x="923" 
d="M342 122l-288 809q-11 29 -11 53q0 28 20 47.5t48 19.5t46 -16.5t30 -54.5l267 -838h6l281 838q13 38 30.5 54.5t44.5 16.5t46 -19.5t19 -47.5q0 -22 -12 -53l-294 -809q-29 -81 -51.5 -106.5t-63.5 -25.5q-43 0 -66.5 26.5t-51.5 105.5z" />
    <glyph glyph-name="w" unicode="w" horiz-adv-x="1441" 
d="M295 122l-226 808q-7 25 -7 47q0 32 20.5 52.5t52.5 20.5q57 0 75 -80l188 -790h6l215 740q23 83 42 107.5t61 24.5q41 0 60 -24.5t43 -107.5l219 -740h7l192 794q18 77 70 77q29 0 47.5 -18t18.5 -47q0 -16 -8 -45l-220 -819q-21 -80 -41 -106t-59 -26q-40 0 -62 26
t-46 106l-219 725h-4l-215 -725q-23 -81 -43 -106.5t-60 -25.5q-43 0 -64 25.5t-43 106.5z" />
    <glyph glyph-name="x" unicode="x" horiz-adv-x="965" 
d="M96 52q0 27 16 49l291 421l-298 416q-15 22 -15 51q0 26 18.5 44t44.5 18q38 0 68 -42l257 -379h9l258 378q29 43 66 43q28 0 45 -17.5t17 -45.5q0 -24 -15 -45l-296 -420l300 -419q16 -23 16 -50q0 -26 -18.5 -44.5t-44.5 -18.5q-42 0 -70 42l-258 382h-9l-253 -380
q-29 -44 -66 -44q-26 0 -44.5 18t-18.5 43z" />
    <glyph glyph-name="y" unicode="y" horiz-adv-x="939" 
d="M86 -304q0 25 19 40t50 15q6 0 25 -1t31 -1q57 0 102.5 45t67.5 120l21 70l-347 945q-12 31 -12 53q0 29 20 48t51 19q50 0 73 -70l283 -836h6l281 836q23 70 72 70q29 0 48.5 -18.5t19.5 -47.5q0 -22 -12 -53l-368 -1022q-53 -148 -128 -213.5t-189 -65.5q-64 0 -94 25
q-20 17 -20 42z" />
    <glyph glyph-name="z" unicode="z" horiz-adv-x="948" 
d="M110 75q0 35 36 85l540 753v9h-519q-32 0 -50 18t-18 44q0 27 17.5 44t50.5 17h598q42 0 64.5 -20t22.5 -54q0 -35 -36 -85l-541 -754v-9h529q32 0 50.5 -17.5t18.5 -43.5q0 -27 -18.5 -44.5t-50.5 -17.5h-607q-42 0 -64.5 20t-22.5 55z" />
    <glyph glyph-name="braceleft" unicode="{" horiz-adv-x="651" 
d="M210 11v292q0 109 -30 149t-90 52q-76 16 -76 80t77 81q28 6 46.5 15t36.5 30t27 59.5t9 96.5v256q0 170 82 242.5t232 72.5q97 0 97 -58q0 -47 -63 -54q-6 0 -17 -1q-26 -1 -40 -2.5t-39 -6.5t-39.5 -13.5t-32.5 -24.5t-28 -37.5t-17 -55t-7 -76.5v-292
q0 -205 -164 -221v-21q164 -15 164 -220v-329q0 -73 17 -119.5t54 -65.5t61 -24t73 -7q10 -1 15 -1q63 -7 63 -54q0 -58 -97 -58q-151 0 -232.5 72.5t-81.5 242.5z" />
    <glyph glyph-name="bar" unicode="|" horiz-adv-x="651" 
d="M265 -256v1645q0 25 17.5 41.5t42.5 16.5t43 -16.5t18 -41.5v-1645q0 -25 -18 -41.5t-43 -16.5t-42.5 16.5t-17.5 41.5z" />
    <glyph glyph-name="braceright" unicode="}" horiz-adv-x="651" 
d="M441 11q0 -170 -82 -242.5t-233 -72.5q-96 0 -96 58q0 47 62 54q85 5 115 15q106 35 106 202v329q0 205 164 220v21q-164 16 -164 221v292q0 33 -4.5 61t-10.5 48.5t-18 36.5t-22 26.5t-27 18.5t-28 12t-31.5 7t-31 4t-31.5 2q-11 1 -17 1q-62 7 -62 54q0 58 96 58
q151 0 233 -72.5t82 -242.5v-256q0 -58 9 -96.5t27 -59.5t36 -30t46 -15q77 -17 77 -81t-76 -80q-29 -6 -47.5 -15.5t-36.5 -30t-26.5 -59.5t-8.5 -96v-292z" />
    <glyph glyph-name="asciitilde" unicode="~" horiz-adv-x="1116" 
d="M753 499q-64 0 -115 26.5t-125 96.5q-65 62 -95 80.5t-68 18.5q-55 0 -87.5 -42t-49.5 -135q-12 -64 -64 -64q-63 0 -63 88q0 120 77.5 199.5t193.5 79.5q65 0 115.5 -26t120.5 -93q64 -61 96 -81t72 -20q117 0 140 169q9 75 64 75q64 0 64 -88q0 -117 -79 -200.5
t-197 -83.5z" />
    <glyph glyph-name="nonbreakingspace" unicode="&#xa0;" horiz-adv-x="414" 
 />
    <glyph glyph-name="exclamdown" unicode="&#xa1;" horiz-adv-x="504" 
d="M353 991q0 -41 -29.5 -71t-71.5 -30t-71.5 30t-29.5 71q0 42 29.5 71.5t71.5 29.5t71.5 -29.5t29.5 -71.5zM174 -235l13 796q0 27 19 46t45 19q27 0 44.5 -19t18.5 -46l14 -796q1 -32 -22 -54.5t-55 -22.5t-54.5 22.5t-22.5 54.5z" />
    <glyph glyph-name="cent" unicode="&#xa2;" 
d="M630 -40q0 -28 -15.5 -44t-41.5 -16q-27 0 -42 16t-15 44v182q-173 17 -271 134.5t-98 310.5v183q0 192 98.5 309.5t270.5 135.5v194q0 28 15 44t42 16t42 -16t15 -44v-195q110 -10 190 -64q57 -37 91 -85.5t36 -95.5q1 -30 -15.5 -48.5t-44.5 -18.5q-21 0 -36.5 11.5
t-38.5 44.5q-80 137 -241 137q-134 0 -210.5 -88t-76.5 -246v-166q0 -159 77 -247t213 -88q156 0 241 135q22 31 38 43t36 12q27 0 44 -18.5t17 -47.5q-2 -48 -36 -95.5t-92 -83.5q-81 -54 -192 -64v-181z" />
    <glyph glyph-name="sterling" unicode="&#xa3;" 
d="M1011 59q0 -24 -17 -41.5t-42 -17.5h-762q-27 0 -47 19.5t-20 46.5q0 21 12 38t31 25q105 38 163 123t58 197q0 91 -30 197h-127q-63 0 -63 57q0 55 63 55h92q-50 152 -50 251q0 177 117.5 280.5t317.5 103.5q127 0 216 -36q39 -17 39 -57q0 -26 -18 -43.5t-43 -16.5
q-14 1 -80.5 14.5t-106.5 13.5q-137 0 -220.5 -70.5t-83.5 -189.5q0 -98 48 -250h320q63 0 63 -55q0 -57 -63 -57h-286q28 -103 28 -192q0 -229 -155 -323v-13h587q25 0 42 -17t17 -42z" />
    <glyph glyph-name="currency" unicode="&#xa4;" 
d="M918 656q0 -117 -71 -212l159 -157q16 -16 15.5 -40t-16.5 -40q-17 -17 -40 -17t-39 17l-160 160q-86 -65 -203 -65q-113 0 -206 66l-139 -138q-16 -16 -40 -16t-40 16q-17 17 -17 40.5t16 40.5l138 137q-67 92 -67 208q0 112 65 204l-144 144q-17 16 -17 39t16 40
q17 17 40.5 17t40.5 -16l143 -143q90 70 211 70q116 0 208 -67l132 132q17 17 41 17t40 -17q16 -16 16 -40t-16 -40l-133 -134q67 -91 67 -206zM309 656q0 -105 74 -179t180 -74q105 0 179.5 74t74.5 179t-75 180t-179 75q-105 0 -179.5 -75t-74.5 -180z" />
    <glyph glyph-name="yen" unicode="&#xa5;" 
d="M624 63q0 -34 -18.5 -53.5t-50.5 -19.5q-33 0 -51.5 19.5t-18.5 53.5v245h-234q-26 0 -41.5 14t-15.5 38t15.5 38t41.5 14h234v160h-234q-26 0 -41.5 14t-15.5 38t15.5 38t41.5 14h190l-337 557q-29 49 -28 70q1 28 21 45.5t52 17.5q20 0 35.5 -13t34.5 -47l332 -567h7
l332 567q19 34 34.5 47t35.5 13q32 0 52 -17t21 -45q1 -23 -28 -70l-337 -558h192q26 0 41.5 -14t15.5 -37q0 -25 -15.5 -39t-41.5 -14h-236v-160h236q26 0 41.5 -14t15.5 -38t-15.5 -38t-41.5 -14h-236v-245z" />
    <glyph glyph-name="brokenbar" unicode="&#xa6;" horiz-adv-x="651" 
d="M265 815v574q0 25 17.5 41.5t42.5 16.5t43 -16.5t18 -41.5v-574q0 -25 -18 -41.5t-43 -16.5t-42.5 16.5t-17.5 41.5zM265 -256v574q0 25 17.5 41.5t42.5 16.5t43 -16.5t18 -41.5v-574q0 -25 -18 -41.5t-43 -16.5t-42.5 16.5t-17.5 41.5z" />
    <glyph glyph-name="section" unicode="&#xa7;" horiz-adv-x="933" 
d="M459 -130q113 0 180 55t67 143q0 79 -57 119.5t-217 80.5q-180 45 -260.5 111.5t-80.5 182.5q0 167 175 252v7q-82 46 -124 107t-42 149q0 137 105 226.5t265 89.5q158 0 263 -83q89 -67 91 -151q0 -27 -16.5 -44t-43.5 -17q-20 0 -34.5 9.5t-41.5 40.5q-45 66 -98 94.5
t-122 28.5q-104 0 -167.5 -53.5t-63.5 -135.5q0 -79 58.5 -122.5t204.5 -81.5q190 -49 268.5 -112.5t78.5 -180.5q0 -161 -153 -261v-7q76 -47 113.5 -102.5t37.5 -134.5q0 -144 -109 -238.5t-279 -94.5q-132 0 -231 54q-68 35 -108 86.5t-41 104.5q0 28 17 45t45 17
q20 0 32 -9t38 -43q79 -132 250 -132zM458 386l122 -29q52 21 90 78.5t38 125.5q0 73 -52.5 120.5t-172.5 73.5l-106 25q-54 -9 -102 -70.5t-48 -129.5q0 -74 54 -120t177 -74z" />
    <glyph glyph-name="dieresis" unicode="&#xa8;" horiz-adv-x="909" 
d="M206 1294q0 37 23.5 61.5t58.5 24.5q36 0 60.5 -24.5t24.5 -61.5q0 -36 -24.5 -60t-60.5 -24q-35 0 -58.5 24t-23.5 60zM535 1294q0 37 24.5 61.5t58.5 24.5q37 0 61 -24.5t24 -61.5q0 -36 -24 -60t-61 -24q-34 0 -58.5 24t-24.5 60z" />
    <glyph glyph-name="copyright" unicode="&#xa9;" horiz-adv-x="1642" 
d="M826 -63q-155 0 -288.5 53t-227 146t-147 224.5t-53.5 282.5v104q0 143 54.5 269.5t149 217t227.5 143t285 52.5q151 0 284.5 -53t228 -143.5t149.5 -217t55 -268.5v-104q0 -203 -91 -364t-254.5 -251.5t-371.5 -90.5zM218 639q0 -263 169.5 -430t438.5 -167
q270 0 440.5 167t170.5 430v108q0 162 -78.5 293.5t-218.5 207t-314 75.5q-173 0 -312.5 -75t-217.5 -207t-78 -294v-108zM523 618v126q0 148 83 232t227 84q105 0 181 -45q41 -25 67 -58t26 -62q0 -23 -14.5 -38.5t-34.5 -15.5q-14 0 -23.5 7t-30.5 32q-68 81 -173 81
q-95 0 -148.5 -58.5t-53.5 -163.5v-116q0 -108 54 -162.5t159 -54.5q110 0 167 71q20 24 29 31.5t22 7.5q20 0 34.5 -15.5t14.5 -37.5q0 -29 -25.5 -61.5t-65.5 -56.5q-77 -44 -181 -44q-146 0 -230 83.5t-84 233.5z" />
    <glyph glyph-name="ordfeminine" unicode="&#xaa;" horiz-adv-x="656" 
d="M279 786q-85 0 -136 46.5t-51 124.5q0 79 53 123t149 44h150v56q0 49 -30 75t-86 26t-105 -34q-42 -27 -57 -27q-17 0 -28.5 12t-11.5 29q0 42 61 74t142 32q104 0 160 -48.5t56 -138.5v-346q0 -44 -49 -44q-48 0 -48 43v38h-5q-49 -85 -164 -85zM307 868q58 0 97.5 34
t39.5 84v63h-138q-55 0 -84.5 -22.5t-29.5 -63.5q0 -43 31.5 -69t83.5 -26z" />
    <glyph glyph-name="guillemotleft" unicode="&#xab;" horiz-adv-x="1228" 
d="M151 513q-19 22 -19 48t19 48l310 358q31 39 63 39q26 0 44 -17.5t18 -42.5q0 -23 -17 -44l-288 -338v-6l287 -338q18 -22 18 -44q0 -26 -18 -43.5t-45 -17.5q-29 0 -64 39zM606 513q-19 22 -19 48t19 48l311 358q31 39 62 39q27 0 45 -17t18 -43q0 -23 -18 -44
l-287 -338v-6l286 -338q18 -21 18 -44q0 -26 -17.5 -43.5t-44.5 -17.5q-31 0 -64 39z" />
    <glyph glyph-name="logicalnot" unicode="&#xac;" 
d="M962 104q-29 0 -45 17.5t-16 48.5v318h-744q-30 0 -47 15.5t-17 42.5t16.5 42t47.5 15h796q70 0 70 -63v-370q0 -31 -16 -48.5t-45 -17.5z" />
    <glyph glyph-name="registered" unicode="&#xae;" horiz-adv-x="1042" 
d="M522 534q-184 0 -304 115.5t-120 293.5v55q0 168 122 281.5t302 113.5q179 0 301 -114t122 -281v-55q0 -178 -119.5 -293.5t-303.5 -115.5zM522 612q149 0 246.5 93.5t97.5 236.5v57q0 136 -99 227t-245 91t-245 -91.5t-99 -226.5v-57q0 -144 97 -237t247 -93zM371 788
v356q0 43 42 43h147q58 0 95.5 -36t37.5 -91q0 -45 -22 -78t-61 -46l72 -129q8 -12 6 -24q-2 -29 -33 -29q-25 0 -37 23l-81 147h-91v-136q0 -17 -10 -27t-27 -10t-27.5 10t-10.5 27zM446 982h75q97 0 97 74q0 35 -23 54t-64 19h-85v-147z" />
    <glyph glyph-name="macron" unicode="&#xaf;" horiz-adv-x="910" 
d="M183 1302q0 21 15.5 34.5t44.5 13.5h424q29 0 44.5 -13.5t15.5 -34.5t-15.5 -35.5t-44.5 -14.5h-424q-29 0 -44.5 14.5t-15.5 35.5z" />
    <glyph glyph-name="degree" unicode="&#xb0;" horiz-adv-x="517" 
d="M260 960q-87 0 -148.5 61.5t-61.5 148.5t61 148t149 61q86 0 147.5 -61t61.5 -148q0 -86 -61.5 -148t-147.5 -62zM260 1052q49 0 83.5 35t34.5 83q0 50 -34 84.5t-84 34.5q-48 0 -83 -34.5t-35 -84.5q0 -47 35.5 -82.5t82.5 -35.5z" />
    <glyph glyph-name="plusminus" unicode="&#xb1;" 
d="M613 406q0 -23 -17 -39.5t-40 -16.5t-39.5 16.5t-16.5 39.5v261h-364q-24 0 -40.5 17t-16.5 40q0 24 16.5 41t40.5 17h364v245q0 23 16.5 40t39.5 17t40 -17t17 -40v-245h366q24 0 41 -17t17 -41q0 -23 -17 -40t-41 -17h-366v-261zM79 191q0 26 16 41.5t48 15.5h833
q32 0 48 -15.5t16 -41.5t-16 -42t-48 -16h-833q-32 0 -48 16t-16 42z" />
    <glyph glyph-name="two.sups" unicode="&#xb2;" horiz-adv-x="542" 
d="M267 1715q101 0 162.5 -51.5t61.5 -130.5q0 -14 -1.5 -27t-6.5 -26.5t-8 -23t-12 -23t-13.5 -20.5t-16.5 -21.5t-16.5 -19.5t-19 -21.5t-18.5 -20.5l-144 -158v-4h194q38 0 56 -15t18 -38q0 -29 -17.5 -42.5t-56.5 -13.5h-330q-23 0 -39 16.5t-16 38.5q0 23 19 42
l222 236q24 26 36.5 41.5t24 40t11.5 47.5q0 37 -26.5 62t-66.5 25q-68 0 -101 -83q-17 -40 -56 -40q-26 0 -43.5 16.5t-17.5 41.5q0 13 5 31q19 62 74.5 101.5t141.5 39.5z" />
    <glyph glyph-name="three.sups" unicode="&#xb3;" horiz-adv-x="553" 
d="M243 1340q-20 0 -35.5 15t-15.5 35q0 21 15.5 36t35.5 15h23q45 0 72.5 24.5t27.5 63.5q0 36 -28 59.5t-71 23.5q-68 0 -90 -59q-17 -37 -56 -37q-26 0 -44.5 18t-18.5 44q0 18 10 36q27 48 79.5 74.5t124.5 26.5q98 0 162 -47t65 -121q1 -62 -36.5 -101.5t-82.5 -45.5
v-6q55 -3 97 -44.5t42 -110.5q1 -86 -72 -139.5t-179 -53.5q-77 0 -131 28t-80 77q-10 18 -10 36q0 25 18.5 43.5t43.5 18.5q19 0 34 -10t22 -26q25 -62 107 -62q51 0 82 26.5t30 68.5q0 41 -31 67.5t-84 26.5h-26z" />
    <glyph glyph-name="acute" unicode="&#xb4;" horiz-adv-x="910" 
d="M348 1237q0 11 11 29l123 184q18 30 52 30q25 0 42.5 -17.5t17.5 -42.5q0 -23 -14 -39l-148 -173q-15 -18 -36 -18q-20 0 -34 14t-14 33z" />
    <glyph glyph-name="mugreek" unicode="&#xb5;" horiz-adv-x="1204" 
d="M301 -282q0 -37 -19.5 -57t-49.5 -20q-31 0 -50 19.5t-19 57.5v1260q0 37 19 57t50 20t50 -20t19 -57v-579q0 -138 64.5 -215.5t182.5 -77.5q130 0 210 86.5t80 224.5v561q0 37 19.5 57t50.5 20q30 0 49 -20t19 -57v-734q0 -70 18.5 -100.5t61.5 -30.5q8 0 20.5 0.5
t14.5 0.5q22 0 35.5 -13.5t13.5 -35.5q0 -33 -29 -53q-30 -22 -84 -22q-84 0 -132 48.5t-50 137.5v3h-4q-39 -92 -116.5 -144.5t-178.5 -52.5q-81 0 -146 36t-94 98h-5v-398z" />
    <glyph glyph-name="paragraph" unicode="&#xb6;" horiz-adv-x="1203" 
d="M869 -142v1436q0 37 19 55t50 18t50 -18t19 -55v-1436q0 -37 -19 -55.5t-50 -18.5t-50 18.5t-19 55.5zM570 -142v679h-18q-41 0 -86.5 9t-95.5 27.5t-94.5 51.5t-81 77t-57.5 107.5t-21 139.5q0 98 31 174.5t77.5 121t108 73t114 38t104.5 9.5h86q31 0 51 -19t20 -56
v-1432q0 -37 -19 -55.5t-50 -18.5q-32 0 -50.5 18.5t-18.5 55.5z" />
    <glyph glyph-name="middledot" unicode="&#xb7;" horiz-adv-x="570" 
d="M178 543q0 43 30.5 73t72.5 30q43 0 73 -30t30 -73q0 -42 -30 -72t-73 -30q-42 0 -72.5 30t-30.5 72z" />
    <glyph glyph-name="cedilla" unicode="&#xb8;" horiz-adv-x="910" 
d="M297 -403q0 21 13.5 32t34.5 11q9 0 35.5 -5t46.5 -5q49 0 86.5 21.5t37.5 67.5q0 30 -18 47t-40 22t-56 6q-90 2 -86 63q0 9 61 170h102l-58 -152q96 7 155.5 -34t59.5 -124q0 -90 -69.5 -135t-172.5 -45q-51 0 -83 9q-49 15 -49 51z" />
    <glyph glyph-name="one.sups" unicode="&#xb9;" horiz-adv-x="399" 
d="M325 1119q0 -28 -19.5 -47.5t-47.5 -19.5t-47.5 19.5t-19.5 47.5v458h-1l-38 -22q-37 -22 -41 -25q-13 -8 -28 -8q-21 0 -36.5 15t-15.5 36q0 27 25 44q52 30 108 67q41 26 80 26q38 0 59.5 -22t21.5 -60v-509z" />
    <glyph glyph-name="ordmasculine" unicode="&#xba;" horiz-adv-x="692" 
d="M347 1367q110 0 179.5 -67.5t69.5 -183.5v-78q0 -118 -69 -185t-180 -67q-113 0 -182 66.5t-69 185.5v78q0 114 70 182.5t181 68.5zM347 1281q-68 0 -108 -47t-40 -124v-67q0 -78 38.5 -124t109.5 -46q69 0 107.5 46t38.5 124v67q0 77 -39.5 124t-106.5 47z" />
    <glyph glyph-name="guillemotright" unicode="&#xbb;" horiz-adv-x="1228" 
d="M599 513l-308 -359q-18 -20 -31.5 -29.5t-33.5 -9.5q-28 0 -45 18.5t-17 42.5q0 22 18 44l286 338v6l-287 338q-18 23 -18 44q0 24 17 42t46 18q19 0 32 -8.5t31 -30.5l310 -358q19 -22 19 -48t-19 -48zM1055 513l-309 -359q-34 -39 -64 -39q-28 0 -45.5 18.5t-17.5 42.5
q0 22 18 44l287 338v6l-288 338q-17 22 -17 44q0 24 16.5 42t45.5 18q19 0 32.5 -9t30.5 -30l310 -358q19 -20 19 -48q0 -26 -18 -48z" />
    <glyph glyph-name="onequarter" unicode="&#xbc;" horiz-adv-x="1368" 
d="M193 797v460h-1l-84 -51q-17 -8 -29 -7q-20 1 -34.5 15.5t-14.5 35.5q0 27 24 43l107 68q44 28 86 28q37 0 58.5 -21.5t21.5 -59.5v-511q0 -28 -19.5 -47.5t-47.5 -19.5t-47.5 19.5t-19.5 47.5zM150 79l480 630l483 635q18 24 45 24q25 0 41 -16t17 -40q1 -20 -13 -40
l-479 -630l-484 -637q-18 -23 -47 -23q-22 0 -38.5 15.5t-17.5 35.5q-2 26 13 46zM839 257q100 187 203 336q41 62 106 62q55 0 88.5 -29.5t33.5 -76.5v-324h33q22 0 38 -15.5t16 -37.5t-16 -37.5t-38 -15.5h-33v-62q0 -26 -18.5 -44.5t-44.5 -18.5q-27 0 -45.5 18.5
t-18.5 44.5v62h-243q-35 0 -57.5 21.5t-22.5 56.5q0 21 19 60zM1143 550h-5q-130 -205 -191 -322v-3h196v325z" />
    <glyph glyph-name="onehalf" unicode="&#xbd;" horiz-adv-x="1393" 
d="M191 797v460h-1l-83 -51q-18 -8 -30 -7q-20 1 -34.5 15.5t-14.5 35.5q0 26 25 43l107 68q44 28 85 28q37 0 58.5 -21.5t21.5 -59.5v-511q0 -28 -19.5 -47.5t-47.5 -19.5t-47.5 19.5t-19.5 47.5zM133 79l480 630l483 635q18 24 45 24q25 0 41 -16t17 -40q1 -20 -13 -40
l-479 -630l-484 -637q-18 -23 -47 -23q-22 0 -38.5 15.5t-17.5 35.5q-2 26 13 46zM951 449q-26 0 -43 17t-17 41q0 57 61 114.5t161 57.5q102 0 164 -52t62 -131q0 -22 -3 -40.5t-14.5 -39.5t-16.5 -31t-25.5 -33.5t-24 -27.5t-29.5 -31l-147 -159v-5h199q73 0 73 -52
q0 -56 -73 -56h-336q-22 0 -38 16t-16 38q0 21 18 43l227 236q23 25 35 39.5t25 40t13 50.5q0 37 -27 62.5t-69 25.5q-41 0 -64 -22t-38 -61q-17 -40 -57 -40z" />
    <glyph glyph-name="threequarters" unicode="&#xbe;" horiz-adv-x="1393" 
d="M58 1254q1 23 19 45q59 88 197 88q99 0 163 -47.5t65 -121.5q1 -62 -37 -101.5t-83 -44.5v-6q55 -4 97.5 -44.5t42.5 -111.5q1 -86 -72.5 -139t-180.5 -53q-144 0 -203 92q-18 21 -18 44q-1 26 16.5 44t43.5 18q39 0 57 -37q28 -57 108 -57q52 0 83.5 27t30.5 68
q0 42 -31 68.5t-85 26.5h-27q-20 0 -35 15t-15 35q0 21 15 36t35 15h23q47 0 75 24.5t28 63.5q0 36 -28 60t-73 24q-68 0 -93 -56q-16 -37 -56 -37q-26 0 -44 18t-18 44zM178 79l480 630l483 635q16 24 45 24q25 0 41 -16t17 -40q0 -23 -14 -40l-478 -630l-484 -637
q-18 -23 -47 -23q-22 0 -39 15.5t-17 35.5q-2 26 13 46zM1227 -6q-26 0 -44.5 18.5t-18.5 44.5v62h-244q-35 0 -57 21.5t-22 56.5q0 23 19 60q90 173 202 336q41 62 106 62q56 0 89.5 -29t33.5 -77v-324h33q22 0 37.5 -15.5t15.5 -37.5t-15.5 -37.5t-37.5 -15.5h-33v-62
q0 -26 -18.5 -44.5t-45.5 -18.5zM968 225h196v325h-6q-135 -216 -190 -322v-3z" />
    <glyph glyph-name="questiondown" unicode="&#xbf;" horiz-adv-x="925" 
d="M585 991q0 -41 -29.5 -71t-71.5 -30q-41 0 -71 30t-30 71q0 42 30 71.5t71 29.5q42 0 71.5 -29.5t29.5 -71.5zM69 -1q0 94 44.5 168t150.5 159q94 75 122.5 121.5t33.5 127.5q6 75 69 75q69 0 69 -83q0 -99 -37 -161.5t-154 -156.5q-91 -73 -123.5 -123t-32.5 -119
q0 -102 69 -161t183 -59q104 0 165 48.5t95 142.5q13 34 28.5 47.5t39.5 13.5q26 0 41.5 -17t15.5 -46q0 -57 -32.5 -117.5t-90.5 -107.5q-103 -85 -268 -85q-172 0 -280 92t-108 241z" />
    <glyph glyph-name="Agrave" unicode="&#xc0;" horiz-adv-x="1188" 
d="M530 1533l-148 173q-14 16 -14 39q0 24 17.5 42t42.5 18q34 0 53 -31l122 -183q11 -18 11 -29q0 -19 -14 -33t-33 -14q-22 0 -37 18zM124 -13q-30 0 -48 16.5t-18 44.5q0 24 9 49l430 1198q15 41 37.5 60t59.5 19q36 0 59 -19t38 -60l429 -1198q10 -28 10 -49
q0 -28 -18.5 -44.5t-48.5 -16.5q-29 0 -46.5 15t-29.5 50l-129 378h-529l-129 -378q-11 -35 -29 -50t-47 -15zM369 545h449l-221 647h-6z" />
    <glyph glyph-name="Aacute" unicode="&#xc1;" horiz-adv-x="1188" 
d="M569 1560q0 9 10 29l123 183q20 31 52 31q25 0 42.5 -18t17.5 -42q0 -23 -14 -40l-148 -172q-14 -19 -36 -19q-19 0 -33 14t-14 34zM124 -13q-30 0 -48 16.5t-18 44.5q0 24 9 49l430 1198q15 41 37.5 60t59.5 19q36 0 59 -19t38 -60l429 -1198q10 -28 10 -49
q0 -28 -18.5 -44.5t-48.5 -16.5q-29 0 -46.5 15t-29.5 50l-129 378h-529l-129 -378q-11 -35 -29 -50t-47 -15zM369 545h449l-221 647h-6z" />
    <glyph glyph-name="Acircumflex" unicode="&#xc2;" horiz-adv-x="1188" 
d="M594 1713h-4l-135 -176q-19 -25 -42 -25q-20 0 -33.5 14.5t-13.5 33.5q0 20 15 38l144 168q32 38 68 38q38 0 67 -38l146 -170q13 -16 13 -36q0 -19 -13.5 -33.5t-33.5 -14.5q-23 0 -42 28q-97 144 -136 173zM124 -13q-30 0 -48 16.5t-18 44.5q0 24 9 49l430 1198
q15 41 37.5 60t59.5 19q36 0 59 -19t38 -60l429 -1198q10 -28 10 -49q0 -28 -18.5 -44.5t-48.5 -16.5q-29 0 -46.5 15t-29.5 50l-129 378h-529l-129 -378q-11 -35 -29 -50t-47 -15zM369 545h449l-221 647h-6z" />
    <glyph glyph-name="Atilde" unicode="&#xc3;" horiz-adv-x="1188" 
d="M328 1538q0 63 41.5 106t106.5 43q74 0 133 -58q55 -54 92 -54q25 0 43 20.5t22 53.5q8 41 42 41q41 0 41 -54q0 -63 -42.5 -105t-107.5 -42q-38 0 -67.5 14t-64.5 48q-54 53 -89 53q-51 0 -63 -71q-8 -44 -47 -44q-40 0 -40 49zM124 -13q-30 0 -48 16.5t-18 44.5
q0 24 9 49l430 1198q15 41 37.5 60t59.5 19q36 0 59 -19t38 -60l429 -1198q10 -28 10 -49q0 -28 -18.5 -44.5t-48.5 -16.5q-29 0 -46.5 15t-29.5 50l-129 378h-529l-129 -378q-11 -35 -29 -50t-47 -15zM369 545h449l-221 647h-6z" />
    <glyph glyph-name="Adieresis" unicode="&#xc4;" horiz-adv-x="1188" 
d="M364 1585q0 34 21.5 56t53.5 22q33 0 55.5 -22t22.5 -56q0 -33 -22.5 -54.5t-55.5 -21.5q-32 0 -53.5 21.5t-21.5 54.5zM667 1585q0 34 22.5 56t54.5 22q34 0 55.5 -22t21.5 -56q0 -33 -21.5 -54.5t-55.5 -21.5q-32 0 -54.5 21.5t-22.5 54.5zM124 -13q-30 0 -48 16.5
t-18 44.5q0 24 9 49l430 1198q15 41 37.5 60t59.5 19q36 0 59 -19t38 -60l429 -1198q10 -28 10 -49q0 -28 -18.5 -44.5t-48.5 -16.5q-29 0 -46.5 15t-29.5 50l-129 378h-529l-129 -378q-11 -35 -29 -50t-47 -15zM369 545h449l-221 647h-6z" />
    <glyph glyph-name="Aring" unicode="&#xc5;" horiz-adv-x="1188" 
d="M592 1501q-76 0 -129.5 52t-53.5 127t53.5 127t129.5 52t129.5 -52t53.5 -127t-53.5 -127t-129.5 -52zM486 1680q0 -44 31 -76t75 -32q45 0 75.5 31.5t30.5 76.5t-30.5 76.5t-75.5 31.5q-44 0 -75 -31.5t-31 -76.5zM124 -13q-30 0 -48 16.5t-18 44.5q0 24 9 49l430 1198
q15 41 37.5 60t59.5 19q36 0 59 -19t38 -60l429 -1198q10 -28 10 -49q0 -28 -18.5 -44.5t-48.5 -16.5q-29 0 -46.5 15t-29.5 50l-129 378h-529l-129 -378q-11 -35 -29 -50t-47 -15zM369 545h449l-221 647h-6z" />
    <glyph glyph-name="AE" unicode="&#xc6;" horiz-adv-x="1838" 
d="M424 453l-214 -385q-21 -39 -40.5 -55.5t-45.5 -16.5q-29 0 -47 16t-18 42q0 24 20 61l653 1157q29 51 61.5 71.5t84.5 20.5h788q34 0 54 -17.5t20 -47.5q0 -29 -20 -46t-54 -17h-596v-475h560q34 0 54 -17.5t20 -46.5t-20 -46t-54 -17h-560v-506h595q34 0 54 -17.5
t20 -47.5q0 -29 -20 -46t-54 -17h-598q-73 0 -105 29t-32 97v327h-506zM489 571h441v665h-71z" />
    <glyph glyph-name="Ccedilla" unicode="&#xc7;" horiz-adv-x="1243" 
d="M636 -467q-71 0 -115.5 22t-44.5 56q0 19 12.5 31t32.5 12q12 0 43 -12.5t67 -12.5q47 0 77 23.5t30 61.5q0 78 -114 78q-87 0 -87 59q0 20 42 122q-219 20 -339.5 175t-120.5 419v229q0 282 137.5 439.5t384.5 157.5q239 0 380 -147q50 -51 80.5 -112t30.5 -106
q0 -31 -17 -48.5t-45 -17.5q-25 0 -42.5 13.5t-33.5 48.5q-106 242 -349 242q-184 0 -285 -122.5t-101 -346.5v-231q0 -224 101.5 -346t287.5 -122q123 0 213.5 60.5t138.5 177.5q16 33 31.5 46.5t39.5 13.5q30 0 47 -17t17 -47q0 -48 -30.5 -108.5t-81.5 -111.5
q-129 -129 -341 -141l-39 -98q104 0 159.5 -42t55.5 -121q0 -77 -62.5 -127t-159.5 -50z" />
    <glyph glyph-name="Egrave" unicode="&#xc8;" horiz-adv-x="1093" 
d="M508 1533l-148 173q-14 16 -14 39q0 24 17.5 42t42.5 18q33 0 52 -31l123 -183q10 -20 10 -29q0 -20 -13.5 -33.5t-33.5 -13.5q-22 0 -36 18zM173 126v1111q0 68 32 97.5t105 29.5h598q35 0 55 -17.5t20 -47.5q0 -29 -20 -46t-55 -17h-595v-475h559q34 0 54.5 -17.5
t20.5 -46.5t-20 -46t-55 -17h-559v-506h594q35 0 55 -17.5t20 -47.5q0 -29 -20 -46t-55 -17h-597q-73 0 -105 29t-32 97z" />
    <glyph glyph-name="Eacute" unicode="&#xc9;" horiz-adv-x="1093" 
d="M546 1560q0 11 11 29l123 183q19 31 52 31q25 0 42.5 -18t17.5 -42q0 -23 -14 -40l-148 -172q-14 -19 -36 -19q-20 0 -34 14t-14 34zM173 126v1111q0 68 32 97.5t105 29.5h598q35 0 55 -17.5t20 -47.5q0 -29 -20 -46t-55 -17h-595v-475h559q34 0 54.5 -17.5t20.5 -46.5
t-20 -46t-55 -17h-559v-506h594q35 0 55 -17.5t20 -47.5q0 -29 -20 -46t-55 -17h-597q-73 0 -105 29t-32 97z" />
    <glyph glyph-name="Ecircumflex" unicode="&#xca;" horiz-adv-x="1093" 
d="M571 1713h-3l-135 -176q-19 -25 -42 -25q-20 0 -33.5 14.5t-13.5 33.5q0 20 15 38l143 168q32 38 69 38q36 0 67 -38l146 -170q13 -16 13 -36q0 -19 -14 -33.5t-34 -14.5q-24 0 -41 28l-10 15l-27.5 37.5t-34.5 46.5t-36 45t-29 29zM173 126v1111q0 68 32 97.5t105 29.5
h598q35 0 55 -17.5t20 -47.5q0 -29 -20 -46t-55 -17h-595v-475h559q34 0 54.5 -17.5t20.5 -46.5t-20 -46t-55 -17h-559v-506h594q35 0 55 -17.5t20 -47.5q0 -29 -20 -46t-55 -17h-597q-73 0 -105 29t-32 97z" />
    <glyph glyph-name="Edieresis" unicode="&#xcb;" horiz-adv-x="1093" 
d="M342 1585q0 34 21 56t53 22q33 0 56 -22t23 -56q0 -33 -23 -54.5t-56 -21.5q-32 0 -53 21.5t-21 54.5zM645 1585q0 34 22.5 56t53.5 22q34 0 55.5 -21.5t21.5 -56.5q0 -33 -21.5 -54.5t-55.5 -21.5q-31 0 -53.5 22t-22.5 54zM173 126v1111q0 68 32 97.5t105 29.5h598
q35 0 55 -17.5t20 -47.5q0 -29 -20 -46t-55 -17h-595v-475h559q34 0 54.5 -17.5t20.5 -46.5t-20 -46t-55 -17h-559v-506h594q35 0 55 -17.5t20 -47.5q0 -29 -20 -46t-55 -17h-597q-73 0 -105 29t-32 97z" />
    <glyph glyph-name="Igrave" unicode="&#xcc;" horiz-adv-x="493" 
d="M184 1533l-148 173q-14 16 -14 39q0 24 17.5 42t42.5 18q34 0 52 -31l123 -183q11 -18 11 -29q0 -19 -14 -33t-33 -14q-22 0 -37 18zM246 -10q-32 0 -50.5 21t-18.5 56v1230q0 35 18.5 56t50.5 21t51 -21t19 -56v-1230q0 -35 -19 -56t-51 -21z" />
    <glyph glyph-name="Iacute" unicode="&#xcd;" horiz-adv-x="493" 
d="M223 1560q0 9 10 29l123 183q20 31 52 31q25 0 42.5 -18t17.5 -42q0 -23 -14 -40l-148 -172q-14 -19 -36 -19q-19 0 -33 14t-14 34zM246 -10q-32 0 -50.5 21t-18.5 56v1230q0 35 18.5 56t50.5 21t51 -21t19 -56v-1230q0 -35 -19 -56t-51 -21z" />
    <glyph glyph-name="Icircumflex" unicode="&#xce;" horiz-adv-x="493" 
d="M248 1713h-4l-135 -176q-19 -25 -42 -25q-20 0 -33.5 14.5t-13.5 33.5q0 20 15 38l144 168q32 38 68 38q38 0 67 -38l146 -170q13 -16 13 -36q0 -19 -14 -33.5t-34 -14.5q-22 0 -41 28q-97 144 -136 173zM246 -10q-32 0 -50.5 21t-18.5 56v1230q0 35 18.5 56t50.5 21
t51 -21t19 -56v-1230q0 -35 -19 -56t-51 -21z" />
    <glyph glyph-name="Idieresis" unicode="&#xcf;" horiz-adv-x="493" 
d="M18 1585q0 34 21.5 56t52.5 22q33 0 56 -22t23 -56q0 -33 -23 -54.5t-56 -21.5q-31 0 -52.5 21.5t-21.5 54.5zM321 1585q0 34 22.5 56t53.5 22q35 0 56.5 -21.5t21.5 -56.5q0 -33 -22 -54.5t-56 -21.5q-31 0 -53.5 22t-22.5 54zM246 -10q-32 0 -50.5 21t-18.5 56v1230
q0 35 18.5 56t50.5 21t51 -21t19 -56v-1230q0 -35 -19 -56t-51 -21z" />
    <glyph glyph-name="Eth" unicode="&#xd0;" horiz-adv-x="1359" 
d="M243 126v509h-103q-35 0 -55 17t-20 46q0 30 20 47t55 17h103v475q0 67 32 97t105 30h276q296 0 448 -173t152 -509q0 -338 -151.5 -510t-448.5 -172h-276q-73 0 -105 29t-32 97zM383 128h270q461 0 461 554q0 555 -461 555h-270v-475h292q35 0 55 -17t20 -47
q0 -29 -20 -46t-55 -17h-292v-507z" />
    <glyph glyph-name="Ntilde" unicode="&#xd1;" horiz-adv-x="1352" 
d="M411 1538q0 63 41.5 106t106.5 43q74 0 133 -58q55 -54 92 -54q25 0 43 20.5t22 53.5q3 19 14.5 30t27.5 11q40 0 40 -54q0 -63 -42 -105t-107 -42q-38 0 -67.5 14t-64.5 48q-54 53 -89 53q-51 0 -63 -71q-8 -44 -48 -44q-39 0 -39 49zM313 67q0 -35 -18.5 -56t-50.5 -21
t-50 20.5t-18 56.5v1210q0 96 82 96q31 0 53.5 -20.5t50.5 -65.5l670 -1048h7v1058q0 36 18 56.5t50 20.5t50.5 -21t18.5 -56v-1210q0 -96 -80 -96q-31 0 -52.5 16.5t-49.5 60.5l-675 1056h-6v-1057z" />
    <glyph glyph-name="Ograve" unicode="&#xd2;" horiz-adv-x="1308" 
d="M590 1533l-148 173q-14 18 -14 39q0 24 18 42t42 18q34 0 53 -31l122 -183q11 -18 11 -29q0 -19 -14 -33t-33 -14q-22 0 -37 18zM119 569v215q0 282 144 445.5t391 163.5q248 0 391.5 -163.5t143.5 -446.5v-214q0 -279 -143.5 -439t-391.5 -160q-251 0 -393 159.5
t-142 439.5zM259 785v-218q0 -218 106 -343.5t289 -125.5t289 125.5t106 343.5v218q0 221 -106.5 351t-288.5 130t-288.5 -130t-106.5 -351z" />
    <glyph glyph-name="Oacute" unicode="&#xd3;" horiz-adv-x="1308" 
d="M629 1560q0 11 11 29l122 183q20 31 53 31q24 0 42 -18t18 -42q0 -21 -14 -40l-148 -172q-16 -19 -37 -19q-19 0 -33 14.5t-14 33.5zM119 569v215q0 282 144 445.5t391 163.5q248 0 391.5 -163.5t143.5 -446.5v-214q0 -279 -143.5 -439t-391.5 -160q-251 0 -393 159.5
t-142 439.5zM259 785v-218q0 -218 106 -343.5t289 -125.5t289 125.5t106 343.5v218q0 221 -106.5 351t-288.5 130t-288.5 -130t-106.5 -351z" />
    <glyph glyph-name="Ocircumflex" unicode="&#xd4;" horiz-adv-x="1308" 
d="M654 1713h-3l-136 -176q-19 -25 -41 -25q-20 0 -33.5 14.5t-13.5 33.5q0 21 14 38l144 168q32 38 68 38q38 0 67 -38l146 -170q14 -15 14 -36q0 -19 -14 -33.5t-34 -14.5q-23 0 -42 28q-97 144 -136 173zM119 569v215q0 282 144 445.5t391 163.5q248 0 391.5 -163.5
t143.5 -446.5v-214q0 -279 -143.5 -439t-391.5 -160q-251 0 -393 159.5t-142 439.5zM259 785v-218q0 -218 106 -343.5t289 -125.5t289 125.5t106 343.5v218q0 221 -106.5 351t-288.5 130t-288.5 -130t-106.5 -351z" />
    <glyph glyph-name="Otilde" unicode="&#xd5;" horiz-adv-x="1308" 
d="M389 1538q0 63 41 106t106 43q74 0 133 -58q33 -31 52.5 -42.5t40.5 -11.5q24 0 42.5 20.5t22.5 53.5q3 19 14 30t27 11q41 0 41 -54q0 -63 -42.5 -105t-107.5 -42q-67 0 -132 62q-54 53 -88 53q-52 0 -63 -71q-9 -44 -48 -44t-39 49zM119 569v215q0 282 144 445.5
t391 163.5q248 0 391.5 -163.5t143.5 -446.5v-214q0 -279 -143.5 -439t-391.5 -160q-251 0 -393 159.5t-142 439.5zM259 785v-218q0 -218 106 -343.5t289 -125.5t289 125.5t106 343.5v218q0 221 -106.5 351t-288.5 130t-288.5 -130t-106.5 -351z" />
    <glyph glyph-name="Odieresis" unicode="&#xd6;" horiz-adv-x="1308" 
d="M425 1585q0 34 21 56t53 22q33 0 56 -22t23 -56q0 -33 -23 -54.5t-56 -21.5q-32 0 -53 21.5t-21 54.5zM728 1585q0 34 22.5 56t53.5 22q34 0 55.5 -22t21.5 -56q0 -33 -21.5 -54.5t-55.5 -21.5q-31 0 -53.5 22t-22.5 54zM119 569v215q0 282 144 445.5t391 163.5
q248 0 391.5 -163.5t143.5 -446.5v-214q0 -279 -143.5 -439t-391.5 -160q-251 0 -393 159.5t-142 439.5zM259 785v-218q0 -218 106 -343.5t289 -125.5t289 125.5t106 343.5v218q0 221 -106.5 351t-288.5 130t-288.5 -130t-106.5 -351z" />
    <glyph glyph-name="multiply" unicode="&#xd7;" 
d="M233 86q-17 -17 -40.5 -17t-40.5 17q-18 17 -18 42t17 41l327 327l-331 333q-17 17 -17.5 40.5t16.5 40.5q16 17 40.5 17t41.5 -17l332 -331l328 327q17 18 41.5 18t41.5 -18q18 -17 17.5 -41t-17.5 -41l-328 -329l330 -330q17 -17 17 -41t-17 -41t-41 -17t-41 17
l-330 330z" />
    <glyph glyph-name="Oslash" unicode="&#xd8;" horiz-adv-x="1307" 
d="M111 109l89 109q-81 144 -81 351v214q0 281 143.5 446t391.5 165q238 0 379 -152l88 106q18 24 44 24q22 0 37.5 -16t15.5 -38q0 -18 -16 -38l-102 -125q89 -152 89 -372v-214q0 -278 -142.5 -438.5t-392.5 -160.5q-249 0 -390 158l-72 -88q-19 -23 -44 -23
q-22 0 -38 15.5t-16 37.5q0 18 17 39zM258 567q0 -131 39 -228l648 793q-106 134 -291 134q-183 0 -289.5 -130t-106.5 -351v-218zM654 99q184 0 290 126t106 342v218q0 140 -47 250l-649 -796q106 -140 300 -140z" />
    <glyph glyph-name="Ugrave" unicode="&#xd9;" horiz-adv-x="1326" 
d="M600 1533l-148 173q-14 18 -14 39q0 24 17.5 42t42.5 18q34 0 53 -31l122 -183q11 -18 11 -29q0 -19 -14 -33t-33 -14q-22 0 -37 18zM1169 473q0 -227 -139 -365t-367 -138q-237 0 -371.5 137.5t-134.5 368.5v821q0 35 19 56t51 21t51 -21t19 -56v-824q0 -173 99 -274
t267 -101q169 0 267.5 101t98.5 274v824q0 35 19 56t51 21t51 -21t19 -56v-824z" />
    <glyph glyph-name="Uacute" unicode="&#xda;" horiz-adv-x="1326" 
d="M639 1560q0 11 11 29l122 183q20 31 53 31q24 0 41.5 -18t17.5 -42q0 -22 -13 -40l-148 -172q-16 -19 -37 -19q-19 0 -33 14.5t-14 33.5zM1169 473q0 -227 -139 -365t-367 -138q-237 0 -371.5 137.5t-134.5 368.5v821q0 35 19 56t51 21t51 -21t19 -56v-824
q0 -173 99 -274t267 -101q169 0 267.5 101t98.5 274v824q0 35 19 56t51 21t51 -21t19 -56v-824z" />
    <glyph glyph-name="Ucircumflex" unicode="&#xdb;" horiz-adv-x="1326" 
d="M664 1713h-4l-135 -176q-19 -25 -42 -25q-20 0 -33 14.5t-13 33.5q0 21 14 38l144 168q32 38 68 38q38 0 67 -38l146 -170q13 -16 13 -36q0 -19 -13.5 -33.5t-33.5 -14.5q-23 0 -42 28q-97 144 -136 173zM1169 473q0 -227 -139 -365t-367 -138q-237 0 -371.5 137.5
t-134.5 368.5v821q0 35 19 56t51 21t51 -21t19 -56v-824q0 -173 99 -274t267 -101q169 0 267.5 101t98.5 274v824q0 35 19 56t51 21t51 -21t19 -56v-824z" />
    <glyph glyph-name="Udieresis" unicode="&#xdc;" horiz-adv-x="1326" 
d="M434 1585q0 34 21.5 56t53.5 22q33 0 56 -22t23 -56q0 -33 -23 -54.5t-56 -21.5q-32 0 -53.5 21.5t-21.5 54.5zM738 1585q0 34 22.5 56t53.5 22q34 0 55.5 -22t21.5 -56q0 -33 -21.5 -54.5t-55.5 -21.5q-31 0 -53.5 22t-22.5 54zM1169 473q0 -227 -139 -365t-367 -138
q-237 0 -371.5 137.5t-134.5 368.5v821q0 35 19 56t51 21t51 -21t19 -56v-824q0 -173 99 -274t267 -101q169 0 267.5 101t98.5 274v824q0 35 19 56t51 21t51 -21t19 -56v-824z" />
    <glyph glyph-name="Yacute" unicode="&#xdd;" horiz-adv-x="1082" 
d="M517 1560q0 11 11 29l122 183q20 31 53 31q25 0 42.5 -18t17.5 -42q0 -21 -14 -40l-148 -172q-16 -19 -37 -19q-19 0 -33 14.5t-14 33.5zM541 -10q-32 0 -51 21t-19 56v538l-390 639q-29 48 -29 69q0 29 18.5 47t47.5 18q23 0 39.5 -13t37.5 -48l343 -575h6l343 575
q21 35 37.5 48t39.5 13q30 0 48 -18t18 -47q0 -21 -29 -69l-390 -638v-539q0 -35 -19 -56t-51 -21z" />
    <glyph glyph-name="Thorn" unicode="&#xde;" horiz-adv-x="1135" 
d="M242 -10q-32 0 -50.5 21t-18.5 56v1230q0 35 18.5 56t50.5 21t51.5 -21t19.5 -56v-200h316q197 0 312.5 -96.5t115.5 -280.5t-115.5 -280t-312.5 -96h-316v-277q0 -35 -19.5 -56t-51.5 -21zM313 970v-501h275q61 0 106 5t89 21t71 43t43.5 73t16.5 109q0 250 -290 250
h-311z" />
    <glyph glyph-name="germandbls" unicode="&#xdf;" horiz-adv-x="1196" 
d="M497 741q0 28 17 43.5t60 26.5q130 29 197 96.5t67 167.5q0 113 -72 176t-193 63q-128 0 -195 -71t-67 -206v-970q0 -36 -19 -56.5t-51 -20.5t-50 20.5t-18 56.5v983q0 178 107 281t295 103q182 0 292 -95t110 -251q0 -121 -80 -220.5t-182 -108.5v-10
q164 -1 276.5 -103.5t112.5 -262.5q0 -176 -130.5 -288.5t-328.5 -112.5q-82 0 -126 17q-43 18 -43 55q0 26 16.5 40.5t46.5 14.5q9 0 43 -4.5t60 -4.5q142 0 231.5 77.5t89.5 205.5t-93 197.5t-293 89.5q-80 9 -80 71z" />
    <glyph glyph-name="agrave" unicode="&#xe0;" horiz-adv-x="1039" 
d="M459 1208l-148 173q-14 16 -14 39q0 25 17.5 42.5t42.5 17.5q33 0 53 -30l122 -184q11 -18 11 -29q0 -19 -14 -33t-33 -14q-21 0 -37 18zM750 148q-44 -78 -126 -122t-185 -44q-153 0 -247 88t-94 231q0 142 96.5 223.5t266.5 81.5h291v115q0 108 -63.5 164.5
t-184.5 56.5q-73 0 -127.5 -28.5t-100.5 -89.5q-27 -35 -67 -35q-25 0 -40 15.5t-15 41.5q0 42 32 84.5t89 76.5q93 56 237 56q182 0 280 -87.5t98 -250.5v-657q0 -36 -18 -56.5t-49 -20.5t-49 20.5t-18 56.5v80h-6zM241 304q0 -90 63.5 -145.5t167.5 -55.5q119 0 199.5 73
t80.5 181v129h-288q-107 0 -165 -47t-58 -135z" />
    <glyph glyph-name="aacute" unicode="&#xe1;" horiz-adv-x="1039" 
d="M498 1237q0 9 10 29l123 184q20 30 53 30q24 0 41.5 -17.5t17.5 -42.5q0 -23 -13 -39l-149 -173q-15 -18 -36 -18q-19 0 -33 14t-14 33zM750 148q-44 -78 -126 -122t-185 -44q-153 0 -247 88t-94 231q0 142 96.5 223.5t266.5 81.5h291v115q0 108 -63.5 164.5t-184.5 56.5
q-73 0 -127.5 -28.5t-100.5 -89.5q-27 -35 -67 -35q-25 0 -40 15.5t-15 41.5q0 42 32 84.5t89 76.5q93 56 237 56q182 0 280 -87.5t98 -250.5v-657q0 -36 -18 -56.5t-49 -20.5t-49 20.5t-18 56.5v80h-6zM241 304q0 -90 63.5 -145.5t167.5 -55.5q119 0 199.5 73t80.5 181v129
h-288q-107 0 -165 -47t-58 -135z" />
    <glyph glyph-name="acircumflex" unicode="&#xe2;" horiz-adv-x="1039" 
d="M343 1186q-20 0 -33.5 14.5t-13.5 33.5t13 35l146 194q30 39 66 39q39 0 69 -39l145 -195q12 -16 12 -34q0 -19 -14 -33.5t-34 -14.5q-23 0 -42 28l-133 199h-4l-134 -199q-19 -28 -43 -28zM750 148q-44 -78 -126 -122t-185 -44q-153 0 -247 88t-94 231q0 142 96.5 223.5
t266.5 81.5h291v115q0 108 -63.5 164.5t-184.5 56.5q-73 0 -127.5 -28.5t-100.5 -89.5q-27 -35 -67 -35q-25 0 -40 15.5t-15 41.5q0 42 32 84.5t89 76.5q93 56 237 56q182 0 280 -87.5t98 -250.5v-657q0 -36 -18 -56.5t-49 -20.5t-49 20.5t-18 56.5v80h-6zM241 304
q0 -90 63.5 -145.5t167.5 -55.5q119 0 199.5 73t80.5 181v129h-288q-107 0 -165 -47t-58 -135z" />
    <glyph glyph-name="atilde" unicode="&#xe3;" horiz-adv-x="1039" 
d="M211 1247q0 68 37 118q47 64 134 64q44 0 78.5 -18.5t74.5 -63.5q36 -41 54.5 -54t43.5 -13q35 0 54 23.5t23 74.5q5 49 45 49q46 0 46 -62q0 -73 -41 -122q-49 -58 -130 -58q-42 0 -74 17.5t-77 65.5q-41 44 -58.5 56t-41.5 12q-34 0 -51.5 -23t-25.5 -74
q-10 -48 -47 -48q-44 0 -44 56zM750 148q-44 -78 -126 -122t-185 -44q-153 0 -247 88t-94 231q0 142 96.5 223.5t266.5 81.5h291v115q0 108 -63.5 164.5t-184.5 56.5q-73 0 -127.5 -28.5t-100.5 -89.5q-27 -35 -67 -35q-25 0 -40 15.5t-15 41.5q0 42 32 84.5t89 76.5
q93 56 237 56q182 0 280 -87.5t98 -250.5v-657q0 -36 -18 -56.5t-49 -20.5t-49 20.5t-18 56.5v80h-6zM241 304q0 -90 63.5 -145.5t167.5 -55.5q119 0 199.5 73t80.5 181v129h-288q-107 0 -165 -47t-58 -135z" />
    <glyph glyph-name="adieresis" unicode="&#xe4;" horiz-adv-x="1039" 
d="M273 1294q0 37 23.5 61.5t58.5 24.5q36 0 60.5 -24.5t24.5 -61.5q0 -36 -24.5 -60t-60.5 -24q-35 0 -58.5 24t-23.5 60zM602 1294q0 37 24.5 61.5t58.5 24.5q37 0 61 -24.5t24 -61.5q0 -36 -24 -60t-61 -24q-34 0 -58.5 24t-24.5 60zM750 148q-44 -78 -126 -122t-185 -44
q-153 0 -247 88t-94 231q0 142 96.5 223.5t266.5 81.5h291v115q0 108 -63.5 164.5t-184.5 56.5q-73 0 -127.5 -28.5t-100.5 -89.5q-27 -35 -67 -35q-25 0 -40 15.5t-15 41.5q0 42 32 84.5t89 76.5q93 56 237 56q182 0 280 -87.5t98 -250.5v-657q0 -36 -18 -56.5t-49 -20.5
t-49 20.5t-18 56.5v80h-6zM241 304q0 -90 63.5 -145.5t167.5 -55.5q119 0 199.5 73t80.5 181v129h-288q-107 0 -165 -47t-58 -135z" />
    <glyph glyph-name="aring" unicode="&#xe5;" horiz-adv-x="1039" 
d="M521 1186q-76 0 -129 52t-53 128q0 75 53 127t129 52t129.5 -52t53.5 -127q0 -76 -53.5 -128t-129.5 -52zM415 1366q0 -45 31 -77t75 -32q45 0 75.5 32t30.5 77t-30.5 76t-75.5 31q-44 0 -75 -31t-31 -76zM750 148q-44 -78 -126 -122t-185 -44q-153 0 -247 88t-94 231
q0 142 96.5 223.5t266.5 81.5h291v115q0 108 -63.5 164.5t-184.5 56.5q-73 0 -127.5 -28.5t-100.5 -89.5q-27 -35 -67 -35q-25 0 -40 15.5t-15 41.5q0 42 32 84.5t89 76.5q93 56 237 56q182 0 280 -87.5t98 -250.5v-657q0 -36 -18 -56.5t-49 -20.5t-49 20.5t-18 56.5v80h-6z
M241 304q0 -90 63.5 -145.5t167.5 -55.5q119 0 199.5 73t80.5 181v129h-288q-107 0 -165 -47t-58 -135z" />
    <glyph glyph-name="ae" unicode="&#xe6;" horiz-adv-x="1707" 
d="M1186 -16q-139 0 -235 56t-140 163h-12q-40 -102 -133.5 -161t-221.5 -59q-156 0 -251 86.5t-95 230.5q0 142 95.5 223t267.5 81h289v117q0 108 -61.5 162.5t-177.5 54.5q-158 0 -225 -115q-28 -44 -40.5 -55t-35.5 -11q-29 0 -45.5 17t-16.5 47q0 39 24 81t67 76
q102 85 271 85q235 0 327 -159h10q55 77 140.5 118t189.5 41q190 0 303 -125t113 -339q0 -60 -18.5 -85.5t-61.5 -25.5h-623v-54q0 -153 82.5 -240t224.5 -87q151 0 237 114q34 35 47.5 44.5t31.5 9.5q24 0 40.5 -17.5t16.5 -42.5q0 -28 -17 -63t-43 -60q-48 -50 -134.5 -79
t-189.5 -29zM890 597h564v16q0 151 -75 239.5t-201 88.5q-129 0 -208.5 -90t-79.5 -238v-16zM241 304q0 -91 63.5 -146t169.5 -55q120 0 198 72t78 182v131h-286q-108 0 -165.5 -48.5t-57.5 -135.5z" />
    <glyph glyph-name="ccedilla" unicode="&#xe7;" horiz-adv-x="1036" 
d="M512 -466q-47 0 -83 10q-49 13 -49 51q0 21 13.5 32t34.5 10q10 0 36 -4.5t46 -4.5q49 0 86.5 21t37.5 67q0 43 -31 58.5t-83 16.5q-90 4 -86 64q0 5 46 132q-173 19 -268 136.5t-95 308.5v183q0 206 112.5 327t310.5 121q141 0 246 -64q55 -34 92 -81.5t37 -92.5
q0 -29 -16 -48t-45 -19q-19 0 -34.5 9t-22.5 18t-19 26q-86 126 -238 126q-136 0 -210 -89.5t-74 -241.5v-166q0 -152 74 -242t212 -90q153 0 239 124q37 53 75 53q25 0 43 -17t18 -49q0 -45 -36 -92.5t-94 -82.5q-90 -53 -204 -60l-44 -112q96 7 155.5 -34t59.5 -123
q0 -91 -69.5 -136t-172.5 -45z" />
    <glyph glyph-name="egrave" unicode="&#xe8;" horiz-adv-x="1072" 
d="M475 1208l-148 173q-13 16 -13 39q0 25 17.5 42.5t41.5 17.5q33 0 53 -30l122 -184q11 -18 11 -29q0 -19 -14 -33t-33 -14q-21 0 -37 18zM117 441v159q0 209 118.5 336t307.5 127q184 0 300 -123.5t116 -324.5q0 -72 -17 -98.5t-63 -26.5h-623v-57q0 -153 82.5 -240
t225.5 -87q137 0 233 100q34 34 48 43t32 9q24 0 40 -17.5t16 -43.5q0 -22 -15.5 -51.5t-40.5 -54.5q-48 -51 -133 -80t-186 -29q-206 0 -323.5 122t-117.5 337zM256 610h564v3q0 151 -75 239.5t-202 88.5q-129 0 -208 -90t-79 -238v-3z" />
    <glyph glyph-name="eacute" unicode="&#xe9;" horiz-adv-x="1072" 
d="M514 1237q0 11 11 29l122 184q20 30 53 30q25 0 42.5 -17.5t17.5 -42.5q0 -22 -14 -39l-148 -173q-16 -18 -37 -18q-19 0 -33 14t-14 33zM117 441v159q0 209 118.5 336t307.5 127q184 0 300 -123.5t116 -324.5q0 -72 -17 -98.5t-63 -26.5h-623v-57q0 -153 82.5 -240
t225.5 -87q137 0 233 100q34 34 48 43t32 9q24 0 40 -17.5t16 -43.5q0 -22 -15.5 -51.5t-40.5 -54.5q-48 -51 -133 -80t-186 -29q-206 0 -323.5 122t-117.5 337zM256 610h564v3q0 151 -75 239.5t-202 88.5q-129 0 -208 -90t-79 -238v-3z" />
    <glyph glyph-name="ecircumflex" unicode="&#xea;" horiz-adv-x="1072" 
d="M360 1186q-20 0 -34 14.5t-14 33.5t13 35l147 194q28 39 66 39t68 -39l145 -195q12 -16 12 -34q0 -19 -13.5 -33.5t-33.5 -14.5q-24 0 -43 28l-133 199h-4l-134 -199q-19 -28 -42 -28zM117 441v159q0 209 118.5 336t307.5 127q184 0 300 -123.5t116 -324.5
q0 -72 -17 -98.5t-63 -26.5h-623v-57q0 -153 82.5 -240t225.5 -87q137 0 233 100q34 34 48 43t32 9q24 0 40 -17.5t16 -43.5q0 -22 -15.5 -51.5t-40.5 -54.5q-48 -51 -133 -80t-186 -29q-206 0 -323.5 122t-117.5 337zM256 610h564v3q0 151 -75 239.5t-202 88.5
q-129 0 -208 -90t-79 -238v-3z" />
    <glyph glyph-name="edieresis" unicode="&#xeb;" horiz-adv-x="1072" 
d="M289 1294q0 37 24 61.5t59 24.5q36 0 60 -24.5t24 -61.5q0 -36 -24 -60t-60 -24q-35 0 -59 24t-24 60zM619 1294q0 37 24 61.5t58 24.5q37 0 61 -24t24 -62q0 -36 -24 -60t-61 -24q-34 0 -58 24t-24 60zM117 441v159q0 209 118.5 336t307.5 127q184 0 300 -123.5
t116 -324.5q0 -72 -17 -98.5t-63 -26.5h-623v-57q0 -153 82.5 -240t225.5 -87q137 0 233 100q34 34 48 43t32 9q24 0 40 -17.5t16 -43.5q0 -22 -15.5 -51.5t-40.5 -54.5q-48 -51 -133 -80t-186 -29q-206 0 -323.5 122t-117.5 337zM256 610h564v3q0 151 -75 239.5t-202 88.5
q-129 0 -208 -90t-79 -238v-3z" />
    <glyph glyph-name="igrave" unicode="&#xec;" horiz-adv-x="477" 
d="M176 1208l-148 173q-14 16 -14 39q0 25 17.5 42.5t42.5 17.5q33 0 53 -30l122 -184q11 -18 11 -29q0 -19 -14 -33t-33 -14q-21 0 -37 18zM170 67v911q0 38 19 57.5t50 19.5t50 -19.5t19 -57.5v-911q0 -37 -19.5 -57t-49.5 -20q-31 0 -50 20t-19 57z" />
    <glyph glyph-name="iacute" unicode="&#xed;" horiz-adv-x="477" 
d="M215 1237q0 9 10 29l123 184q20 30 52 30q25 0 42.5 -17.5t17.5 -42.5q0 -23 -14 -39l-148 -173q-15 -18 -36 -18q-20 0 -33.5 14t-13.5 33zM169 67v911q0 37 19.5 57t50.5 20t49.5 -19.5t18.5 -57.5v-911q0 -38 -19 -57.5t-50 -19.5t-50 20t-19 57z" />
    <glyph glyph-name="icircumflex" unicode="&#xee;" horiz-adv-x="477" 
d="M60 1186q-20 0 -33.5 14.5t-13.5 33.5t12 35l147 194q30 39 66 39q40 0 68 -39l146 -195q12 -16 12 -34q0 -19 -14 -33.5t-34 -14.5q-23 0 -42 28l-134 199h-3l-134 -199q-19 -28 -43 -28zM169 67v911q0 37 19.5 57t50.5 20t49.5 -19.5t18.5 -57.5v-911q0 -38 -19 -57.5
t-50 -19.5t-50 20t-19 57z" />
    <glyph glyph-name="idieresis" unicode="&#xef;" horiz-adv-x="477" 
d="M-10 1294q0 37 23.5 61.5t58.5 24.5q36 0 60.5 -24.5t24.5 -61.5q0 -36 -24.5 -60t-60.5 -24q-35 0 -58.5 24t-23.5 60zM319 1294q0 37 24 61.5t59 24.5q37 0 61 -24.5t24 -61.5q0 -36 -24 -60t-61 -24q-35 0 -59 24t-24 60zM169 67v911q0 37 19.5 57t50.5 20t49.5 -19.5
t18.5 -57.5v-911q0 -38 -19 -57.5t-50 -19.5t-50 20t-19 57z" />
    <glyph glyph-name="eth" unicode="&#xf0;" horiz-adv-x="1097" 
d="M454 1139q-10 -2 -13 -2q-19 0 -31.5 12.5t-12.5 30.5q0 29 31 41l215 78q-45 44 -148 109q-32 21 -32 56q0 26 19 45t45 19q17 0 31 -8q112 -61 218 -175l222 80q6 3 16 3q18 0 29.5 -13t11.5 -31q0 -29 -32 -41l-188 -68q78 -105 119.5 -240.5t41.5 -281.5v-313
q0 -208 -121 -332.5t-318 -124.5q-200 0 -320 123t-120 334v108q0 206 122.5 331.5t317.5 125.5q94 0 170 -37t123 -103h7q0 67 -38 155q-37 122 -111 209zM557 883q-136 0 -219.5 -95t-83.5 -255v-78q0 -163 81.5 -256t221.5 -93q138 0 219.5 92.5t81.5 256.5v103
q0 151 -81 238t-220 87z" />
    <glyph glyph-name="ntilde" unicode="&#xf1;" horiz-adv-x="1134" 
d="M259 1247q0 69 38 118q46 64 133 64q45 0 79 -18.5t74 -63.5q36 -41 55 -54t44 -13q67 0 77 98q5 49 44 49q47 0 47 -62q0 -74 -42 -122q-47 -58 -130 -58q-42 0 -73.5 17.5t-77.5 65.5q-41 44 -58.5 56t-41.5 12q-33 0 -51 -23t-26 -74q-9 -48 -46 -48q-45 0 -45 56z
M987 67q0 -36 -19 -56.5t-51 -20.5t-50.5 20.5t-18.5 56.5v604q0 128 -64.5 198t-184.5 70q-140 0 -220.5 -93.5t-80.5 -250.5v-528q0 -36 -18.5 -56.5t-50.5 -20.5t-50.5 20.5t-18.5 56.5v910q0 36 19 57t51 21q31 0 49.5 -21t18.5 -57v-127h7q32 99 116 156t209 57
q167 0 262 -92.5t95 -258.5v-645z" />
    <glyph glyph-name="ograve" unicode="&#xf2;" horiz-adv-x="1113" 
d="M495 1208l-148 173q-13 16 -13 39q0 25 17.5 42.5t41.5 17.5q33 0 53 -30l122 -184q11 -18 11 -29q0 -19 -14 -33t-33 -14q-21 0 -37 18zM557 1063q192 0 315.5 -122t123.5 -336v-165q0 -214 -123.5 -336t-315.5 -122q-193 0 -316.5 122t-123.5 336v165
q0 215 123.5 336.5t316.5 121.5zM557 939q-136 0 -218 -94.5t-82 -254.5v-135q0 -162 82 -255.5t218 -93.5q137 0 218.5 93t81.5 256v135q0 160 -82 254.5t-218 94.5z" />
    <glyph glyph-name="oacute" unicode="&#xf3;" horiz-adv-x="1113" 
d="M534 1237q0 11 11 29l122 184q20 30 53 30q25 0 42.5 -17.5t17.5 -42.5q0 -22 -14 -39l-148 -173q-16 -18 -37 -18q-19 0 -33 14t-14 33zM557 1063q192 0 315.5 -122t123.5 -336v-165q0 -214 -123.5 -336t-315.5 -122q-193 0 -316.5 122t-123.5 336v165
q0 215 123.5 336.5t316.5 121.5zM557 939q-136 0 -218 -94.5t-82 -254.5v-135q0 -162 82 -255.5t218 -93.5q137 0 218.5 93t81.5 256v135q0 160 -82 254.5t-218 94.5z" />
    <glyph glyph-name="ocircumflex" unicode="&#xf4;" horiz-adv-x="1113" 
d="M380 1186q-20 0 -34 14.5t-14 33.5t13 35l147 194q28 39 66 39t68 -39l145 -195q12 -16 12 -34q0 -19 -13.5 -33.5t-33.5 -14.5q-24 0 -43 28l-133 199h-4l-134 -199q-19 -28 -42 -28zM557 1063q192 0 315.5 -122t123.5 -336v-165q0 -214 -123.5 -336t-315.5 -122
q-193 0 -316.5 122t-123.5 336v165q0 215 123.5 336.5t316.5 121.5zM557 939q-136 0 -218 -94.5t-82 -254.5v-135q0 -162 82 -255.5t218 -93.5q137 0 218.5 93t81.5 256v135q0 160 -82 254.5t-218 94.5z" />
    <glyph glyph-name="otilde" unicode="&#xf5;" horiz-adv-x="1113" 
d="M247 1247q0 69 38 118q46 64 133 64q44 0 78.5 -18.5t74.5 -63.5q36 -41 54.5 -54t43.5 -13q35 0 54 23.5t23 74.5q3 23 15 36t30 13q47 0 47 -62q0 -72 -42 -122q-47 -58 -130 -58q-42 0 -73.5 17.5t-77.5 65.5q-41 44 -58.5 56t-41.5 12q-34 0 -51.5 -23t-25.5 -74
q-10 -48 -47 -48q-44 0 -44 56zM557 1063q192 0 315.5 -122t123.5 -336v-165q0 -214 -123.5 -336t-315.5 -122q-193 0 -316.5 122t-123.5 336v165q0 215 123.5 336.5t316.5 121.5zM557 939q-136 0 -218 -94.5t-82 -254.5v-135q0 -162 82 -255.5t218 -93.5q137 0 218.5 93
t81.5 256v135q0 160 -82 254.5t-218 94.5z" />
    <glyph glyph-name="odieresis" unicode="&#xf6;" horiz-adv-x="1113" 
d="M309 1294q0 37 24 61.5t59 24.5q36 0 60 -24.5t24 -61.5q0 -36 -24 -60t-60 -24q-35 0 -59 24t-24 60zM639 1294q0 37 24 61.5t58 24.5q37 0 61 -24t24 -62q0 -36 -24 -60t-61 -24q-34 0 -58 24t-24 60zM557 1063q192 0 315.5 -122t123.5 -336v-165q0 -214 -123.5 -336
t-315.5 -122q-193 0 -316.5 122t-123.5 336v165q0 215 123.5 336.5t316.5 121.5zM557 939q-136 0 -218 -94.5t-82 -254.5v-135q0 -162 82 -255.5t218 -93.5q137 0 218.5 93t81.5 256v135q0 160 -82 254.5t-218 94.5z" />
    <glyph glyph-name="divide" unicode="&#xf7;" 
d="M443 925q0 50 33.5 84t80.5 34q50 0 84.5 -34t34.5 -84q0 -48 -34.5 -81t-84.5 -33q-47 0 -80.5 33t-33.5 81zM79 544q0 26 16 41.5t48 15.5h833q32 0 48 -15.5t16 -41.5t-16 -42t-48 -16h-833q-32 0 -48 16t-16 42zM444 170q0 50 33 83.5t81 33.5q50 0 84.5 -33.5
t34.5 -83.5q0 -48 -34.5 -81t-84.5 -33q-47 0 -80.5 33t-33.5 81z" />
    <glyph glyph-name="oslash" unicode="&#xf8;" horiz-adv-x="1113" 
d="M139 44l73 98q-95 122 -95 298v165q0 209 124 333.5t316 124.5q154 0 269 -92l63 80q21 30 50 30q17 0 32.5 -15t15.5 -33q0 -19 -16 -41l-71 -92q96 -122 96 -295v-165q0 -214 -123.5 -335.5t-315.5 -121.5q-158 0 -269 88l-66 -87q-21 -29 -50 -29q-18 0 -33 14.5
t-15 32.5q0 21 15 42zM251 431q0 -105 39 -180l465 622q-77 71 -198 71q-136 0 -221 -97t-85 -257v-159zM358 169q78 -66 199 -66q139 0 221.5 94.5t82.5 257.5v159q0 101 -39 177z" />
    <glyph glyph-name="ugrave" unicode="&#xf9;" horiz-adv-x="1129" 
d="M498 1208l-148 173q-14 16 -14 39q0 25 17.5 42.5t42.5 17.5q34 0 52 -30l123 -184q11 -18 11 -29q0 -19 -14 -33t-34 -14q-21 0 -36 18zM822 181q-31 -83 -111.5 -141t-216.5 -58q-157 0 -253 83.5t-96 252.5v664q0 37 19 55.5t50 18.5t50 -18.5t19 -55.5v-630
q0 -126 67.5 -186t175.5 -60q133 0 218.5 79t85.5 194v603q0 37 19 55.5t50 18.5t50.5 -18.5t19.5 -55.5v-917q0 -37 -19.5 -55.5t-50.5 -18.5t-50 18.5t-19 55.5v116h-8z" />
    <glyph glyph-name="uacute" unicode="&#xfa;" horiz-adv-x="1129" 
d="M537 1237q0 9 10 29l123 184q20 30 52 30q25 0 42.5 -17.5t17.5 -42.5q0 -23 -14 -39l-148 -173q-15 -18 -36 -18q-20 0 -33.5 14t-13.5 33zM822 181q-31 -83 -111.5 -141t-216.5 -58q-157 0 -253 83.5t-96 252.5v664q0 37 19 55.5t50 18.5t50 -18.5t19 -55.5v-630
q0 -126 67.5 -186t175.5 -60q133 0 218.5 79t85.5 194v603q0 37 19 55.5t50 18.5t50.5 -18.5t19.5 -55.5v-917q0 -37 -19.5 -55.5t-50.5 -18.5t-50 18.5t-19 55.5v116h-8z" />
    <glyph glyph-name="ucircumflex" unicode="&#xfb;" horiz-adv-x="1129" 
d="M382 1186q-20 0 -33.5 14.5t-13.5 33.5t12 35l147 194q30 39 66 39q40 0 68 -39l146 -195q12 -16 12 -34q0 -19 -14 -33.5t-34 -14.5q-23 0 -42 28l-134 199h-3l-134 -199q-19 -28 -43 -28zM822 181q-31 -83 -111.5 -141t-216.5 -58q-157 0 -253 83.5t-96 252.5v664
q0 37 19 55.5t50 18.5t50 -18.5t19 -55.5v-630q0 -126 67.5 -186t175.5 -60q133 0 218.5 79t85.5 194v603q0 37 19 55.5t50 18.5t50.5 -18.5t19.5 -55.5v-917q0 -37 -19.5 -55.5t-50.5 -18.5t-50 18.5t-19 55.5v116h-8z" />
    <glyph glyph-name="udieresis" unicode="&#xfc;" horiz-adv-x="1129" 
d="M312 1294q0 37 23.5 61.5t58.5 24.5q36 0 60.5 -24.5t24.5 -61.5q0 -36 -24.5 -60t-60.5 -24q-35 0 -58.5 24t-23.5 60zM641 1294q0 37 24 61.5t59 24.5q37 0 61 -24.5t24 -61.5q0 -36 -24 -60t-61 -24q-35 0 -59 24t-24 60zM822 181q-31 -83 -111.5 -141t-216.5 -58
q-157 0 -253 83.5t-96 252.5v664q0 37 19 55.5t50 18.5t50 -18.5t19 -55.5v-630q0 -126 67.5 -186t175.5 -60q133 0 218.5 79t85.5 194v603q0 37 19 55.5t50 18.5t50.5 -18.5t19.5 -55.5v-917q0 -37 -19.5 -55.5t-50.5 -18.5t-50 18.5t-19 55.5v116h-8z" />
    <glyph glyph-name="yacute" unicode="&#xfd;" horiz-adv-x="939" 
d="M451 1237q0 9 10 29l123 184q20 30 52 30q25 0 42.5 -17.5t17.5 -42.5q0 -23 -14 -39l-148 -173q-15 -18 -36 -18q-20 0 -33.5 14t-13.5 33zM86 -304q0 25 19 40t50 15q6 0 25 -1t31 -1q57 0 102.5 45t67.5 120l21 70l-347 945q-12 31 -12 53q0 29 20 48t51 19
q50 0 73 -70l283 -836h6l281 836q23 70 72 70q29 0 48.5 -18.5t19.5 -47.5q0 -22 -12 -53l-368 -1022q-53 -148 -128 -213.5t-189 -65.5q-64 0 -94 25q-20 17 -20 42z" />
    <glyph glyph-name="thorn" unicode="&#xfe;" horiz-adv-x="1141" 
d="M162 -289v1654q0 36 18 56.5t50 20.5q33 0 51.5 -20.5t18.5 -56.5v-495h7q31 86 114 139.5t200 53.5q182 0 293 -119.5t111 -324.5v-192q0 -204 -111.5 -324t-297.5 -120q-115 0 -195 51t-114 131h-7v-454q0 -36 -19 -56.5t-51 -20.5t-50 20.5t-18 56.5zM598 106
q134 0 211.5 93t77.5 260v127q0 170 -78.5 262.5t-214.5 92.5q-135 0 -214.5 -90t-79.5 -241v-192q0 -135 82.5 -223.5t215.5 -88.5z" />
    <glyph glyph-name="ydieresis" unicode="&#xff;" horiz-adv-x="939" 
d="M226 1294q0 37 23.5 61.5t58.5 24.5q36 0 60.5 -24.5t24.5 -61.5q0 -36 -24.5 -60t-60.5 -24q-35 0 -58.5 24t-23.5 60zM555 1294q0 37 24 61.5t59 24.5q37 0 61 -24.5t24 -61.5q0 -36 -24 -60t-61 -24q-35 0 -59 24t-24 60zM86 -304q0 25 19 40t50 15q6 0 25 -1t31 -1
q57 0 102.5 45t67.5 120l21 70l-347 945q-12 31 -12 53q0 29 20 48t51 19q50 0 73 -70l283 -836h6l281 836q23 70 72 70q29 0 48.5 -18.5t19.5 -47.5q0 -22 -12 -53l-368 -1022q-53 -148 -128 -213.5t-189 -65.5q-64 0 -94 25q-20 17 -20 42z" />
    <glyph glyph-name="Amacron" unicode="&#x100;" horiz-adv-x="1188" 
d="M322 1575q0 21 16 34.5t44 13.5h421q29 0 44.5 -13.5t15.5 -34.5t-15.5 -35.5t-44.5 -14.5h-421q-29 0 -44.5 14.5t-15.5 35.5zM124 -13q-30 0 -48 16.5t-18 44.5q0 24 9 49l430 1198q15 41 37.5 60t59.5 19q36 0 59 -19t38 -60l429 -1198q10 -28 10 -49
q0 -28 -18.5 -44.5t-48.5 -16.5q-29 0 -46.5 15t-29.5 50l-129 378h-529l-129 -378q-11 -35 -29 -50t-47 -15zM369 545h449l-221 647h-6z" />
    <glyph glyph-name="amacron" unicode="&#x101;" horiz-adv-x="1039" 
d="M250 1302q0 21 15.5 34.5t44.5 13.5h423q29 0 45 -13.5t16 -34.5t-16 -35.5t-45 -14.5h-423q-29 0 -44.5 14.5t-15.5 35.5zM750 148q-44 -78 -126 -122t-185 -44q-153 0 -247 88t-94 231q0 142 96.5 223.5t266.5 81.5h291v115q0 108 -63.5 164.5t-184.5 56.5
q-73 0 -127.5 -28.5t-100.5 -89.5q-27 -35 -67 -35q-25 0 -40 15.5t-15 41.5q0 42 32 84.5t89 76.5q93 56 237 56q182 0 280 -87.5t98 -250.5v-657q0 -36 -18 -56.5t-49 -20.5t-49 20.5t-18 56.5v80h-6zM241 304q0 -90 63.5 -145.5t167.5 -55.5q119 0 199.5 73t80.5 181v129
h-288q-107 0 -165 -47t-58 -135z" />
    <glyph glyph-name="Abreve" unicode="&#x102;" horiz-adv-x="1188" 
d="M868 1715q0 -32 -22 -72.5t-56 -72.5q-77 -72 -199 -72q-121 0 -198 72q-34 31 -56 72t-22 74q0 23 13.5 37t35.5 14q36 0 52 -40q12 -33 29.5 -60.5t56.5 -52t89 -24.5q39 0 71 13.5t52.5 36t32.5 43.5t20 44q16 40 50 40q22 0 36.5 -14t14.5 -38zM124 -13
q-30 0 -48 16.5t-18 44.5q0 24 9 49l430 1198q15 41 37.5 60t59.5 19q36 0 59 -19t38 -60l429 -1198q10 -28 10 -49q0 -28 -18.5 -44.5t-48.5 -16.5q-29 0 -46.5 15t-29.5 50l-129 378h-529l-129 -378q-11 -35 -29 -50t-47 -15zM369 545h449l-221 647h-6z" />
    <glyph glyph-name="abreve" unicode="&#x103;" horiz-adv-x="1039" 
d="M244 1408q0 22 13.5 36.5t34.5 14.5q36 0 53 -39q53 -138 175 -138q123 0 176 138q15 39 50 39q23 0 37 -14.5t14 -37.5q0 -32 -22.5 -73t-55.5 -72q-78 -72 -199 -72q-120 0 -198 72q-34 31 -56 72t-22 74zM750 148q-44 -78 -126 -122t-185 -44q-153 0 -247 88t-94 231
q0 142 96.5 223.5t266.5 81.5h291v115q0 108 -63.5 164.5t-184.5 56.5q-73 0 -127.5 -28.5t-100.5 -89.5q-27 -35 -67 -35q-25 0 -40 15.5t-15 41.5q0 42 32 84.5t89 76.5q93 56 237 56q182 0 280 -87.5t98 -250.5v-657q0 -36 -18 -56.5t-49 -20.5t-49 20.5t-18 56.5v80h-6z
M241 304q0 -90 63.5 -145.5t167.5 -55.5q119 0 199.5 73t80.5 181v129h-288q-107 0 -165 -47t-58 -135z" />
    <glyph glyph-name="Aogonek" unicode="&#x104;" horiz-adv-x="1188" 
d="M1038 -378q-94 0 -150.5 50t-56.5 135q0 130 159 235l-132 388h-529l-129 -378q-11 -35 -29 -50t-47 -15q-30 0 -48 16.5t-18 44.5q0 24 9 49l430 1198q28 79 96 79q69 0 97 -79l430 -1198q7 -21 7 -38q0 -44 -50 -78q-69 -50 -95 -84t-26 -74q0 -44 28 -70.5t75 -26.5
q12 0 26 2.5t24 2.5q20 0 32.5 -12.5t12.5 -33.5q0 -29 -31.5 -46t-84.5 -17zM369 545h449l-222 647h-6z" />
    <glyph glyph-name="aogonek" unicode="&#x105;" horiz-adv-x="1039" 
d="M905 -357q-25 -19 -87 -19q-85 0 -141 55t-56 138q0 63 29.5 112t105.5 112v107h-6q-43 -78 -125.5 -121.5t-185.5 -43.5q-153 0 -247 87.5t-94 230.5q0 142 96.5 222.5t266.5 80.5h289v117q0 109 -62.5 165t-183.5 56q-73 0 -127.5 -28.5t-100.5 -89.5q-27 -35 -67 -35
q-25 0 -40 15.5t-15 41.5q0 42 32 84.5t89 76.5q93 56 237 56q182 0 280 -87.5t98 -250.5v-650q0 -40 -8.5 -57t-34.5 -33q-102 -64 -102 -152q0 -45 28.5 -71t77.5 -26q39 0 59 -10q20 -12 20 -41q0 -28 -25 -42zM241 304q0 -90 63.5 -145.5t167.5 -55.5q119 0 198.5 73
t79.5 181v131h-286q-107 0 -165 -48t-58 -136z" />
    <glyph glyph-name="Cacute" unicode="&#x106;" horiz-adv-x="1243" 
d="M619 1560q0 11 11 29l122 183q20 31 53 31q24 0 42 -18t18 -42q0 -21 -14 -40l-148 -172q-16 -19 -37 -19q-19 0 -33 14.5t-14 33.5zM119 567v229q0 282 137.5 439.5t384.5 157.5q239 0 380 -147q50 -51 80.5 -112t30.5 -106q0 -31 -17 -48.5t-45 -17.5q-25 0 -42.5 13.5
t-33.5 48.5q-106 242 -349 242q-184 0 -285 -122.5t-101 -346.5v-231q0 -224 101.5 -346t287.5 -122q123 0 213.5 60.5t138.5 177.5q16 33 31.5 46.5t39.5 13.5q30 0 47 -17t17 -47q0 -48 -30.5 -108.5t-81.5 -111.5q-142 -142 -380 -142q-249 0 -386.5 156.5t-137.5 440.5z
" />
    <glyph glyph-name="cacute" unicode="&#x107;" horiz-adv-x="1036" 
d="M525 1237q0 9 10 29l123 184q20 30 53 30q24 0 41.5 -17.5t17.5 -42.5q0 -23 -14 -39l-148 -173q-15 -18 -36 -18q-19 0 -33 14t-14 33zM117 432v183q0 206 112.5 327t310.5 121q143 0 246 -64q55 -34 92 -81.5t37 -92.5q0 -29 -16 -48t-45 -19q-19 0 -34.5 9t-22.5 18
t-19 26q-86 127 -238 127q-136 0 -210 -90t-74 -242v-166q0 -152 74 -242t212 -90q153 0 239 124q37 53 75 53q25 0 43 -17t18 -49q0 -45 -36 -92.5t-94 -82.5q-104 -62 -242 -62q-202 0 -315 120.5t-113 329.5z" />
    <glyph glyph-name="Ccircumflex" unicode="&#x108;" horiz-adv-x="1243" 
d="M644 1713h-3l-136 -176q-19 -25 -41 -25q-20 0 -33.5 14.5t-13.5 33.5q0 21 14 38l144 168q32 38 68 38q38 0 67 -38l146 -170q14 -15 14 -36q0 -19 -14 -33.5t-34 -14.5q-23 0 -42 28q-97 144 -136 173zM119 567v229q0 282 137.5 439.5t384.5 157.5q239 0 380 -147
q50 -51 80.5 -112t30.5 -106q0 -31 -17 -48.5t-45 -17.5q-25 0 -42.5 13.5t-33.5 48.5q-106 242 -349 242q-184 0 -285 -122.5t-101 -346.5v-231q0 -224 101.5 -346t287.5 -122q123 0 213.5 60.5t138.5 177.5q16 33 31.5 46.5t39.5 13.5q30 0 47 -17t17 -47
q0 -48 -30.5 -108.5t-81.5 -111.5q-142 -142 -380 -142q-249 0 -386.5 156.5t-137.5 440.5z" />
    <glyph glyph-name="ccircumflex" unicode="&#x109;" horiz-adv-x="1036" 
d="M370 1186q-20 0 -33.5 14.5t-13.5 33.5t13 35l146 194q30 39 66 39q39 0 69 -39l145 -195q12 -16 12 -34q0 -19 -14 -33.5t-34 -14.5q-23 0 -42 28l-134 199h-3l-134 -199q-19 -28 -43 -28zM117 432v183q0 206 112.5 327t310.5 121q143 0 246 -64q55 -34 92 -81.5
t37 -92.5q0 -29 -16 -48t-45 -19q-19 0 -34.5 9t-22.5 18t-19 26q-86 127 -238 127q-136 0 -210 -90t-74 -242v-166q0 -152 74 -242t212 -90q153 0 239 124q37 53 75 53q25 0 43 -17t18 -49q0 -45 -36 -92.5t-94 -82.5q-104 -62 -242 -62q-202 0 -315 120.5t-113 329.5z" />
    <glyph glyph-name="Cdotaccent" unicode="&#x10a;" horiz-adv-x="1243" 
d="M548 1638q0 40 27.5 67t66.5 27q40 0 67.5 -27t27.5 -67t-27.5 -67t-67.5 -27t-67 27t-27 67zM119 567v229q0 282 137.5 439.5t384.5 157.5q239 0 380 -147q50 -51 80.5 -112t30.5 -106q0 -31 -17 -48.5t-45 -17.5q-25 0 -42.5 13.5t-33.5 48.5q-106 242 -349 242
q-184 0 -285 -122.5t-101 -346.5v-231q0 -224 101.5 -346t287.5 -122q123 0 213.5 60.5t138.5 177.5q16 33 31.5 46.5t39.5 13.5q30 0 47 -17t17 -47q0 -48 -30.5 -108.5t-81.5 -111.5q-142 -142 -380 -142q-249 0 -386.5 156.5t-137.5 440.5z" />
    <glyph glyph-name="cdotaccent" unicode="&#x10b;" horiz-adv-x="1036" 
d="M453 1302q0 40 27.5 67.5t67.5 27.5t68 -27.5t28 -67.5t-28 -67.5t-68 -27.5t-67.5 27.5t-27.5 67.5zM117 432v183q0 206 112.5 327t310.5 121q143 0 246 -64q55 -34 92 -81.5t37 -92.5q0 -29 -16 -48t-45 -19q-19 0 -34.5 9t-22.5 18t-19 26q-86 127 -238 127
q-136 0 -210 -90t-74 -242v-166q0 -152 74 -242t212 -90q153 0 239 124q37 53 75 53q25 0 43 -17t18 -49q0 -45 -36 -92.5t-94 -82.5q-104 -62 -242 -62q-202 0 -315 120.5t-113 329.5z" />
    <glyph glyph-name="Ccaron" unicode="&#x10c;" horiz-adv-x="1243" 
d="M417 1757q0 19 13.5 34t33.5 15q25 0 41 -26l136 -176h4q11 8 29 29t35.5 45t34 47t26.5 38l11 15q18 28 41 28q20 0 34 -15t14 -34q0 -20 -13 -36l-146 -170q-30 -37 -67 -37q-39 0 -69 38l-144 167q-14 18 -14 38zM119 567v229q0 282 137.5 439.5t384.5 157.5
q239 0 380 -147q50 -51 80.5 -112t30.5 -106q0 -31 -17 -48.5t-45 -17.5q-25 0 -42.5 13.5t-33.5 48.5q-106 242 -349 242q-184 0 -285 -122.5t-101 -346.5v-231q0 -224 101.5 -346t287.5 -122q123 0 213.5 60.5t138.5 177.5q16 33 31.5 46.5t39.5 13.5q30 0 47 -17t17 -47
q0 -48 -30.5 -108.5t-81.5 -111.5q-142 -142 -380 -142q-249 0 -386.5 156.5t-137.5 440.5z" />
    <glyph glyph-name="ccaron" unicode="&#x10d;" horiz-adv-x="1036" 
d="M481 1237l-144 191q-13 18 -13 37q0 20 13 34t33 14q26 0 43 -26l134 -200h3l135 198q19 28 42 28q21 0 34.5 -14t13.5 -34q0 -18 -12 -34l-146 -194q-28 -40 -67 -40t-69 40zM117 432v183q0 206 112.5 327t310.5 121q143 0 246 -64q55 -34 92 -81.5t37 -92.5
q0 -29 -16 -48t-45 -19q-19 0 -34.5 9t-22.5 18t-19 26q-86 127 -238 127q-136 0 -210 -90t-74 -242v-166q0 -152 74 -242t212 -90q153 0 239 124q37 53 75 53q25 0 43 -17t18 -49q0 -45 -36 -92.5t-94 -82.5q-104 -62 -242 -62q-202 0 -315 120.5t-113 329.5z" />
    <glyph glyph-name="Dcaron" unicode="&#x10e;" horiz-adv-x="1287" 
d="M366 1757q0 19 13.5 34t33.5 15q24 0 42 -26l136 -176h3q17 13 51 56.5t59 80.5l26 37q20 28 42 28q20 0 33.5 -15t13.5 -34q0 -20 -13 -36l-146 -170q-28 -37 -67 -37q-38 0 -68 38l-144 167q-15 18 -15 38zM173 126v1111q0 68 32 97.5t105 29.5h275q296 0 448.5 -173
t152.5 -509q0 -337 -152 -509.5t-449 -172.5h-275q-73 0 -105 29t-32 97zM313 128h270q461 0 461 554q0 555 -461 555h-270v-1109z" />
    <glyph glyph-name="dcaron" unicode="&#x10f;" horiz-adv-x="1312" 
d="M843 176q-22 -78 -111 -136t-212 -58q-182 0 -292.5 118t-110.5 314v216q0 198 113 315.5t294 117.5q117 0 199.5 -51.5t113.5 -131.5h7v485q0 35 18.5 56t50.5 21t50.5 -21t18.5 -56v-1297q0 -37 -17 -57t-49 -20q-31 0 -48 20t-17 57v108h-8zM1166 1024l19 347
q1 32 19.5 49.5t45.5 17.5q36 0 51.5 -23t12.5 -52l-40 -357q-7 -56 -56 -56q-24 0 -39 20t-13 54zM257 450q0 -162 77.5 -253t211.5 -91q136 0 217 91t81 237v193q0 135 -85.5 223.5t-217.5 88.5q-130 0 -207 -90.5t-77 -253.5v-145z" />
    <glyph glyph-name="Dcroat" unicode="&#x110;" horiz-adv-x="1359" 
d="M243 126v509h-103q-35 0 -55 17t-20 46q0 30 20 47t55 17h103v475q0 67 32 97t105 30h276q296 0 448 -173t152 -509q0 -338 -151.5 -510t-448.5 -172h-276q-73 0 -105 29t-32 97zM383 128h270q461 0 461 554q0 555 -461 555h-270v-475h292q35 0 55 -17t20 -47
q0 -29 -20 -46t-55 -17h-292v-507z" />
    <glyph glyph-name="dcroat" unicode="&#x111;" horiz-adv-x="1150" 
d="M117 415v216q0 198 113 315t294 117q117 0 199.5 -51t113.5 -131h7v306h-195q-34 0 -53 16t-19 43q0 26 19 41.5t53 15.5h195v100q0 36 18.5 57t50.5 21t50.5 -21t18.5 -57v-100h66q35 0 53.5 -15.5t18.5 -41.5q0 -27 -18.5 -43t-53.5 -16h-66v-1119q0 -37 -17 -57
t-49 -20q-31 0 -48 20t-17 57v108h-8q-22 -77 -111 -134.5t-212 -57.5q-182 0 -292.5 117.5t-110.5 313.5zM255 451q0 -162 78.5 -254t212.5 -92q136 0 217 91.5t81 238.5v193q0 135 -85.5 223.5t-217.5 88.5q-130 0 -208 -91t-78 -254v-144z" />
    <glyph glyph-name="Emacron" unicode="&#x112;" horiz-adv-x="1093" 
d="M300 1575q0 21 15.5 34.5t44.5 13.5h420q29 0 45 -13.5t16 -34.5t-16 -35.5t-45 -14.5h-420q-29 0 -44.5 14.5t-15.5 35.5zM173 126v1111q0 68 32 97.5t105 29.5h598q35 0 55 -17.5t20 -47.5q0 -29 -20 -46t-55 -17h-595v-475h559q34 0 54.5 -17.5t20.5 -46.5t-20 -46
t-55 -17h-559v-506h594q35 0 55 -17.5t20 -47.5q0 -29 -20 -46t-55 -17h-597q-73 0 -105 29t-32 97z" />
    <glyph glyph-name="emacron" unicode="&#x113;" horiz-adv-x="1072" 
d="M266 1302q0 21 15.5 34.5t44.5 13.5h424q29 0 44.5 -13.5t15.5 -34.5t-15.5 -35.5t-44.5 -14.5h-424q-29 0 -44.5 14.5t-15.5 35.5zM117 441v159q0 209 118.5 336t307.5 127q184 0 300 -123.5t116 -324.5q0 -72 -17 -98.5t-63 -26.5h-623v-57q0 -153 82.5 -240t225.5 -87
q137 0 233 100q34 34 48 43t32 9q24 0 40 -17.5t16 -43.5q0 -22 -15.5 -51.5t-40.5 -54.5q-48 -51 -133 -80t-186 -29q-206 0 -323.5 122t-117.5 337zM256 610h564v3q0 151 -75 239.5t-202 88.5q-129 0 -208 -90t-79 -238v-3z" />
    <glyph glyph-name="Ebreve" unicode="&#x114;" horiz-adv-x="1093" 
d="M846 1715q0 -32 -22 -72.5t-56 -72.5q-79 -72 -199 -72q-121 0 -198 72q-34 31 -56 72t-22 74q0 23 13 37t35 14q37 0 53 -40q48 -137 175 -137q128 0 175 137q16 40 51 40q22 0 36.5 -14.5t14.5 -37.5zM173 126v1111q0 68 32 97.5t105 29.5h598q35 0 55 -17.5t20 -47.5
q0 -29 -20 -46t-55 -17h-595v-475h559q34 0 54.5 -17.5t20.5 -46.5t-20 -46t-55 -17h-559v-506h594q35 0 55 -17.5t20 -47.5q0 -29 -20 -46t-55 -17h-597q-73 0 -105 29t-32 97z" />
    <glyph glyph-name="ebreve" unicode="&#x115;" horiz-adv-x="1072" 
d="M260 1408q0 23 13.5 37t35.5 14q36 0 52 -39q54 -138 176 -138t175 138q16 39 50 39q23 0 37 -14.5t14 -37.5q0 -32 -22 -73t-56 -72q-78 -72 -198 -72q-121 0 -199 72q-34 31 -56 72t-22 74zM117 441v159q0 209 118.5 336t307.5 127q184 0 300 -123.5t116 -324.5
q0 -72 -17 -98.5t-63 -26.5h-623v-57q0 -153 82.5 -240t225.5 -87q137 0 233 100q34 34 48 43t32 9q24 0 40 -17.5t16 -43.5q0 -22 -15.5 -51.5t-40.5 -54.5q-48 -51 -133 -80t-186 -29q-206 0 -323.5 122t-117.5 337zM256 610h564v3q0 151 -75 239.5t-202 88.5
q-129 0 -208 -90t-79 -238v-3z" />
    <glyph glyph-name="Edotaccent" unicode="&#x116;" horiz-adv-x="1093" 
d="M475 1638q0 40 27.5 67t67.5 27q39 0 66.5 -27t27.5 -67t-27 -67t-67 -27q-41 0 -68 27t-27 67zM173 126v1111q0 68 32 97.5t105 29.5h598q35 0 55 -17.5t20 -47.5q0 -29 -20 -46t-55 -17h-595v-475h559q34 0 54.5 -17.5t20.5 -46.5t-20 -46t-55 -17h-559v-506h594
q35 0 55 -17.5t20 -47.5q0 -29 -20 -46t-55 -17h-597q-73 0 -105 29t-32 97z" />
    <glyph glyph-name="edotaccent" unicode="&#x117;" horiz-adv-x="1072" 
d="M442 1302q0 40 27.5 67.5t67.5 27.5t68 -27.5t28 -67.5t-27.5 -67.5t-68.5 -27.5t-68 27.5t-27 67.5zM117 441v159q0 209 118.5 336t307.5 127q184 0 300 -123.5t116 -324.5q0 -72 -17 -98.5t-63 -26.5h-623v-57q0 -153 82.5 -240t225.5 -87q137 0 233 100q34 34 48 43
t32 9q24 0 40 -17.5t16 -43.5q0 -22 -15.5 -51.5t-40.5 -54.5q-48 -51 -133 -80t-186 -29q-206 0 -323.5 122t-117.5 337zM256 610h564v3q0 151 -75 239.5t-202 88.5q-129 0 -208 -90t-79 -238v-3z" />
    <glyph glyph-name="Eogonek" unicode="&#x118;" horiz-adv-x="1094" 
d="M173 126v1111q0 67 31.5 97t105.5 30h598q35 0 55 -17.5t20 -47.5q0 -29 -20 -46t-55 -17h-595v-475h559q34 0 54.5 -17.5t20.5 -46.5t-20 -46t-55 -17h-559v-506h594q34 0 54.5 -17t20.5 -45q0 -23 -11 -37.5t-42 -31.5q-79 -45 -113 -83t-34 -84q0 -47 30.5 -74.5
t82.5 -27.5q7 0 23.5 1t21.5 1q23 0 36 -13t13 -34q0 -32 -35 -46q-32 -16 -86 -16q-93 0 -151.5 47t-58.5 130q0 57 36.5 111t93.5 86v5h-478q-74 0 -105.5 29t-31.5 97z" />
    <glyph glyph-name="eogonek" unicode="&#x119;" horiz-adv-x="1072" 
d="M610 -190q0 82 75 176v9q-59 -12 -127 -12q-206 0 -323.5 122t-117.5 336v159q0 209 118.5 336t307.5 127q184 0 300 -123.5t116 -324.5q0 -72 -17 -98.5t-63 -26.5h-623v-57q0 -153 82.5 -240t225.5 -87q135 0 233 100q34 34 48 43.5t32 9.5q24 0 40 -18t16 -44
q0 -45 -56 -106q-81 -97 -113.5 -150t-32.5 -100q0 -44 29 -70t78 -26q70 0 74 -47q5 -30 -26 -47q-22 -18 -81 -18q-88 0 -141.5 48t-53.5 129zM256 610h564v3q0 151 -75 239.5t-202 88.5q-129 0 -208 -90t-79 -238v-3z" />
    <glyph glyph-name="Ecaron" unicode="&#x11a;" horiz-adv-x="1093" 
d="M344 1757q0 19 13.5 34t33.5 15q24 0 42 -26l136 -176h3q17 13 51 56.5t59 80.5l26 37q20 28 41 28q20 0 34 -15t14 -34q0 -20 -13 -36l-146 -170q-28 -37 -67 -37q-37 0 -69 38l-143 167q-15 18 -15 38zM173 126v1111q0 68 32 97.5t105 29.5h598q35 0 55 -17.5t20 -47.5
q0 -29 -20 -46t-55 -17h-595v-475h559q34 0 54.5 -17.5t20.5 -46.5t-20 -46t-55 -17h-559v-506h594q35 0 55 -17.5t20 -47.5q0 -29 -20 -46t-55 -17h-597q-73 0 -105 29t-32 97z" />
    <glyph glyph-name="ecaron" unicode="&#x11b;" horiz-adv-x="1072" 
d="M471 1237l-144 191q-14 18 -14 37q0 20 13 34t34 14q25 0 42 -26l134 -200h4l134 198q19 28 43 28q20 0 33.5 -14t13.5 -34q0 -18 -12 -34l-145 -194q-30 -40 -68 -40t-68 40zM117 441v159q0 209 118.5 336t307.5 127q184 0 300 -123.5t116 -324.5q0 -72 -17 -98.5
t-63 -26.5h-623v-57q0 -153 82.5 -240t225.5 -87q137 0 233 100q34 34 48 43t32 9q24 0 40 -17.5t16 -43.5q0 -22 -15.5 -51.5t-40.5 -54.5q-48 -51 -133 -80t-186 -29q-206 0 -323.5 122t-117.5 337zM256 610h564v3q0 151 -75 239.5t-202 88.5q-129 0 -208 -90t-79 -238v-3
z" />
    <glyph glyph-name="Gcircumflex" unicode="&#x11c;" horiz-adv-x="1267" 
d="M650 1713h-3l-136 -176q-17 -25 -41 -25q-20 0 -33.5 14.5t-13.5 33.5q0 20 14 38l144 168q32 38 69 38q36 0 67 -38l146 -170q13 -16 13 -36q0 -19 -14 -33.5t-34 -14.5q-24 0 -41 28l-11 15q-10 15 -26.5 37.5t-34.5 46.5t-36 45t-29 29zM119 567v230q0 282 137.5 439
t384.5 157q242 0 380 -147q49 -52 80 -113t31 -105q0 -31 -17 -48.5t-45 -17.5q-25 0 -42 14t-34 48q-105 242 -347 242q-184 0 -286 -123t-102 -346v-231q0 -220 106.5 -344t294.5 -124q157 0 254 87.5t97 231.5v151h-308q-35 0 -55 17t-20 46q0 30 20 47t55 17h338
q55 0 81 -26.5t26 -82.5v-169q0 -193 -139.5 -320t-351.5 -127q-253 0 -395.5 158.5t-142.5 438.5z" />
    <glyph glyph-name="gcircumflex" unicode="&#x11d;" horiz-adv-x="1147" 
d="M394 1186q-20 0 -33.5 14.5t-13.5 33.5t12 35l147 194q30 39 66 39q40 0 68 -39l146 -195q12 -16 12 -34q0 -19 -14 -33.5t-34 -14.5q-23 0 -42 28l-134 199h-3l-134 -199q-19 -28 -43 -28zM836 192q-32 -72 -111.5 -124.5t-196.5 -52.5q-175 0 -293 118t-118 315v179
q0 100 33 183.5t89 138t130 84.5t158 30q120 0 203 -56t113 -129h7v99q0 38 17.5 57.5t47.5 19.5t48 -19.5t18 -57.5v-956q0 -199 -115.5 -303t-312.5 -104q-174 0 -289 76q-48 31 -77.5 70t-29.5 75q0 27 16.5 44t43.5 17q11 0 19.5 -2.5t17.5 -9t14 -10.5t15.5 -15.5
t14.5 -15.5q95 -105 249 -105q139 0 218 74.5t79 202.5v177h-8zM257 480q0 -154 84 -248t216 -94q133 0 209.5 92.5t76.5 220.5v169q0 133 -78.5 226t-212.5 93q-131 0 -213 -93.5t-82 -250.5v-115z" />
    <glyph glyph-name="Gbreve" unicode="&#x11e;" horiz-adv-x="1267" 
d="M924 1715q0 -32 -21.5 -72.5t-56.5 -72.5q-77 -72 -198 -72q-120 0 -199 72q-34 31 -56 72t-22 74q0 23 13.5 37t35.5 14q37 0 53 -40q48 -137 175 -137q128 0 175 137q16 40 50 40q22 0 36.5 -14t14.5 -38zM119 567v230q0 282 137.5 439t384.5 157q242 0 380 -147
q49 -52 80 -113t31 -105q0 -31 -17 -48.5t-45 -17.5q-25 0 -42 14t-34 48q-105 242 -347 242q-184 0 -286 -123t-102 -346v-231q0 -220 106.5 -344t294.5 -124q157 0 254 87.5t97 231.5v151h-308q-35 0 -55 17t-20 46q0 30 20 47t55 17h338q55 0 81 -26.5t26 -82.5v-169
q0 -193 -139.5 -320t-351.5 -127q-253 0 -395.5 158.5t-142.5 438.5z" />
    <glyph glyph-name="gbreve" unicode="&#x11f;" horiz-adv-x="1147" 
d="M295 1408q0 23 13 37t35 14q36 0 53 -39q53 -138 175 -138q124 0 175 138q16 39 51 39q23 0 37 -14.5t14 -37.5q0 -32 -22.5 -73t-55.5 -72q-80 -72 -199 -72q-120 0 -198 72q-34 31 -56 72t-22 74zM836 192q-32 -72 -111.5 -124.5t-196.5 -52.5q-175 0 -293 118
t-118 315v179q0 100 33 183.5t89 138t130 84.5t158 30q120 0 203 -56t113 -129h7v99q0 38 17.5 57.5t47.5 19.5t48 -19.5t18 -57.5v-956q0 -199 -115.5 -303t-312.5 -104q-174 0 -289 76q-48 31 -77.5 70t-29.5 75q0 27 16.5 44t43.5 17q11 0 19.5 -2.5t17.5 -9t14 -10.5
t15.5 -15.5t14.5 -15.5q95 -105 249 -105q139 0 218 74.5t79 202.5v177h-8zM257 480q0 -154 84 -248t216 -94q133 0 209.5 92.5t76.5 220.5v169q0 133 -78.5 226t-212.5 93q-131 0 -213 -93.5t-82 -250.5v-115z" />
    <glyph glyph-name="Gdotaccent" unicode="&#x120;" horiz-adv-x="1267" 
d="M554 1638q0 40 27.5 67t67.5 27q39 0 66.5 -27t27.5 -67t-27 -67t-67 -27q-41 0 -68 27t-27 67zM119 567v230q0 282 137.5 439t384.5 157q242 0 380 -147q49 -52 80 -113t31 -105q0 -31 -17 -48.5t-45 -17.5q-25 0 -42 14t-34 48q-105 242 -347 242q-184 0 -286 -123
t-102 -346v-231q0 -220 106.5 -344t294.5 -124q157 0 254 87.5t97 231.5v151h-308q-35 0 -55 17t-20 46q0 30 20 47t55 17h338q55 0 81 -26.5t26 -82.5v-169q0 -193 -139.5 -320t-351.5 -127q-253 0 -395.5 158.5t-142.5 438.5z" />
    <glyph glyph-name="gdotaccent" unicode="&#x121;" horiz-adv-x="1147" 
d="M477 1302q0 40 27.5 67.5t67.5 27.5q39 0 67 -27.5t28 -67.5t-27.5 -67.5t-67.5 -27.5t-67.5 27.5t-27.5 67.5zM836 192q-32 -72 -111.5 -124.5t-196.5 -52.5q-175 0 -293 118t-118 315v179q0 100 33 183.5t89 138t130 84.5t158 30q120 0 203 -56t113 -129h7v99
q0 38 17.5 57.5t47.5 19.5t48 -19.5t18 -57.5v-956q0 -199 -115.5 -303t-312.5 -104q-174 0 -289 76q-48 31 -77.5 70t-29.5 75q0 27 16.5 44t43.5 17q11 0 19.5 -2.5t17.5 -9t14 -10.5t15.5 -15.5t14.5 -15.5q95 -105 249 -105q139 0 218 74.5t79 202.5v177h-8zM257 480
q0 -154 84 -248t216 -94q133 0 209.5 92.5t76.5 220.5v169q0 133 -78.5 226t-212.5 93q-131 0 -213 -93.5t-82 -250.5v-115z" />
    <glyph glyph-name="Gcommaaccent" unicode="&#x122;" horiz-adv-x="1267" 
d="M119 567v230q0 282 137.5 439t384.5 157q242 0 380 -147q49 -52 80 -113t31 -105q0 -31 -17 -48.5t-45 -17.5q-25 0 -42 14t-34 48q-105 242 -347 242q-184 0 -286 -123t-102 -346v-231q0 -220 106.5 -344t294.5 -124q157 0 254 87.5t97 231.5v151h-308q-35 0 -55 17
t-20 46q0 30 20 47t55 17h338q55 0 81 -26.5t26 -82.5v-169q0 -193 -139.5 -320t-351.5 -127q-253 0 -395.5 158.5t-142.5 438.5zM522 -411l63 250q7 25 25 39.5t44 14.5q41 0 58.5 -28t5.5 -60l-89 -250q-18 -41 -54 -41q-37 0 -49 22.5t-4 52.5z" />
    <glyph glyph-name="gcommaaccent" unicode="&#x123;" horiz-adv-x="1144" 
d="M657 1520l-63 -249q-15 -54 -70 -54q-36 0 -56 26.5t-8 60.5l90 251q17 40 54 40q28 0 44 -22.5t9 -52.5zM836 192q-32 -72 -111.5 -124.5t-196.5 -52.5q-175 0 -293 118t-118 315v179q0 100 33 183.5t89 138t130 84.5t158 30q120 0 203 -56t113 -129h7v99
q0 38 17.5 57.5t47.5 19.5t48 -19.5t18 -57.5v-956q0 -199 -115.5 -303t-312.5 -104q-174 0 -289 76q-48 31 -77.5 70t-29.5 75q0 27 16.5 44t43.5 17q11 0 19.5 -2.5t17.5 -9t14 -10.5t15.5 -15.5t14.5 -15.5q95 -105 249 -105q139 0 218 74.5t79 202.5v177h-8zM257 480
q0 -154 84 -248t216 -94q133 0 209.5 92.5t76.5 220.5v169q0 133 -78.5 226t-212.5 93q-131 0 -213 -93.5t-82 -250.5v-115z" />
    <glyph glyph-name="Hcircumflex" unicode="&#x124;" horiz-adv-x="1352" 
d="M677 1713h-4l-135 -176q-19 -25 -42 -25q-20 0 -33.5 14.5t-13.5 33.5q0 20 15 38l143 168q34 38 69 38q38 0 67 -38l146 -170q13 -16 13 -36q0 -19 -14 -33.5t-34 -14.5q-22 0 -41 28q-97 144 -136 173zM1109 -10q-32 0 -51 21t-19 56v578h-726v-578q0 -35 -19.5 -56
t-51.5 -21t-50.5 21t-18.5 56v1230q0 35 18.5 56t50.5 21t51.5 -21t19.5 -56v-524h726v524q0 35 19 56t51 21t51 -21t19 -56v-1230q0 -35 -19 -56t-51 -21z" />
    <glyph glyph-name="hcircumflex" unicode="&#x125;" horiz-adv-x="1137" 
d="M229 1786h-3l-135 -176q-19 -25 -42 -25q-20 0 -33.5 14.5t-13.5 33.5q0 20 15 38l143 168q32 38 69 38q38 0 67 -38l146 -170q13 -16 13 -36q0 -19 -14 -33.5t-34 -14.5q-22 0 -41 27q0 1 -25.5 37.5t-59.5 80t-52 56.5zM992 67q0 -35 -19 -56t-51 -21t-50 20.5
t-18 56.5v603q0 127 -67 198t-187 71q-136 0 -218 -93.5t-82 -250.5v-528q0 -36 -18.5 -56.5t-50.5 -20.5t-50.5 20.5t-18.5 56.5v1298q0 35 18.5 56t50.5 21t50.5 -21t18.5 -56v-515h7q28 95 120 154t211 59q164 0 259 -94.5t95 -257.5v-644z" />
    <glyph glyph-name="Hbar" unicode="&#x126;" horiz-adv-x="1354" 
d="M173 1002h-52q-35 0 -54 17t-19 45t19 44.5t54 16.5h52v172q0 35 18.5 56t50.5 21t51 -21t19 -56v-172h727v172q0 35 19 56t51 21t51 -21t19 -56v-172h47q35 0 54 -16.5t19 -44.5t-19 -45t-54 -17h-47v-935q0 -35 -19 -56t-51 -21t-51 21t-19 56v579h-727v-579
q0 -35 -19 -56t-51 -21t-50.5 21t-18.5 56v935zM312 773h727v229h-727v-229z" />
    <glyph glyph-name="hbar" unicode="&#x127;" horiz-adv-x="1137" 
d="M163 67v1127h-70q-66 0 -66 55t66 55h70v61q0 38 19 57.5t50 19.5q30 0 49.5 -20t19.5 -57v-61h197q66 0 66 -55q0 -25 -16.5 -40t-49.5 -15h-197v-344h7q10 34 32 67.5t59.5 68t100 56t139.5 21.5q158 0 256 -91.5t98 -260.5v-644q0 -37 -19.5 -57t-50.5 -20t-49.5 19.5
t-18.5 57.5v603q0 127 -68 199.5t-187 72.5q-143 0 -221 -98.5t-78 -248.5v-528q0 -37 -19.5 -57t-49.5 -20q-31 0 -50 19.5t-19 57.5z" />
    <glyph glyph-name="Itilde" unicode="&#x128;" horiz-adv-x="493" 
d="M-18 1538q0 63 41.5 106t106.5 43q74 0 133 -58q55 -54 92 -54q25 0 43 20.5t22 53.5q3 19 14.5 30t27.5 11q40 0 40 -54q0 -63 -42 -105t-107 -42q-38 0 -67.5 14t-64.5 48q-54 53 -89 53q-51 0 -63 -71q-8 -44 -48 -44q-39 0 -39 49zM246 -10q-32 0 -50.5 21t-18.5 56
v1230q0 35 18.5 56t50.5 21t51 -21t19 -56v-1230q0 -35 -19 -56t-51 -21z" />
    <glyph glyph-name="itilde" unicode="&#x129;" horiz-adv-x="477" 
d="M-72 1247q0 68 37 118q46 64 133 64q45 0 79.5 -18.5t73.5 -63.5q37 -42 55.5 -54.5t43.5 -12.5q35 0 53.5 23.5t23.5 74.5q5 49 45 49q46 0 46 -62q0 -74 -42 -122q-47 -58 -129 -58q-42 0 -74 17t-78 66q-40 43 -58 55.5t-42 12.5q-33 0 -51 -23t-26 -74
q-9 -48 -46 -48q-44 0 -44 56zM169 67v911q0 37 19.5 57t50.5 20t49.5 -19.5t18.5 -57.5v-911q0 -38 -19 -57.5t-50 -19.5t-50 20t-19 57z" />
    <glyph glyph-name="Imacron" unicode="&#x12a;" horiz-adv-x="493" 
d="M-24 1575q0 21 15.5 34.5t44.5 13.5h421q29 0 44.5 -13.5t15.5 -34.5t-15.5 -35.5t-44.5 -14.5h-421q-29 0 -44.5 14.5t-15.5 35.5zM246 -10q-32 0 -50.5 21t-18.5 56v1230q0 35 18.5 56t50.5 21t51 -21t19 -56v-1230q0 -35 -19 -56t-51 -21z" />
    <glyph glyph-name="imacron" unicode="&#x12b;" horiz-adv-x="477" 
d="M-33 1302q0 21 15.5 34.5t44.5 13.5h423q29 0 44.5 -13.5t15.5 -34.5t-15.5 -35.5t-44.5 -14.5h-423q-29 0 -44.5 14.5t-15.5 35.5zM169 67v911q0 37 19.5 57t50.5 20t49.5 -19.5t18.5 -57.5v-911q0 -38 -19 -57.5t-50 -19.5t-50 20t-19 57z" />
    <glyph glyph-name="Ibreve" unicode="&#x12c;" horiz-adv-x="493" 
d="M522 1715q0 -32 -22 -72.5t-56 -72.5q-77 -72 -199 -72q-121 0 -198 72q-34 31 -56 72t-22 74q0 22 13.5 36.5t34.5 14.5q37 0 53 -40q12 -33 29.5 -60.5t56.5 -52t89 -24.5q127 0 176 137q14 40 50 40q22 0 36.5 -14t14.5 -38zM246 -10q-32 0 -50.5 21t-18.5 56v1230
q0 35 18.5 56t50.5 21t51 -21t19 -56v-1230q0 -35 -19 -56t-51 -21z" />
    <glyph glyph-name="ibreve" unicode="&#x12d;" horiz-adv-x="477" 
d="M-39 1408q0 23 13 37t35 14q36 0 53 -39q53 -138 175 -138q124 0 175 138q16 39 51 39q23 0 37 -14.5t14 -37.5q0 -32 -22.5 -73t-55.5 -72q-80 -72 -199 -72q-120 0 -198 72q-34 31 -56 72t-22 74zM169 67v911q0 37 19.5 57t50.5 20t49.5 -19.5t18.5 -57.5v-911
q0 -38 -19 -57.5t-50 -19.5t-50 20t-19 57z" />
    <glyph glyph-name="Iogonek" unicode="&#x12e;" horiz-adv-x="493" 
d="M234 -373q-94 0 -151 51.5t-57 136.5q0 69 39 126.5t112 94.5v1261q0 35 18.5 56t50.5 21t51 -21t19 -56v-1226q0 -35 -9 -53t-35 -31q-63 -32 -92.5 -68.5t-29.5 -84.5t29.5 -74.5t83.5 -26.5q2 0 5.5 0.5t4.5 0.5q69 0 69 -45q0 -32 -35 -49q-26 -13 -73 -13z" />
    <glyph glyph-name="iogonek" unicode="&#x12f;" horiz-adv-x="477" 
d="M142 1303q0 40 27.5 67.5t67.5 27.5q42 0 70 -27t28 -68q0 -42 -28 -69.5t-70 -27.5q-39 0 -67 28t-28 69zM38 -183q0 66 30 115t101 108v938q0 36 19 56.5t51 20.5q31 0 49.5 -21t18.5 -56v-903q0 -39 -8 -57t-34 -34q-103 -62 -103 -151q0 -45 28.5 -71t78.5 -26
q40 0 57 -9q21 -12 21 -41q0 -35 -40 -51q-30 -11 -72 -11q-84 0 -140.5 54.5t-56.5 138.5z" />
    <glyph glyph-name="Idotaccent" unicode="&#x130;" horiz-adv-x="493" 
d="M152 1638q0 40 27.5 67t66.5 27t67 -27.5t28 -66.5q0 -40 -27.5 -67t-67.5 -27t-67 27t-27 67zM246 -10q-32 0 -50.5 21t-18.5 56v1230q0 35 18.5 56t50.5 21t51 -21t19 -56v-1230q0 -35 -19 -56t-51 -21z" />
    <glyph glyph-name="dotlessi" unicode="&#x131;" horiz-adv-x="477" 
d="M169 67v911q0 37 19.5 57t50.5 20t49.5 -19.5t18.5 -57.5v-911q0 -38 -19 -57.5t-50 -19.5t-50 20t-19 57z" />
    <glyph glyph-name="IJ" unicode="&#x132;" horiz-adv-x="1437" 
d="M1131 1298q0 36 19 57t51 21t51 -21t19 -57v-923q0 -187 -100 -294.5t-273 -107.5q-185 0 -289 109q-74 76 -74 161q0 32 15.5 50.5t43.5 18.5q22 0 36.5 -13.5t29.5 -47.5q29 -73 89 -112t143 -39q113 0 176 71t63 198v929zM246 -10q-32 0 -50.5 21t-18.5 56v1230
q0 35 18.5 56t50.5 21t51 -21t19 -56v-1230q0 -35 -19 -56t-51 -21z" />
    <glyph glyph-name="ij" unicode="&#x133;" horiz-adv-x="954" 
d="M142 1311q0 41 27.5 68t67.5 27q42 0 70 -27t28 -68t-28 -69t-70 -28q-39 0 -67 28t-28 69zM619 1311q0 40 27.5 67.5t67.5 27.5q42 0 70 -27t28 -68t-28.5 -69t-69.5 -28q-40 0 -67.5 28t-27.5 69zM307 67q0 -38 -19 -57.5t-50 -19.5t-50 20t-19 57v911q0 37 19.5 57
t50.5 20q30 0 49 -20t19 -57v-911zM530 -361q-59 0 -88 17q-27 15 -27 46q0 26 17 41t47 15q5 0 22 -1t23 -1q66 0 94 47.5t28 160.5v1014q0 36 18.5 56.5t50.5 20.5t50.5 -21t18.5 -56v-1055q0 -140 -65 -212t-189 -72z" />
    <glyph glyph-name="Jcircumflex" unicode="&#x134;" horiz-adv-x="944" 
d="M708 1713h-3l-135 -176q-19 -25 -42 -25q-20 0 -33.5 14.5t-13.5 33.5q0 20 15 38l143 168q32 38 69 38q36 0 67 -38l146 -170q13 -16 13 -36q0 -19 -14 -33.5t-34 -14.5q-22 0 -41 28q-97 144 -137 173zM638 1298q0 36 19 57t51 21t51 -21t19 -57v-923
q0 -187 -100 -294.5t-273 -107.5q-185 0 -289 109q-74 76 -74 161q0 32 15.5 50.5t43.5 18.5q22 0 36.5 -13.5t29.5 -47.5q29 -73 89 -112t143 -39q113 0 176 71t63 198v929z" />
    <glyph glyph-name="jcircumflex" unicode="&#x135;" horiz-adv-x="477" 
d="M56 1186q-20 0 -33.5 14.5t-13.5 33.5t12 35l147 194q30 39 66 39q40 0 68 -39l146 -195q12 -16 12 -34q0 -19 -14 -33.5t-34 -14.5q-23 0 -42 28l-134 199h-3l-134 -199q-19 -28 -43 -28zM53 -361q-59 0 -87 17q-28 15 -28 46q0 26 17 41t47 15q5 0 22.5 -1t23.5 -1
q65 0 93 47.5t28 160.5v1014q0 36 19 56.5t51 20.5q31 0 49.5 -21t18.5 -56v-1055q0 -140 -65 -212t-189 -72z" />
    <glyph glyph-name="Kcommaaccent" unicode="&#x136;" horiz-adv-x="1163" 
d="M1023 -5q-40 0 -80 57l-449 632l-181 -188v-429q0 -35 -19.5 -56t-51.5 -21t-50.5 21t-18.5 56v1230q0 35 18.5 56t50.5 21t51.5 -21t19.5 -56v-617h5l605 643q42 46 73 46q27 0 45 -18t18 -44t-41 -69l-420 -457l456 -633q42 -56 42 -83q0 -31 -20.5 -50.5t-52.5 -19.5z
M451 -411l63 250q7 25 25 39.5t44 14.5q41 0 58.5 -28t5.5 -60l-89 -250q-18 -41 -54 -41q-37 0 -49 22.5t-4 52.5z" />
    <glyph glyph-name="kcommaaccent" unicode="&#x137;" horiz-adv-x="962" 
d="M301 67q0 -36 -19 -56.5t-51 -20.5t-50 20.5t-18 56.5v1298q0 36 18 56.5t50 20.5t51 -21t19 -56v-798h5l463 458q37 38 67 38q25 0 41 -16.5t16 -41.5q0 -29 -31 -60l-338 -338l376 -486q25 -32 25 -61q0 -25 -19 -44.5t-45 -19.5q-32 0 -66 44l-369 476l-125 -117v-332
zM393 -411l63 250q16 54 70 54q40 0 57.5 -28t5.5 -60l-89 -250q-18 -41 -54 -41t-48.5 22.5t-4.5 52.5z" />
    <glyph glyph-name="Lacute" unicode="&#x139;" horiz-adv-x="991" 
d="M218 1560q0 11 11 29l122 183q20 31 53 31q24 0 41.5 -18t17.5 -42q0 -22 -13 -40l-148 -172q-16 -19 -37 -19q-19 0 -33 14.5t-14 33.5zM969 63q0 -29 -20 -46t-54 -17h-585q-73 0 -105 29t-32 97v1171q0 35 18.5 56t50.5 21t51.5 -21t19.5 -56v-1170h582q34 0 54 -17
t20 -47z" />
    <glyph glyph-name="lacute" unicode="&#x13a;" horiz-adv-x="474" 
d="M213 1632q0 12 11 30l122 183q20 31 53 31q24 0 42 -18t18 -42q0 -21 -14 -40l-148 -173q-16 -18 -37 -18q-19 0 -33 14t-14 33zM237 -10q-31 0 -50 19.5t-19 57.5v1298q0 38 19 57.5t50 19.5t50 -19.5t19 -57.5v-1298q0 -38 -19 -57.5t-50 -19.5z" />
    <glyph glyph-name="Lcommaaccent" unicode="&#x13b;" horiz-adv-x="991" 
d="M969 63q0 -29 -20 -46t-54 -17h-585q-73 0 -105 29t-32 97v1171q0 35 18.5 56t50.5 21t51.5 -21t19.5 -56v-1170h582q34 0 54 -17t20 -47zM379 -411l63 250q16 54 70 54q40 0 57.5 -28t5.5 -60l-89 -250q-18 -41 -54 -41t-48.5 22.5t-4.5 52.5z" />
    <glyph glyph-name="lcommaaccent" unicode="&#x13c;" horiz-adv-x="474" 
d="M237 -10q-31 0 -50 19.5t-19 57.5v1298q0 38 19 57.5t50 19.5t50 -19.5t19 -57.5v-1298q0 -38 -19 -57.5t-50 -19.5zM110 -411l63 250q7 25 25 39.5t44 14.5q41 0 58.5 -28t5.5 -60l-89 -250q-18 -41 -54 -41q-37 0 -49 22.5t-4 52.5z" />
    <glyph glyph-name="Lcaron" unicode="&#x13d;" horiz-adv-x="991" 
d="M612 950q-25 0 -40 20t-13 54l19 347q2 32 20.5 49.5t45.5 17.5q35 0 50.5 -23t12.5 -52l-39 -357q-8 -56 -56 -56zM969 63q0 -29 -20 -46t-54 -17h-585q-73 0 -105 29t-32 97v1171q0 35 18.5 56t50.5 21t51.5 -21t19.5 -56v-1170h582q34 0 54 -17t20 -47z" />
    <glyph glyph-name="lcaron" unicode="&#x13e;" horiz-adv-x="635" 
d="M237 -10q-31 0 -50 19.5t-19 57.5v1298q0 38 19 57.5t50 19.5t50 -19.5t19 -57.5v-1298q0 -38 -19 -57.5t-50 -19.5zM482 1024l19 347q1 32 20 49.5t46 17.5q35 0 50.5 -23t12.5 -52l-40 -357q-7 -56 -55 -56q-25 0 -40 20t-13 54z" />
    <glyph glyph-name="Lslash" unicode="&#x141;" horiz-adv-x="991" 
d="M312 0q-74 0 -105.5 29t-31.5 97v425l-64 -37q-20 -11 -36 -11q-24 0 -41.5 18t-17.5 43q0 35 32 54l127 74v605q0 35 18.5 56t50.5 21t51 -21t19 -56v-522l333 195q14 8 30 8q25 0 43.5 -18t18.5 -42q0 -36 -27 -51l-398 -234v-506h582q35 0 55 -17t20 -47
q0 -29 -20 -46t-55 -17h-584z" />
    <glyph glyph-name="lslash" unicode="&#x142;" horiz-adv-x="567" 
d="M212 67v574l-70 -52q-30 -22 -57 -22q-22 0 -36.5 15t-14.5 38q0 32 39 61l139 102v582q0 36 18 56.5t51 20.5q32 0 50.5 -21t18.5 -56v-481l75 56q25 17 51 17q21 0 36 -15t15 -35q0 -23 -11.5 -39.5t-42.5 -38.5l-123 -89v-673q0 -36 -18.5 -56.5t-50.5 -20.5
t-50.5 20.5t-18.5 56.5z" />
    <glyph glyph-name="Nacute" unicode="&#x143;" horiz-adv-x="1352" 
d="M652 1560q0 9 10 29l123 183q20 31 52 31q25 0 42.5 -18t17.5 -42q0 -23 -14 -40l-148 -172q-14 -19 -36 -19q-19 0 -33 14t-14 34zM313 67q0 -35 -18.5 -56t-50.5 -21t-50 20.5t-18 56.5v1210q0 96 82 96q31 0 53.5 -20.5t50.5 -65.5l670 -1048h7v1058q0 36 18 56.5
t50 20.5t50.5 -21t18.5 -56v-1210q0 -96 -80 -96q-31 0 -52.5 16.5t-49.5 60.5l-675 1056h-6v-1057z" />
    <glyph glyph-name="nacute" unicode="&#x144;" horiz-adv-x="1134" 
d="M546 1237q0 11 11 29l123 184q18 30 52 30q25 0 42.5 -17.5t17.5 -42.5q0 -23 -14 -39l-148 -173q-15 -18 -36 -18q-20 0 -34 14t-14 33zM987 67q0 -36 -19 -56.5t-51 -20.5t-50.5 20.5t-18.5 56.5v604q0 128 -64.5 198t-184.5 70q-140 0 -220.5 -93.5t-80.5 -250.5v-528
q0 -36 -18.5 -56.5t-50.5 -20.5t-50.5 20.5t-18.5 56.5v910q0 36 19 57t51 21q31 0 49.5 -21t18.5 -57v-127h7q32 99 116 156t209 57q167 0 262 -92.5t95 -258.5v-645z" />
    <glyph glyph-name="Ncommaaccent" unicode="&#x145;" horiz-adv-x="1352" 
d="M313 67q0 -35 -18.5 -56t-50.5 -21t-50 20.5t-18 56.5v1210q0 96 82 96q31 0 53.5 -20.5t50.5 -65.5l670 -1048h7v1058q0 36 18 56.5t50 20.5t50.5 -21t18.5 -56v-1210q0 -96 -80 -96q-31 0 -52.5 16.5t-49.5 60.5l-675 1056h-6v-1057zM548 -411l63 250q16 54 70 54
q41 0 58 -28t6 -60l-90 -250q-18 -41 -54 -41t-48.5 22t-4.5 53z" />
    <glyph glyph-name="ncommaaccent" unicode="&#x146;" horiz-adv-x="1134" 
d="M987 67q0 -36 -19 -56.5t-51 -20.5t-50.5 20.5t-18.5 56.5v604q0 128 -64.5 198t-184.5 70q-140 0 -220.5 -93.5t-80.5 -250.5v-528q0 -36 -18.5 -56.5t-50.5 -20.5t-50.5 20.5t-18.5 56.5v910q0 36 19 57t51 21q31 0 49.5 -21t18.5 -57v-127h7q32 99 116 156t209 57
q167 0 262 -92.5t95 -258.5v-645zM443 -411l63 250q16 54 70 54q40 0 57.5 -28t5.5 -60l-89 -250q-18 -41 -54 -41t-48.5 22.5t-4.5 52.5z" />
    <glyph glyph-name="Ncaron" unicode="&#x147;" horiz-adv-x="1352" 
d="M450 1757q0 19 13 34t33 15q24 0 42 -26l136 -176h3q17 13 51 56.5t60 80.5l25 37q20 28 42 28q20 0 33.5 -15t13.5 -34q0 -20 -13 -36l-146 -170q-28 -37 -67 -37q-38 0 -68 38l-144 167q-14 17 -14 38zM313 67q0 -35 -18.5 -56t-50.5 -21t-50 20.5t-18 56.5v1210
q0 96 82 96q31 0 53.5 -20.5t50.5 -65.5l670 -1048h7v1058q0 36 18 56.5t50 20.5t50.5 -21t18.5 -56v-1210q0 -96 -80 -96q-31 0 -52.5 16.5t-49.5 60.5l-675 1056h-6v-1057z" />
    <glyph glyph-name="ncaron" unicode="&#x148;" horiz-adv-x="1134" 
d="M503 1237l-144 191q-13 18 -13 37q0 20 13 34t33 14q25 0 42 -26l135 -200h3l135 198q17 28 42 28q20 0 33.5 -14t13.5 -34q0 -18 -12 -34l-145 -194q-30 -40 -68 -40t-68 40zM987 67q0 -36 -19 -56.5t-51 -20.5t-50.5 20.5t-18.5 56.5v604q0 128 -64.5 198t-184.5 70
q-140 0 -220.5 -93.5t-80.5 -250.5v-528q0 -36 -18.5 -56.5t-50.5 -20.5t-50.5 20.5t-18.5 56.5v910q0 36 19 57t51 21q31 0 49.5 -21t18.5 -57v-127h7q32 99 116 156t209 57q167 0 262 -92.5t95 -258.5v-645z" />
    <glyph glyph-name="Omacron" unicode="&#x14c;" horiz-adv-x="1308" 
d="M384 1575q0 21 15.5 34.5t44.5 13.5h421q29 0 44.5 -13.5t15.5 -34.5t-15.5 -35.5t-44.5 -14.5h-421q-29 0 -44.5 14.5t-15.5 35.5zM119 569v215q0 282 144 445.5t391 163.5q248 0 391.5 -163.5t143.5 -446.5v-214q0 -279 -143.5 -439t-391.5 -160q-251 0 -393 159.5
t-142 439.5zM259 785v-218q0 -218 106 -343.5t289 -125.5t289 125.5t106 343.5v218q0 221 -106.5 351t-288.5 130t-288.5 -130t-106.5 -351z" />
    <glyph glyph-name="omacron" unicode="&#x14d;" horiz-adv-x="1113" 
d="M286 1302q0 21 15.5 34.5t44.5 13.5h424q29 0 44.5 -13.5t15.5 -34.5t-15.5 -35.5t-44.5 -14.5h-424q-29 0 -44.5 14.5t-15.5 35.5zM557 1063q192 0 315.5 -122t123.5 -336v-165q0 -214 -123.5 -336t-315.5 -122q-193 0 -316.5 122t-123.5 336v165q0 215 123.5 336.5
t316.5 121.5zM557 939q-136 0 -218 -94.5t-82 -254.5v-135q0 -162 82 -255.5t218 -93.5q137 0 218.5 93t81.5 256v135q0 160 -82 254.5t-218 94.5z" />
    <glyph glyph-name="Obreve" unicode="&#x14e;" horiz-adv-x="1308" 
d="M928 1715q0 -32 -21.5 -72.5t-56.5 -72.5q-77 -72 -198 -72q-122 0 -199 72q-34 31 -56 72t-22 74q0 23 13.5 37t35.5 14q35 0 53 -40q48 -137 175 -137q39 0 70.5 13.5t52 36t32.5 43.5t20 44q16 40 50 40q22 0 36.5 -14t14.5 -38zM119 569v215q0 282 144 445.5
t391 163.5q248 0 391.5 -163.5t143.5 -446.5v-214q0 -279 -143.5 -439t-391.5 -160q-251 0 -393 159.5t-142 439.5zM259 785v-218q0 -218 106 -343.5t289 -125.5t289 125.5t106 343.5v218q0 221 -106.5 351t-288.5 130t-288.5 -130t-106.5 -351z" />
    <glyph glyph-name="obreve" unicode="&#x14f;" horiz-adv-x="1113" 
d="M280 1408q0 23 13.5 37t35.5 14q36 0 52 -39q54 -138 176 -138t175 138q16 39 50 39q23 0 37 -14.5t14 -37.5q0 -32 -22 -73t-56 -72q-78 -72 -198 -72q-121 0 -199 72q-34 31 -56 72t-22 74zM557 1063q192 0 315.5 -122t123.5 -336v-165q0 -214 -123.5 -336t-315.5 -122
q-193 0 -316.5 122t-123.5 336v165q0 215 123.5 336.5t316.5 121.5zM557 939q-136 0 -218 -94.5t-82 -254.5v-135q0 -162 82 -255.5t218 -93.5q137 0 218.5 93t81.5 256v135q0 160 -82 254.5t-218 94.5z" />
    <glyph glyph-name="Ohungarumlaut" unicode="&#x150;" horiz-adv-x="1308" 
d="M491 1557q0 11 11 29l122 183q20 31 53 31q25 0 42.5 -18t17.5 -42q0 -23 -14 -40l-148 -172q-16 -19 -37 -19q-19 0 -33 14.5t-14 33.5zM745 1557q0 9 10 29l123 183q20 31 52 31q25 0 42.5 -18t17.5 -42q0 -23 -14 -40l-148 -172q-14 -19 -36 -19q-19 0 -33 14t-14 34z
M119 569v215q0 282 144 445.5t391 163.5q248 0 391.5 -163.5t143.5 -446.5v-214q0 -279 -143.5 -439t-391.5 -160q-251 0 -393 159.5t-142 439.5zM259 785v-218q0 -218 106 -343.5t289 -125.5t289 125.5t106 343.5v218q0 221 -106.5 351t-288.5 130t-288.5 -130t-106.5 -351
z" />
    <glyph glyph-name="ohungarumlaut" unicode="&#x151;" horiz-adv-x="1113" 
d="M396 1237q0 11 11 29l123 184q18 30 52 30q25 0 42.5 -17.5t17.5 -42.5q0 -23 -14 -39l-148 -173q-16 -18 -37 -18q-19 0 -33 14t-14 33zM650 1237q0 9 10 29l123 184q20 30 53 30q24 0 41.5 -17.5t17.5 -42.5q0 -23 -14 -39l-148 -173q-15 -18 -36 -18q-19 0 -33 14
t-14 33zM557 1063q192 0 315.5 -122t123.5 -336v-165q0 -214 -123.5 -336t-315.5 -122q-193 0 -316.5 122t-123.5 336v165q0 215 123.5 336.5t316.5 121.5zM557 939q-136 0 -218 -94.5t-82 -254.5v-135q0 -162 82 -255.5t218 -93.5q137 0 218.5 93t81.5 256v135
q0 160 -82 254.5t-218 94.5z" />
    <glyph glyph-name="OE" unicode="&#x152;" horiz-adv-x="1959" 
d="M119 569v215q0 282 143 446t390 164q129 0 231.5 -50t152.5 -137h12v35q0 64 32.5 93t104.5 29h598q35 0 55 -17.5t20 -47.5q0 -29 -20 -46t-55 -17h-596v-475h560q34 0 54.5 -17.5t20.5 -46.5t-20 -46t-55 -17h-560v-506h595q35 0 55 -17.5t20 -47.5q0 -29 -20 -46
t-55 -17h-597q-74 0 -105.5 29t-31.5 97v38h-11q-56 -92 -158 -143t-230 -51q-249 0 -389.5 159t-140.5 440zM258 567q0 -219 104.5 -343.5t288.5 -124.5q185 0 290.5 119t105.5 329v267q0 210 -106 331t-290 121q-181 0 -287 -130t-106 -351v-218z" />
    <glyph glyph-name="oe" unicode="&#x153;" horiz-adv-x="1798" 
d="M109 440v165q0 206 122.5 332t317.5 126q125 0 219 -51t145 -149h10q53 96 145 148t208 52q185 0 300.5 -123.5t115.5 -324.5q0 -73 -17 -100t-63 -27h-623v-54q0 -153 82.5 -240t224.5 -87q153 0 237 114q34 35 48 44.5t32 9.5q24 0 40 -18t16 -45t-17 -60.5t-44 -59.5
q-47 -50 -132 -79t-186 -29q-127 0 -221 50.5t-147 147.5h-10q-54 -95 -150 -147t-213 -52q-200 0 -320 123t-120 334zM1277 941q-130 0 -209 -91.5t-79 -244.5v-8h565v8q0 156 -75 246t-202 90zM246 455q0 -163 81.5 -256t221.5 -93q138 0 219 92.5t81 256.5v135
q0 161 -82.5 256t-217.5 95t-219 -95.5t-84 -255.5v-135z" />
    <glyph glyph-name="Racute" unicode="&#x154;" horiz-adv-x="1200" 
d="M544 1560q0 11 11 29l122 183q20 31 53 31q24 0 41.5 -18t17.5 -42q0 -22 -13 -40l-148 -172q-16 -19 -37 -19q-19 0 -33 14.5t-14 33.5zM313 67q0 -35 -19.5 -56t-51.5 -21t-50.5 21t-18.5 56v1170q0 68 32 97.5t105 29.5h338q196 0 311.5 -108.5t115.5 -292.5
q0 -135 -70.5 -235t-192.5 -139l248 -475q13 -26 13 -55q0 -27 -19.5 -45t-48.5 -18q-25 0 -43 14.5t-35 48.5l-255 501h-359v-493zM313 687h311q148 0 227.5 70.5t79.5 200.5q0 132 -79.5 205.5t-221.5 73.5h-317v-550z" />
    <glyph glyph-name="racute" unicode="&#x155;" horiz-adv-x="677" 
d="M362 1237q0 9 10 29l123 184q20 30 52 30q25 0 42.5 -17.5t17.5 -42.5q0 -23 -14 -39l-148 -173q-15 -18 -36 -18q-19 0 -33 14t-14 33zM298 67q0 -36 -18 -56.5t-50 -20.5t-51 20.5t-19 56.5v911q0 35 19 56t51 21q31 0 49.5 -21t18.5 -56v-71h4q80 156 247 156
q45 0 71 -15q32 -15 32 -52q0 -40 -32 -54q-21 -10 -72 -10q-120 0 -185 -69.5t-65 -208.5v-587z" />
    <glyph glyph-name="Rcommaaccent" unicode="&#x156;" horiz-adv-x="1200" 
d="M313 67q0 -35 -19.5 -56t-51.5 -21t-50.5 21t-18.5 56v1170q0 68 32 97.5t105 29.5h338q196 0 311.5 -108.5t115.5 -292.5q0 -135 -70.5 -235t-192.5 -139l248 -475q13 -26 13 -55q0 -27 -19.5 -45t-48.5 -18q-25 0 -43 14.5t-35 48.5l-255 501h-359v-493zM313 687h311
q148 0 227.5 70.5t79.5 200.5q0 132 -79.5 205.5t-221.5 73.5h-317v-550zM441 -411l63 250q7 25 25 39.5t44 14.5q41 0 58.5 -28t5.5 -60l-89 -250q-18 -41 -54 -41q-37 0 -49 22.5t-4 52.5z" />
    <glyph glyph-name="rcommaaccent" unicode="&#x157;" horiz-adv-x="677" 
d="M298 67q0 -36 -18 -56.5t-50 -20.5t-51 20.5t-19 56.5v911q0 35 19 56t51 21q31 0 49.5 -21t18.5 -56v-71h4q80 156 247 156q45 0 71 -15q32 -15 32 -52q0 -40 -32 -54q-21 -10 -72 -10q-120 0 -185 -69.5t-65 -208.5v-587zM104 -411l63 250q7 25 25 39.5t44 14.5
q41 0 58.5 -28t5.5 -60l-89 -250q-18 -41 -54 -41q-37 0 -49 22.5t-4 52.5z" />
    <glyph glyph-name="Rcaron" unicode="&#x158;" horiz-adv-x="1200" 
d="M342 1757q0 19 13.5 34t33.5 15q23 0 41 -26l136 -176h4q11 8 29 29t35.5 45t34 47t27.5 38l10 15q18 28 41 28q20 0 34 -15t14 -34q0 -20 -13 -36l-146 -170q-30 -37 -68 -37t-68 38l-144 167q-14 17 -14 38zM313 67q0 -35 -19.5 -56t-51.5 -21t-50.5 21t-18.5 56v1170
q0 68 32 97.5t105 29.5h338q196 0 311.5 -108.5t115.5 -292.5q0 -135 -70.5 -235t-192.5 -139l248 -475q13 -26 13 -55q0 -27 -19.5 -45t-48.5 -18q-25 0 -43 14.5t-35 48.5l-255 501h-359v-493zM313 687h311q148 0 227.5 70.5t79.5 200.5q0 132 -79.5 205.5t-221.5 73.5
h-317v-550z" />
    <glyph glyph-name="rcaron" unicode="&#x159;" horiz-adv-x="677" 
d="M318 1237l-144 191q-13 18 -13 37q0 20 13 34t33 14q26 0 43 -26l134 -200h3l135 198q19 28 42 28q21 0 34 -14t13 -34q0 -19 -11 -34l-146 -194q-30 -40 -67 -40q-39 0 -69 40zM298 67q0 -36 -18 -56.5t-50 -20.5t-51 20.5t-19 56.5v911q0 35 19 56t51 21q31 0 49.5 -21
t18.5 -56v-71h4q80 156 247 156q45 0 71 -15q32 -15 32 -52q0 -40 -32 -54q-21 -10 -72 -10q-120 0 -185 -69.5t-65 -208.5v-587z" />
    <glyph glyph-name="Sacute" unicode="&#x15a;" horiz-adv-x="1148" 
d="M547 1560q0 11 11 29l122 183q20 31 53 31q25 0 42.5 -18t17.5 -42q0 -23 -14 -40l-148 -172q-16 -19 -37 -19q-19 0 -33 14.5t-14 33.5zM94 282q0 31 17.5 50t45.5 19q26 0 46 -15.5t43 -53.5q97 -184 341 -184q150 0 238 66.5t88 180.5q0 95 -59.5 155.5t-189.5 95.5
l-220 60q-322 88 -322 354q0 172 125.5 277.5t330.5 105.5t334 -107q111 -94 111 -201q0 -29 -17 -47t-45 -18q-52 0 -69 50q-28 90 -112.5 143t-198.5 53q-142 0 -227 -67t-85 -180q0 -171 214 -229l215 -60q188 -52 272.5 -139.5t84.5 -230.5q0 -180 -129 -285t-348 -105
q-233 0 -363 111q-57 48 -89 101t-32 100z" />
    <glyph glyph-name="sacute" unicode="&#x15b;" horiz-adv-x="978" 
d="M468 1237q0 7 11 29l123 184q18 30 52 30q25 0 42.5 -17.5t17.5 -42.5q0 -23 -14 -39l-148 -173q-15 -18 -36 -18q-20 0 -34 14t-14 33zM95 217q0 30 17 47.5t46 17.5q34 0 71 -52q88 -131 266 -131q110 0 177 47t67 130q0 63 -44 105.5t-121 61.5l-192 46
q-134 33 -200.5 100.5t-66.5 175.5q0 137 100.5 217.5t268.5 80.5q157 0 266 -73q48 -34 75 -76.5t27 -79.5q0 -28 -16.5 -44t-43.5 -16q-21 0 -35.5 9.5t-39.5 39.5q-47 63 -102 93t-136 30q-104 0 -165.5 -45.5t-61.5 -125.5q0 -63 41.5 -103t127.5 -62l185 -46
q136 -35 202.5 -100.5t66.5 -175.5q0 -142 -105.5 -224t-281.5 -82q-156 0 -273 68q-55 32 -87.5 77.5t-32.5 89.5z" />
    <glyph glyph-name="Scircumflex" unicode="&#x15c;" horiz-adv-x="1148" 
d="M572 1713h-3l-136 -176q-17 -25 -41 -25q-20 0 -33.5 14.5t-13.5 33.5q0 20 14 38l144 168q32 38 69 38q36 0 67 -38l146 -170q13 -16 13 -36q0 -19 -14 -33.5t-34 -14.5q-24 0 -41 28l-11 15q-10 15 -26.5 37.5t-34.5 46.5t-36 45t-29 29zM94 282q0 31 17.5 50t45.5 19
q26 0 46 -15.5t43 -53.5q97 -184 341 -184q150 0 238 66.5t88 180.5q0 95 -59.5 155.5t-189.5 95.5l-220 60q-322 88 -322 354q0 172 125.5 277.5t330.5 105.5t334 -107q111 -94 111 -201q0 -29 -17 -47t-45 -18q-52 0 -69 50q-28 90 -112.5 143t-198.5 53q-142 0 -227 -67
t-85 -180q0 -171 214 -229l215 -60q188 -52 272.5 -139.5t84.5 -230.5q0 -180 -129 -285t-348 -105q-233 0 -363 111q-57 48 -89 101t-32 100z" />
    <glyph glyph-name="scircumflex" unicode="&#x15d;" horiz-adv-x="978" 
d="M314 1186q-20 0 -33.5 14.5t-13.5 33.5t12 35l147 194q30 39 66 39q38 0 68 -39l146 -195q11 -15 11 -34t-13.5 -33.5t-33.5 -14.5q-23 0 -42 28l-134 199h-3l-135 -199q-17 -28 -42 -28zM95 217q0 30 17 47.5t46 17.5q34 0 71 -52q88 -131 266 -131q110 0 177 47t67 130
q0 63 -44 105.5t-121 61.5l-192 46q-134 33 -200.5 100.5t-66.5 175.5q0 137 100.5 217.5t268.5 80.5q157 0 266 -73q48 -34 75 -76.5t27 -79.5q0 -28 -16.5 -44t-43.5 -16q-21 0 -35.5 9.5t-39.5 39.5q-47 63 -102 93t-136 30q-104 0 -165.5 -45.5t-61.5 -125.5
q0 -63 41.5 -103t127.5 -62l185 -46q136 -35 202.5 -100.5t66.5 -175.5q0 -142 -105.5 -224t-281.5 -82q-156 0 -273 68q-55 32 -87.5 77.5t-32.5 89.5z" />
    <glyph glyph-name="Scedilla" unicode="&#x15e;" horiz-adv-x="1148" 
d="M572 -467q-70 0 -114.5 22t-44.5 56q0 19 12 31t32 12q13 0 44 -12.5t67 -12.5q47 0 77 24t30 61q0 78 -114 78q-87 0 -87 59q0 28 41 122q-193 16 -300 108q-57 48 -89 101t-32 100q0 31 17.5 50t45.5 19q26 0 46 -15.5t43 -53.5q97 -184 341 -184q150 0 238 66.5
t88 180.5q0 95 -59.5 155.5t-189.5 95.5l-220 60q-322 88 -322 354q0 172 125.5 277.5t330.5 105.5t334 -107q111 -94 111 -201q0 -29 -17 -47t-45 -18q-52 0 -69 50q-28 90 -112.5 143t-198.5 53q-142 0 -227 -67t-85 -180q0 -171 214 -229l215 -60q188 -52 272.5 -139.5
t84.5 -230.5q0 -171 -117 -275t-320 -114l-38 -98q104 0 159 -42t55 -121q0 -77 -62.5 -127t-159.5 -50z" />
    <glyph glyph-name="scedilla" unicode="&#x15f;" horiz-adv-x="978" 
d="M459 -458q-51 0 -83 9q-50 15 -50 51q0 21 13.5 32t34.5 11q9 0 36 -5t47 -5q48 0 85.5 21.5t37.5 67.5q0 30 -18 47t-40 22t-56 6q-42 2 -64.5 15.5t-20.5 48.5q0 8 43 123q-117 12 -209 64q-55 32 -87.5 77.5t-32.5 89.5q0 31 17 48t46 17q34 0 71 -52
q88 -130 266 -130q110 0 177 46.5t67 129.5q0 63 -44 105.5t-121 61.5l-192 46q-134 33 -200.5 100.5t-66.5 175.5q0 137 100.5 217.5t268.5 80.5q157 0 266 -73q48 -34 75 -76.5t27 -79.5q0 -28 -16.5 -44t-43.5 -16q-21 0 -35.5 9.5t-39.5 39.5q-47 63 -102 93t-136 30
q-104 0 -165.5 -45.5t-61.5 -125.5q0 -63 41.5 -103t127.5 -62l185 -46q136 -35 202.5 -100.5t66.5 -175.5q0 -134 -94.5 -215t-255.5 -89l-39 -104q96 7 155 -34t59 -124q0 -90 -69 -135t-172 -45z" />
    <glyph glyph-name="Scaron" unicode="&#x160;" horiz-adv-x="1148" 
d="M345 1757q0 19 13.5 34t33.5 15q24 0 42 -26l136 -176h3q11 8 29 29t35.5 45t34 47t26.5 38l11 15q20 28 41 28q20 0 34 -15t14 -34q0 -20 -13 -36l-146 -170q-30 -37 -67 -37q-39 0 -69 38l-143 167q-15 18 -15 38zM94 282q0 31 17.5 50t45.5 19q26 0 46 -15.5t43 -53.5
q97 -184 341 -184q150 0 238 66.5t88 180.5q0 95 -59.5 155.5t-189.5 95.5l-220 60q-322 88 -322 354q0 172 125.5 277.5t330.5 105.5t334 -107q111 -94 111 -201q0 -29 -17 -47t-45 -18q-52 0 -69 50q-28 90 -112.5 143t-198.5 53q-142 0 -227 -67t-85 -180
q0 -171 214 -229l215 -60q188 -52 272.5 -139.5t84.5 -230.5q0 -180 -129 -285t-348 -105q-233 0 -363 111q-57 48 -89 101t-32 100z" />
    <glyph glyph-name="scaron" unicode="&#x161;" horiz-adv-x="978" 
d="M425 1237l-144 191q-13 18 -13 37q0 20 13 34t33 14q27 0 42 -26l135 -200h3l135 198q17 28 42 28q21 0 34 -14t13 -34t-12 -34l-145 -194q-30 -40 -67 -40q-39 0 -69 40zM95 217q0 30 17 47.5t46 17.5q34 0 71 -52q88 -131 266 -131q110 0 177 47t67 130q0 63 -44 105.5
t-121 61.5l-192 46q-134 33 -200.5 100.5t-66.5 175.5q0 137 100.5 217.5t268.5 80.5q157 0 266 -73q48 -34 75 -76.5t27 -79.5q0 -28 -16.5 -44t-43.5 -16q-21 0 -35.5 9.5t-39.5 39.5q-47 63 -102 93t-136 30q-104 0 -165.5 -45.5t-61.5 -125.5q0 -63 41.5 -103t127.5 -62
l185 -46q136 -35 202.5 -100.5t66.5 -175.5q0 -142 -105.5 -224t-281.5 -82q-156 0 -273 68q-55 32 -87.5 77.5t-32.5 89.5z" />
    <glyph glyph-name="Tcedilla" unicode="&#x162;" horiz-adv-x="1045" 
d="M502 -449q-58 0 -95 14t-37 47q0 19 12.5 30.5t33.5 11.5q9 0 36.5 -4.5t47.5 -4.5q56 0 90 24t34 64q0 74 -114 75q-47 2 -68 16t-18 44q0 12 51 148q-22 21 -22 59v1161h-363q-34 0 -54 17t-20 46q0 30 20 47.5t54 17.5h865q35 0 55 -17.5t20 -47.5q0 -29 -20 -46
t-55 -17h-363v-1160q0 -25 -6 -39l-57 -148q100 7 157 -35t57 -122q0 -83 -65 -132t-176 -49z" />
    <glyph glyph-name="tcedilla" unicode="&#x163;" horiz-adv-x="666" 
d="M361 -464q-52 0 -83 10q-49 14 -49 51q0 43 48 43q8 0 35 -5t47 -5q55 0 89.5 24t34.5 65q0 37 -27 55t-87 20q-47 2 -67.5 17t-18.5 46q0 8 53 150q-62 25 -89.5 86.5t-27.5 171.5v661h-95q-30 0 -48 16t-18 43q0 28 17.5 44t48.5 16h95v188q0 36 18.5 56.5t50.5 20.5
t50.5 -20.5t18.5 -56.5v-188h171q31 0 48.5 -16t17.5 -44q0 -27 -18 -43t-48 -16h-171v-669q0 -87 31 -119t111 -32q19 0 42 1.5t30 1.5q25 0 40.5 -14.5t15.5 -38.5q0 -39 -38 -55q-36 -17 -113 -17q-17 0 -45 2l-43 -111q98 7 156.5 -35t58.5 -123q0 -85 -66 -133
t-176 -48z" />
    <glyph glyph-name="Tcaron" unicode="&#x164;" horiz-adv-x="1045" 
d="M296 1757q0 19 13 34t33 15q24 0 42 -26l136 -176h3q18 13 52 56.5t59 80.5l25 37q20 28 42 28q20 0 33.5 -15t13.5 -34q0 -20 -13 -36l-146 -170q-28 -37 -67 -37q-38 0 -68 38l-144 167q-14 17 -14 38zM522 -10q-32 0 -50.5 21t-18.5 56v1169h-363q-34 0 -54 17t-20 46
q0 30 20 47.5t54 17.5h865q35 0 55 -17.5t20 -47.5q0 -29 -20 -46t-55 -17h-363v-1169q0 -35 -19 -56t-51 -21z" />
    <glyph glyph-name="tcaron" unicode="&#x165;" horiz-adv-x="666" 
d="M631 1217q-25 0 -40 20t-12 54l18 347q2 32 20.5 49.5t45.5 17.5q35 0 51 -23.5t12 -51.5l-39 -357q-7 -56 -56 -56zM219 265v661h-95q-30 0 -48 16t-18 43q0 28 17.5 44t48.5 16h95v188q0 36 18.5 56.5t50.5 20.5t50.5 -20.5t18.5 -56.5v-188h171q31 0 48.5 -16
t17.5 -44q0 -27 -18 -43t-48 -16h-171v-669q0 -87 31 -119t111 -32q19 0 42 1.5t30 1.5q25 0 40.5 -14.5t15.5 -38.5q0 -39 -38 -55q-36 -17 -113 -17q-141 0 -199 62t-58 219z" />
    <glyph glyph-name="Tbar" unicode="&#x166;" horiz-adv-x="1045" 
d="M592 67q0 -35 -19 -56t-51 -21t-50.5 21t-18.5 56v590h-191q-36 0 -55 17t-19 46q0 27 19 44t55 17h191v455h-363q-34 0 -54 17t-20 46q0 30 20 47.5t54 17.5h865q35 0 55 -17.5t20 -47.5q0 -29 -20 -46t-55 -17h-363v-455h190q36 0 55 -17t19 -44q0 -29 -19 -46t-55 -17
h-190v-590z" />
    <glyph glyph-name="tbar" unicode="&#x167;" horiz-adv-x="666" 
d="M589 1q-36 -17 -113 -17q-141 0 -199 62t-58 219v284h-81q-34 0 -52 16t-18 42t18 42t52 16h81v262h-100q-31 0 -49 16t-18 43q0 28 17.5 43.5t49.5 15.5h100v188q0 36 18.5 56.5t50.5 20.5t50.5 -20.5t18.5 -56.5v-188h172q31 0 48.5 -15.5t17.5 -43.5q0 -27 -18 -43
t-48 -16h-172v-262h149q33 0 51 -16t18 -42t-18 -42t-51 -16h-149v-292q0 -87 31 -119t111 -32q19 0 42.5 1.5t29.5 1.5q25 0 40.5 -14.5t15.5 -38.5q0 -39 -38 -55z" />
    <glyph glyph-name="Utilde" unicode="&#x168;" horiz-adv-x="1326" 
d="M399 1538q0 63 41 106t106 43q74 0 133 -58q32 -31 51.5 -42.5t41.5 -11.5q24 0 42.5 20.5t22.5 53.5q3 19 14 30t27 11q41 0 41 -54q0 -63 -42.5 -105t-107.5 -42q-67 0 -132 62q-54 53 -89 53q-51 0 -62 -71q-9 -44 -48 -44t-39 49zM1169 473q0 -227 -139 -365
t-367 -138q-237 0 -371.5 137.5t-134.5 368.5v821q0 35 19 56t51 21t51 -21t19 -56v-824q0 -173 99 -274t267 -101q169 0 267.5 101t98.5 274v824q0 35 19 56t51 21t51 -21t19 -56v-824z" />
    <glyph glyph-name="utilde" unicode="&#x169;" horiz-adv-x="1129" 
d="M250 1247q0 68 37 118q46 64 133 64q45 0 79.5 -18.5t73.5 -63.5q37 -42 55.5 -54.5t43.5 -12.5q35 0 53.5 23.5t23.5 74.5q5 49 45 49q46 0 46 -62q0 -74 -42 -122q-47 -58 -129 -58q-42 0 -74 17t-78 66q-40 43 -58 55.5t-42 12.5q-33 0 -51 -23t-26 -74
q-9 -48 -46 -48q-44 0 -44 56zM822 181q-31 -83 -111.5 -141t-216.5 -58q-157 0 -253 83.5t-96 252.5v664q0 37 19 55.5t50 18.5t50 -18.5t19 -55.5v-630q0 -126 67.5 -186t175.5 -60q133 0 218.5 79t85.5 194v603q0 37 19 55.5t50 18.5t50.5 -18.5t19.5 -55.5v-917
q0 -37 -19.5 -55.5t-50.5 -18.5t-50 18.5t-19 55.5v116h-8z" />
    <glyph glyph-name="Umacron" unicode="&#x16a;" horiz-adv-x="1326" 
d="M392 1575q0 21 16 34.5t45 13.5h420q29 0 44.5 -13.5t15.5 -34.5t-15.5 -35.5t-44.5 -14.5h-420q-29 0 -45 14.5t-16 35.5zM1169 473q0 -227 -139 -365t-367 -138q-237 0 -371.5 137.5t-134.5 368.5v821q0 35 19 56t51 21t51 -21t19 -56v-824q0 -173 99 -274t267 -101
q169 0 267.5 101t98.5 274v824q0 35 19 56t51 21t51 -21t19 -56v-824z" />
    <glyph glyph-name="umacron" unicode="&#x16b;" horiz-adv-x="1129" 
d="M289 1302q0 21 15.5 34.5t44.5 13.5h423q29 0 44.5 -13.5t15.5 -34.5t-15.5 -35.5t-44.5 -14.5h-423q-29 0 -44.5 14.5t-15.5 35.5zM822 181q-31 -83 -111.5 -141t-216.5 -58q-157 0 -253 83.5t-96 252.5v664q0 37 19 55.5t50 18.5t50 -18.5t19 -55.5v-630
q0 -126 67.5 -186t175.5 -60q133 0 218.5 79t85.5 194v603q0 37 19 55.5t50 18.5t50.5 -18.5t19.5 -55.5v-917q0 -37 -19.5 -55.5t-50.5 -18.5t-50 18.5t-19 55.5v116h-8z" />
    <glyph glyph-name="Ubreve" unicode="&#x16c;" horiz-adv-x="1326" 
d="M938 1715q0 -32 -22 -72.5t-56 -72.5q-77 -72 -198 -72q-122 0 -199 72q-34 31 -56 72t-22 74q0 23 13.5 37t35.5 14q36 0 52 -40q12 -33 29.5 -60.5t56.5 -52t90 -24.5q39 0 70.5 13.5t52 36t32.5 43.5t20 44q16 40 50 40q22 0 36.5 -14t14.5 -38zM1169 473
q0 -227 -139 -365t-367 -138q-237 0 -371.5 137.5t-134.5 368.5v821q0 35 19 56t51 21t51 -21t19 -56v-824q0 -173 99 -274t267 -101q169 0 267.5 101t98.5 274v824q0 35 19 56t51 21t51 -21t19 -56v-824z" />
    <glyph glyph-name="ubreve" unicode="&#x16d;" horiz-adv-x="1129" 
d="M283 1408q0 23 13 37t35 14q36 0 53 -39q53 -138 175 -138q124 0 175 138q16 39 51 39q23 0 37 -14.5t14 -37.5q0 -32 -22.5 -73t-55.5 -72q-80 -72 -199 -72q-120 0 -198 72q-34 31 -56 72t-22 74zM822 181q-31 -83 -111.5 -141t-216.5 -58q-157 0 -253 83.5t-96 252.5
v664q0 37 19 55.5t50 18.5t50 -18.5t19 -55.5v-630q0 -126 67.5 -186t175.5 -60q133 0 218.5 79t85.5 194v603q0 37 19 55.5t50 18.5t50.5 -18.5t19.5 -55.5v-917q0 -37 -19.5 -55.5t-50.5 -18.5t-50 18.5t-19 55.5v116h-8z" />
    <glyph glyph-name="Uring" unicode="&#x16e;" horiz-adv-x="1326" 
d="M662 1501q-76 0 -129 52t-53 127t53 127t129 52t129.5 -52t53.5 -127t-53.5 -127t-129.5 -52zM556 1680q0 -44 31 -76t75 -32q45 0 75.5 31.5t30.5 76.5t-30.5 76.5t-75.5 31.5q-44 0 -75 -31.5t-31 -76.5zM1169 473q0 -227 -139 -365t-367 -138q-237 0 -371.5 137.5
t-134.5 368.5v821q0 35 19 56t51 21t51 -21t19 -56v-824q0 -173 99 -274t267 -101q169 0 267.5 101t98.5 274v824q0 35 19 56t51 21t51 -21t19 -56v-824z" />
    <glyph glyph-name="uring" unicode="&#x16f;" horiz-adv-x="1129" 
d="M560 1186q-76 0 -129.5 52t-53.5 128q0 75 53.5 127t129.5 52t129.5 -52t53.5 -127q0 -76 -53.5 -128t-129.5 -52zM454 1366q0 -45 31 -77t75 -32q45 0 75.5 32t30.5 77t-30.5 76t-75.5 31q-44 0 -75 -31t-31 -76zM822 181q-31 -83 -111.5 -141t-216.5 -58
q-157 0 -253 83.5t-96 252.5v664q0 37 19 55.5t50 18.5t50 -18.5t19 -55.5v-630q0 -126 67.5 -186t175.5 -60q133 0 218.5 79t85.5 194v603q0 37 19 55.5t50 18.5t50.5 -18.5t19.5 -55.5v-917q0 -37 -19.5 -55.5t-50.5 -18.5t-50 18.5t-19 55.5v116h-8z" />
    <glyph glyph-name="Uhungarumlaut" unicode="&#x170;" horiz-adv-x="1326" 
d="M501 1557q0 11 11 29l122 183q20 31 53 31q24 0 42 -18t18 -42q0 -21 -14 -40l-148 -172q-16 -19 -37 -19q-19 0 -33 14.5t-14 33.5zM754 1557q0 7 11 29l123 183q19 31 52 31q25 0 42.5 -18t17.5 -42q0 -23 -14 -40l-148 -172q-14 -19 -36 -19q-20 0 -34 14.5t-14 33.5z
M1169 473q0 -227 -139 -365t-367 -138q-237 0 -371.5 137.5t-134.5 368.5v821q0 35 19 56t51 21t51 -21t19 -56v-824q0 -173 99 -274t267 -101q169 0 267.5 101t98.5 274v824q0 35 19 56t51 21t51 -21t19 -56v-824z" />
    <glyph glyph-name="uhungarumlaut" unicode="&#x171;" horiz-adv-x="1129" 
d="M399 1237q0 11 11 29l122 184q20 30 53 30q24 0 41.5 -17.5t17.5 -42.5q0 -23 -13 -39l-149 -173q-15 -18 -36 -18q-19 0 -33 14t-14 33zM652 1237q0 11 11 29l122 184q20 30 53 30q25 0 42.5 -17.5t17.5 -42.5q0 -23 -14 -39l-148 -173q-16 -18 -37 -18q-19 0 -33 14
t-14 33zM822 181q-31 -83 -111.5 -141t-216.5 -58q-157 0 -253 83.5t-96 252.5v664q0 37 19 55.5t50 18.5t50 -18.5t19 -55.5v-630q0 -126 67.5 -186t175.5 -60q133 0 218.5 79t85.5 194v603q0 37 19 55.5t50 18.5t50.5 -18.5t19.5 -55.5v-917q0 -37 -19.5 -55.5
t-50.5 -18.5t-50 18.5t-19 55.5v116h-8z" />
    <glyph glyph-name="Uogonek" unicode="&#x172;" horiz-adv-x="1326" 
d="M1040 -318q0 -31 -35 -48q-29 -13 -77 -13q-89 0 -142 48t-53 128q0 118 112 214l-5 8q-86 -49 -209 -49q-215 0 -344.5 138.5t-129.5 367.5v821q0 35 19 56t51 21t51 -21t19 -56v-824q0 -173 99 -274t267 -101q169 0 267.5 101t98.5 274v824q0 35 19 56t51 21t51 -21
t19 -56v-824q0 -115 -39 -217.5t-107 -174.5q-101 -109 -134.5 -160.5t-33.5 -98.5q0 -89 108 -89q39 0 57 -11q20 -10 20 -40z" />
    <glyph glyph-name="uogonek" unicode="&#x173;" horiz-adv-x="1129" 
d="M699 -183q0 66 30 115.5t101 108.5v140h-8q-13 -36 -36.5 -68.5t-61.5 -63t-97.5 -48.5t-132.5 -18q-156 0 -252.5 82.5t-96.5 253.5v663q0 37 19 55.5t50 18.5t50 -18.5t19 -55.5v-630q0 -126 67.5 -186t175.5 -60q135 0 219.5 82t84.5 196v598q0 37 19 55.5t50 18.5
t50.5 -18.5t19.5 -55.5v-905q0 -39 -8.5 -57.5t-34.5 -34.5q-103 -61 -103 -152q0 -45 28.5 -71t78.5 -26q40 0 59 -10q20 -13 20 -41q0 -33 -39 -50q-28 -11 -73 -11q-84 0 -141 54.5t-57 138.5z" />
    <glyph glyph-name="Wcircumflex" unicode="&#x174;" horiz-adv-x="1673" 
d="M838 1713h-3l-135 -176q-19 -25 -42 -25q-20 0 -33.5 14.5t-13.5 33.5q0 20 15 38l143 168q32 38 69 38q36 0 67 -38l146 -170q13 -16 13 -36q0 -19 -14 -33.5t-34 -14.5q-22 0 -41 28q-97 144 -137 173zM374 91l-316 1160q-7 24 -7 51q0 33 21.5 54.5t55.5 21.5
q59 0 79 -86l255 -1075h8l273 1069q23 90 94 90q38 0 60.5 -22t33.5 -68l272 -1069h8l256 1075q20 86 79 86q34 0 55.5 -21.5t21.5 -54.5q0 -27 -7 -51l-316 -1160q-16 -56 -34 -75.5t-53 -19.5q-36 0 -57 21.5t-34 73.5l-281 1045h-8l-281 -1045q-13 -52 -34 -73.5
t-57 -21.5q-35 0 -53.5 20t-33.5 75z" />
    <glyph glyph-name="wcircumflex" unicode="&#x175;" horiz-adv-x="1441" 
d="M542 1186q-20 0 -33.5 14.5t-13.5 33.5t13 35l146 194q30 39 67 39q38 0 68 -39l145 -195q12 -16 12 -34q0 -19 -13.5 -33.5t-33.5 -14.5q-24 0 -43 28l-133 199h-4l-134 -199q-19 -28 -43 -28zM295 122l-226 808q-7 25 -7 47q0 32 20.5 52.5t52.5 20.5q57 0 75 -80
l188 -790h6l215 740q23 83 42 107.5t61 24.5q41 0 60 -24.5t43 -107.5l219 -740h7l192 794q18 77 70 77q29 0 47.5 -18t18.5 -47q0 -16 -8 -45l-220 -819q-21 -80 -41 -106t-59 -26q-40 0 -62 26t-46 106l-219 725h-4l-215 -725q-23 -81 -43 -106.5t-60 -25.5
q-43 0 -64 25.5t-43 106.5z" />
    <glyph glyph-name="Ycircumflex" unicode="&#x176;" horiz-adv-x="1082" 
d="M542 1713h-3l-136 -176q-19 -25 -41 -25q-20 0 -33.5 14.5t-13.5 33.5q0 21 14 38l144 168q32 38 68 38q37 0 68 -38l146 -170q13 -16 13 -36q0 -19 -14 -33.5t-34 -14.5q-24 0 -41 28l-11 15q-10 15 -26.5 37.5t-34.5 46.5t-36 45t-29 29zM541 -10q-32 0 -51 21t-19 56
v538l-390 639q-29 48 -29 69q0 29 18.5 47t47.5 18q23 0 39.5 -13t37.5 -48l343 -575h6l343 575q21 35 37.5 48t39.5 13q30 0 48 -18t18 -47q0 -21 -29 -69l-390 -638v-539q0 -35 -19 -56t-51 -21z" />
    <glyph glyph-name="ycircumflex" unicode="&#x177;" horiz-adv-x="939" 
d="M296 1186q-20 0 -33.5 14.5t-13.5 33.5t13 35l146 194q30 39 66 39q39 0 69 -39l145 -195q12 -16 12 -34q0 -19 -14 -33.5t-34 -14.5q-23 0 -42 28l-134 199h-3l-134 -199q-19 -28 -43 -28zM86 -304q0 25 19 40t50 15q6 0 25 -1t31 -1q57 0 102.5 45t67.5 120l21 70
l-347 945q-12 31 -12 53q0 29 20 48t51 19q50 0 73 -70l283 -836h6l281 836q23 70 72 70q29 0 48.5 -18.5t19.5 -47.5q0 -22 -12 -53l-368 -1022q-53 -148 -128 -213.5t-189 -65.5q-64 0 -94 25q-20 17 -20 42z" />
    <glyph glyph-name="Ydieresis" unicode="&#x178;" horiz-adv-x="1082" 
d="M311 1585q0 34 21 56t53 22q33 0 56 -22t23 -56q0 -33 -23 -54.5t-56 -21.5q-32 0 -53 21.5t-21 54.5zM614 1585q0 34 22.5 56t53.5 22q34 0 55.5 -21.5t21.5 -56.5q0 -33 -21.5 -54.5t-55.5 -21.5q-31 0 -53.5 22t-22.5 54zM541 -10q-32 0 -51 21t-19 56v538l-390 639
q-29 48 -29 69q0 29 18.5 47t47.5 18q23 0 39.5 -13t37.5 -48l343 -575h6l343 575q21 35 37.5 48t39.5 13q30 0 48 -18t18 -47q0 -21 -29 -69l-390 -638v-539q0 -35 -19 -56t-51 -21z" />
    <glyph glyph-name="Zacute" unicode="&#x179;" horiz-adv-x="1144" 
d="M548 1560q0 11 11 29l122 183q20 31 53 31q24 0 41.5 -18t17.5 -42q0 -22 -13 -40l-148 -172q-16 -19 -37 -19q-19 0 -33 14.5t-14 33.5zM86 74q0 19 14 45.5t64 99.5l690 1007v10h-678q-34 0 -54 17.5t-20 46.5q0 30 20 47t55 17h774q34 0 54 -18.5t20 -50.5
q0 -21 -14.5 -49t-63.5 -103l-683 -1006v-9h713q34 0 54 -17.5t20 -47.5q0 -29 -20 -46t-55 -17h-813q-35 0 -56 20.5t-21 53.5z" />
    <glyph glyph-name="zacute" unicode="&#x17a;" horiz-adv-x="948" 
d="M456 1237q0 11 11 29l122 184q20 30 53 30q25 0 42.5 -17.5t17.5 -42.5q0 -23 -14 -39l-148 -173q-16 -18 -37 -18q-19 0 -33 14t-14 33zM110 75q0 35 36 85l540 753v9h-519q-32 0 -50 18t-18 44q0 27 17.5 44t50.5 17h598q42 0 64.5 -20t22.5 -54q0 -35 -36 -85
l-541 -754v-9h529q32 0 50.5 -17.5t18.5 -43.5q0 -27 -18.5 -44.5t-50.5 -17.5h-607q-42 0 -64.5 20t-22.5 55z" />
    <glyph glyph-name="Zdotaccent" unicode="&#x17b;" horiz-adv-x="1144" 
d="M477 1638q0 40 27.5 67t66.5 27t67 -27.5t28 -66.5q0 -40 -27.5 -67t-67.5 -27t-67 27t-27 67zM86 74q0 19 14 45.5t64 99.5l690 1007v10h-678q-34 0 -54 17.5t-20 46.5q0 30 20 47t55 17h774q34 0 54 -18.5t20 -50.5q0 -21 -14.5 -49t-63.5 -103l-683 -1006v-9h713
q34 0 54 -17.5t20 -47.5q0 -29 -20 -46t-55 -17h-813q-35 0 -56 20.5t-21 53.5z" />
    <glyph glyph-name="zdotaccent" unicode="&#x17c;" horiz-adv-x="948" 
d="M384 1302q0 40 27.5 67.5t68.5 27.5q39 0 67 -27.5t28 -67.5t-27.5 -67.5t-67.5 -27.5q-41 0 -68.5 27.5t-27.5 67.5zM110 75q0 35 36 85l540 753v9h-519q-32 0 -50 18t-18 44q0 27 17.5 44t50.5 17h598q42 0 64.5 -20t22.5 -54q0 -35 -36 -85l-541 -754v-9h529
q32 0 50.5 -17.5t18.5 -43.5q0 -27 -18.5 -44.5t-50.5 -17.5h-607q-42 0 -64.5 20t-22.5 55z" />
    <glyph glyph-name="Zcaron" unicode="&#x17d;" horiz-adv-x="1144" 
d="M346 1757q0 19 13.5 34t33.5 15q23 0 41 -26l136 -176h4q11 8 29 29t35.5 45t34 47t27.5 38l10 15q18 28 41 28q20 0 34 -15t14 -34q0 -20 -13 -36l-146 -170q-30 -37 -68 -37t-68 38l-144 167q-14 17 -14 38zM86 74q0 19 14 45.5t64 99.5l690 1007v10h-678
q-34 0 -54 17.5t-20 46.5q0 30 20 47t55 17h774q34 0 54 -18.5t20 -50.5q0 -21 -14.5 -49t-63.5 -103l-683 -1006v-9h713q34 0 54 -17.5t20 -47.5q0 -29 -20 -46t-55 -17h-813q-35 0 -56 20.5t-21 53.5z" />
    <glyph glyph-name="zcaron" unicode="&#x17e;" horiz-adv-x="948" 
d="M413 1237l-144 191q-14 18 -14 37q0 20 13 34t34 14q25 0 42 -26l135 -200h3l134 198q19 28 43 28q20 0 33.5 -14t13.5 -34q0 -18 -12 -34l-145 -194q-30 -40 -68 -40t-68 40zM110 75q0 35 36 85l540 753v9h-519q-32 0 -50 18t-18 44q0 27 17.5 44t50.5 17h598
q42 0 64.5 -20t22.5 -54q0 -35 -36 -85l-541 -754v-9h529q32 0 50.5 -17.5t18.5 -43.5q0 -27 -18.5 -44.5t-50.5 -17.5h-607q-42 0 -64.5 20t-22.5 55z" />
    <glyph glyph-name="uni04D8" unicode="&#x18f;" horiz-adv-x="1317" 
d="M637 1393q254 0 403 -160.5t149 -443.5v-211q0 -283 -142 -445.5t-389 -162.5q-241 0 -385 160t-144 446v40q0 38 20.5 61t61.5 23h838v89q0 229 -114 353t-298 124q-129 0 -225.5 -63.5t-123.5 -182.5q-13 -52 -69 -52q-29 0 -46 18t-17 49q1 45 20 93.5t59 96t95.5 85
t135 60.5t171.5 23zM657 98q174 0 283 118t109 332v26h-781v-22q0 -219 109.5 -336.5t279.5 -117.5z" />
    <glyph glyph-name="florin" unicode="&#x192;" 
d="M565 286q-27 -172 -109.5 -243t-211.5 -71q-122 0 -187 54q-23 19 -23 50q0 25 17.5 41.5t42.5 16.5q18 0 65.5 -18.5t91.5 -18.5q67 0 115 50.5t66 162.5l75 485h-184q-31 0 -48 15.5t-17 43.5q0 56 65 56h202l26 169q26 168 107.5 241t213.5 73q123 0 188 -54
q22 -19 22 -50q0 -25 -17 -41t-42 -16q-18 0 -65.5 18t-91.5 18q-149 0 -182 -212l-23 -146h228q32 0 49 -15t16 -43q0 -27 -17 -42t-48 -15h-246z" />
    <glyph glyph-name="Ohorn" unicode="&#x1a0;" horiz-adv-x="1307" 
d="M119 569v215q0 281 143 445t387 164q78 0 150 -22.5t135.5 -44.5t121.5 -22q142 0 142 158v44q0 35 16.5 54.5t45.5 19.5q30 0 47 -19.5t17 -54.5v-42q0 -194 -142 -242q-52 -20 -120 -17l-1 -7q128 -162 128 -415v-214q0 -279 -143.5 -439t-391.5 -160
q-251 0 -393 159.5t-142 439.5zM259 785v-218q0 -218 106 -343.5t289 -125.5t289.5 125.5t106.5 343.5v218q0 221 -107 351t-289 130t-288.5 -130t-106.5 -351z" />
    <glyph glyph-name="ohorn" unicode="&#x1a1;" horiz-adv-x="1156" 
d="M117 440v165q0 215 123.5 336.5t316.5 121.5q55 0 133 -21t133 -21q141 0 141 159v76q0 34 18 52.5t47 18.5q27 0 44 -19t17 -52v-65q0 -259 -209 -263v-7q48 -50 81.5 -135.5t33.5 -180.5v-165q0 -214 -123.5 -335.5t-315.5 -121.5q-195 0 -317.5 120.5t-122.5 336.5z
M256 455q0 -162 82.5 -255.5t218.5 -93.5q137 0 218.5 93.5t81.5 255.5v135q0 160 -82 254.5t-218 94.5t-218.5 -94.5t-82.5 -254.5v-135z" />
    <glyph glyph-name="Uhorn" unicode="&#x1af;" horiz-adv-x="1372" 
d="M1169 473q0 -227 -139 -365t-367 -138q-237 0 -371.5 137.5t-134.5 368.5v821q0 35 19 56t51 21t51 -21t19 -56v-824q0 -173 99 -274t267 -101q169 0 267.5 101t98.5 274v824q0 36 19 56.5t56 20.5q15 0 38.5 -3t44.5 -3q70 0 99 35t29 104v41q0 36 17.5 54t46.5 18
q28 0 45 -18t17 -54v-39q0 -110 -59 -179t-180 -69q-15 0 -33 2v-790z" />
    <glyph glyph-name="uhorn" unicode="&#x1b0;" horiz-adv-x="1212" 
d="M145 319v663q0 35 18.5 54.5t50.5 19.5q33 0 51 -19.5t18 -54.5v-630q0 -118 64 -183.5t179 -65.5q132 0 218 82t86 199v598q0 34 18.5 53.5t50.5 19.5h61q80 0 110.5 26.5t30.5 98.5v77q0 32 17.5 51t46.5 19q28 0 45 -19.5t17 -50.5v-66q0 -127 -52.5 -183.5
t-163.5 -56.5h-42v-886q0 -35 -18.5 -54.5t-51.5 -19.5q-32 0 -50.5 19.5t-18.5 54.5v116h-8q-34 -90 -119.5 -144t-208.5 -54q-165 0 -257 87t-92 249z" />
    <glyph glyph-name="uni01C4" unicode="&#x1c4;" horiz-adv-x="2431" 
d="M1633 1757q0 19 13.5 34t33.5 15q24 0 42 -26l136 -176h3q11 8 29 29t35.5 45t34 47t26.5 38l11 15q20 28 41 28q20 0 34 -15t14 -34q0 -20 -13 -36l-146 -170q-30 -37 -67 -37q-39 0 -69 38l-143 167q-15 18 -15 38zM173 126v1111q0 68 32 97.5t105 29.5h275
q296 0 448.5 -173t152.5 -509q0 -337 -152 -509.5t-449 -172.5h-275q-73 0 -105 29t-32 97zM1374 74q0 20 14.5 46.5t63.5 98.5l689 1007v10h-678q-34 0 -54 17.5t-20 46.5q0 30 20 47t55 17h775q34 0 54 -19t20 -50q0 -22 -14.5 -49.5t-64.5 -102.5l-683 -1006v-9h713
q34 0 54 -17.5t20 -47.5q0 -29 -20 -46t-55 -17h-813q-34 0 -55 20.5t-21 53.5zM313 128h270q461 0 461 554q0 555 -461 555h-270v-1109z" />
    <glyph glyph-name="uni01C5" unicode="&#x1c5;" horiz-adv-x="2236" 
d="M1700 1237l-144 191q-13 18 -13 37q0 20 13 34t33 14q26 0 43 -26l134 -200h3l135 198q17 28 42 28q21 0 34 -14t13 -34t-12 -34l-145 -194q-30 -40 -67 -40q-39 0 -69 40zM173 126v1111q0 68 32 97.5t105 29.5h275q296 0 448.5 -173t152.5 -509q0 -337 -152 -509.5
t-449 -172.5h-275q-73 0 -105 29t-32 97zM313 128h270q461 0 461 554q0 555 -461 555h-270v-1109zM1397 75q0 33 36 85l541 753v9h-520q-32 0 -50 18t-18 44q0 27 18 44t50 17h599q41 0 63.5 -20t22.5 -54q0 -35 -36 -85l-540 -754v-9h528q32 0 50.5 -17.5t18.5 -43.5
q0 -27 -18.5 -44.5t-50.5 -17.5h-607q-41 0 -64 20.5t-23 54.5z" />
    <glyph glyph-name="uni01C6" unicode="&#x1c6;" horiz-adv-x="2096" 
d="M1561 1237l-144 191q-14 18 -14 37q0 20 13 34t34 14q25 0 42 -26l135 -200h3l134 198q19 28 43 28q20 0 33.5 -14t13.5 -34q0 -18 -12 -34l-145 -194q-30 -40 -68 -40t-68 40zM843 176q-22 -78 -111 -136t-212 -58q-182 0 -292.5 118t-110.5 314v216q0 198 113 315.5
t294 117.5q117 0 199.5 -51.5t113.5 -131.5h7v485q0 35 18.5 56t50.5 21t50.5 -21t18.5 -56v-1297q0 -37 -17 -57t-49 -20q-31 0 -48 20t-17 57v108h-8zM1258 75q0 35 36 85l540 753v9h-519q-32 0 -50 18t-18 44q0 27 18 44t50 17h598q42 0 64.5 -20t22.5 -54q0 -35 -36 -85
l-541 -754v-9h529q32 0 50.5 -17.5t18.5 -43.5q0 -27 -18.5 -44.5t-50.5 -17.5h-607q-42 0 -64.5 20t-22.5 55zM257 450q0 -162 77.5 -253t211.5 -91q136 0 217 91t81 237v193q0 135 -85.5 223.5t-217.5 88.5q-130 0 -207 -90.5t-77 -253.5v-145z" />
    <glyph glyph-name="uni01C7" unicode="&#x1c7;" horiz-adv-x="1935" 
d="M1629 1298q0 36 19 57t51 21t51 -21t19 -57v-923q0 -187 -100 -294.5t-273 -107.5q-185 0 -289 109q-74 76 -74 161q0 32 15.5 50.5t43.5 18.5q22 0 36.5 -13.5t29.5 -47.5q29 -73 89 -112t143 -39q113 0 176 71t63 198v929zM969 63q0 -29 -20 -46t-54 -17h-585
q-73 0 -105 29t-32 97v1171q0 35 18.5 56t50.5 21t51.5 -21t19.5 -56v-1170h582q34 0 54 -17t20 -47z" />
    <glyph glyph-name="uni01C8" unicode="&#x1c8;" horiz-adv-x="1468" 
d="M1133 1311q0 40 27.5 67.5t67.5 27.5q42 0 70 -27t28 -68t-28 -69t-70 -28q-40 0 -67.5 28t-27.5 69zM969 63q0 -29 -20 -46t-54 -17h-585q-73 0 -105 29t-32 97v1171q0 35 18.5 56t50.5 21t51.5 -21t19.5 -56v-1170h582q34 0 54 -17t20 -47zM1044 -361q-59 0 -87 17
q-28 15 -28 46q0 26 17 41t47 15q5 0 22.5 -1t23.5 -1q65 0 93 47.5t28 160.5v1014q0 36 19 56.5t51 20.5q31 0 49.5 -21t18.5 -56v-1055q0 -140 -65 -212t-189 -72z" />
    <glyph glyph-name="uni01C9" unicode="&#x1c9;" horiz-adv-x="951" 
d="M237 -10q-31 0 -50 19.5t-19 57.5v1298q0 38 19 57.5t50 19.5t50 -19.5t19 -57.5v-1298q0 -38 -19 -57.5t-50 -19.5zM616 1311q0 40 27.5 67.5t67.5 27.5q42 0 70 -27t28 -68t-28 -69t-70 -28q-40 0 -67.5 28t-27.5 69zM527 -361q-59 0 -87 17q-28 15 -28 46q0 26 17 41
t47 15q5 0 22.5 -1t23.5 -1q65 0 93 47.5t28 160.5v1014q0 36 18.5 56.5t50.5 20.5t50.5 -21t18.5 -56v-1055q0 -140 -65 -212t-189 -72z" />
    <glyph glyph-name="uni01CA" unicode="&#x1ca;" horiz-adv-x="2296" 
d="M1990 1298q0 36 19 57t51 21t51 -21t19 -57v-923q0 -187 -100 -294.5t-273 -107.5q-185 0 -289 109q-74 76 -74 161q0 32 15.5 50.5t43.5 18.5q22 0 36.5 -13.5t29.5 -47.5q28 -73 88.5 -112t143.5 -39q113 0 176 71t63 198v929zM313 67q0 -35 -18.5 -56t-50.5 -21
t-50 20.5t-18 56.5v1210q0 96 82 96q31 0 53.5 -20.5t50.5 -65.5l670 -1048h7v1058q0 36 18 56.5t50 20.5t50.5 -21t18.5 -56v-1210q0 -96 -80 -96q-31 0 -52.5 16.5t-49.5 60.5l-675 1056h-6v-1057z" />
    <glyph glyph-name="uni01CB" unicode="&#x1cb;" horiz-adv-x="1829" 
d="M1494 1311q0 40 27.5 67.5t67.5 27.5q42 0 70 -27t28 -68t-28 -69t-70 -28q-40 0 -67.5 28t-27.5 69zM313 67q0 -35 -18.5 -56t-50.5 -21t-50 20.5t-18 56.5v1210q0 96 82 96q31 0 53.5 -20.5t50.5 -65.5l670 -1048h7v1058q0 36 18 56.5t50 20.5t50.5 -21t18.5 -56v-1210
q0 -96 -80 -96q-31 0 -52.5 16.5t-49.5 60.5l-675 1056h-6v-1057zM1405 -361q-59 0 -88 17q-27 15 -27 46q0 26 17 41t47 15q5 0 22.5 -1t23.5 -1q65 0 93 47.5t28 160.5v1014q0 36 18.5 56.5t50.5 20.5t50.5 -21t18.5 -56v-1055q0 -140 -65 -212t-189 -72z" />
    <glyph glyph-name="uni01CC" unicode="&#x1cc;" horiz-adv-x="1611" 
d="M1276 1311q0 40 27.5 67.5t67.5 27.5q42 0 70 -27t28 -68t-28 -69t-70 -28q-40 0 -67.5 28t-27.5 69zM987 67q0 -36 -19 -56.5t-51 -20.5t-50.5 20.5t-18.5 56.5v604q0 128 -64.5 198t-184.5 70q-140 0 -220.5 -93.5t-80.5 -250.5v-528q0 -36 -18.5 -56.5t-50.5 -20.5
t-50.5 20.5t-18.5 56.5v910q0 36 19 57t51 21q31 0 49.5 -21t18.5 -57v-127h7q32 99 116 156t209 57q167 0 262 -92.5t95 -258.5v-645zM1187 -361q-59 0 -88 17q-27 15 -27 46q0 26 17 41t47 15q5 0 22.5 -1t23.5 -1q65 0 93 47.5t28 160.5v1014q0 36 18.5 56.5t50.5 20.5
t50.5 -21t18.5 -56v-1055q0 -140 -65 -212t-189 -72z" />
    <glyph glyph-name="Acaron" unicode="&#x1cd;" horiz-adv-x="1188" 
d="M367 1757q0 19 13 34t33 15q24 0 42 -26l136 -176h3q18 13 52 56.5t59 80.5l25 37q20 28 42 28q20 0 33.5 -15t13.5 -34q0 -20 -13 -36l-146 -170q-28 -37 -67 -37q-38 0 -68 38l-144 167q-14 17 -14 38zM124 -13q-30 0 -48 16.5t-18 44.5q0 24 9 49l430 1198
q15 41 37.5 60t59.5 19q36 0 59 -19t38 -60l429 -1198q10 -28 10 -49q0 -28 -18.5 -44.5t-48.5 -16.5q-29 0 -46.5 15t-29.5 50l-129 378h-529l-129 -378q-11 -35 -29 -50t-47 -15zM369 545h449l-221 647h-6z" />
    <glyph glyph-name="acaron" unicode="&#x1ce;" horiz-adv-x="1039" 
d="M454 1237l-144 191q-13 18 -13 37q0 20 13 34t33 14q26 0 43 -26l134 -200h4l134 198q19 28 42 28q21 0 34.5 -14t13.5 -34q0 -18 -12 -34l-146 -194q-28 -40 -67 -40q-37 0 -69 40zM750 148q-44 -78 -126 -122t-185 -44q-153 0 -247 88t-94 231q0 142 96.5 223.5
t266.5 81.5h291v115q0 108 -63.5 164.5t-184.5 56.5q-73 0 -127.5 -28.5t-100.5 -89.5q-27 -35 -67 -35q-25 0 -40 15.5t-15 41.5q0 42 32 84.5t89 76.5q93 56 237 56q182 0 280 -87.5t98 -250.5v-657q0 -36 -18 -56.5t-49 -20.5t-49 20.5t-18 56.5v80h-6zM241 304
q0 -90 63.5 -145.5t167.5 -55.5q119 0 199.5 73t80.5 181v129h-288q-107 0 -165 -47t-58 -135z" />
    <glyph glyph-name="Icaron" unicode="&#x1cf;" horiz-adv-x="492" 
d="M20 1757q0 19 13.5 34t33.5 15q23 0 41 -26l136 -176h4q11 8 29 29t35.5 45t34 47t27.5 38l10 15q18 28 41 28q20 0 34 -15t14 -34q0 -20 -13 -36l-147 -170q-28 -37 -67 -37q-38 0 -68 38l-144 167q-14 17 -14 38zM245 -10q-32 0 -50.5 21t-18.5 56v1230q0 35 18.5 56
t50.5 21t51.5 -21t19.5 -56v-1230q0 -35 -19.5 -56t-51.5 -21z" />
    <glyph glyph-name="icaron" unicode="&#x1d0;" horiz-adv-x="477" 
d="M171 1237l-144 191q-13 18 -13 37q0 20 13 34t33 14q26 0 43 -26l134 -200h3l135 198q17 28 42 28q21 0 34 -14t13 -34t-12 -34l-145 -194q-30 -40 -67 -40q-39 0 -69 40zM169 67v911q0 37 19.5 57t50.5 20t49.5 -19.5t18.5 -57.5v-911q0 -38 -19 -57.5t-50 -19.5t-50 20
t-19 57z" />
    <glyph glyph-name="Ocaron" unicode="&#x1d1;" horiz-adv-x="1308" 
d="M427 1757q0 19 13.5 34t33.5 15q25 0 41 -26l136 -176h4q11 8 29 29t35.5 45t34 47t26.5 38l11 15q18 28 41 28q20 0 34 -15t14 -34q0 -20 -13 -36l-146 -170q-30 -37 -67 -37q-39 0 -69 38l-144 167q-14 18 -14 38zM119 569v215q0 282 144 445.5t391 163.5
q248 0 391.5 -163.5t143.5 -446.5v-214q0 -279 -143.5 -439t-391.5 -160q-251 0 -393 159.5t-142 439.5zM259 785v-218q0 -218 106 -343.5t289 -125.5t289 125.5t106 343.5v218q0 221 -106.5 351t-288.5 130t-288.5 -130t-106.5 -351z" />
    <glyph glyph-name="ocaron" unicode="&#x1d2;" horiz-adv-x="1113" 
d="M491 1237l-144 191q-14 18 -14 37q0 20 13 34t34 14q25 0 42 -26l134 -200h4l134 198q19 28 43 28q20 0 33.5 -14t13.5 -34q0 -18 -12 -34l-145 -194q-30 -40 -68 -40t-68 40zM557 1063q192 0 315.5 -122t123.5 -336v-165q0 -214 -123.5 -336t-315.5 -122
q-193 0 -316.5 122t-123.5 336v165q0 215 123.5 336.5t316.5 121.5zM557 939q-136 0 -218 -94.5t-82 -254.5v-135q0 -162 82 -255.5t218 -93.5q137 0 218.5 93t81.5 256v135q0 160 -82 254.5t-218 94.5z" />
    <glyph glyph-name="Ucaron" unicode="&#x1d3;" horiz-adv-x="1326" 
d="M437 1757q0 19 13.5 34t33.5 15q23 0 41 -26l136 -176h4q11 8 29 29t35.5 45t34 47t26.5 38l11 15q18 28 41 28q20 0 34 -15t14 -34q0 -20 -13 -36l-147 -170q-28 -37 -67 -37q-38 0 -68 38l-144 167q-14 17 -14 38zM1169 473q0 -227 -139 -365t-367 -138
q-237 0 -371.5 137.5t-134.5 368.5v821q0 35 19 56t51 21t51 -21t19 -56v-824q0 -173 99 -274t267 -101q169 0 267.5 101t98.5 274v824q0 35 19 56t51 21t51 -21t19 -56v-824z" />
    <glyph glyph-name="ucaron" unicode="&#x1d4;" horiz-adv-x="1129" 
d="M493 1237l-144 191q-13 18 -13 37q0 20 13 34t33 14q26 0 43 -26l134 -200h3l135 198q17 28 42 28q21 0 34 -14t13 -34t-12 -34l-145 -194q-30 -40 -67 -40q-39 0 -69 40zM822 181q-31 -83 -111.5 -141t-216.5 -58q-157 0 -253 83.5t-96 252.5v664q0 37 19 55.5t50 18.5
t50 -18.5t19 -55.5v-630q0 -126 67.5 -186t175.5 -60q133 0 218.5 79t85.5 194v603q0 37 19 55.5t50 18.5t50.5 -18.5t19.5 -55.5v-917q0 -37 -19.5 -55.5t-50.5 -18.5t-50 18.5t-19 55.5v116h-8z" />
    <glyph glyph-name="Udieresismacron" unicode="&#x1d5;" horiz-adv-x="1326" 
d="M392 1846q0 20 16 33.5t45 13.5h420q29 0 44.5 -13.5t15.5 -33.5q0 -22 -15.5 -36.5t-44.5 -14.5h-420q-29 0 -45 14.5t-16 36.5zM434 1585q0 34 21.5 56t53.5 22q33 0 56 -22t23 -56q0 -33 -23 -54.5t-56 -21.5q-32 0 -53.5 21.5t-21.5 54.5zM738 1585q0 34 22.5 56
t53.5 22q34 0 55.5 -22t21.5 -56q0 -33 -21.5 -54.5t-55.5 -21.5q-31 0 -53.5 22t-22.5 54zM1169 473q0 -227 -139 -365t-367 -138q-237 0 -371.5 137.5t-134.5 368.5v821q0 35 19 56t51 21t51 -21t19 -56v-824q0 -173 99 -274t267 -101q169 0 267.5 101t98.5 274v824
q0 35 19 56t51 21t51 -21t19 -56v-824z" />
    <glyph glyph-name="udieresismacron" unicode="&#x1d6;" horiz-adv-x="1129" 
d="M289 1596q0 21 15.5 34.5t44.5 13.5h423q29 0 44.5 -13.5t15.5 -34.5q0 -22 -15.5 -36.5t-44.5 -14.5h-423q-29 0 -44.5 14.5t-15.5 36.5zM312 1294q0 37 23.5 61.5t58.5 24.5q36 0 60.5 -24.5t24.5 -61.5q0 -36 -24.5 -60t-60.5 -24q-35 0 -58.5 24t-23.5 60zM641 1294
q0 37 24 61.5t59 24.5q37 0 61 -24.5t24 -61.5q0 -36 -24 -60t-61 -24q-35 0 -59 24t-24 60zM822 181q-31 -83 -111.5 -141t-216.5 -58q-157 0 -253 83.5t-96 252.5v664q0 37 19 55.5t50 18.5t50 -18.5t19 -55.5v-630q0 -126 67.5 -186t175.5 -60q133 0 218.5 79t85.5 194
v603q0 37 19 55.5t50 18.5t50.5 -18.5t19.5 -55.5v-917q0 -37 -19.5 -55.5t-50.5 -18.5t-50 18.5t-19 55.5v116h-8z" />
    <glyph glyph-name="Udieresisacute" unicode="&#x1d7;" horiz-adv-x="1326" 
d="M624 1749q0 23 24 39l148 107q44 30 63 30q23 0 38 -15.5t15 -38.5q0 -31 -44 -52l-157 -91q-34 -17 -48 -17q-18 0 -28.5 10.5t-10.5 27.5zM434 1585q0 34 21.5 56t53.5 22q33 0 56 -22t23 -56q0 -33 -23 -54.5t-56 -21.5q-32 0 -53.5 21.5t-21.5 54.5zM738 1585
q0 34 22.5 56t53.5 22q34 0 55.5 -22t21.5 -56q0 -33 -21.5 -54.5t-55.5 -21.5q-31 0 -53.5 22t-22.5 54zM1169 473q0 -227 -139 -365t-367 -138q-237 0 -371.5 137.5t-134.5 368.5v821q0 35 19 56t51 21t51 -21t19 -56v-824q0 -173 99 -274t267 -101q169 0 267.5 101
t98.5 274v824q0 35 19 56t51 21t51 -21t19 -56v-824z" />
    <glyph glyph-name="udieresisacute" unicode="&#x1d8;" horiz-adv-x="1129" 
d="M537 1538q0 9 10 29l123 184q20 30 52 30q25 0 42.5 -17.5t17.5 -42.5q0 -23 -14 -39l-148 -173q-15 -18 -36 -18q-20 0 -33.5 13.5t-13.5 33.5zM312 1294q0 37 23.5 61.5t58.5 24.5q36 0 60.5 -24.5t24.5 -61.5q0 -36 -24.5 -60t-60.5 -24q-35 0 -58.5 24t-23.5 60z
M641 1294q0 37 24 61.5t59 24.5q37 0 61 -24.5t24 -61.5q0 -36 -24 -60t-61 -24q-35 0 -59 24t-24 60zM822 181q-31 -83 -111.5 -141t-216.5 -58q-157 0 -253 83.5t-96 252.5v664q0 37 19 55.5t50 18.5t50 -18.5t19 -55.5v-630q0 -126 67.5 -186t175.5 -60q133 0 218.5 79
t85.5 194v603q0 37 19 55.5t50 18.5t50.5 -18.5t19.5 -55.5v-917q0 -37 -19.5 -55.5t-50.5 -18.5t-50 18.5t-19 55.5v116h-8z" />
    <glyph glyph-name="Udieresiscaron" unicode="&#x1d9;" horiz-adv-x="1326" 
d="M429 1878q0 20 13.5 34t32.5 14q17 0 50 -24l136 -99h3l135 99q32 24 49 24q20 0 33.5 -14t13.5 -34q0 -23 -22 -37l-143 -98q-44 -30 -68 -30q-21 0 -68 30l-143 98q-22 15 -22 37zM434 1585q0 34 21.5 56t53.5 22q33 0 56 -22.5t23 -55.5q0 -32 -23 -54t-56 -22
q-32 0 -53.5 21.5t-21.5 54.5zM738 1585q0 33 22 55.5t54 22.5q34 0 55.5 -22t21.5 -56q0 -33 -22 -54.5t-55 -21.5q-32 0 -54 22t-22 54zM1169 473q0 -227 -139 -365t-367 -138q-237 0 -371.5 137.5t-134.5 368.5v821q0 35 19 56t51 21t51 -21t19 -56v-824q0 -173 99 -274
t267 -101q169 0 267.5 101t98.5 274v824q0 35 19 56t51 21t51 -21t19 -56v-824z" />
    <glyph glyph-name="udieresiscaron" unicode="&#x1da;" horiz-adv-x="1129" 
d="M493 1520l-144 192q-13 17 -13 36q0 20 13 34.5t33 14.5q26 0 43 -27l134 -200h3l135 198q17 29 42 29q20 0 33.5 -14.5t13.5 -34.5t-12 -34l-145 -194q-30 -40 -67 -40q-39 0 -69 40zM312 1294q0 37 23.5 61.5t58.5 24.5q36 0 60.5 -24.5t24.5 -61.5q0 -36 -24.5 -60
t-60.5 -24q-35 0 -58.5 24t-23.5 60zM641 1294q0 37 24 61.5t59 24.5q37 0 61 -24.5t24 -61.5q0 -36 -24 -60t-61 -24q-35 0 -59 24t-24 60zM822 181q-31 -83 -111.5 -141t-216.5 -58q-157 0 -253 83.5t-96 252.5v664q0 37 19 55.5t50 18.5t50 -18.5t19 -55.5v-630
q0 -126 67.5 -186t175.5 -60q133 0 218.5 79t85.5 194v603q0 37 19 55.5t50 18.5t50.5 -18.5t19.5 -55.5v-917q0 -37 -19.5 -55.5t-50.5 -18.5t-50 18.5t-19 55.5v116h-8z" />
    <glyph glyph-name="Udieresisgrave" unicode="&#x1db;" horiz-adv-x="1326" 
d="M701 1749q0 -17 -10.5 -27.5t-28.5 -10.5q-14 0 -49 17l-156 91q-44 20 -44 52q0 23 15 38.5t37 15.5q20 0 64 -30l148 -107q24 -16 24 -39zM434 1585q0 34 21.5 56t53.5 22q33 0 56 -22t23 -56q0 -33 -23 -54.5t-56 -21.5q-32 0 -53.5 21.5t-21.5 54.5zM738 1585
q0 34 22.5 56t53.5 22q34 0 55.5 -22t21.5 -56q0 -33 -21.5 -54.5t-55.5 -21.5q-31 0 -53.5 22t-22.5 54zM1169 473q0 -227 -139 -365t-367 -138q-237 0 -371.5 137.5t-134.5 368.5v821q0 35 19 56t51 21t51 -21t19 -56v-824q0 -173 99 -274t267 -101q169 0 267.5 101
t98.5 274v824q0 35 19 56t51 21t51 -21t19 -56v-824z" />
    <glyph glyph-name="udieresisgrave" unicode="&#x1dc;" horiz-adv-x="1129" 
d="M498 1509l-148 173q-14 16 -14 39q0 25 17.5 42.5t42.5 17.5q34 0 52 -30l123 -184q11 -18 11 -29q0 -19 -14 -33t-34 -14q-21 0 -36 18zM312 1294q0 37 23.5 61.5t58.5 24.5q36 0 60.5 -24.5t24.5 -61.5q0 -36 -24.5 -60t-60.5 -24q-35 0 -58.5 24t-23.5 60zM641 1294
q0 37 24 61.5t59 24.5q37 0 61 -24.5t24 -61.5q0 -36 -24 -60t-61 -24q-35 0 -59 24t-24 60zM822 181q-31 -83 -111.5 -141t-216.5 -58q-157 0 -253 83.5t-96 252.5v664q0 37 19 55.5t50 18.5t50 -18.5t19 -55.5v-630q0 -126 67.5 -186t175.5 -60q133 0 218.5 79t85.5 194
v603q0 37 19 55.5t50 18.5t50.5 -18.5t19.5 -55.5v-917q0 -37 -19.5 -55.5t-50.5 -18.5t-50 18.5t-19 55.5v116h-8z" />
    <glyph glyph-name="uni04D9" unicode="&#x259;" horiz-adv-x="1096" 
d="M965 604v-158q0 -209 -118.5 -336.5t-307.5 -127.5q-185 0 -300.5 123.5t-115.5 324.5q0 73 16.5 99t63.5 26h622v58q0 153 -82 239.5t-225 86.5q-138 0 -234 -100q-34 -34 -47.5 -43t-31.5 -9q-25 0 -41 18t-16 44q0 21 16 51t41 54q47 50 132 79.5t186 29.5
q206 0 324 -122t118 -337zM825 435h-564v-3q0 -151 75.5 -239.5t201.5 -88.5q129 0 208 90t79 238v3z" />
    <glyph glyph-name="uni04D9" unicode="&#x1dd;" horiz-adv-x="1096" 
d="M965 604v-158q0 -209 -118.5 -336.5t-307.5 -127.5q-185 0 -300.5 123.5t-115.5 324.5q0 73 16.5 99t63.5 26h622v58q0 153 -82 239.5t-225 86.5q-138 0 -234 -100q-34 -34 -47.5 -43t-31.5 -9q-25 0 -41 18t-16 44q0 21 16 51t41 54q47 50 132 79.5t186 29.5
q206 0 324 -122t118 -337zM825 435h-564v-3q0 -151 75.5 -239.5t201.5 -88.5q129 0 208 90t79 238v3z" />
    <glyph glyph-name="Adieresismacron" unicode="&#x1de;" horiz-adv-x="1188" 
d="M322 1846q0 20 16 33.5t44 13.5h421q29 0 44.5 -13.5t15.5 -33.5q0 -22 -15.5 -36.5t-44.5 -14.5h-421q-29 0 -44.5 14.5t-15.5 36.5zM364 1585q0 34 21.5 56t53.5 22q33 0 55.5 -22t22.5 -56q0 -33 -22.5 -54.5t-55.5 -21.5q-32 0 -53.5 21.5t-21.5 54.5zM667 1585
q0 34 22.5 56t54.5 22q34 0 55.5 -22t21.5 -56q0 -33 -21.5 -54.5t-55.5 -21.5q-32 0 -54.5 21.5t-22.5 54.5zM124 -13q-30 0 -48 16.5t-18 44.5q0 24 9 49l430 1198q15 41 37.5 60t59.5 19q36 0 59 -19t38 -60l429 -1198q10 -28 10 -49q0 -28 -18.5 -44.5t-48.5 -16.5
q-29 0 -46.5 15t-29.5 50l-129 378h-529l-129 -378q-11 -35 -29 -50t-47 -15zM369 545h449l-221 647h-6z" />
    <glyph glyph-name="adieresismacron" unicode="&#x1df;" horiz-adv-x="1039" 
d="M250 1596q0 21 15.5 34.5t44.5 13.5h423q29 0 45 -13.5t16 -34.5q0 -22 -16 -36.5t-45 -14.5h-423q-29 0 -44.5 14.5t-15.5 36.5zM273 1294q0 37 23.5 61.5t58.5 24.5q36 0 60.5 -24.5t24.5 -61.5q0 -36 -24.5 -60t-60.5 -24q-35 0 -58.5 24t-23.5 60zM602 1294
q0 37 24.5 61.5t58.5 24.5q37 0 61 -24.5t24 -61.5q0 -36 -24 -60t-61 -24q-34 0 -58.5 24t-24.5 60zM750 148q-44 -78 -126 -122t-185 -44q-153 0 -247 88t-94 231q0 142 96.5 223.5t266.5 81.5h291v115q0 108 -63.5 164.5t-184.5 56.5q-73 0 -127.5 -28.5t-100.5 -89.5
q-27 -35 -67 -35q-25 0 -40 15.5t-15 41.5q0 42 32 84.5t89 76.5q93 56 237 56q182 0 280 -87.5t98 -250.5v-657q0 -36 -18 -56.5t-49 -20.5t-49 20.5t-18 56.5v80h-6zM241 304q0 -90 63.5 -145.5t167.5 -55.5q119 0 199.5 73t80.5 181v129h-288q-107 0 -165 -47t-58 -135z
" />
    <glyph glyph-name="Adotmacron" unicode="&#x1e0;" horiz-adv-x="1188" 
d="M322 1846q0 20 16 33.5t44 13.5h421q29 0 44.5 -13.5t15.5 -33.5q0 -22 -15.5 -36.5t-44.5 -14.5h-421q-29 0 -44.5 14.5t-15.5 36.5zM498 1584q0 40 27.5 67t66.5 27t67 -27t28 -67t-27.5 -67t-67.5 -27t-67 27t-27 67zM124 -13q-30 0 -48 16.5t-18 44.5q0 24 9 49
l430 1198q15 41 37.5 60t59.5 19q36 0 59 -19t38 -60l429 -1198q10 -28 10 -49q0 -28 -18.5 -44.5t-48.5 -16.5q-29 0 -46.5 15t-29.5 50l-129 378h-529l-129 -378q-11 -35 -29 -50t-47 -15zM369 545h449l-221 647h-6z" />
    <glyph glyph-name="adotmacron" unicode="&#x1e1;" horiz-adv-x="1039" 
d="M250 1596q0 21 15.5 34.5t44.5 13.5h423q29 0 45 -13.5t16 -34.5q0 -22 -16 -36.5t-45 -14.5h-423q-29 0 -44.5 14.5t-15.5 36.5zM426 1302q0 40 27.5 67.5t67.5 27.5t68 -27.5t28 -67.5t-28 -67.5t-68 -27.5q-41 0 -68 27.5t-27 67.5zM750 148q-44 -78 -126 -122
t-185 -44q-153 0 -247 88t-94 231q0 142 96.5 223.5t266.5 81.5h291v115q0 108 -63.5 164.5t-184.5 56.5q-73 0 -127.5 -28.5t-100.5 -89.5q-27 -35 -67 -35q-25 0 -40 15.5t-15 41.5q0 42 32 84.5t89 76.5q93 56 237 56q182 0 280 -87.5t98 -250.5v-657q0 -36 -18 -56.5
t-49 -20.5t-49 20.5t-18 56.5v80h-6zM241 304q0 -90 63.5 -145.5t167.5 -55.5q119 0 199.5 73t80.5 181v129h-288q-107 0 -165 -47t-58 -135z" />
    <glyph glyph-name="AEmacron" unicode="&#x1e2;" horiz-adv-x="1838" 
d="M1064 1575q0 21 15.5 34.5t44.5 13.5h421q29 0 44.5 -13.5t15.5 -34.5t-15.5 -35.5t-44.5 -14.5h-421q-29 0 -44.5 14.5t-15.5 35.5zM424 453l-214 -385q-21 -39 -40.5 -55.5t-45.5 -16.5q-29 0 -47 16t-18 42q0 24 20 61l653 1157q29 51 61.5 71.5t84.5 20.5h788
q34 0 54 -17.5t20 -47.5q0 -29 -20 -46t-54 -17h-596v-475h560q34 0 54 -17.5t20 -46.5t-20 -46t-54 -17h-560v-506h595q34 0 54 -17.5t20 -47.5q0 -29 -20 -46t-54 -17h-598q-73 0 -105 29t-32 97v327h-506zM489 571h441v665h-71z" />
    <glyph glyph-name="aemacron" unicode="&#x1e3;" horiz-adv-x="1707" 
d="M575 1302q0 21 15.5 34.5t44.5 13.5h423q29 0 44.5 -13.5t15.5 -34.5t-15.5 -35.5t-44.5 -14.5h-423q-29 0 -44.5 14.5t-15.5 35.5zM1186 -16q-139 0 -235 56t-140 163h-12q-40 -102 -133.5 -161t-221.5 -59q-156 0 -251 86.5t-95 230.5q0 142 95.5 223t267.5 81h289v117
q0 108 -61.5 162.5t-177.5 54.5q-158 0 -225 -115q-28 -44 -40.5 -55t-35.5 -11q-29 0 -45.5 17t-16.5 47q0 39 24 81t67 76q102 85 271 85q235 0 327 -159h10q55 77 140.5 118t189.5 41q190 0 303 -125t113 -339q0 -60 -18.5 -85.5t-61.5 -25.5h-623v-54q0 -153 82.5 -240
t224.5 -87q151 0 237 114q34 35 47.5 44.5t31.5 9.5q24 0 40.5 -17.5t16.5 -42.5q0 -28 -17 -63t-43 -60q-48 -50 -134.5 -79t-189.5 -29zM890 597h564v16q0 151 -75 239.5t-201 88.5q-129 0 -208.5 -90t-79.5 -238v-16zM241 304q0 -91 63.5 -146t169.5 -55q120 0 198 72
t78 182v131h-286q-108 0 -165.5 -48.5t-57.5 -135.5z" />
    <glyph glyph-name="Gcaron" unicode="&#x1e6;" horiz-adv-x="1267" 
d="M423 1757q0 19 13.5 34t33.5 15q24 0 42 -26l136 -176h3q11 8 29 29t35.5 45t34 47t26.5 38l11 15q20 28 41 28q20 0 34 -15t14 -34q0 -20 -13 -36l-146 -170q-30 -37 -67 -37q-39 0 -69 38l-143 167q-15 18 -15 38zM119 567v230q0 282 137.5 439t384.5 157
q242 0 380 -147q49 -52 80 -113t31 -105q0 -31 -17 -48.5t-45 -17.5q-25 0 -42 14t-34 48q-105 242 -347 242q-184 0 -286 -123t-102 -346v-231q0 -220 106.5 -344t294.5 -124q157 0 254 87.5t97 231.5v151h-308q-35 0 -55 17t-20 46q0 30 20 47t55 17h338q55 0 81 -26.5
t26 -82.5v-169q0 -193 -139.5 -320t-351.5 -127q-253 0 -395.5 158.5t-142.5 438.5z" />
    <glyph glyph-name="gcaron" unicode="&#x1e7;" horiz-adv-x="1147" 
d="M505 1237l-144 191q-13 18 -13 37q0 20 13 34t33 14q26 0 43 -26l134 -200h3l135 198q17 28 42 28q21 0 34 -14t13 -34t-12 -34l-145 -194q-30 -40 -67 -40q-39 0 -69 40zM836 192q-32 -72 -111.5 -124.5t-196.5 -52.5q-175 0 -293 118t-118 315v179q0 100 33 183.5
t89 138t130 84.5t158 30q120 0 203 -56t113 -129h7v99q0 38 17.5 57.5t47.5 19.5t48 -19.5t18 -57.5v-956q0 -199 -115.5 -303t-312.5 -104q-174 0 -289 76q-48 31 -77.5 70t-29.5 75q0 27 16.5 44t43.5 17q11 0 19.5 -2.5t17.5 -9t14 -10.5t15.5 -15.5t14.5 -15.5
q95 -105 249 -105q139 0 218 74.5t79 202.5v177h-8zM257 480q0 -154 84 -248t216 -94q133 0 209.5 92.5t76.5 220.5v169q0 133 -78.5 226t-212.5 93q-131 0 -213 -93.5t-82 -250.5v-115z" />
    <glyph glyph-name="Kcaron" unicode="&#x1e8;" horiz-adv-x="1163" 
d="M332 1757q0 19 13.5 34t33.5 15q24 0 42 -26l136 -176h3q17 13 51 56.5t59 80.5l26 37q20 28 41 28q20 0 34 -15t14 -34q0 -20 -13 -36l-146 -170q-30 -37 -67 -37q-39 0 -69 38l-143 167q-15 18 -15 38zM1023 -5q-40 0 -80 57l-449 632l-181 -188v-429q0 -35 -19.5 -56
t-51.5 -21t-50.5 21t-18.5 56v1230q0 35 18.5 56t50.5 21t51.5 -21t19.5 -56v-617h5l605 643q42 46 73 46q27 0 45 -18t18 -44t-41 -69l-420 -457l456 -633q42 -56 42 -83q0 -31 -20.5 -50.5t-52.5 -19.5z" />
    <glyph glyph-name="kcaron" unicode="&#x1e9;" horiz-adv-x="962" 
d="M3 1830q0 19 13 33.5t33 14.5q25 0 42 -25l136 -176h3q17 13 51 56.5t59 80.5l26 37q19 27 42 27q20 0 33.5 -14.5t13.5 -33.5q0 -20 -13 -36l-146 -170q-28 -37 -67 -37q-38 0 -68 38l-144 167q-14 17 -14 38zM301 67q0 -36 -19 -56.5t-51 -20.5t-50 20.5t-18 56.5v1298
q0 36 18 56.5t50 20.5t51 -21t19 -56v-798h5l463 458q37 38 67 38q25 0 41 -16.5t16 -41.5q0 -29 -31 -60l-338 -338l376 -486q25 -32 25 -61q0 -25 -19 -44.5t-45 -19.5q-32 0 -66 44l-369 476l-125 -117v-332z" />
    <glyph glyph-name="Oogonek" unicode="&#x1ea;" horiz-adv-x="1308" 
d="M119 569v215q0 282 144 445.5t391 163.5q248 0 391.5 -163.5t143.5 -446.5v-214q0 -187 -45.5 -294t-131.5 -196q-10 -10 -37.5 -38.5t-36.5 -38.5t-29.5 -32.5t-28 -35.5t-18 -32t-14 -36.5t-3.5 -35.5q0 -46 29.5 -71.5t77.5 -25.5q42 0 58 -11q21 -10 21 -40
q0 -35 -45 -51q-27 -10 -68 -10q-81 0 -137.5 45.5t-56.5 131.5q0 58 28.5 114t80.5 99l-4 8q-26 -19 -80.5 -34t-106.5 -15q-243 0 -383 160t-140 439zM259 785v-218q0 -218 106 -343.5t289 -125.5t289.5 125.5t106.5 343.5v218q0 221 -107 351t-289 130t-288.5 -130
t-106.5 -351z" />
    <glyph glyph-name="oogonek" unicode="&#x1eb;" horiz-adv-x="1113" 
d="M583 -190q0 117 109 205l-6 7q-62 -39 -149 -39q-185 0 -302.5 125.5t-117.5 331.5v165q0 209 121 333.5t319 124.5q197 0 318 -125t121 -333v-165q0 -112 -35 -200.5t-111 -169.5q-93 -102 -119 -145t-26 -104q0 -44 31 -70t82 -26q45 0 65 -8q22 -10 22 -32
q0 -26 -18 -41q-26 -22 -91 -22q-95 0 -154 51t-59 137zM557 939q-136 0 -218.5 -94.5t-82.5 -254.5v-135q0 -161 82.5 -255t218.5 -94q137 0 218.5 93.5t81.5 255.5v135q0 161 -82.5 255t-217.5 94z" />
    <glyph glyph-name="Oogonekmacron" unicode="&#x1ec;" horiz-adv-x="1307" 
d="M383 1575q0 21 15.5 34.5t44.5 13.5h420q29 0 44.5 -13.5t15.5 -34.5t-15.5 -35.5t-44.5 -14.5h-420q-29 0 -44.5 14t-15.5 36zM119 569v215q0 282 144 445.5t391 163.5q248 0 391.5 -163.5t143.5 -446.5v-214q0 -187 -45.5 -294t-131.5 -196q-10 -10 -37.5 -38.5
t-36.5 -38.5t-29.5 -32.5t-28 -35.5t-18 -32t-14 -36.5t-3.5 -35.5q0 -46 29.5 -71.5t77.5 -25.5q42 0 58 -11q21 -10 21 -40q0 -35 -45 -51q-27 -10 -68 -10q-81 0 -137.5 45.5t-56.5 131.5q0 58 28.5 114t80.5 99l-4 8q-26 -19 -80.5 -34t-106.5 -15q-243 0 -383 160
t-140 439zM259 785v-218q0 -218 106 -343.5t289 -125.5t289.5 125.5t106.5 343.5v218q0 221 -107 351t-289 130t-288.5 -130t-106.5 -351z" />
    <glyph glyph-name="oogonekmacron" unicode="&#x1ed;" horiz-adv-x="1113" 
d="M285 1302q0 21 16 34.5t45 13.5h423q29 0 44.5 -13.5t15.5 -34.5t-15.5 -35.5t-44.5 -14.5h-423q-29 0 -45 14.5t-16 35.5zM583 -190q0 117 109 205l-6 7q-62 -39 -149 -39q-185 0 -302.5 125.5t-117.5 331.5v165q0 209 121 333.5t319 124.5q197 0 318 -125t121 -333
v-165q0 -112 -35 -200.5t-111 -169.5q-93 -102 -119 -145t-26 -104q0 -44 31 -70t82 -26q45 0 65 -8q22 -10 22 -32q0 -26 -18 -41q-26 -22 -91 -22q-95 0 -154 51t-59 137zM557 939q-136 0 -218.5 -94.5t-82.5 -254.5v-135q0 -161 82.5 -255t218.5 -94q137 0 218.5 93.5
t81.5 255.5v135q0 161 -82.5 255t-217.5 94z" />
    <glyph glyph-name="uni01F1" unicode="&#x1f1;" horiz-adv-x="2431" 
d="M173 126v1111q0 68 32 97.5t105 29.5h275q296 0 448.5 -173t152.5 -509q0 -337 -152 -509.5t-449 -172.5h-275q-73 0 -105 29t-32 97zM1374 74q0 20 14.5 46.5t63.5 98.5l689 1007v10h-678q-34 0 -54 17.5t-20 46.5q0 30 20 47t55 17h775q34 0 54 -19t20 -50
q0 -22 -14.5 -49.5t-64.5 -102.5l-683 -1006v-9h713q34 0 54 -17.5t20 -47.5q0 -29 -20 -46t-55 -17h-813q-34 0 -55 20.5t-21 53.5zM313 128h270q461 0 461 554q0 555 -461 555h-270v-1109z" />
    <glyph glyph-name="uni01F2" unicode="&#x1f2;" horiz-adv-x="2236" 
d="M173 126v1111q0 68 32 97.5t105 29.5h275q296 0 448.5 -173t152.5 -509q0 -337 -152 -509.5t-449 -172.5h-275q-73 0 -105 29t-32 97zM313 128h270q461 0 461 554q0 555 -461 555h-270v-1109zM1397 75q0 33 36 85l541 753v9h-520q-32 0 -50 18t-18 44q0 27 18 44t50 17
h599q41 0 63.5 -20t22.5 -54q0 -35 -36 -85l-540 -754v-9h528q32 0 50.5 -17.5t18.5 -43.5q0 -27 -18.5 -44.5t-50.5 -17.5h-607q-41 0 -64 20.5t-23 54.5z" />
    <glyph glyph-name="uni01F3" unicode="&#x1f3;" horiz-adv-x="2096" 
d="M843 176q-22 -78 -111 -136t-212 -58q-182 0 -292.5 118t-110.5 314v216q0 198 113 315.5t294 117.5q117 0 199.5 -51.5t113.5 -131.5h7v485q0 35 18.5 56t50.5 21t50.5 -21t18.5 -56v-1297q0 -37 -17 -57t-49 -20q-31 0 -48 20t-17 57v108h-8zM1258 75q0 35 36 85
l540 753v9h-519q-32 0 -50 18t-18 44q0 27 18 44t50 17h598q42 0 64.5 -20t22.5 -54q0 -35 -36 -85l-541 -754v-9h529q32 0 50.5 -17.5t18.5 -43.5q0 -27 -18.5 -44.5t-50.5 -17.5h-607q-42 0 -64.5 20t-22.5 55zM257 450q0 -162 77.5 -253t211.5 -91q136 0 217 91t81 237
v193q0 135 -85.5 223.5t-217.5 88.5q-130 0 -207 -90.5t-77 -253.5v-145z" />
    <glyph glyph-name="Gacute" unicode="&#x1f4;" horiz-adv-x="1267" 
d="M625 1560q0 11 11 29l122 183q20 31 53 31q25 0 42.5 -18t17.5 -42q0 -23 -14 -40l-148 -172q-16 -19 -37 -19q-19 0 -33 14.5t-14 33.5zM119 567v230q0 282 137.5 439t384.5 157q242 0 380 -147q49 -52 80 -113t31 -105q0 -31 -17 -48.5t-45 -17.5q-25 0 -42 14t-34 48
q-105 242 -347 242q-184 0 -286 -123t-102 -346v-231q0 -220 106.5 -344t294.5 -124q157 0 254 87.5t97 231.5v151h-308q-35 0 -55 17t-20 46q0 30 20 47t55 17h338q55 0 81 -26.5t26 -82.5v-169q0 -193 -139.5 -320t-351.5 -127q-253 0 -395.5 158.5t-142.5 438.5z" />
    <glyph glyph-name="gacute" unicode="&#x1f5;" horiz-adv-x="1147" 
d="M549 1237q0 9 10 29l123 184q18 30 52 30q25 0 42.5 -17.5t17.5 -42.5q0 -23 -14 -39l-148 -173q-15 -18 -36 -18q-20 0 -33.5 14t-13.5 33zM836 192q-32 -72 -111.5 -124.5t-196.5 -52.5q-175 0 -293 118t-118 315v179q0 100 33 183.5t89 138t130 84.5t158 30
q120 0 203 -56t113 -129h7v99q0 38 17.5 57.5t47.5 19.5t48 -19.5t18 -57.5v-956q0 -199 -115.5 -303t-312.5 -104q-174 0 -289 76q-48 31 -77.5 70t-29.5 75q0 27 16.5 44t43.5 17q11 0 19.5 -2.5t17.5 -9t14 -10.5t15.5 -15.5t14.5 -15.5q95 -105 249 -105q139 0 218 74.5
t79 202.5v177h-8zM257 480q0 -154 84 -248t216 -94q133 0 209.5 92.5t76.5 220.5v169q0 133 -78.5 226t-212.5 93q-131 0 -213 -93.5t-82 -250.5v-115z" />
    <glyph glyph-name="Ngrave" unicode="&#x1f8;" horiz-adv-x="1352" 
d="M613 1533l-148 173q-14 16 -14 39q0 24 17.5 42t42.5 18q34 0 52 -31l123 -183q11 -18 11 -29q0 -19 -14 -33t-34 -14q-23 0 -36 18zM313 67q0 -35 -18.5 -56t-50.5 -21t-50 20.5t-18 56.5v1210q0 96 82 96q31 0 53.5 -20.5t50.5 -65.5l670 -1048h7v1058q0 36 18 56.5
t50 20.5t50.5 -21t18.5 -56v-1210q0 -96 -80 -96q-31 0 -52.5 16.5t-49.5 60.5l-675 1056h-6v-1057z" />
    <glyph glyph-name="ngrave" unicode="&#x1f9;" horiz-adv-x="1134" 
d="M508 1208l-148 173q-14 16 -14 39q0 25 17.5 42.5t42.5 17.5q32 0 52 -30l123 -184q10 -20 10 -29q0 -19 -13.5 -33t-33.5 -14q-21 0 -36 18zM987 67q0 -36 -19 -56.5t-51 -20.5t-50.5 20.5t-18.5 56.5v604q0 128 -64.5 198t-184.5 70q-140 0 -220.5 -93.5t-80.5 -250.5
v-528q0 -36 -18.5 -56.5t-50.5 -20.5t-50.5 20.5t-18.5 56.5v910q0 36 19 57t51 21q31 0 49.5 -21t18.5 -57v-127h7q32 99 116 156t209 57q167 0 262 -92.5t95 -258.5v-645z" />
    <glyph glyph-name="Aringacute" unicode="&#x1fa;" horiz-adv-x="1188" 
d="M707 1850l-90 -46q-12 -5 -23 -5q-17 0 -28.5 11t-11.5 28q0 24 30 41l79 54q17 9 31 9q20 0 33.5 -14t13.5 -33q0 -30 -34 -45zM592 1429q-71 0 -120.5 48.5t-49.5 118.5t49.5 119t120.5 49t121 -49t50 -119t-50 -118.5t-121 -48.5zM495 1596q0 -41 28.5 -70t68.5 -29
q41 0 69 29t28 70q0 42 -27.5 70.5t-69.5 28.5q-41 0 -69 -28.5t-28 -70.5zM124 -13q-30 0 -48 16.5t-18 44.5q0 24 9 49l430 1198q15 41 37.5 60t59.5 19q36 0 59 -19t38 -60l429 -1198q10 -28 10 -49q0 -28 -18.5 -44.5t-48.5 -16.5q-29 0 -46.5 15t-29.5 50l-129 378
h-529l-129 -378q-11 -35 -29 -50t-47 -15zM369 545h449l-221 647h-6z" />
    <glyph glyph-name="aringacute" unicode="&#x1fb;" horiz-adv-x="1039" 
d="M508 1632q0 12 15 35l77 113q17 25 48 25q21 0 38 -15t17 -36q0 -20 -14 -38l-100 -104q-19 -19 -39 -19q-17 0 -29.5 11t-12.5 28zM521 1186q-76 0 -129 52t-53 128q0 75 53 127t129 52t129.5 -52t53.5 -127q0 -76 -53.5 -128t-129.5 -52zM415 1366q0 -45 31 -77t75 -32
q45 0 75.5 32t30.5 77t-30.5 76t-75.5 31q-44 0 -75 -31t-31 -76zM750 148q-44 -78 -126 -122t-185 -44q-153 0 -247 88t-94 231q0 142 96.5 223.5t266.5 81.5h291v115q0 108 -63.5 164.5t-184.5 56.5q-73 0 -127.5 -28.5t-100.5 -89.5q-27 -35 -67 -35q-25 0 -40 15.5
t-15 41.5q0 42 32 84.5t89 76.5q93 56 237 56q182 0 280 -87.5t98 -250.5v-657q0 -36 -18 -56.5t-49 -20.5t-49 20.5t-18 56.5v80h-6zM241 304q0 -90 63.5 -145.5t167.5 -55.5q119 0 199.5 73t80.5 181v129h-288q-107 0 -165 -47t-58 -135z" />
    <glyph glyph-name="AEacute" unicode="&#x1fc;" horiz-adv-x="1838" 
d="M1311 1560q0 9 10 29l123 183q19 31 52 31q25 0 42.5 -18t17.5 -42q0 -23 -14 -40l-148 -172q-14 -19 -36 -19q-19 0 -33 14t-14 34zM424 453l-214 -385q-21 -39 -40.5 -55.5t-45.5 -16.5q-29 0 -47 16t-18 42q0 24 20 61l653 1157q29 51 61.5 71.5t84.5 20.5h788
q34 0 54 -17.5t20 -47.5q0 -29 -20 -46t-54 -17h-596v-475h560q34 0 54 -17.5t20 -46.5t-20 -46t-54 -17h-560v-506h595q34 0 54 -17.5t20 -47.5q0 -29 -20 -46t-54 -17h-598q-73 0 -105 29t-32 97v327h-506zM489 571h441v665h-71z" />
    <glyph glyph-name="aeacute" unicode="&#x1fd;" horiz-adv-x="1707" 
d="M823 1237q0 9 10 29l123 184q20 30 52 30q25 0 42.5 -17.5t17.5 -42.5q0 -23 -14 -39l-148 -173q-15 -18 -36 -18q-20 0 -33.5 14t-13.5 33zM1186 -16q-139 0 -235 56t-140 163h-12q-40 -102 -133.5 -161t-221.5 -59q-156 0 -251 86.5t-95 230.5q0 142 95.5 223t267.5 81
h289v117q0 108 -61.5 162.5t-177.5 54.5q-158 0 -225 -115q-28 -44 -40.5 -55t-35.5 -11q-29 0 -45.5 17t-16.5 47q0 39 24 81t67 76q102 85 271 85q235 0 327 -159h10q55 77 140.5 118t189.5 41q190 0 303 -125t113 -339q0 -60 -18.5 -85.5t-61.5 -25.5h-623v-54
q0 -153 82.5 -240t224.5 -87q151 0 237 114q34 35 47.5 44.5t31.5 9.5q24 0 40.5 -17.5t16.5 -42.5q0 -28 -17 -63t-43 -60q-48 -50 -134.5 -79t-189.5 -29zM890 597h564v16q0 151 -75 239.5t-201 88.5q-129 0 -208.5 -90t-79.5 -238v-16zM241 304q0 -91 63.5 -146
t169.5 -55q120 0 198 72t78 182v131h-286q-108 0 -165.5 -48.5t-57.5 -135.5z" />
    <glyph glyph-name="Oslashacute" unicode="&#x1fe;" horiz-adv-x="1307" 
d="M629 1560q0 11 11 29l122 183q20 31 53 31q24 0 42 -18t18 -42q0 -21 -14 -40l-148 -172q-16 -19 -37 -19q-19 0 -33 14.5t-14 33.5zM111 109l89 109q-81 144 -81 351v214q0 281 143.5 446t391.5 165q238 0 379 -152l88 106q18 24 44 24q22 0 37.5 -16t15.5 -38
q0 -18 -16 -38l-102 -125q89 -152 89 -372v-214q0 -278 -142.5 -438.5t-392.5 -160.5q-249 0 -390 158l-72 -88q-19 -23 -44 -23q-22 0 -38 15.5t-16 37.5q0 18 17 39zM258 567q0 -131 39 -228l648 793q-106 134 -291 134q-183 0 -289.5 -130t-106.5 -351v-218zM654 99
q184 0 290 126t106 342v218q0 140 -47 250l-649 -796q106 -140 300 -140z" />
    <glyph glyph-name="oslashacute" unicode="&#x1ff;" horiz-adv-x="1113" 
d="M533 1237q0 7 11 29l123 184q18 30 52 30q25 0 42.5 -17.5t17.5 -42.5q0 -23 -14 -39l-148 -173q-15 -18 -36 -18q-20 0 -34 14t-14 33zM139 44l73 98q-95 122 -95 298v165q0 209 124 333.5t316 124.5q154 0 269 -92l63 80q21 30 50 30q17 0 32.5 -15t15.5 -33
q0 -19 -16 -41l-71 -92q96 -122 96 -295v-165q0 -214 -123.5 -335.5t-315.5 -121.5q-158 0 -269 88l-66 -87q-21 -29 -50 -29q-18 0 -33 14.5t-15 32.5q0 21 15 42zM251 431q0 -105 39 -180l465 622q-77 71 -198 71q-136 0 -221 -97t-85 -257v-159zM358 169q78 -66 199 -66
q139 0 221.5 94.5t82.5 257.5v159q0 101 -39 177z" />
    <glyph glyph-name="Adblgrave" unicode="&#x200;" horiz-adv-x="1188" 
d="M495 1564q0 -19 -14 -33t-33 -14q-21 0 -37 18l-148 173q-14 18 -14 39q0 25 18 42.5t42 17.5q33 0 53 -30l122 -184q11 -18 11 -29zM748 1564q0 -20 -14 -33.5t-33 -13.5q-21 0 -36 18l-148 173q-14 16 -14 39q0 25 17.5 42.5t42.5 17.5q32 0 52 -30l123 -184
q10 -20 10 -29zM124 -13q-30 0 -48 16.5t-18 44.5q0 24 9 49l430 1198q15 41 37.5 60t59.5 19q36 0 59 -19t38 -60l429 -1198q10 -28 10 -49q0 -28 -18.5 -44.5t-48.5 -16.5q-29 0 -46.5 15t-29.5 50l-129 378h-529l-129 -378q-11 -35 -29 -50t-47 -15zM369 545h449
l-221 647h-6z" />
    <glyph glyph-name="adblgrave" unicode="&#x201;" horiz-adv-x="1039" 
d="M416 1237q0 -19 -14 -33t-33 -14q-21 0 -37 18l-148 173q-14 17 -14 39q0 25 18 42.5t42 17.5q33 0 53 -30l122 -184q11 -18 11 -29zM669 1237q0 -19 -13.5 -33t-33.5 -14q-21 0 -36 18l-148 173q-14 16 -14 39q0 25 17.5 42.5t42.5 17.5q32 0 52 -30l123 -184
q10 -20 10 -29zM750 148q-44 -78 -126 -122t-185 -44q-153 0 -247 88t-94 231q0 142 96.5 223.5t266.5 81.5h291v115q0 108 -63.5 164.5t-184.5 56.5q-73 0 -127.5 -28.5t-100.5 -89.5q-27 -35 -67 -35q-25 0 -40 15.5t-15 41.5q0 42 32 84.5t89 76.5q93 56 237 56
q182 0 280 -87.5t98 -250.5v-657q0 -36 -18 -56.5t-49 -20.5t-49 20.5t-18 56.5v80h-6zM241 304q0 -90 63.5 -145.5t167.5 -55.5q119 0 199.5 73t80.5 181v129h-288q-107 0 -165 -47t-58 -135z" />
    <glyph glyph-name="Ainvertedbreve" unicode="&#x202;" horiz-adv-x="1188" 
d="M316 1558q0 33 22 74t56 72q78 73 198 73q121 0 199 -73q34 -32 56 -72.5t22 -72.5q0 -23 -15 -37.5t-36 -14.5q-34 0 -51 40q-47 137 -175 137q-127 0 -175 -137q-16 -40 -53 -40q-21 0 -34.5 14.5t-13.5 36.5zM124 -13q-30 0 -48 16.5t-18 44.5q0 24 9 49l430 1198
q15 41 37.5 60t59.5 19q36 0 59 -19t38 -60l429 -1198q10 -28 10 -49q0 -28 -18.5 -44.5t-48.5 -16.5q-29 0 -46.5 15t-29.5 50l-129 378h-529l-129 -378q-11 -35 -29 -50t-47 -15zM369 545h449l-221 647h-6z" />
    <glyph glyph-name="ainvertedbreve" unicode="&#x203;" horiz-adv-x="1039" 
d="M245 1249q0 33 22 74t56 72q77 72 198 72q122 0 199 -72q34 -32 56 -72.5t22 -72.5q0 -24 -14.5 -38t-36.5 -14q-36 0 -50 40q-49 137 -176 137t-175 -137q-16 -40 -53 -40q-21 0 -34.5 14.5t-13.5 36.5zM750 148q-44 -78 -126 -122t-185 -44q-153 0 -247 88t-94 231
q0 142 96.5 223.5t266.5 81.5h291v115q0 108 -63.5 164.5t-184.5 56.5q-73 0 -127.5 -28.5t-100.5 -89.5q-27 -35 -67 -35q-25 0 -40 15.5t-15 41.5q0 42 32 84.5t89 76.5q93 56 237 56q182 0 280 -87.5t98 -250.5v-657q0 -36 -18 -56.5t-49 -20.5t-49 20.5t-18 56.5v80h-6z
M241 304q0 -90 63.5 -145.5t167.5 -55.5q119 0 199.5 73t80.5 181v129h-288q-107 0 -165 -47t-58 -135z" />
    <glyph glyph-name="Edblgrave" unicode="&#x204;" horiz-adv-x="1093" 
d="M473 1564q0 -19 -14 -33t-34 -14q-21 0 -36 18l-148 173q-14 16 -14 39q0 25 17.5 42.5t42.5 17.5q34 0 52 -30l123 -184q11 -18 11 -29zM726 1564q0 -19 -14 -33t-33 -14q-21 0 -37 18l-148 173q-14 18 -14 39q0 25 18 42.5t42 17.5q33 0 53 -30l122 -184q11 -18 11 -29
zM173 126v1111q0 68 32 97.5t105 29.5h598q35 0 55 -17.5t20 -47.5q0 -29 -20 -46t-55 -17h-595v-475h559q34 0 54.5 -17.5t20.5 -46.5t-20 -46t-55 -17h-559v-506h594q35 0 55 -17.5t20 -47.5q0 -29 -20 -46t-55 -17h-597q-73 0 -105 29t-32 97z" />
    <glyph glyph-name="edblgrave" unicode="&#x205;" horiz-adv-x="1072" 
d="M432 1237q0 -19 -14 -33t-33 -14q-21 0 -36 18l-148 173q-14 16 -14 39q0 25 17.5 42.5t41.5 17.5q33 0 53 -30l123 -184q10 -20 10 -29zM686 1237q0 -19 -14 -33t-34 -14q-21 0 -36 18l-148 173q-14 16 -14 39q0 25 17.5 42.5t42.5 17.5q34 0 52 -30l123 -184
q11 -18 11 -29zM117 441v159q0 209 118.5 336t307.5 127q184 0 300 -123.5t116 -324.5q0 -72 -17 -98.5t-63 -26.5h-623v-57q0 -153 82.5 -240t225.5 -87q137 0 233 100q34 34 48 43t32 9q24 0 40 -17.5t16 -43.5q0 -22 -15.5 -51.5t-40.5 -54.5q-48 -51 -133 -80t-186 -29
q-206 0 -323.5 122t-117.5 337zM256 610h564v3q0 151 -75 239.5t-202 88.5q-129 0 -208 -90t-79 -238v-3z" />
    <glyph glyph-name="Einvertedbreve" unicode="&#x206;" horiz-adv-x="1093" 
d="M293 1558q0 33 22 74t56 72q80 73 199 73q120 0 198 -73q35 -32 56.5 -72.5t21.5 -72.5q0 -23 -14.5 -37.5t-36.5 -14.5q-33 0 -50 40q-47 137 -175 137q-127 0 -175 -137q-16 -40 -53 -40q-22 0 -35.5 14t-13.5 37zM173 126v1111q0 68 32 97.5t105 29.5h598
q35 0 55 -17.5t20 -47.5q0 -29 -20 -46t-55 -17h-595v-475h559q34 0 54.5 -17.5t20.5 -46.5t-20 -46t-55 -17h-559v-506h594q35 0 55 -17.5t20 -47.5q0 -29 -20 -46t-55 -17h-597q-73 0 -105 29t-32 97z" />
    <glyph glyph-name="einvertedbreve" unicode="&#x207;" horiz-adv-x="1072" 
d="M261 1249q0 33 22 74t56 72q77 72 199 72q121 0 198 -72q34 -32 56 -72.5t22 -72.5q0 -24 -14.5 -38t-36.5 -14q-34 0 -50 40q-8 23 -20 44t-32.5 43.5t-52 36t-70.5 13.5q-51 0 -90 -24.5t-56.5 -52t-29.5 -60.5q-16 -40 -52 -40q-22 0 -35.5 14t-13.5 37zM117 441v159
q0 209 118.5 336t307.5 127q184 0 300 -123.5t116 -324.5q0 -72 -17 -98.5t-63 -26.5h-623v-57q0 -153 82.5 -240t225.5 -87q137 0 233 100q34 34 48 43t32 9q24 0 40 -17.5t16 -43.5q0 -22 -15.5 -51.5t-40.5 -54.5q-48 -51 -133 -80t-186 -29q-206 0 -323.5 122
t-117.5 337zM256 610h564v3q0 151 -75 239.5t-202 88.5q-129 0 -208 -90t-79 -238v-3z" />
    <glyph glyph-name="Idblgrave" unicode="&#x208;" horiz-adv-x="493" 
d="M149 1564q0 -19 -14 -33t-33 -14q-21 0 -37 18l-148 173q-14 16 -14 39q0 25 17.5 42.5t42.5 17.5q33 0 53 -30l122 -184q11 -18 11 -29zM402 1564q0 -19 -14 -33t-33 -14q-21 0 -36 18l-148 173q-14 16 -14 39q0 25 17.5 42.5t41.5 17.5q33 0 53 -30l123 -184
q10 -20 10 -29zM246 -10q-32 0 -50.5 21t-18.5 56v1230q0 35 18.5 56t50.5 21t51 -21t19 -56v-1230q0 -35 -19 -56t-51 -21z" />
    <glyph glyph-name="idblgrave" unicode="&#x209;" horiz-adv-x="477" 
d="M133 1237q0 -19 -14 -33t-33 -14q-21 0 -37 18l-148 173q-14 16 -14 39q0 25 17.5 42.5t42.5 17.5q33 0 53 -30l122 -184q11 -18 11 -29zM386 1237q0 -19 -14 -33t-33 -14q-21 0 -37 18l-148 173q-13 16 -13 39q0 25 17.5 42.5t41.5 17.5q33 0 53 -30l122 -184
q11 -18 11 -29zM169 67v911q0 37 19.5 57t50.5 20t49.5 -19.5t18.5 -57.5v-911q0 -38 -19 -57.5t-50 -19.5t-50 20t-19 57z" />
    <glyph glyph-name="Iinvertedbreve" unicode="&#x20a;" horiz-adv-x="493" 
d="M-30 1558q0 33 22 74t56 72q78 73 198 73q119 0 199 -73q34 -32 56 -72.5t22 -72.5q0 -23 -15 -37.5t-36 -14.5q-34 0 -51 40q-47 137 -175 137q-127 0 -175 -137q-16 -40 -53 -40q-21 0 -34.5 14.5t-13.5 36.5zM246 -10q-32 0 -50.5 21t-18.5 56v1230q0 35 18.5 56
t50.5 21t51 -21t19 -56v-1230q0 -35 -19 -56t-51 -21z" />
    <glyph glyph-name="iinvertedbreve" unicode="&#x20b;" horiz-adv-x="477" 
d="M-38 1249q0 33 22 74t56 72q77 72 198 72q120 0 199 -72q34 -32 56 -72.5t22 -72.5q0 -23 -14.5 -37.5t-36.5 -14.5q-35 0 -51 40q-47 137 -175 137q-127 0 -175 -137q-16 -40 -53 -40q-22 0 -35 14t-13 37zM169 67v911q0 37 19.5 57t50.5 20t49.5 -19.5t18.5 -57.5v-911
q0 -38 -19 -57.5t-50 -19.5t-50 20t-19 57z" />
    <glyph glyph-name="Odblgrave" unicode="&#x20c;" horiz-adv-x="1308" 
d="M555 1564q0 -19 -14 -33t-33 -14q-21 0 -36 18l-148 173q-14 16 -14 39q0 25 17.5 42.5t41.5 17.5q33 0 53 -30l123 -184q10 -20 10 -29zM809 1564q0 -19 -14 -33t-34 -14q-21 0 -36 18l-148 173q-14 16 -14 39q0 25 17.5 42.5t42.5 17.5q34 0 52 -30l123 -184
q11 -18 11 -29zM119 569v215q0 282 144 445.5t391 163.5q248 0 391.5 -163.5t143.5 -446.5v-214q0 -279 -143.5 -439t-391.5 -160q-251 0 -393 159.5t-142 439.5zM259 785v-218q0 -218 106 -343.5t289 -125.5t289 125.5t106 343.5v218q0 221 -106.5 351t-288.5 130
t-288.5 -130t-106.5 -351z" />
    <glyph glyph-name="odblgrave" unicode="&#x20d;" horiz-adv-x="1113" 
d="M452 1237q0 -19 -14 -33t-33 -14q-21 0 -36 18l-148 173q-14 16 -14 39q0 25 17.5 42.5t41.5 17.5q33 0 53 -30l123 -184q10 -20 10 -29zM706 1237q0 -19 -14 -33t-34 -14q-21 0 -36 18l-148 173q-14 16 -14 39q0 25 17.5 42.5t42.5 17.5q34 0 52 -30l123 -184
q11 -18 11 -29zM557 1063q192 0 315.5 -122t123.5 -336v-165q0 -214 -123.5 -336t-315.5 -122q-193 0 -316.5 122t-123.5 336v165q0 215 123.5 336.5t316.5 121.5zM557 939q-136 0 -218 -94.5t-82 -254.5v-135q0 -162 82 -255.5t218 -93.5q137 0 218.5 93t81.5 256v135
q0 160 -82 254.5t-218 94.5z" />
    <glyph glyph-name="Oinvertedbreve" unicode="&#x20e;" horiz-adv-x="1308" 
d="M376 1558q0 33 22 74t56 72q78 73 199 73q120 0 198 -73q34 -32 56 -72.5t22 -72.5q0 -23 -14.5 -37.5t-36.5 -14.5q-33 0 -50 40q-8 23 -20 44t-32.5 43.5t-52 36t-70.5 13.5q-51 0 -90 -24.5t-56.5 -52t-29.5 -60.5q-16 -40 -52 -40q-22 0 -35.5 14t-13.5 37zM119 569
v215q0 282 144 445.5t391 163.5q248 0 391.5 -163.5t143.5 -446.5v-214q0 -279 -143.5 -439t-391.5 -160q-251 0 -393 159.5t-142 439.5zM259 785v-218q0 -218 106 -343.5t289 -125.5t289 125.5t106 343.5v218q0 221 -106.5 351t-288.5 130t-288.5 -130t-106.5 -351z" />
    <glyph glyph-name="oinvertedbreve" unicode="&#x20f;" horiz-adv-x="1113" 
d="M281 1249q0 33 22 74t56 72q77 72 199 72q121 0 198 -72q34 -32 56 -72.5t22 -72.5q0 -24 -14.5 -38t-36.5 -14q-34 0 -50 40q-8 23 -20 44t-32.5 43.5t-52 36t-70.5 13.5q-51 0 -90 -24.5t-56.5 -52t-29.5 -60.5q-16 -40 -52 -40q-22 0 -35.5 14t-13.5 37zM557 1063
q192 0 315.5 -122t123.5 -336v-165q0 -214 -123.5 -336t-315.5 -122q-193 0 -316.5 122t-123.5 336v165q0 215 123.5 336.5t316.5 121.5zM557 939q-136 0 -218 -94.5t-82 -254.5v-135q0 -162 82 -255.5t218 -93.5q137 0 218.5 93t81.5 256v135q0 160 -82 254.5t-218 94.5z
" />
    <glyph glyph-name="Rdblgrave" unicode="&#x210;" horiz-adv-x="1200" 
d="M470 1564q0 -19 -14 -33t-33 -14q-21 0 -37 18l-148 173q-14 18 -14 39q0 25 18 42.5t42 17.5q33 0 53 -30l122 -184q11 -18 11 -29zM723 1564q0 -20 -13.5 -33.5t-33.5 -13.5q-21 0 -36 18l-148 173q-14 16 -14 39q0 25 17.5 42.5t42.5 17.5q34 0 52 -30l123 -184
q10 -20 10 -29zM313 67q0 -35 -19.5 -56t-51.5 -21t-50.5 21t-18.5 56v1170q0 68 32 97.5t105 29.5h338q196 0 311.5 -108.5t115.5 -292.5q0 -135 -70.5 -235t-192.5 -139l248 -475q13 -26 13 -55q0 -27 -19.5 -45t-48.5 -18q-25 0 -43 14.5t-35 48.5l-255 501h-359v-493z
M313 687h311q148 0 227.5 70.5t79.5 200.5q0 132 -79.5 205.5t-221.5 73.5h-317v-550z" />
    <glyph glyph-name="rdblgrave" unicode="&#x211;" horiz-adv-x="677" 
d="M280 1237q0 -19 -14 -33t-33 -14q-21 0 -37 18l-148 173q-14 16 -14 39q0 25 17.5 42.5t42.5 17.5q33 0 53 -30l122 -184q11 -18 11 -29zM533 1237q0 -19 -14 -33t-33 -14q-21 0 -36 18l-148 173q-14 16 -14 39q0 25 17.5 42.5t41.5 17.5q33 0 53 -30l123 -184
q10 -20 10 -29zM298 67q0 -36 -18 -56.5t-50 -20.5t-51 20.5t-19 56.5v911q0 35 19 56t51 21q31 0 49.5 -21t18.5 -56v-71h4q80 156 247 156q45 0 71 -15q32 -15 32 -52q0 -40 -32 -54q-21 -10 -72 -10q-120 0 -185 -69.5t-65 -208.5v-587z" />
    <glyph glyph-name="Rinvertedbreve" unicode="&#x212;" horiz-adv-x="1200" 
d="M291 1558q0 33 22 74t56 72q78 73 198 73q121 0 199 -73q34 -32 56 -72.5t22 -72.5q0 -23 -14.5 -37.5t-36.5 -14.5q-35 0 -50 40q-49 137 -176 137q-50 0 -89 -24.5t-56.5 -52t-29.5 -60.5q-16 -40 -52 -40q-22 0 -35.5 14t-13.5 37zM313 67q0 -35 -19.5 -56t-51.5 -21
t-50.5 21t-18.5 56v1170q0 68 32 97.5t105 29.5h338q196 0 311.5 -108.5t115.5 -292.5q0 -135 -70.5 -235t-192.5 -139l248 -475q13 -26 13 -55q0 -27 -19.5 -45t-48.5 -18q-25 0 -43 14.5t-35 48.5l-255 501h-359v-493zM313 687h311q148 0 227.5 70.5t79.5 200.5
q0 132 -79.5 205.5t-221.5 73.5h-317v-550z" />
    <glyph glyph-name="rinvertedbreve" unicode="&#x213;" horiz-adv-x="677" 
d="M109 1249q0 33 22 74t56 72q77 72 198 72q122 0 199 -72q34 -32 56 -72.5t22 -72.5q0 -23 -14.5 -37.5t-36.5 -14.5q-35 0 -51 40q-47 137 -175 137q-127 0 -175 -137q-16 -40 -53 -40q-21 0 -34.5 14.5t-13.5 36.5zM298 67q0 -36 -18 -56.5t-50 -20.5t-51 20.5t-19 56.5
v911q0 35 19 56t51 21q31 0 49.5 -21t18.5 -56v-71h4q80 156 247 156q45 0 71 -15q32 -15 32 -52q0 -40 -32 -54q-21 -10 -72 -10q-120 0 -185 -69.5t-65 -208.5v-587z" />
    <glyph glyph-name="Udblgrave" unicode="&#x214;" horiz-adv-x="1326" 
d="M565 1564q0 -19 -14 -33t-33 -14q-21 0 -37 18l-148 173q-14 18 -14 39q0 25 18 42.5t42 17.5q33 0 53 -30l122 -184q11 -18 11 -29zM818 1564q0 -20 -14 -33.5t-33 -13.5q-21 0 -36 18l-148 173q-14 16 -14 39q0 25 17.5 42.5t42.5 17.5q34 0 52 -30l123 -184
q10 -20 10 -29zM1169 473q0 -227 -139 -365t-367 -138q-237 0 -371.5 137.5t-134.5 368.5v821q0 35 19 56t51 21t51 -21t19 -56v-824q0 -173 99 -274t267 -101q169 0 267.5 101t98.5 274v824q0 35 19 56t51 21t51 -21t19 -56v-824z" />
    <glyph glyph-name="udblgrave" unicode="&#x215;" horiz-adv-x="1129" 
d="M455 1237q0 -19 -14 -33t-33 -14q-21 0 -37 18l-148 173q-14 16 -14 39q0 25 17.5 42.5t42.5 17.5q33 0 53 -30l122 -184q11 -18 11 -29zM708 1237q0 -19 -14 -33t-33 -14q-21 0 -37 18l-148 173q-13 16 -13 39q0 25 17.5 42.5t41.5 17.5q33 0 53 -30l122 -184
q11 -18 11 -29zM822 181q-31 -83 -111.5 -141t-216.5 -58q-157 0 -253 83.5t-96 252.5v664q0 37 19 55.5t50 18.5t50 -18.5t19 -55.5v-630q0 -126 67.5 -186t175.5 -60q133 0 218.5 79t85.5 194v603q0 37 19 55.5t50 18.5t50.5 -18.5t19.5 -55.5v-917q0 -37 -19.5 -55.5
t-50.5 -18.5t-50 18.5t-19 55.5v116h-8z" />
    <glyph glyph-name="Uinvertedbreve" unicode="&#x216;" horiz-adv-x="1326" 
d="M386 1558q0 33 22 74t56 72q78 73 198 73q121 0 199 -73q34 -32 56 -72.5t22 -72.5q0 -23 -14.5 -37.5t-36.5 -14.5q-35 0 -50 40q-49 137 -176 137q-50 0 -89 -24.5t-56.5 -52t-29.5 -60.5q-16 -40 -53 -40q-21 0 -34.5 14.5t-13.5 36.5zM1169 473q0 -227 -139 -365
t-367 -138q-237 0 -371.5 137.5t-134.5 368.5v821q0 35 19 56t51 21t51 -21t19 -56v-824q0 -173 99 -274t267 -101q169 0 267.5 101t98.5 274v824q0 35 19 56t51 21t51 -21t19 -56v-824z" />
    <glyph glyph-name="uinvertedbreve" unicode="&#x217;" horiz-adv-x="1129" 
d="M284 1249q0 33 22 74t56 72q77 72 198 72q120 0 199 -72q34 -32 56 -72.5t22 -72.5q0 -23 -14.5 -37.5t-36.5 -14.5q-35 0 -51 40q-47 137 -175 137q-127 0 -175 -137q-16 -40 -53 -40q-22 0 -35 14t-13 37zM822 181q-31 -83 -111.5 -141t-216.5 -58q-157 0 -253 83.5
t-96 252.5v664q0 37 19 55.5t50 18.5t50 -18.5t19 -55.5v-630q0 -126 67.5 -186t175.5 -60q133 0 218.5 79t85.5 194v603q0 37 19 55.5t50 18.5t50.5 -18.5t19.5 -55.5v-917q0 -37 -19.5 -55.5t-50.5 -18.5t-50 18.5t-19 55.5v116h-8z" />
    <glyph glyph-name="Scommaaccent" unicode="&#x218;" horiz-adv-x="1148" 
d="M94 282q0 31 17.5 50t45.5 19q26 0 46 -15.5t43 -53.5q97 -184 341 -184q150 0 238 66.5t88 180.5q0 95 -59.5 155.5t-189.5 95.5l-220 60q-322 88 -322 354q0 172 125.5 277.5t330.5 105.5t334 -107q111 -94 111 -201q0 -29 -17 -47t-45 -18q-52 0 -69 50
q-28 90 -112.5 143t-198.5 53q-142 0 -227 -67t-85 -180q0 -171 214 -229l215 -60q188 -52 272.5 -139.5t84.5 -230.5q0 -180 -129 -285t-348 -105q-233 0 -363 111q-57 48 -89 101t-32 100zM425 -411l63 250q16 54 70 54q40 0 57.5 -28t5.5 -60l-89 -250q-18 -41 -54 -41
t-48.5 22t-4.5 53z" />
    <glyph glyph-name="scommaaccent" unicode="&#x219;" horiz-adv-x="978" 
d="M95 217q0 30 17 47.5t46 17.5q34 0 71 -52q88 -131 266 -131q110 0 177 47t67 130q0 63 -44 105.5t-121 61.5l-192 46q-134 33 -200.5 100.5t-66.5 175.5q0 137 100.5 217.5t268.5 80.5q157 0 266 -73q48 -34 75 -76.5t27 -79.5q0 -28 -16.5 -44t-43.5 -16
q-21 0 -35.5 9.5t-39.5 39.5q-47 63 -102 93t-136 30q-104 0 -165.5 -45.5t-61.5 -125.5q0 -63 41.5 -103t127.5 -62l185 -46q136 -35 202.5 -100.5t66.5 -175.5q0 -142 -105.5 -224t-281.5 -82q-156 0 -273 68q-55 32 -87.5 77.5t-32.5 89.5zM365 -411l63 250q16 54 70 54
q40 0 57.5 -28t5.5 -60l-89 -250q-18 -41 -54 -41t-48.5 22t-4.5 53z" />
    <glyph glyph-name="Tcommaaccent" unicode="&#x21a;" horiz-adv-x="1045" 
d="M522 -10q-32 0 -50.5 21t-18.5 56v1169h-363q-34 0 -54 17t-20 46q0 30 20 47.5t54 17.5h865q35 0 55 -17.5t20 -47.5q0 -29 -20 -46t-55 -17h-363v-1169q0 -35 -19 -56t-51 -21zM395 -411l63 250q16 54 70 54q40 0 57.5 -28t5.5 -60l-89 -250q-18 -41 -54 -41
t-48.5 22.5t-4.5 52.5z" />
    <glyph glyph-name="tcommaaccent" unicode="&#x21b;" horiz-adv-x="666" 
d="M219 265v661h-95q-30 0 -48 16t-18 43q0 28 17.5 44t48.5 16h95v188q0 36 18.5 56.5t50.5 20.5t50.5 -20.5t18.5 -56.5v-188h171q31 0 48.5 -16t17.5 -44q0 -27 -18 -43t-48 -16h-171v-669q0 -87 31 -119t111 -32q19 0 42 1.5t30 1.5q25 0 40.5 -14.5t15.5 -38.5
q0 -39 -38 -55q-36 -17 -113 -17q-141 0 -199 62t-58 219zM286 -411l63 250q16 54 70 54q40 0 57.5 -28t5.5 -60l-89 -250q-18 -41 -54 -41t-48.5 22t-4.5 53z" />
    <glyph glyph-name="Hcaron" unicode="&#x21e;" horiz-adv-x="1352" 
d="M449 1757q0 19 13.5 34t33.5 15q23 0 41 -26l136 -176h4q17 13 51 56.5t59 80.5l25 37q20 28 42 28q20 0 34 -15t14 -34q0 -21 -14 -36l-146 -170q-28 -37 -67 -37q-38 0 -68 38l-144 167q-14 17 -14 38zM1109 -10q-32 0 -51 21t-19 56v578h-726v-578q0 -35 -19.5 -56
t-51.5 -21t-50.5 21t-18.5 56v1230q0 35 18.5 56t50.5 21t51.5 -21t19.5 -56v-524h726v524q0 35 19 56t51 21t51 -21t19 -56v-1230q0 -35 -19 -56t-51 -21z" />
    <glyph glyph-name="hcaron" unicode="&#x21f;" horiz-adv-x="1137" 
d="M3 1830q0 19 13 33.5t33 14.5q25 0 42 -25l136 -176h3q17 13 51 56.5t59 80.5l26 37q19 27 42 27q20 0 33.5 -14.5t13.5 -33.5q0 -20 -13 -36l-146 -170q-28 -37 -67 -37q-38 0 -68 38l-144 167q-14 17 -14 38zM992 67q0 -35 -19 -56t-51 -21t-50 20.5t-18 56.5v603
q0 127 -67 198t-187 71q-136 0 -218 -93.5t-82 -250.5v-528q0 -36 -18.5 -56.5t-50.5 -20.5t-50.5 20.5t-18.5 56.5v1298q0 35 18.5 56t50.5 21t50.5 -21t18.5 -56v-515h7q28 95 120 154t211 59q164 0 259 -94.5t95 -257.5v-644z" />
    <glyph glyph-name="Adotaccent" unicode="&#x226;" horiz-adv-x="1188" 
d="M498 1638q0 40 27.5 67t66.5 27t67 -27.5t28 -66.5q0 -40 -27.5 -67t-67.5 -27t-67 27t-27 67zM124 -13q-30 0 -48 16.5t-18 44.5q0 24 9 49l430 1198q15 41 37.5 60t59.5 19q36 0 59 -19t38 -60l429 -1198q10 -28 10 -49q0 -28 -18.5 -44.5t-48.5 -16.5q-29 0 -46.5 15
t-29.5 50l-129 378h-529l-129 -378q-11 -35 -29 -50t-47 -15zM369 545h449l-221 647h-6z" />
    <glyph glyph-name="adotaccent" unicode="&#x227;" horiz-adv-x="1039" 
d="M426 1302q0 40 27.5 67.5t67.5 27.5t68 -27.5t28 -67.5t-28 -67.5t-68 -27.5q-41 0 -68 27.5t-27 67.5zM750 148q-44 -78 -126 -122t-185 -44q-153 0 -247 88t-94 231q0 142 96.5 223.5t266.5 81.5h291v115q0 108 -63.5 164.5t-184.5 56.5q-73 0 -127.5 -28.5
t-100.5 -89.5q-27 -35 -67 -35q-25 0 -40 15.5t-15 41.5q0 42 32 84.5t89 76.5q93 56 237 56q182 0 280 -87.5t98 -250.5v-657q0 -36 -18 -56.5t-49 -20.5t-49 20.5t-18 56.5v80h-6zM241 304q0 -90 63.5 -145.5t167.5 -55.5q119 0 199.5 73t80.5 181v129h-288
q-107 0 -165 -47t-58 -135z" />
    <glyph glyph-name="Ecedilla" unicode="&#x228;" horiz-adv-x="1093" 
d="M540 -463q-50 0 -84 9q-49 15 -49 51q0 20 13 31.5t35 11.5q9 0 35.5 -5t46.5 -5q55 0 89.5 24t34.5 65q0 37 -27 55t-87 20q-47 2 -67 17t-18 46q0 11 50 143h-202q-74 0 -105.5 29t-31.5 97v1111q0 67 31.5 97t105.5 30h598q35 0 55 -17.5t20 -47.5q0 -29 -20 -46
t-55 -17h-595v-475h559q34 0 54.5 -17.5t20.5 -46.5t-20 -46t-55 -17h-559v-506h594q35 0 55 -17.5t20 -47.5q0 -29 -20 -46t-55 -17h-293l-48 -125q98 7 156.5 -34.5t58.5 -123.5q0 -84 -66 -132t-175 -48z" />
    <glyph glyph-name="ecedilla" unicode="&#x229;" horiz-adv-x="1072" 
d="M523 -466q-52 0 -83 10q-50 13 -50 51q0 20 13.5 31.5t34.5 10.5q10 0 37 -4.5t46 -4.5q54 0 88.5 23.5t34.5 64.5q0 38 -27 56t-87 19q-47 2 -67 17.5t-18 46.5q0 10 46 132q-176 20 -275 139t-99 315v159q0 209 118.5 336t307.5 127q184 0 300 -123.5t116 -324.5
q0 -72 -17 -98.5t-63 -26.5h-623v-57q0 -153 82.5 -240t225.5 -87q135 0 233 100q34 34 48 43.5t32 9.5q24 0 40 -18t16 -44q0 -21 -15.5 -51t-40.5 -55q-44 -46 -119 -74.5t-166 -32.5l-42 -112q98 7 156 -34.5t58 -122.5q0 -85 -66 -133t-175 -48zM256 610h564v3
q0 151 -75 239.5t-202 88.5q-129 0 -208 -90t-79 -238v-3z" />
    <glyph glyph-name="Odieresismacron" unicode="&#x22a;" horiz-adv-x="1308" 
d="M383 1846q0 20 15.5 33.5t44.5 13.5h420q29 0 44.5 -13.5t15.5 -33.5q0 -22 -15.5 -36.5t-44.5 -14.5h-420q-29 0 -44.5 14.5t-15.5 36.5zM425 1585q0 34 21 56t53 22q33 0 56 -22t23 -56q0 -33 -23 -54.5t-56 -21.5q-32 0 -53 21.5t-21 54.5zM728 1585q0 34 22.5 56
t53.5 22q34 0 55.5 -22t21.5 -56q0 -33 -21.5 -54.5t-55.5 -21.5q-31 0 -53.5 22t-22.5 54zM119 569v215q0 282 144 445.5t391 163.5q248 0 391.5 -163.5t143.5 -446.5v-214q0 -279 -143.5 -439t-391.5 -160q-251 0 -393 159.5t-142 439.5zM259 785v-218q0 -218 106 -343.5
t289 -125.5t289 125.5t106 343.5v218q0 221 -106.5 351t-288.5 130t-288.5 -130t-106.5 -351z" />
    <glyph glyph-name="odieresismacron" unicode="&#x22b;" horiz-adv-x="1113" 
d="M286 1596q0 21 15.5 34.5t44.5 13.5h424q29 0 44.5 -13.5t15.5 -34.5q0 -22 -15.5 -36.5t-44.5 -14.5h-424q-29 0 -44.5 14.5t-15.5 36.5zM309 1294q0 37 24 61.5t59 24.5q36 0 60 -24.5t24 -61.5q0 -36 -24 -60t-60 -24q-35 0 -59 24t-24 60zM639 1294q0 37 24 61.5
t58 24.5q37 0 61 -24t24 -62q0 -36 -24 -60t-61 -24q-34 0 -58 24t-24 60zM557 1063q192 0 315.5 -122t123.5 -336v-165q0 -214 -123.5 -336t-315.5 -122q-193 0 -316.5 122t-123.5 336v165q0 215 123.5 336.5t316.5 121.5zM557 939q-136 0 -218 -94.5t-82 -254.5v-135
q0 -162 82 -255.5t218 -93.5q137 0 218.5 93t81.5 256v135q0 160 -82 254.5t-218 94.5z" />
    <glyph glyph-name="Otildemacron" unicode="&#x22c;" horiz-adv-x="1308" 
d="M383 1846q0 20 15.5 33.5t44.5 13.5h420q29 0 44.5 -13.5t15.5 -33.5q0 -22 -15.5 -36.5t-44.5 -14.5h-420q-29 0 -44.5 14.5t-15.5 36.5zM389 1538q0 63 41 106t106 43q74 0 133 -58q33 -31 52.5 -42.5t40.5 -11.5q24 0 42.5 20.5t22.5 53.5q3 19 14 30t27 11
q41 0 41 -54q0 -63 -42.5 -105t-107.5 -42q-67 0 -132 62q-54 53 -88 53q-52 0 -63 -71q-9 -44 -48 -44t-39 49zM119 569v215q0 282 144 445.5t391 163.5q248 0 391.5 -163.5t143.5 -446.5v-214q0 -279 -143.5 -439t-391.5 -160q-251 0 -393 159.5t-142 439.5zM259 785v-218
q0 -218 106 -343.5t289 -125.5t289 125.5t106 343.5v218q0 221 -106.5 351t-288.5 130t-288.5 -130t-106.5 -351z" />
    <glyph glyph-name="otildemacron" unicode="&#x22d;" horiz-adv-x="1113" 
d="M286 1596q0 21 15.5 34.5t44.5 13.5h424q29 0 44.5 -13.5t15.5 -34.5q0 -22 -15.5 -36.5t-44.5 -14.5h-424q-29 0 -44.5 14.5t-15.5 36.5zM247 1247q0 69 38 118q46 64 133 64q44 0 78.5 -18.5t74.5 -63.5q36 -41 54.5 -54t43.5 -13q35 0 54 23.5t23 74.5q3 23 15 36
t30 13q47 0 47 -62q0 -72 -42 -122q-47 -58 -130 -58q-42 0 -73.5 17.5t-77.5 65.5q-41 44 -58.5 56t-41.5 12q-34 0 -51.5 -23t-25.5 -74q-10 -48 -47 -48q-44 0 -44 56zM557 1063q192 0 315.5 -122t123.5 -336v-165q0 -214 -123.5 -336t-315.5 -122q-193 0 -316.5 122
t-123.5 336v165q0 215 123.5 336.5t316.5 121.5zM557 939q-136 0 -218 -94.5t-82 -254.5v-135q0 -162 82 -255.5t218 -93.5q137 0 218.5 93t81.5 256v135q0 160 -82 254.5t-218 94.5z" />
    <glyph glyph-name="Odotaccent" unicode="&#x22e;" horiz-adv-x="1308" 
d="M558 1638q0 40 27.5 67t66.5 27q40 0 67.5 -27t27.5 -67t-27.5 -67t-67.5 -27t-67 27t-27 67zM119 569v215q0 282 144 445.5t391 163.5q248 0 391.5 -163.5t143.5 -446.5v-214q0 -279 -143.5 -439t-391.5 -160q-251 0 -393 159.5t-142 439.5zM259 785v-218
q0 -218 106 -343.5t289 -125.5t289 125.5t106 343.5v218q0 221 -106.5 351t-288.5 130t-288.5 -130t-106.5 -351z" />
    <glyph glyph-name="odotaccent" unicode="&#x22f;" horiz-adv-x="1113" 
d="M462 1302q0 40 27.5 67.5t67.5 27.5t68 -27.5t28 -67.5t-27.5 -67.5t-68.5 -27.5t-68 27.5t-27 67.5zM557 1063q192 0 315.5 -122t123.5 -336v-165q0 -214 -123.5 -336t-315.5 -122q-193 0 -316.5 122t-123.5 336v165q0 215 123.5 336.5t316.5 121.5zM557 939
q-136 0 -218 -94.5t-82 -254.5v-135q0 -162 82 -255.5t218 -93.5q137 0 218.5 93t81.5 256v135q0 160 -82 254.5t-218 94.5z" />
    <glyph glyph-name="Odotaccentmacron" unicode="&#x230;" horiz-adv-x="1308" 
d="M383 1846q0 20 15.5 33.5t44.5 13.5h420q29 0 44.5 -13.5t15.5 -33.5q0 -22 -15.5 -36.5t-44.5 -14.5h-420q-29 0 -44.5 14.5t-15.5 36.5zM558 1584q0 40 27.5 67t66.5 27q40 0 67.5 -27t27.5 -67t-27.5 -67t-67.5 -27t-67 27t-27 67zM119 569v215q0 282 144 445.5
t391 163.5q248 0 391.5 -163.5t143.5 -446.5v-214q0 -279 -143.5 -439t-391.5 -160q-251 0 -393 159.5t-142 439.5zM259 785v-218q0 -218 106 -343.5t289 -125.5t289 125.5t106 343.5v218q0 221 -106.5 351t-288.5 130t-288.5 -130t-106.5 -351z" />
    <glyph glyph-name="odotaccentmacron" unicode="&#x231;" horiz-adv-x="1113" 
d="M286 1596q0 21 15.5 34.5t44.5 13.5h424q29 0 44.5 -13.5t15.5 -34.5q0 -22 -15.5 -36.5t-44.5 -14.5h-424q-29 0 -44.5 14.5t-15.5 36.5zM462 1302q0 40 27.5 67.5t67.5 27.5t68 -27.5t28 -67.5t-27.5 -67.5t-68.5 -27.5t-68 27.5t-27 67.5zM557 1063q192 0 315.5 -122
t123.5 -336v-165q0 -214 -123.5 -336t-315.5 -122q-193 0 -316.5 122t-123.5 336v165q0 215 123.5 336.5t316.5 121.5zM557 939q-136 0 -218 -94.5t-82 -254.5v-135q0 -162 82 -255.5t218 -93.5q137 0 218.5 93t81.5 256v135q0 160 -82 254.5t-218 94.5z" />
    <glyph glyph-name="Ymacron" unicode="&#x232;" horiz-adv-x="1082" 
d="M271 1575q0 21 15.5 34.5t44.5 13.5h420q29 0 44.5 -13.5t15.5 -34.5t-15.5 -35.5t-44.5 -14.5h-420q-29 0 -44.5 14.5t-15.5 35.5zM541 -10q-32 0 -51 21t-19 56v538l-390 639q-29 48 -29 69q0 29 18.5 47t47.5 18q23 0 39.5 -13t37.5 -48l343 -575h6l343 575
q21 35 37.5 48t39.5 13q30 0 48 -18t18 -47q0 -21 -29 -69l-390 -638v-539q0 -35 -19 -56t-51 -21z" />
    <glyph glyph-name="ymacron" unicode="&#x233;" horiz-adv-x="939" 
d="M203 1302q0 21 15.5 34.5t44.5 13.5h423q29 0 45 -13.5t16 -34.5t-16 -35.5t-45 -14.5h-423q-29 0 -44.5 14.5t-15.5 35.5zM86 -304q0 25 19 40t50 15q6 0 25 -1t31 -1q57 0 102.5 45t67.5 120l21 70l-347 945q-12 31 -12 53q0 29 20 48t51 19q50 0 73 -70l283 -836h6
l281 836q23 70 72 70q29 0 48.5 -18.5t19.5 -47.5q0 -22 -12 -53l-368 -1022q-53 -148 -128 -213.5t-189 -65.5q-64 0 -94 25q-20 17 -20 42z" />
    <glyph glyph-name="dotlessj" unicode="&#x237;" horiz-adv-x="477" 
d="M307 -43q0 -169 -66.5 -246.5t-193.5 -77.5q-23 0 -47 3q-22 2 -37.5 18.5t-15.5 38.5q0 24 17.5 41.5t41.5 16.5q3 -1 15 -1q81 0 114.5 48.5t33.5 159.5v1028q0 29 20.5 49t49.5 20q28 0 48 -20.5t20 -48.5v-1029z" />
    <glyph glyph-name="quoteright" unicode="&#x2019;" horiz-adv-x="451" 
d="M114 1024l82 294q16 58 72 58q35 0 57.5 -30t7.5 -63l-118 -290q-16 -36 -51 -36q-26 0 -42 21t-8 46z" />
    <glyph glyph-name="quoteright" unicode="&#x2bc;" horiz-adv-x="451" 
d="M114 1024l82 294q16 58 72 58q35 0 57.5 -30t7.5 -63l-118 -290q-16 -36 -51 -36q-26 0 -42 21t-8 46z" />
    </font>
</defs>
</svg>
