<?xml version="1.0" standalone="no"?>
<!DOCTYPE svg PUBLIC "-//W3C//DTD SVG 1.1//EN" "http://www.w3.org/Graphics/SVG/1.1/DTD/svg11.dtd" >
<svg xmlns="http://www.w3.org/2000/svg" xmlns:xlink="http://www.w3.org/1999/xlink" version="1.1">
<metadata>
Created by FontForge 20170731 at Wed Nov  4 01:30:58 2020
 By Aleksey,,,
(c) 2015-2020 Apple Inc. All rights reserved.
</metadata>
<defs>
<font id="SFCompactRounded-Medium" horiz-adv-x="1171" >
  <font-face 
    font-family="SF Compact Rounded"
    font-weight="500"
    font-stretch="normal"
    units-per-em="2048"
    panose-1="0 0 0 0 0 0 0 0 0 0"
    ascent="1638"
    descent="-410"
    x-height="1059"
    cap-height="1375"
    bbox="-394 -511 2393 1950"
    underline-thickness="50"
    underline-position="-150"
    unicode-range="U+0020-FFFD"
  />
<missing-glyph horiz-adv-x="2048" 
d="M100 1698v252h1848v-252h-1848zM100 1260v252h1848v-252h-1848zM100 821v252h1848v-252h-1848zM100 383v252h1848v-252h-1848zM100 -56v252h1848v-252h-1848zM100 -494v252h1848v-252h-1848z" />
    <glyph glyph-name=".notdef" horiz-adv-x="2048" 
d="M100 1698v252h1848v-252h-1848zM100 1260v252h1848v-252h-1848zM100 821v252h1848v-252h-1848zM100 383v252h1848v-252h-1848zM100 -56v252h1848v-252h-1848zM100 -494v252h1848v-252h-1848z" />
    <glyph glyph-name=".null" horiz-adv-x="0" 
 />
    <glyph glyph-name="nonmarkingreturn" horiz-adv-x="0" 
 />
    <glyph glyph-name="space" unicode=" " horiz-adv-x="406" 
 />
    <glyph glyph-name="exclam" unicode="!" horiz-adv-x="538" 
d="M169 554l-19 726q-2 50 33.5 85.5t87.5 35.5t87 -35.5t33 -85.5l-20 -726q-2 -43 -31 -71t-70 -28t-70.5 28.5t-30.5 70.5zM134 109q0 55 39.5 91.5t95.5 36.5t95.5 -36.5t39.5 -91.5t-39.5 -92t-95.5 -37t-95.5 37t-39.5 92z" />
    <glyph glyph-name="quotedbl" unicode="&#x22;" horiz-adv-x="786" 
d="M491 973l-18 301q-3 43 26 73.5t74 30.5t73.5 -30.5t25.5 -73.5l-18 -301q-2 -36 -25.5 -61t-56.5 -25t-56 25t-25 61zM129 973l-18 301q-3 43 26 73.5t74 30.5t73.5 -31t25.5 -73l-19 -301q-2 -36 -25 -61t-56 -25t-56 25t-25 61z" />
    <glyph glyph-name="numbersign" unicode="#" horiz-adv-x="1212" 
d="M617 92l59 286h-256l-65 -318q-7 -38 -31 -58.5t-58 -20.5q-35 0 -57 22t-22 59q0 18 3 30l58 286h-100q-48 0 -72.5 23t-24.5 62q0 38 24.5 60t72.5 22h134l58 288h-93q-48 0 -73 23t-25 62q0 38 25 60t73 22h126l61 299q7 35 30 54.5t55 19.5q36 0 60 -23.5t24 -58.5
q0 -4 -3 -28l-54 -263h255l61 299q7 35 30.5 54.5t55.5 19.5q36 0 59.5 -23.5t23.5 -58.5q0 -4 -3 -28l-54 -263h111q96 0 96 -82q0 -40 -24.5 -62.5t-72.5 -22.5h-144l-59 -288h105q96 0 96 -82q0 -40 -24.5 -62.5t-72.5 -22.5h-137l-65 -318q-7 -38 -30.5 -58.5
t-57.5 -20.5q-36 0 -58.5 22.5t-22.5 58.5q0 6 3 30zM505 844l-64 -310h277l62 310h-275z" />
    <glyph glyph-name="dollar" unicode="$" 
d="M588 -179q-37 0 -59.5 21t-22.5 61v93q-204 19 -327 126q-100 86 -100 177q0 43 26 68.5t67 25.5q27 0 47.5 -12.5t54.5 -50.5q68 -81 146 -118.5t176 -37.5q128 0 199.5 55t71.5 151q0 74 -50.5 119t-163.5 73l-215 53q-163 38 -249 132t-86 234q0 162 111 267t299 122
v87q0 40 22.5 61t58.5 21t59 -21t23 -61v-90q189 -25 298 -131q92 -87 92 -173q0 -39 -24.5 -63t-62.5 -24q-30 0 -55 14t-55 50q-65 81 -132 116t-158 35q-113 0 -181.5 -54t-68.5 -141q0 -70 48.5 -117.5t143.5 -69.5l212 -51q183 -43 271 -133t88 -235
q0 -168 -113.5 -276.5t-310.5 -128.5v-92q0 -40 -22 -61t-58 -21z" />
    <glyph glyph-name="percent" unicode="%" horiz-adv-x="1471" 
d="M45 1052v40q0 143 73.5 230.5t200.5 87.5t198.5 -86.5t71.5 -231.5v-40q0 -140 -73 -230t-201 -90q-126 0 -198 87.5t-72 232.5zM197 100l486 630l469 615q33 44 81 29q26 -4 42.5 -22.5t17.5 -44.5q0 -29 -22 -57l-469 -610l-486 -637q-33 -42 -83 -28q-23 3 -40 21.5
t-18 40.5q-2 33 22 63zM221 1088v-33q0 -87 25.5 -133.5t70.5 -46.5t70.5 46.5t25.5 133.5v33q0 88 -25.5 133.5t-70.5 45.5t-70.5 -45.5t-25.5 -133.5zM882 305v40q0 144 73.5 231.5t200.5 87.5t198.5 -87t71.5 -232v-40q0 -140 -73 -230t-201 -90q-126 0 -198 87.5
t-72 232.5zM1058 342v-34q0 -87 25.5 -133t70.5 -46t70.5 46t25.5 133v34q0 87 -25.5 132.5t-70.5 45.5t-70.5 -45.5t-25.5 -132.5z" />
    <glyph glyph-name="ampersand" unicode="&#x26;" horiz-adv-x="1328" 
d="M85 357q0 228 250 365q29 18 64 34q-91 95 -129.5 166.5t-38.5 146.5q0 135 103.5 224t259.5 89q157 0 258.5 -88t101.5 -225q0 -103 -67.5 -186.5t-215.5 -162.5l298 -325q56 103 56 324v23q0 43 26.5 71.5t67.5 28.5t67.5 -29t26.5 -73v-27q0 -287 -112 -453l121 -126
q26 -28 26 -64q0 -38 -28 -66t-66 -28q-43 0 -73 32l-109 116q-81 -72 -193 -113t-231 -41q-206 0 -334.5 108t-128.5 279zM561 828q109 58 154 109.5t45 120.5q0 74 -46.5 120.5t-120.5 46.5q-73 0 -120.5 -47.5t-47.5 -120.5q0 -53 30 -103.5t106 -125.5zM460 611
q-166 -91 -166 -238q0 -104 76.5 -169.5t198.5 -65.5q81 0 158.5 31.5t127.5 84.5l-349 382q-4 -2 -24 -12.5t-22 -12.5z" />
    <glyph glyph-name="quotesingle" unicode="'" horiz-adv-x="426" 
d="M129 973l-17 302q-4 43 25 73.5t75 30.5q45 0 73.5 -30.5t26.5 -73.5l-19 -302q-2 -35 -25.5 -60t-56.5 -25t-56.5 25t-25.5 60z" />
    <glyph glyph-name="parenleft" unicode="(" horiz-adv-x="702" 
d="M438 -263q-22 29 -44 61.5t-62 113t-68.5 168t-51 221t-22.5 276.5q0 137 22 265.5t51 214t68.5 164t62 112t44.5 60.5q45 56 92 56q35 0 58 -21t23 -55q0 -25 -24 -75q-172 -337 -172 -721q0 -406 172 -745q24 -50 24 -75q0 -34 -23 -55t-58 -21q-46 0 -92 56z" />
    <glyph glyph-name="parenright" unicode=")" horiz-adv-x="702" 
d="M263 -263q-44 -56 -92 -56q-35 0 -58 21.5t-23 54.5q0 27 25 75q172 339 172 745q0 384 -172 721q-25 48 -25 75q0 33 23 54.5t58 21.5q49 0 92 -56q21 -26 44.5 -60.5t62.5 -112.5t68 -163.5t51 -214t22 -265.5q0 -143 -22 -276.5t-51 -221t-68.5 -167.5t-62 -113.5
t-44.5 -61.5z" />
    <glyph glyph-name="asterisk" unicode="*" horiz-adv-x="930" 
d="M523 734q1 -21 -17 -38t-42 -17t-41.5 17t-16.5 42q0 2 2 53t5 108.5t4 66.5q-7 -6 -55 -36.5t-92.5 -58.5t-45.5 -28q-17 -11 -40 -8q-36 5 -44 42q-8 18 -1.5 37.5t24.5 28.5q1 1 48 25.5t98.5 51t60.5 30.5q-9 4 -59.5 30t-97 50t-47.5 25q-19 10 -26.5 30t0.5 39
q10 35 46 40q23 3 36 -6q1 0 46 -28t93.5 -59t56.5 -37q-1 9 -4 65.5t-5.5 107.5t-2.5 53q0 25 16.5 42.5t41.5 17.5t42.5 -17t16.5 -40q0 -2 -2 -53.5t-4.5 -109t-3.5 -67.5q7 6 55 37t93 59t46 28q13 9 35 6q17 -2 29.5 -13.5t15.5 -27.5q8 -19 1.5 -38.5t-25.5 -29.5
l-47 -24q-46 -25 -96 -51t-59 -29q9 -4 60 -30.5t98 -51t48 -25.5q17 -9 23 -28.5t-2 -37.5q-6 -35 -43 -41q-22 -3 -39 8q-1 0 -45.5 27.5t-92.5 58t-55 36.5q1 -9 3.5 -67t4.5 -110t2 -55z" />
    <glyph glyph-name="plus" unicode="+" 
d="M677 89q0 -43 -26.5 -69.5t-67.5 -26.5t-67 26.5t-26 69.5v368h-335q-43 0 -70 25.5t-27 66.5t27 67t70 26h335v349q0 43 26 70t67 27t67.5 -27t26.5 -70v-349h339q43 0 70 -26t27 -67t-27 -66.5t-70 -25.5h-339v-368z" />
    <glyph glyph-name="comma" unicode="," horiz-adv-x="442" 
d="M87 -156l73 302q9 43 38.5 66.5t69.5 23.5q53 0 84.5 -42.5t14.5 -92.5l-115 -298q-9 -30 -31 -46.5t-52 -16.5q-42 0 -66.5 31.5t-15.5 72.5z" />
    <glyph glyph-name="hyphen" unicode="&#x2011;" horiz-adv-x="787" 
d="M45 561q0 44 29.5 71t83.5 27h471q54 0 83.5 -26.5t29.5 -71.5t-29.5 -72.5t-83.5 -27.5h-471q-54 0 -83.5 27.5t-29.5 72.5z" />
    <glyph glyph-name="hyphen" unicode="&#x2010;" horiz-adv-x="787" 
d="M45 561q0 44 29.5 71t83.5 27h471q54 0 83.5 -26.5t29.5 -71.5t-29.5 -72.5t-83.5 -27.5h-471q-54 0 -83.5 27.5t-29.5 72.5z" />
    <glyph glyph-name="hyphen" unicode="-" horiz-adv-x="787" 
d="M45 561q0 44 29.5 71t83.5 27h471q54 0 83.5 -26.5t29.5 -71.5t-29.5 -72.5t-83.5 -27.5h-471q-54 0 -83.5 27.5t-29.5 72.5z" />
    <glyph glyph-name="period" unicode="." horiz-adv-x="510" 
d="M118 117q0 56 40.5 96.5t96.5 40.5t96.5 -40.5t40.5 -96.5q0 -57 -40.5 -97.5t-96.5 -40.5t-96.5 40.5t-40.5 97.5z" />
    <glyph glyph-name="slash" unicode="/" horiz-adv-x="702" 
d="M223 -250q-9 -33 -34.5 -52t-59.5 -19q-42 0 -70.5 28.5t-27.5 67.5q0 18 6 34l441 1568q9 32 34.5 51t60.5 19q41 0 70 -28.5t28 -67.5q-2 -22 -6 -33z" />
    <glyph glyph-name="zero" unicode="0" horiz-adv-x="1174" 
d="M83 652v58q0 312 134.5 497t370.5 185t369.5 -184.5t133.5 -497.5v-58q0 -311 -135 -496t-371 -185q-235 0 -368.5 184t-133.5 497zM310 709v-55q0 -231 74 -362.5t203 -131.5t203 132t74 362v55q0 231 -74.5 363t-203.5 132q-128 0 -202 -132t-74 -363z" />
    <glyph glyph-name="one" unicode="1" horiz-adv-x="824" 
d="M423 112v1024h-6l-161 -115q-49 -34 -85 -34q-35 0 -59 24.5t-24 59.5q0 54 69 101l189 136q94 66 163 66q61 0 99.5 -40t38.5 -105v-1117q0 -58 -29.5 -90.5t-82.5 -32.5t-82.5 32.5t-29.5 90.5z" />
    <glyph glyph-name="two" unicode="2" horiz-adv-x="1125" 
d="M130 108q0 33 20.5 66.5t74.5 91.5l393 436q84 92 119.5 158t35.5 132q0 95 -62.5 153.5t-164.5 58.5q-85 0 -146 -48t-87 -135q-35 -84 -103 -84q-44 0 -71 29t-27 75q0 137 127 244t320 107q191 0 314.5 -107.5t123.5 -274.5q0 -100 -50.5 -193.5t-181.5 -236.5
l-341 -378v-13h508q50 0 79 -25.5t29 -69.5t-28.5 -69t-79.5 -25h-668q-61 0 -97.5 29.5t-36.5 78.5z" />
    <glyph glyph-name="three" unicode="3" horiz-adv-x="1148" 
d="M100 284q0 41 26 68t66 27q30 0 53 -16.5t47 -56.5q41 -74 111.5 -113t162.5 -39q122 0 195 61.5t73 164.5t-73.5 166t-193.5 63h-110q-40 0 -66.5 26.5t-26.5 67.5q0 39 26 65t67 26h104q101 0 166 59.5t65 150.5q0 92 -65 149t-169 57q-164 0 -237 -148
q-36 -74 -100 -74q-42 0 -68.5 27.5t-26.5 70.5q0 122 125.5 214t311.5 92q198 0 324.5 -101t126.5 -259q0 -112 -73.5 -203t-176.5 -107v-14q125 -13 209.5 -109t84.5 -226q0 -177 -138.5 -289.5t-356.5 -112.5q-193 0 -328 95t-135 218z" />
    <glyph glyph-name="four" unicode="4" horiz-adv-x="1186" 
d="M742 105v162h-511q-68 0 -108 34.5t-40 94.5q0 56 48 149q98 180 189 328.5t238 366.5q54 79 102 111t114 32q86 0 134.5 -45t48.5 -126v-756h83q49 0 76.5 -25.5t27.5 -69.5t-27.5 -69t-76.5 -25h-83v-162q0 -55 -28.5 -85.5t-79.5 -30.5q-50 0 -78.5 30.5t-28.5 85.5z
M294 456h448v723h-11q-222 -332 -437 -714v-9z" />
    <glyph glyph-name="five" unicode="5" horiz-adv-x="1199" 
d="M138 274q0 46 25.5 75t67.5 29q29 0 51 -15t44 -51q91 -152 256 -152q124 0 202.5 78.5t78.5 202.5q0 120 -75.5 195.5t-193.5 75.5q-110 0 -199 -74q-48 -43 -73 -57t-52 -14q-54 0 -83.5 37.5t-25.5 100.5l40 535q10 126 156 126h564q53 0 82 -25t29 -70q0 -46 -29 -70
t-82 -24h-527l-33 -395h13q35 49 112 80t164 31q193 0 314.5 -123t121.5 -319q0 -214 -139 -347t-361 -133q-193 0 -320.5 93.5t-127.5 209.5z" />
    <glyph glyph-name="six" unicode="6" horiz-adv-x="1153" 
d="M85 652q0 356 139 547t398 191q175 0 300 -83q51 -34 80.5 -75t29.5 -79q0 -39 -26 -64t-65 -25q-44 0 -100 48q-103 93 -221 93q-155 0 -236 -134t-83 -391h8q35 90 129 147t209 57q189 0 309.5 -123.5t120.5 -319.5q0 -210 -133.5 -340t-349.5 -130q-128 0 -229.5 50.5
t-165.5 147.5q-114 169 -114 483zM330 433q0 -121 75.5 -199t193.5 -78q116 0 187.5 76t71.5 200t-72.5 199t-191.5 75q-116 0 -190 -76t-74 -197z" />
    <glyph glyph-name="seven" unicode="7" horiz-adv-x="1092" 
d="M260 86q0 31 21 73l486 1008v9h-588q-54 0 -83.5 25.5t-29.5 68.5t29.5 69t83.5 26h706q51 0 85 -32t34 -85q0 -61 -47 -155l-489 -1033q-37 -76 -104 -76q-44 0 -74 28.5t-30 73.5z" />
    <glyph glyph-name="eight" unicode="8" horiz-adv-x="1198" 
d="M596 -29q-225 0 -364.5 111t-139.5 290q0 125 77 219.5t204 122.5v12q-105 33 -166 115t-61 189q0 158 127.5 260t326.5 102t326 -102t127 -260q0 -106 -61.5 -188.5t-166.5 -115.5v-12q126 -28 203.5 -122t77.5 -219q0 -178 -142 -290t-368 -112zM600 795q103 0 169 60
t66 153q0 92 -66 151t-169 59q-104 0 -170 -59t-66 -151q0 -93 66.5 -153t169.5 -60zM600 144q123 0 203 68t80 173t-80 173.5t-203 68.5q-124 0 -204 -68t-80 -174q0 -105 80 -173t204 -68z" />
    <glyph glyph-name="nine" unicode="9" horiz-adv-x="1153" 
d="M131 210q0 40 25.5 65t64.5 25q42 0 93 -46q105 -96 228 -96q156 0 237.5 136t81.5 388h-9q-37 -98 -126.5 -154t-208.5 -56q-190 0 -310 126.5t-120 327.5q0 211 133.5 339.5t352.5 128.5q243 0 373 -180.5t130 -517.5q0 -354 -136 -538.5t-396 -184.5q-176 0 -299 78
q-54 34 -84 75.5t-30 83.5zM827 926q0 125 -73 204t-189 79q-115 0 -187 -78.5t-72 -203.5q0 -123 71.5 -198.5t188.5 -75.5q116 0 188.5 75.5t72.5 197.5z" />
    <glyph glyph-name="colon" unicode=":" horiz-adv-x="545" 
d="M136 810q0 56 40 96.5t97 40.5q56 0 96.5 -40.5t40.5 -96.5t-40.5 -96.5t-96.5 -40.5q-57 0 -97 40.5t-40 96.5zM136 117q0 56 40 96.5t97 40.5q56 0 96.5 -40.5t40.5 -96.5q0 -57 -40.5 -97.5t-96.5 -40.5q-57 0 -97 40.5t-40 97.5z" />
    <glyph glyph-name="semicolon" unicode=";" horiz-adv-x="544" 
d="M135 810q0 56 40.5 96.5t96.5 40.5q57 0 97 -40.5t40 -96.5t-40 -96.5t-97 -40.5q-56 0 -96.5 40.5t-40.5 96.5zM96 -182l73 303q9 42 38.5 66t68.5 24q52 0 84 -43t16 -92l-115 -298q-9 -30 -31 -46.5t-52 -16.5q-42 0 -66.5 31.5t-15.5 71.5z" />
    <glyph glyph-name="less" unicode="&#x3c;" 
d="M215 668l694 373q35 14 58 14q46 0 74.5 -28.5t28.5 -74.5q0 -72 -83 -101l-635 -316v-10l635 -321q82 -32 82 -103q0 -46 -28.5 -75t-73.5 -29q-22 0 -59 15l-693 377q-55 24 -79 57.5t-24 81.5q0 98 103 140z" />
    <glyph glyph-name="equal" unicode="=" 
d="M127 747q0 41 26.5 64.5t75.5 23.5h714q49 0 75.5 -23.5t26.5 -64.5t-26.5 -65t-75.5 -24h-714q-49 0 -75.5 24t-26.5 65zM127 350q0 41 26.5 65t75.5 24h714q49 0 75.5 -23.5t26.5 -64.5t-26.5 -65.5t-75.5 -24.5h-714q-49 0 -75.5 24.5t-26.5 64.5z" />
    <glyph glyph-name="greater" unicode="&#x3e;" 
d="M957 668q102 -42 102 -140q0 -48 -23.5 -81.5t-78.5 -57.5l-694 -377q-35 -15 -58 -15q-45 0 -74 29t-29 75q0 71 83 103l635 321v10l-635 316q-83 29 -83 101q0 46 28.5 74.5t74.5 28.5q23 0 58 -14z" />
    <glyph glyph-name="question" unicode="?" horiz-adv-x="963" 
d="M334 504q0 93 38.5 156t147.5 150q84 67 117.5 113.5t33.5 110.5q0 78 -59.5 128t-150.5 50q-80 0 -135 -34t-93 -107q-21 -35 -40 -49t-49 -14q-40 0 -62.5 24.5t-22.5 63.5q0 51 28.5 105t77.5 96q111 95 306 95q190 0 308 -96t118 -255q0 -101 -48.5 -174.5
t-156.5 -156.5q-83 -65 -112.5 -105t-41.5 -109q-14 -47 -37.5 -70t-67.5 -23q-46 0 -72.5 28t-26.5 73zM300 109q0 55 39.5 91.5t95.5 36.5t95.5 -36.5t39.5 -91.5t-39.5 -92t-95.5 -37t-95.5 37t-39.5 92z" />
    <glyph glyph-name="at" unicode="@" horiz-adv-x="1691" 
d="M861 -267h-9q-347 0 -553.5 205t-206.5 551v55q0 227 97.5 403.5t274 273.5t403.5 97h8q212 0 380 -87t262 -242t94 -351v-50q0 -203 -96.5 -329t-252.5 -126q-93 0 -160 39t-80 102h-10q-17 -60 -81 -100.5t-143 -40.5q-125 0 -197.5 88.5t-72.5 240.5v100
q0 148 74.5 235t201.5 87q74 0 130 -36.5t74 -95.5h8v26q0 40 22 63.5t60 23.5q37 0 59 -23.5t22 -63.5v-400q0 -51 31 -81.5t81 -30.5q80 0 128 91t48 243v33q0 157 -74 281.5t-207 194t-301 69.5h-8q-276 0 -446.5 -177t-170.5 -463v-43q0 -285 165 -454.5t443 -169.5h8
q58 0 142 11t96 11q29 0 48 -17.5t19 -44.5q0 -56 -62 -73q-97 -25 -248 -25zM692 485q0 -206 152 -206q74 0 113 50.5t39 146.5v81q0 88 -41.5 139t-112.5 51t-110.5 -53.5t-39.5 -149.5v-59z" />
    <glyph glyph-name="A" unicode="A" horiz-adv-x="1233" 
d="M155 -12q-48 0 -77 26t-29 69q0 32 19 88l375 1061q27 76 67.5 110t107.5 34q68 0 108 -34t66 -110l375 -1061q17 -51 17 -85q0 -45 -29.5 -71.5t-78.5 -26.5q-46 0 -74.5 25.5t-45.5 82.5l-94 282h-494l-94 -282q-18 -58 -45.5 -83t-73.5 -25zM422 552h386l-187 577h-11
z" />
    <glyph glyph-name="B" unicode="B" horiz-adv-x="1242" 
d="M153 162v1041q0 83 42 122.5t130 39.5h372q181 0 286.5 -90.5t105.5 -245.5q0 -115 -59.5 -193t-166.5 -107v-10q138 -16 219 -105.5t81 -229.5q0 -177 -128.5 -280.5t-347.5 -103.5h-362q-89 0 -130.5 39t-41.5 123zM379 788h192q151 0 222 50.5t71 152.5
q0 91 -56.5 142.5t-157.5 51.5h-271v-397zM379 180h217q177 0 256.5 51.5t79.5 160.5q0 106 -69 165.5t-195 59.5h-289v-437z" />
    <glyph glyph-name="C" unicode="C" horiz-adv-x="1265" 
d="M102 587v195q0 288 145 449t408 161q258 0 406 -150q50 -50 79.5 -108t29.5 -104q0 -44 -26.5 -70t-69.5 -26q-34 0 -58 15.5t-51 54.5q-60 98 -131.5 144t-167.5 46q-162 0 -250 -109.5t-88 -309.5v-182q0 -205 87.5 -314.5t250.5 -109.5q195 0 303 186q27 39 50 55
t54 16q45 0 71 -26t26 -70q0 -51 -33 -112t-89 -111q-147 -136 -393 -136q-264 0 -408.5 161t-144.5 455z" />
    <glyph glyph-name="D" unicode="D" horiz-adv-x="1311" 
d="M154 162v1041q0 84 41 123t130 39h299q298 0 452 -173.5t154 -509.5q0 -335 -154 -508.5t-452 -173.5h-299q-89 0 -130 39t-41 123zM380 192h222q201 0 298.5 121t97.5 369q0 249 -98 370.5t-298 121.5h-222v-982z" />
    <glyph glyph-name="E" unicode="E" horiz-adv-x="1114" 
d="M153 162v1041q0 83 42 122.5t130 39.5h593q47 0 75 -26.5t28 -69.5t-28 -69t-75 -26h-539v-389h508q44 0 71 -25t27 -67t-27 -66.5t-71 -24.5h-508v-411h537q48 0 76.5 -26t28.5 -70q0 -43 -28.5 -69t-76.5 -26h-591q-89 0 -130.5 39t-41.5 123z" />
    <glyph glyph-name="F" unicode="F" horiz-adv-x="1051" 
d="M268 -10q-54 0 -84.5 33t-30.5 91v1089q0 83 42 122.5t130 39.5h581q47 0 75.5 -27t28.5 -70t-28.5 -69t-75.5 -26h-526v-419h475q47 0 75 -26t28 -69t-28 -69t-75 -26h-475v-450q0 -59 -29.5 -91.5t-82.5 -32.5z" />
    <glyph glyph-name="G" unicode="G" horiz-adv-x="1290" 
d="M100 579v208q0 283 147 444t408 161q243 0 388 -137q57 -52 91.5 -112.5t34.5 -109.5q0 -44 -26 -70.5t-69 -26.5q-28 0 -49 13t-42 45q-63 100 -138 150t-177 50q-164 0 -252.5 -107t-88.5 -307v-200q0 -197 91.5 -306t256.5 -109q135 0 217 74t82 195v107h-223
q-50 0 -77.5 23.5t-27.5 66.5t27.5 66.5t77.5 23.5h292q77 0 113 -35.5t36 -111.5v-130q0 -207 -147.5 -340t-376.5 -133q-267 0 -417.5 161t-150.5 447z" />
    <glyph glyph-name="H" unicode="H" horiz-adv-x="1386" 
d="M1119 -10q-54 0 -84 32.5t-30 91.5v491h-625v-491q0 -58 -30 -91t-83 -33q-54 0 -84 32.5t-30 91.5v1137q0 59 30 91.5t84 32.5q53 0 83 -33t30 -91v-454h625v454q0 59 30 91.5t84 32.5q53 0 83 -33t30 -91v-1137q0 -58 -30 -91t-83 -33z" />
    <glyph glyph-name="I" unicode="I" horiz-adv-x="534" 
d="M267 -10q-53 0 -83.5 33t-30.5 91v1137q0 59 30 91.5t84 32.5q53 0 83 -33t30 -91v-1137q0 -58 -30 -91t-83 -33z" />
    <glyph glyph-name="J" unicode="J" horiz-adv-x="1019" 
d="M641 1249q0 60 29.5 93t82.5 33q54 0 84.5 -33t30.5 -93v-832q0 -210 -114 -328t-315 -118q-215 0 -328 118q-73 78 -73 165q0 48 26 76t69 28q31 0 52.5 -15.5t43.5 -51.5q70 -122 207 -122q99 0 152 62t53 181v837z" />
    <glyph glyph-name="K" unicode="K" horiz-adv-x="1225" 
d="M1048 -5q-62 0 -121 80l-390 548l-157 -161v-348q0 -59 -29.5 -91.5t-82.5 -32.5q-54 0 -84.5 33t-30.5 91v1137q0 59 30 91.5t84 32.5q53 0 83 -33t30 -91v-512h12l533 571q53 60 102 60q43 0 71.5 -29t28.5 -71q0 -23 -10.5 -42.5t-41.5 -52.5l-369 -402l399 -550
q34 -46 45 -69.5t11 -49.5q0 -48 -31.5 -78.5t-81.5 -30.5z" />
    <glyph glyph-name="L" unicode="L" horiz-adv-x="1005" 
d="M995 98q0 -44 -29.5 -71t-76.5 -27h-564q-89 0 -130.5 39t-41.5 123v1089q0 59 30 91.5t84 32.5q53 0 83 -33t30 -91v-1054h509q47 0 76.5 -27.5t29.5 -71.5z" />
    <glyph glyph-name="M" unicode="M" horiz-adv-x="1610" 
d="M260 -10q-102 0 -102 121v1120q0 69 34.5 107.5t95.5 38.5q54 0 88 -30t65 -110l362 -876h8l361 877q31 80 64.5 109.5t89.5 29.5q61 0 94.5 -38t33.5 -108v-1120q0 -121 -104 -121q-100 0 -100 121v839h-9l-304 -729q-27 -65 -56.5 -91t-73.5 -26t-74.5 26t-56.5 91
l-304 729h-9v-839q0 -121 -103 -121z" />
    <glyph glyph-name="N" unicode="N" horiz-adv-x="1372" 
d="M371 111q0 -57 -28 -89t-79 -32t-79.5 32.5t-28.5 88.5v1123q0 141 121 141q42 0 72.5 -26t70.5 -86l570 -878h11v869q0 57 27.5 89t78.5 32t79.5 -32.5t28.5 -88.5v-1127q0 -137 -115 -137q-44 0 -74 22t-70 83l-575 888h-10v-872z" />
    <glyph glyph-name="O" unicode="O" horiz-adv-x="1334" 
d="M102 582v188q0 290 151 456t414 166t413.5 -166.5t150.5 -455.5v-188q0 -286 -150 -448.5t-414 -162.5q-266 0 -415.5 162.5t-149.5 448.5zM329 771v-189q0 -195 90 -306t248 -111q157 0 247.5 111t90.5 306v189q0 199 -90.5 313t-247.5 114t-247.5 -114t-90.5 -313z" />
    <glyph glyph-name="P" unicode="P" horiz-adv-x="1175" 
d="M266 -10q-53 0 -83 33t-30 91v1075q0 95 41.5 135.5t139.5 40.5h339q205 0 329 -120t124 -317q0 -202 -124.5 -320t-334.5 -118h-287v-376q0 -59 -30 -91.5t-84 -32.5zM380 675h189q180 0 254.5 56t74.5 195q0 119 -64.5 185t-182.5 66h-271v-502z" />
    <glyph glyph-name="Q" unicode="Q" horiz-adv-x="1336" 
d="M1072 -153q-68 0 -122 79l-63 85q-98 -40 -219 -40q-267 0 -416 162.5t-149 448.5v188q0 290 151 456t414 166q260 0 412.5 -167t152.5 -455v-188q0 -307 -167 -463l61 -84q38 -56 38 -94q0 -39 -26 -66.5t-67 -27.5zM329 574q0 -193 89 -303.5t244 -112.5q60 0 111 21
l-45 61q-34 50 -34 85q0 39 26 64.5t65 25.5q47 0 88 -52l51 -71q82 105 82 282v197q0 195 -94.5 311t-243.5 116q-157 0 -248 -114.5t-91 -312.5v-197z" />
    <glyph glyph-name="R" unicode="R" horiz-adv-x="1239" 
d="M379 114q0 -58 -30 -91t-83 -33q-54 0 -84 32.5t-30 91.5v1069q0 95 44.5 138.5t141.5 43.5h341q211 0 333.5 -111t122.5 -302q0 -131 -65 -231t-180 -145l212 -398q20 -35 20 -79q0 -45 -31.5 -74.5t-79.5 -29.5q-44 0 -72 22t-57 79l-217 428h-286v-410zM379 703h265
q127 0 195 60t68 173t-68 175.5t-190 62.5h-270v-471z" />
    <glyph glyph-name="S" unicode="S" horiz-adv-x="1183" 
d="M82 281q0 45 26.5 73.5t67.5 28.5q32 0 59.5 -17t59.5 -57q111 -147 309 -147q130 0 202.5 51.5t72.5 145.5q0 77 -53 126.5t-165 77.5l-216 56q-342 84 -342 369q0 183 133.5 293.5t353.5 110.5q116 0 214.5 -32t164.5 -92q100 -91 100 -189q0 -42 -26 -68t-68 -26
q-62 0 -98 58q-41 76 -114.5 117.5t-168.5 41.5q-118 0 -188.5 -53.5t-70.5 -143.5q0 -69 48.5 -117.5t143.5 -72.5l215 -54q186 -47 274 -138t88 -239q0 -190 -138.5 -301.5t-373.5 -111.5q-128 0 -235 33.5t-173 94.5q-102 93 -102 182z" />
    <glyph glyph-name="T" unicode="T" horiz-adv-x="1061" 
d="M530 -10q-53 0 -83 32.5t-30 89.5v1058h-310q-46 0 -75 27t-29 70t29 70.5t75 27.5h848q46 0 74.5 -27t28.5 -71t-28.5 -70.5t-74.5 -26.5h-311v-1058q0 -56 -30.5 -89t-83.5 -33z" />
    <glyph glyph-name="U" unicode="U" horiz-adv-x="1347" 
d="M1210 472q0 -226 -147 -363.5t-389 -137.5q-250 0 -393 137t-143 367v778q0 57 30 89.5t83 32.5t83.5 -32.5t30.5 -89.5v-764q0 -148 83 -234t226 -86q142 0 225.5 86t83.5 234v764q0 57 30 89.5t83 32.5t83.5 -32.5t30.5 -89.5v-781z" />
    <glyph glyph-name="V" unicode="V" horiz-adv-x="1226" 
d="M621 266l324 1000q18 60 46.5 86.5t73.5 26.5q49 0 81 -29t32 -74q0 -35 -19 -94l-369 -1036q-28 -83 -69 -119.5t-107 -36.5q-67 0 -109 37t-70 119l-368 1036q-19 57 -19 93q0 45 32.5 74.5t81.5 29.5q45 0 73.5 -27t47.5 -86l327 -1000h11z" />
    <glyph glyph-name="W" unicode="W" horiz-adv-x="1713" 
d="M344 125l-294 1059q-12 42 -12 80q0 50 32.5 82.5t84.5 32.5q92 0 122 -132l211 -921h12l225 921q17 68 48.5 100t84.5 32t84.5 -32t48.5 -100l225 -921h12l209 921q29 132 122 132q51 0 84 -32t33 -82q0 -38 -10 -73l-294 -1067q-20 -72 -50.5 -101t-83.5 -29
q-56 0 -89.5 31t-52.5 102l-233 885h-10l-234 -888q-18 -67 -51.5 -98.5t-86.5 -31.5q-55 0 -85.5 28.5t-51.5 101.5z" />
    <glyph glyph-name="X" unicode="X" horiz-adv-x="1157" 
d="M51 93q0 34 41 93l346 502l-342 494q-39 54 -39 93q0 46 32 75t82 29q34 0 58 -18.5t62 -73.5l290 -442h11l287 442q35 54 59 73t58 19q48 0 79 -29.5t31 -74.5q0 -37 -40 -92l-352 -507l355 -489q40 -55 40 -94q0 -45 -32.5 -74t-82.5 -29q-34 0 -57 18t-63 74l-296 432
h-11l-288 -432q-37 -55 -60.5 -73.5t-56.5 -18.5q-49 0 -80 29.5t-31 73.5z" />
    <glyph glyph-name="Y" unicode="Y" horiz-adv-x="1123" 
d="M561 -10q-52 0 -83.5 32.5t-30.5 86.5l3 459l-367 605q-39 65 -39 102q0 47 29 75.5t76 28.5q38 0 64 -20.5t53 -70.5l290 -513h9l293 513q27 49 54 70t63 21q46 0 74.5 -28.5t28.5 -72.5q0 -39 -41 -107l-365 -603l2 -459q1 -54 -30 -86.5t-83 -32.5z" />
    <glyph glyph-name="Z" unicode="Z" horiz-adv-x="1163" 
d="M78 116q0 32 19.5 68t86.5 128l601 848v13h-584q-46 0 -74 26t-28 70t28 70t75 26h732q55 0 87 -30t32 -81q0 -33 -20.5 -72t-87.5 -131l-591 -847v-12h626q46 0 74 -26.5t28 -70.5q0 -43 -28.5 -69t-74.5 -26h-778q-55 0 -89 32.5t-34 83.5z" />
    <glyph glyph-name="bracketleft" unicode="[" horiz-adv-x="702" 
d="M167 -171v1469q0 139 146 139h271q43 0 66.5 -23.5t23.5 -61.5t-23.5 -61t-66.5 -23h-205v-1409h205q43 0 66.5 -23.5t23.5 -61.5t-23.5 -61.5t-66.5 -23.5h-271q-146 0 -146 140z" />
    <glyph glyph-name="backslash" unicode="\" horiz-adv-x="702" 
d="M478 -250l-441 1568q-6 16 -6 33q-1 39 27.5 67.5t70.5 28.5q34 0 59.5 -19t34.5 -51l442 -1568q4 -10 6 -34q1 -39 -28 -67.5t-70 -28.5q-35 0 -60.5 19t-34.5 52z" />
    <glyph glyph-name="bracketright" unicode="]" horiz-adv-x="702" 
d="M27 -226q0 38 24 61.5t66 23.5h206v1409h-206q-43 0 -66.5 23t-23.5 61t24 61.5t66 23.5h271q147 0 147 -139v-1469q0 -140 -147 -140h-271q-42 0 -66 23.5t-24 61.5z" />
    <glyph glyph-name="asciicircum" unicode="^" horiz-adv-x="820" 
d="M533 1299l179 -383q31 -48 31 -78q0 -34 -23 -56.5t-59 -22.5q-54 0 -77 48l-170 381h-11l-171 -382q-23 -47 -77 -47q-35 0 -57 22.5t-22 57.5q0 30 32 80l180 380q39 74 121 74q40 0 73 -20.5t51 -53.5z" />
    <glyph glyph-name="underscore" unicode="_" horiz-adv-x="848" 
d="M-115 -189q0 39 27 62.5t76 23.5h872q50 0 77 -23t27 -63q0 -39 -27 -62.5t-77 -23.5h-872q-49 0 -76 23t-27 63z" />
    <glyph glyph-name="grave" unicode="`" horiz-adv-x="946" 
d="M471 1212l-121 140q-19 24 -19 55q0 34 24 58t58 24q44 0 70 -39l96 -151q15 -24 15 -42q0 -29 -20.5 -50t-49.5 -21q-30 0 -53 26z" />
    <glyph glyph-name="a" unicode="a" horiz-adv-x="1076" 
d="M724 137q-43 -73 -120 -112.5t-175 -39.5q-154 0 -249.5 89t-95.5 233q0 146 100.5 230t277.5 85h264v94q0 89 -53 135t-155 46q-61 0 -108.5 -22t-94.5 -70q-37 -36 -91 -36q-37 0 -59 22.5t-22 58.5q0 98 131 169q99 54 258 54q200 0 308 -93t108 -265v-605
q0 -57 -28 -88.5t-80 -31.5q-46 0 -73.5 26.5t-31.5 73.5v47h-11zM307 318q0 -73 52.5 -118.5t138.5 -45.5q97 0 162.5 58t65.5 144v114h-233q-89 0 -137.5 -39.5t-48.5 -112.5z" />
    <glyph glyph-name="b" unicode="b" horiz-adv-x="1190" 
d="M681 -15q-111 0 -193.5 46t-116.5 128h-11v-57q0 -54 -28.5 -83t-79.5 -29q-52 0 -80 32t-28 91v1208q0 58 29 90.5t82 32.5t82 -32.5t29 -90.5v-430h11q25 82 110.5 132t198.5 50q185 0 292 -123.5t107 -337.5v-165q0 -215 -108 -338.5t-296 -123.5zM366 443
q0 -121 70.5 -198t182.5 -77q114 0 176.5 80.5t62.5 226.5v100q0 149 -64 232t-179 83t-182 -79t-67 -214v-154z" />
    <glyph glyph-name="c" unicode="c" horiz-adv-x="1059" 
d="M99 449v164q0 211 121.5 337.5t337.5 126.5q159 0 272 -70q53 -34 88 -80.5t35 -94.5q0 -42 -24.5 -69t-66.5 -27q-23 0 -43 10.5t-28.5 19t-26.5 28.5q-75 96 -198 96q-117 0 -178 -78.5t-61 -210.5v-140q0 -135 60 -215t181 -80q125 0 202 98q1 1 7.5 8t8.5 9l8.5 8.5
t10 8.5t10 7t11.5 7t12 4.5t14 3.5t15 1q39 0 64 -24.5t25 -69.5q0 -50 -35.5 -97.5t-95.5 -83.5q-110 -66 -266 -66q-216 0 -338 125.5t-122 343.5z" />
    <glyph glyph-name="d" unicode="d" horiz-adv-x="1188" 
d="M813 168q-24 -81 -111 -132t-202 -51q-184 0 -292 122.5t-108 329.5v184q0 207 109.5 329.5t294.5 122.5q110 0 191 -46t112 -127h11v421q0 59 29 91t82 32t82 -32t29 -91v-1208q0 -59 -28 -91t-80 -32q-49 0 -77 29.5t-31 83.5v65h-11zM327 470q0 -143 64 -223t179 -80
q114 0 181 77.5t67 210.5v163q0 120 -70.5 196t-182.5 76t-175 -80t-63 -222v-118z" />
    <glyph glyph-name="e" unicode="e" horiz-adv-x="1099" 
d="M98 452v150q0 211 127.5 343t332.5 132q195 0 320.5 -126.5t125.5 -321.5q0 -88 -25 -120.5t-91 -32.5h-564v-50q0 -123 72 -195t197 -72q121 0 199 70q41 35 59.5 45t43.5 10q36 0 58.5 -24t22.5 -62q0 -62 -65 -114q-51 -49 -139 -76.5t-192 -27.5q-224 0 -353 126
t-129 346zM324 631h465v3q0 121 -62 193t-166 72q-107 0 -172 -73t-65 -192v-3z" />
    <glyph glyph-name="f" unicode="f" horiz-adv-x="714" 
d="M436 113q0 -58 -29 -90.5t-82 -32.5t-82 32.5t-29 90.5v764h-72q-46 0 -72 23.5t-26 65.5t26 65.5t72 23.5h72v93q0 159 78 234.5t237 75.5q89 0 136 -31q40 -29 40 -72q0 -34 -19.5 -54t-51.5 -20q-19 0 -45 3t-48 3q-108 0 -108 -131v-101h130q46 0 72 -23.5t26 -65.5
q0 -41 -26 -65t-72 -24h-127v-764z" />
    <glyph glyph-name="g" unicode="g" horiz-adv-x="1184" 
d="M806 181q-32 -73 -111.5 -119.5t-187.5 -46.5q-178 0 -292.5 123t-114.5 333v145q0 210 114 333.5t291 123.5q114 0 195.5 -51t111.5 -125h11v59q1 55 29.5 83.5t76.5 28.5q51 0 80 -31.5t29 -91.5v-915q0 -210 -127 -318.5t-347 -108.5q-191 0 -309 70q-52 30 -83 71.5
t-31 85.5q0 40 25 64.5t67 24.5q10 0 20 -2.5l16 -4t17 -9t13.5 -9.5t16 -13.5t15.5 -12.5q102 -81 228 -81q124 0 191 64.5t67 185.5v144h-11zM327 491q0 -135 69.5 -217.5t182.5 -82.5q111 0 174.5 79t63.5 195v146q0 118 -65 198.5t-178 80.5t-180 -82.5t-67 -219.5v-97z
" />
    <glyph glyph-name="h" unicode="h" horiz-adv-x="1176" 
d="M1049 113q0 -58 -29 -90.5t-82 -32.5t-82 32t-29 91v537q0 112 -56 172.5t-158 60.5q-114 0 -181.5 -79.5t-67.5 -214.5v-476q0 -58 -29 -90.5t-82 -32.5t-82 32t-29 91v1208q0 58 29 90.5t82 32.5t82 -32.5t29 -90.5v-454h11q27 91 116.5 148.5t204.5 57.5
q166 0 259.5 -95.5t93.5 -264.5v-600z" />
    <glyph glyph-name="i" unicode="i" horiz-adv-x="524" 
d="M130 1323q0 54 37.5 89t93.5 35q58 0 95.5 -35t37.5 -89q0 -55 -37.5 -90.5t-95.5 -35.5q-56 0 -93.5 36t-37.5 90zM373 113q0 -60 -29.5 -91.5t-81.5 -31.5q-51 0 -81 31.5t-30 91.5v830q0 60 30 91.5t81 31.5t81 -31.5t30 -91.5v-830z" />
    <glyph glyph-name="j" unicode="j" horiz-adv-x="524" 
d="M130 1323q0 53 37.5 88.5t93.5 35.5q58 0 95.5 -35t37.5 -89q0 -55 -37.5 -90.5t-95.5 -35.5q-56 0 -93.5 36t-37.5 90zM74 -369q-82 0 -120 29q-34 22 -34 65q0 35 22.5 55.5t62.5 20.5q6 0 23 -0.5t22 -0.5q54 0 77.5 40.5t23.5 136.5v966q0 58 29 90.5t82 32.5
t82 -32.5t29 -90.5v-1002q0 -149 -78 -229.5t-221 -80.5z" />
    <glyph glyph-name="k" unicode="k" horiz-adv-x="1030" 
d="M366 113q0 -59 -29 -91t-81 -32q-53 0 -82.5 32.5t-29.5 90.5v1208q0 59 29 91t82 32t82 -32.5t29 -90.5v-701h11l393 400q51 52 99 52q41 0 67 -26t26 -67q0 -44 -41 -86l-287 -291l323 -414q39 -48 39 -91q0 -41 -30 -71.5t-72 -30.5q-54 0 -100 59l-325 418l-103 -98
v-261z" />
    <glyph glyph-name="l" unicode="l" horiz-adv-x="518" 
d="M258 -10q-51 0 -80.5 31.5t-29.5 91.5v1208q0 60 29.5 91.5t80.5 31.5q52 0 82 -31.5t30 -91.5v-1208q0 -60 -30 -91.5t-82 -31.5z" />
    <glyph glyph-name="m" unicode="m" horiz-adv-x="1760" 
d="M1623 113q0 -59 -29 -91t-82 -32t-81.5 32t-28.5 91v564q0 99 -53 154t-148 55q-93 0 -152 -63.5t-59 -164.5v-545q0 -59 -28 -91t-80 -32q-53 0 -81 32t-28 91v558q0 99 -55 157t-148 58t-150.5 -62t-57.5 -164v-547q0 -59 -29 -91t-82 -32t-82 32t-29 91v832
q0 56 29.5 88.5t80.5 32.5q49 0 77.5 -31t30.5 -86v-64h11q29 88 105 138t183 50q111 0 188.5 -53t103.5 -146h11q36 94 120 146.5t199 52.5q163 0 253.5 -87.5t90.5 -244.5v-628z" />
    <glyph glyph-name="n" unicode="n" horiz-adv-x="1172" 
d="M1043 112q0 -58 -29 -90t-82 -32t-82.5 32.5t-29.5 90.5v539q0 112 -53.5 171.5t-154.5 59.5q-115 0 -182.5 -78.5t-67.5 -215.5v-476q0 -58 -29 -90.5t-82 -32.5t-82 32t-29 91v833q0 56 29.5 88t80.5 32q50 0 78.5 -29.5t29.5 -84.5v-85h11q32 97 116 151.5t202 54.5
q170 0 263 -94t93 -265v-602z" />
    <glyph glyph-name="o" unicode="o" horiz-adv-x="1137" 
d="M569 1077q210 0 341 -127.5t131 -348.5v-142q0 -224 -130.5 -351.5t-341.5 -127.5q-212 0 -342.5 127.5t-130.5 351.5v141q0 222 131 349.5t342 127.5zM569 897q-113 0 -179.5 -83t-66.5 -224v-123q0 -143 66 -225.5t180 -82.5t179 82.5t65 225.5v123q0 142 -65 224.5
t-179 82.5z" />
    <glyph glyph-name="p" unicode="p" horiz-adv-x="1181" 
d="M365 -257q0 -59 -29.5 -91t-82.5 -32t-81.5 32t-28.5 91v1200q0 59 27.5 91t79.5 32q50 0 78.5 -29t30.5 -83v-65h11q32 85 115.5 134.5t196.5 49.5q185 0 292 -123.5t107 -337.5v-165q0 -215 -108 -338.5t-296 -123.5q-109 0 -187.5 45.5t-113.5 128.5h-11v-416z
M365 440q0 -122 69 -197t180 -75q115 0 178 81t63 228v104q0 148 -63.5 228.5t-180.5 80.5q-115 0 -180.5 -76.5t-65.5 -211.5v-162z" />
    <glyph glyph-name="q" unicode="q" horiz-adv-x="1188" 
d="M927 -380q-52 0 -81 32t-29 91v418h-12q-32 -82 -114.5 -129t-193.5 -47q-183 0 -290 123.5t-107 336.5v169q0 211 108 335t291 124q112 0 195 -48.5t117 -133.5h11v63q2 54 30 83t78 29q52 0 80 -32t28 -91v-1200q0 -59 -29 -91t-82 -32zM326 470q0 -143 64 -222.5
t179 -79.5t181.5 77t66.5 210v163q0 121 -70 196.5t-181 75.5q-112 0 -176 -80.5t-64 -221.5v-118z" />
    <glyph glyph-name="r" unicode="r" horiz-adv-x="734" 
d="M363 113q0 -58 -29.5 -90.5t-82.5 -32.5t-81.5 32t-28.5 91v830q0 58 29 90.5t82 32.5q49 0 77 -29.5t30 -82.5v-32h8q72 151 226 151q54 0 84 -24q37 -25 37 -76q0 -52 -36 -76q-28 -19 -87 -21q-228 -3 -228 -250v-513z" />
    <glyph glyph-name="s" unicode="s" horiz-adv-x="1014" 
d="M86 213q0 41 24 65t65 24q23 0 44 -11.5t52 -41.5q105 -99 242 -99q91 0 143.5 36.5t52.5 100.5q0 51 -37 86.5t-108 51.5l-182 42q-143 32 -212 103.5t-69 185.5q0 146 111.5 233.5t297.5 87.5q159 0 274 -69q53 -31 83 -72t30 -84q0 -38 -24 -60.5t-64 -22.5
q-24 0 -44.5 10t-54.5 39q-54 49 -102.5 69.5t-108.5 20.5q-85 0 -134 -37t-49 -100q0 -51 34.5 -83t108.5 -49l192 -44q140 -32 207 -102.5t67 -186.5q0 -151 -113.5 -238.5t-310.5 -87.5q-171 0 -293 67t-122 166z" />
    <glyph glyph-name="t" unicode="t" horiz-adv-x="728" 
d="M213 281v592h-64q-46 0 -72 24t-26 65q0 42 26 65.5t72 23.5h68v155q0 57 28 88.5t80 31.5t80.5 -31.5t28.5 -88.5v-155h122q46 0 71.5 -23.5t25.5 -65.5q0 -41 -25.5 -65t-71.5 -24h-120v-576q0 -78 24 -107t90 -29q15 0 37 1.5t32 1.5q32 0 52 -19.5t20 -52.5
q0 -54 -49 -82q-50 -29 -146 -29q-151 0 -217 69t-66 231z" />
    <glyph glyph-name="u" unicode="u" horiz-adv-x="1168" 
d="M797 176q-28 -80 -108 -135.5t-212 -55.5q-160 0 -254.5 85.5t-94.5 261.5v615q0 60 29.5 90t81.5 30t81.5 -30t29.5 -90v-558q0 -113 56.5 -164.5t148.5 -51.5q111 0 180.5 65.5t69.5 164.5v544q0 60 30 90t82 30q51 0 81 -30t30 -90v-839q0 -57 -30 -87.5t-80 -30.5
q-49 0 -78.5 28.5t-30.5 83.5v74h-12z" />
    <glyph glyph-name="v" unicode="v" horiz-adv-x="982" 
d="M297 193l-242 698q-13 36 -13 65q0 46 31.5 76t79.5 30q90 0 116 -107l212 -750h9l230 749q30 108 114 108q47 0 77 -29.5t30 -75.5q0 -29 -15 -67l-251 -697q-45 -125 -81.5 -164t-105.5 -39q-74 0 -111.5 40t-79.5 163z" />
    <glyph glyph-name="w" unicode="w" horiz-adv-x="1525" 
d="M265 178l-197 714q-9 40 -9 60q0 49 31.5 79.5t82.5 30.5q44 0 73 -29.5t39 -85.5l148 -701h10l173 654q25 94 55.5 128t89.5 34q58 0 89.5 -34t56.5 -128l177 -654h10l155 703q11 54 39.5 83.5t68.5 29.5q48 0 78 -28.5t30 -73.5q0 -24 -11 -61l-195 -721
q-29 -108 -63.5 -148t-94.5 -40q-64 0 -100 39.5t-65 148.5l-171 604h-8l-167 -604q-29 -110 -63 -149t-98 -39t-99.5 40t-64.5 148z" />
    <glyph glyph-name="x" unicode="x" horiz-adv-x="1031" 
d="M92 91q0 43 26 74l270 362l-277 358q-27 32 -27 77q0 43 29.5 72t71.5 29q65 0 113 -75l212 -315h12l211 315q26 40 52 57t61 17q42 0 70.5 -28.5t28.5 -73.5q0 -40 -26 -71l-275 -362l272 -355q31 -36 31 -79t-29 -73t-70 -30q-67 0 -116 75l-210 315h-12l-206 -314
q-49 -76 -112 -76q-42 0 -71 29t-29 72z" />
    <glyph glyph-name="y" unicode="y" horiz-adv-x="1004" 
d="M71 -279q0 35 24 56t64 21q8 0 28.5 -2t34.5 -2q48 0 87 36t57 97q2 2 8.5 28.5t6.5 30.5l-324 903q-13 39 -13 67q0 45 31.5 75t79.5 30q86 0 116 -108l230 -756h9l232 756q30 108 114 108q46 0 76.5 -29.5t30.5 -74.5q0 -25 -15 -68l-335 -948q-60 -170 -150.5 -245
t-234.5 -75q-92 0 -132 40q-25 25 -25 60z" />
    <glyph glyph-name="z" unicode="z" horiz-adv-x="985" 
d="M100 103q0 57 57 127l476 632v12h-440q-47 0 -73.5 26t-26.5 67t26.5 66.5t73.5 25.5h582q58 0 90 -28.5t32 -75.5q0 -59 -56 -129l-473 -633v-11h452q47 0 73.5 -25.5t26.5 -64.5q0 -42 -26.5 -68.5t-73.5 -26.5h-596q-59 0 -91.5 29t-32.5 77z" />
    <glyph glyph-name="braceleft" unicode="{" horiz-adv-x="702" 
d="M203 30v255q0 56 -8.5 93t-26.5 56.5t-33 27t-41 14.5q-41 11 -64 35.5t-23 71.5q0 50 24 74t64 36q25 6 40 13.5t33 26.5t26.5 56t8.5 93v216q0 339 333 339q64 0 101 -17.5t37 -70.5q0 -34 -20 -52.5t-65 -26.5q-5 -1 -22.5 -3.5l-24.5 -3.5t-23.5 -5.5t-24.5 -8.5
t-21 -12t-20 -18t-16.5 -25t-13.5 -32.5t-7.5 -42t-3.5 -52.5v-250q0 -105 -45.5 -158.5t-137.5 -61.5v-26q183 -15 183 -229v-283q0 -28 3.5 -52t7.5 -42t13.5 -33t16 -24.5t20.5 -18t21.5 -12.5t24 -8.5t23.5 -5.5l24.5 -3.5t22.5 -3.5q45 -8 65 -26.5t20 -52.5
q0 -52 -36.5 -70t-100.5 -18q-156 0 -245 81.5t-89 259.5z" />
    <glyph glyph-name="bar" unicode="|" horiz-adv-x="702" 
d="M252 -215v1556q0 50 28 78t71 28t71 -28t28 -78v-1556q0 -50 -28 -78t-71 -28t-71 28t-28 78z" />
    <glyph glyph-name="braceright" unicode="}" horiz-adv-x="702" 
d="M499 30q0 -178 -89 -259.5t-245 -81.5q-64 0 -101 18t-37 70q0 34 20.5 52.5t65.5 26.5q5 1 22.5 3.5t24.5 4t23 5.5t24 8t21.5 12.5t20.5 18t16 24.5t13.5 33t8 42t3.5 52v283q0 214 182 229v26q-91 8 -136.5 61.5t-45.5 158.5v250q0 28 -3.5 52.5t-8 42t-13.5 32.5
t-16 25t-20.5 18t-21.5 12.5t-24 8.5t-23.5 5t-24 3.5t-22.5 3.5q-46 7 -66 25.5t-20 53.5q0 37 21.5 57.5t48.5 25.5t68 5q334 0 334 -339v-216q0 -45 6.5 -78.5t15.5 -52t25 -31.5t28 -17.5t32 -9.5q41 -12 65 -36t24 -74q0 -83 -87 -107q-26 -7 -41 -14.5t-33 -27
t-26.5 -56.5t-8.5 -93v-255z" />
    <glyph glyph-name="asciitilde" unicode="~" horiz-adv-x="1114" 
d="M753 485q-61 0 -112.5 24t-118.5 85q-71 61 -98.5 77.5t-61.5 16.5q-47 0 -74 -34.5t-45 -117.5q-18 -77 -87 -77q-89 0 -89 119q0 129 83 215t208 86q64 0 115 -23.5t116 -83.5q67 -61 95 -77.5t64 -16.5q51 0 80.5 35.5t40.5 109.5q14 95 88 95q42 0 65.5 -30t23.5 -84
q0 -131 -86.5 -225t-206.5 -94z" />
    <glyph glyph-name="nonbreakingspace" unicode="&#xa0;" horiz-adv-x="406" 
 />
    <glyph glyph-name="exclamdown" unicode="&#xa1;" horiz-adv-x="538" 
d="M404 979q0 -56 -39.5 -92.5t-95.5 -36.5t-95.5 36.5t-39.5 92.5q0 55 39.5 91.5t95.5 36.5t95.5 -36.5t39.5 -91.5zM147 -192l20 724q2 42 31 71.5t71 29.5q41 0 69.5 -29.5t30.5 -71.5l20 -724q1 -50 -34 -85.5t-87 -35.5t-87 35t-34 86z" />
    <glyph glyph-name="cent" unicode="&#xa2;" 
d="M675 -8q0 -45 -23 -68.5t-63 -23.5q-39 0 -62 23.5t-23 68.5v148q-174 26 -271 146.5t-97 315.5v159q0 189 97 310t271 147v161q0 46 23 69.5t63 23.5t62.5 -23.5t22.5 -69.5v-160q112 -14 191 -64q57 -35 90.5 -82t33.5 -93q0 -43 -25 -69.5t-66 -26.5q-28 0 -48.5 13
t-49.5 47q-76 97 -198 97q-117 0 -182.5 -77t-65.5 -214v-137q0 -140 64.5 -218.5t184.5 -78.5q122 0 204 99q29 33 49 46t47 13q40 0 64.5 -26t24.5 -68q0 -48 -35 -96t-96 -85q-80 -48 -187 -62v-145z" />
    <glyph glyph-name="sterling" unicode="&#xa3;" 
d="M1074 89q0 -37 -26 -63t-63 -26h-774q-39 0 -67 27.5t-28 65.5q0 31 18 55.5t47 34.5q94 33 149 112t55 179q0 70 -20 143h-101q-43 0 -67.5 21.5t-24.5 59.5t24.5 58.5t67.5 20.5h55q-43 136 -43 223q0 184 126 288t341 104q137 0 221 -36q26 -10 42.5 -32.5t16.5 -51.5
q0 -36 -25 -61.5t-62 -25.5q-18 0 -79 13t-97 13q-120 0 -192 -60t-72 -164q0 -87 39 -210h277q44 0 68 -20.5t24 -58.5t-24.5 -59.5t-67.5 -21.5h-233q18 -65 18 -126q-1 -102 -37 -179.5t-102 -118.5v-15h527q37 0 63 -26t26 -63z" />
    <glyph glyph-name="currency" unicode="&#xa4;" 
d="M984 653q0 -119 -65 -215l125 -124q27 -27 27 -62t-26 -61q-26 -27 -60 -26.5t-63 28.5l-126 126q-90 -60 -206 -60q-112 0 -209 61l-108 -109q-28 -28 -63 -28t-62 27q-26 26 -26 60.5t28 62.5l108 108q-63 94 -63 212q0 113 61 207l-118 117q-28 28 -29 62t25 61
q27 27 61.5 27t63.5 -28l116 -116q97 64 215 64t212 -63l104 104q28 28 62.5 29t62.5 -26q26 -26 25.5 -61.5t-28.5 -63.5l-105 -105q61 -94 61 -208zM357 653q0 -96 68 -164t165 -68q96 0 164.5 68t68.5 164t-69 164.5t-164 68.5q-97 0 -165 -68.5t-68 -164.5z" />
    <glyph glyph-name="yen" unicode="&#xa5;" 
d="M698 92q-4 -51 -35.5 -78t-77.5 -27t-77.5 27.5t-34.5 77.5v167h-218q-38 0 -59 18.5t-21 51.5q0 32 21.5 50.5t58.5 18.5h219v126h-219q-37 0 -58.5 19t-21.5 52q0 32 21.5 50.5t58.5 18.5h160l-299 501q-40 66 -40 100q0 47 31.5 76t81.5 29q35 0 60 -20.5t51 -69.5
l280 -508h10l283 507q25 46 50.5 68.5t61.5 22.5q48 0 79 -29t31 -72q0 -37 -42 -106l-298 -499h165q37 0 58.5 -18.5t21.5 -50.5q0 -33 -21.5 -52t-58.5 -19h-224v-126h224q38 0 59 -18t21 -51t-21 -51.5t-59 -18.5h-222v-167z" />
    <glyph glyph-name="brokenbar" unicode="&#xa6;" horiz-adv-x="702" 
d="M252 858v483q0 50 28 78t71 28t71 -28t28 -78v-483q0 -50 -28 -78t-71 -28t-71 28t-28 78zM252 -215v483q0 51 28 78.5t71 27.5t71 -27.5t28 -78.5v-483q0 -50 -28 -78t-71 -28t-71 28t-28 78z" />
    <glyph glyph-name="section" unicode="&#xa7;" horiz-adv-x="930" 
d="M459 -83q90 0 142.5 42t52.5 113q0 66 -56 100.5t-206 74.5q-165 43 -242.5 112.5t-77.5 184.5q0 164 167 253v8q-161 91 -161 258q0 146 112 237.5t282 91.5q158 0 272 -79q45 -31 71 -69.5t26 -76.5q0 -37 -23.5 -60t-60.5 -23q-25 0 -44.5 11t-53.5 42q-48 48 -91 68
t-97 20q-84 0 -135.5 -42.5t-51.5 -109.5q0 -65 58 -102.5t198 -74.5q176 -47 252 -111.5t76 -182.5q0 -163 -153 -266v-7q76 -48 111 -104t35 -136q0 -153 -115 -247t-288 -94q-131 0 -235 52q-69 33 -110 82t-41 99q0 37 24.5 61t62.5 24q25 0 42.5 -11t49.5 -45
q84 -93 208 -93zM470 406q1 0 22.5 -5t42 -10t21.5 -5q47 20 78 68.5t31 105.5q0 68 -48 109t-153 64q-56 14 -71 14q-47 -12 -83.5 -64.5t-36.5 -108.5q0 -63 47 -103.5t150 -64.5z" />
    <glyph glyph-name="dieresis" unicode="&#xa8;" horiz-adv-x="945" 
d="M185 1301q0 47 29 77t74 30q46 0 76 -30t30 -77q0 -45 -30 -74.5t-76 -29.5q-44 0 -73.5 29.5t-29.5 74.5zM551 1301q0 47 29 77t73 30q47 0 77 -30t30 -77q0 -45 -30.5 -74.5t-76.5 -29.5q-44 0 -73 29.5t-29 74.5z" />
    <glyph glyph-name="copyright" unicode="&#xa9;" horiz-adv-x="1639" 
d="M826 -64q-207 0 -371.5 90.5t-256.5 252.5t-92 365v103q0 144 55 271.5t150.5 218t229 143t285.5 52.5q151 0 284.5 -52.5t229 -143.5t151 -218t55.5 -271v-103q0 -204 -92 -365.5t-256.5 -252t-371.5 -90.5zM233 641q0 -256 165 -418t427 -162q263 0 429 162t166 418
v106q0 158 -77 286t-213.5 200.5t-304.5 72.5q-256 0 -424 -159t-168 -400v-106zM505 627v110q0 151 88.5 238.5t241.5 87.5q111 0 191 -46q43 -25 68 -58t25 -66q0 -31 -20 -52t-49 -21q-17 0 -29 7.5t-37 34.5q-61 64 -144 64q-82 0 -128.5 -52.5t-46.5 -144.5v-94
q0 -196 185 -196q88 0 139 56q24 26 36.5 33.5t27.5 7.5q29 0 48.5 -20t19.5 -50q0 -33 -24.5 -66t-66.5 -57q-77 -46 -192 -46q-157 0 -245 87.5t-88 242.5z" />
    <glyph glyph-name="ordfeminine" unicode="&#xaa;" horiz-adv-x="687" 
d="M277 769q-91 0 -145 48t-54 130q0 83 57.5 129t162.5 46h141v45q0 85 -105 85q-44 0 -97 -25q-50 -27 -74 -27q-21 0 -36 15t-15 37q0 48 66.5 82.5t158.5 34.5h6q122 0 185 -51t63 -149v-325q0 -73 -75 -73q-64 0 -71 57v24h-6q-47 -83 -162 -83zM322 878q50 0 83.5 27
t33.5 68v56h-115q-101 0 -101 -72q0 -35 27 -57t72 -22z" />
    <glyph glyph-name="guillemotleft" unicode="&#xab;" horiz-adv-x="1273" 
d="M142 498q-25 29 -25 63t24 61l295 347q41 48 83 48q36 0 60.5 -24t24.5 -59q0 -33 -23 -60l-262 -309v-7l263 -313q22 -28 22 -59q0 -35 -24.5 -59t-60.5 -24q-43 0 -84 51zM633 498q-25 29 -25 63t24 61l296 347q40 48 82 48q36 0 61 -24t25 -59q0 -32 -24 -60
l-262 -309v-7l263 -313q23 -29 23 -59q0 -34 -25 -58.5t-60 -24.5q-42 0 -85 51z" />
    <glyph glyph-name="logicalnot" unicode="&#xac;" 
d="M987 73q-46 0 -71.5 29t-25.5 79v273h-711q-47 0 -74.5 24t-27.5 66t27.5 65.5t74.5 23.5h802q48 0 75 -24t27 -67v-361q0 -50 -25.5 -79t-70.5 -29z" />
    <glyph glyph-name="registered" unicode="&#xae;" horiz-adv-x="987" 
d="M494 584q-178 0 -294.5 112t-116.5 282v57q0 162 118.5 272t292.5 110q172 0 291 -110.5t119 -271.5v-57q0 -171 -116 -282.5t-294 -111.5zM494 674q137 0 227.5 86.5t90.5 218.5v55q0 124 -92 209t-226 85q-135 0 -226.5 -84.5t-91.5 -209.5v-55q0 -132 90 -218.5
t228 -86.5zM339 846v312q0 51 49 51h144q58 0 95 -34t37 -87q0 -40 -20.5 -71t-55.5 -45l61 -103q10 -13 10 -29q0 -17 -11.5 -27t-31.5 -10q-29 0 -48 31l-68 122h-70v-110q0 -21 -12 -33.5t-33 -12.5q-20 0 -33 12.5t-13 33.5zM430 1021h63q80 0 80 61q0 28 -19 43.5
t-52 15.5h-72v-120z" />
    <glyph glyph-name="macron" unicode="&#xaf;" horiz-adv-x="944" 
d="M185 1303q0 29 21 47t58 18h415q37 0 58 -18t21 -47t-21 -48t-58 -19h-415q-37 0 -58 19t-21 48z" />
    <glyph glyph-name="degree" unicode="&#xb0;" horiz-adv-x="548" 
d="M275 915q-98 0 -166.5 68.5t-68.5 166.5t68.5 166t166.5 68t166 -68t68 -166t-68 -166.5t-166 -68.5zM276 1038q46 0 78 33t32 79q0 47 -31.5 79t-78.5 32q-46 0 -79 -32t-33 -79q0 -45 33 -78.5t79 -33.5z" />
    <glyph glyph-name="plusminus" unicode="&#xb1;" 
d="M676 453q0 -42 -26 -67.5t-68 -25.5t-68 25.5t-26 67.5v194h-308q-40 0 -66.5 25t-26.5 63q0 39 26 63.5t67 24.5h308v183q0 43 26 69t68 26t68 -26t26 -69v-183h314q41 0 67.5 -24.5t26.5 -63.5q0 -38 -26.5 -63t-67.5 -25h-314v-194zM87 182q0 41 25.5 64.5t73.5 23.5
h803q48 0 73 -23.5t25 -64.5q0 -40 -25.5 -64t-72.5 -24h-803q-48 0 -73.5 24t-25.5 64z" />
    <glyph glyph-name="two.sups" unicode="&#xb2;" horiz-adv-x="596" 
d="M295 1718q114 0 183.5 -54.5t69.5 -139.5q0 -32 -8 -59t-28.5 -54t-34 -42t-45.5 -46l-123 -125v-8h162q45 0 67.5 -19t22.5 -50q0 -74 -90 -74h-353q-30 0 -52.5 21.5t-22.5 51.5q0 36 29 62l232 225q60 58 60 102q0 29 -21.5 49t-53.5 20q-31 0 -50 -17t-35 -49
q-26 -46 -76 -46q-34 0 -57 21t-23 53q0 26 11 44q21 56 81.5 95t154.5 39z" />
    <glyph glyph-name="three.sups" unicode="&#xb3;" horiz-adv-x="607" 
d="M274 1322q-26 0 -43.5 17.5t-17.5 43.5t17.5 43.5t43.5 17.5h14q39 0 62 19.5t23 51.5q0 30 -22.5 49t-57.5 19q-51 0 -78 -44t-75 -44q-33 0 -57 23t-24 56q0 24 15 46q66 98 231 98q109 0 180.5 -49t71.5 -126q1 -62 -35.5 -100.5t-84.5 -45.5v-10q56 -5 96.5 -45
t40.5 -108q1 -90 -79 -145t-200 -55q-164 0 -230 102q-15 21 -15 44q0 33 23.5 56t56.5 23q50 0 78 -43q27 -46 87 -46q41 0 65.5 21.5t23.5 55.5q0 33 -24.5 54t-68.5 21h-17z" />
    <glyph glyph-name="acute" unicode="&#xb4;" horiz-adv-x="946" 
d="M356 1257q0 21 15 42l96 151q26 39 69 39q34 0 58.5 -24t24.5 -58q0 -30 -20 -55l-120 -140q-23 -26 -54 -26q-28 0 -48.5 21t-20.5 50z" />
    <glyph glyph-name="mugreek" unicode="&#xb5;" horiz-adv-x="1261" 
d="M365 -244q0 -59 -30 -90.5t-81 -31.5t-81 31.5t-30 90.5v1189q0 59 30 90.5t81 31.5t81 -31.5t30 -90.5v-513q0 -124 54 -191.5t155 -67.5q107 0 173 72.5t66 188.5v512q0 58 30.5 89.5t81.5 31.5t80.5 -31.5t29.5 -89.5v-656q0 -62 16 -89.5t54 -30.5q6 0 15 0.5t11 0.5
q62 -8 62 -71q0 -34 -20 -58t-55 -32q-24 -19 -68 -19q-90 0 -145.5 47.5t-62.5 130.5l-2 4h-8q-35 -92 -102 -140.5t-158 -48.5q-67 0 -120 28t-77 76h-10v-332z" />
    <glyph glyph-name="paragraph" unicode="&#xb6;" horiz-adv-x="1324" 
d="M943 -104v1358q0 58 28 87t78 29t78.5 -29t28.5 -87v-1358q0 -58 -28.5 -87t-78.5 -29t-78 29t-28 87zM568 -104v591h-20q-59 0 -120 15.5t-121 50.5t-106.5 84.5t-75.5 125t-29 165.5q0 96 29 172.5t75 125t107 81t121 45.5t121 13h126q50 0 78.5 -29t28.5 -87v-1353
q0 -58 -28.5 -87t-78.5 -29t-78.5 29t-28.5 87z" />
    <glyph glyph-name="middledot" unicode="&#xb7;" horiz-adv-x="608" 
d="M164 535q0 58 41 99t98 41q58 0 99 -41t41 -99q0 -57 -41 -98t-99 -41q-57 0 -98 41t-41 98z" />
    <glyph glyph-name="cedilla" unicode="&#xb8;" horiz-adv-x="946" 
d="M318 -395q0 25 15.5 38.5t40.5 13.5q10 0 36.5 -5t45.5 -5q41 0 71 17.5t30 56.5q0 25 -16 39.5t-34.5 17.5t-47.5 4q-98 4 -98 70q0 22 59 176h139l-54 -143q93 6 150 -38.5t57 -126.5q0 -92 -69.5 -141t-176.5 -49q-59 0 -96 14q-52 18 -52 61z" />
    <glyph glyph-name="one.sups" unicode="&#xb9;" horiz-adv-x="457" 
d="M383 1133q0 -39 -27.5 -67t-67.5 -28t-67.5 28t-27.5 67v404h-5l-59 -38q-17 -11 -38 -11q-28 0 -47.5 20t-19.5 49q0 38 38 62l96 61q53 34 115 34q49 0 79.5 -28.5t30.5 -80.5v-472z" />
    <glyph glyph-name="ordmasculine" unicode="&#xba;" horiz-adv-x="714" 
d="M358 1369q125 0 201 -72t76 -196v-65q0 -127 -75.5 -198.5t-201.5 -71.5q-129 0 -204 71t-75 199v65q0 121 77 194.5t202 73.5zM358 1252q-60 0 -93.5 -42t-33.5 -112v-60q0 -72 32.5 -113.5t94.5 -41.5q60 0 92.5 41.5t32.5 113.5v60q0 70 -33 112t-92 42z" />
    <glyph glyph-name="guillemotright" unicode="&#xbb;" horiz-adv-x="1273" 
d="M618 498l-293 -344q-43 -51 -85 -51q-36 0 -60.5 25t-24.5 58q0 29 23 59l263 313v7l-262 309q-24 29 -24 60q0 33 24 58t62 25q42 0 82 -48l296 -347q24 -27 24 -61q0 -32 -25 -63zM1109 498l-293 -344q-43 -51 -85 -51q-36 0 -60 25t-24 58q0 30 22 59l263 313v7
l-262 309q-23 28 -23 60q0 33 24 58t61 25q41 0 83 -48l295 -347q24 -27 24 -61q0 -32 -25 -63z" />
    <glyph glyph-name="onequarter" unicode="&#xbc;" horiz-adv-x="1445" 
d="M199 803v418h-2l-60 -35q-25 -15 -43 -15q-28 0 -47 18.5t-19 45.5q0 37 38 61l95 58q57 36 113 36q51 0 79 -28.5t28 -78.5v-480q0 -39 -25.5 -65t-65.5 -26t-65.5 26t-25.5 65zM178 100l486 630l469 615q33 44 81 29q26 -4 42.5 -22.5t17.5 -44.5q0 -29 -22 -57
l-469 -610l-486 -637q-33 -42 -83 -28q-23 3 -40 21.5t-18 40.5q-2 33 22 63zM877 276q84 170 176 307q56 82 144 82q66 0 108 -33t42 -89v-303h18q28 0 47 -19.5t19 -48.5q0 -28 -19 -47.5t-47 -19.5h-18v-36q0 -35 -23.5 -58t-57.5 -23t-58 23t-24 58v36h-235
q-44 0 -69.5 25.5t-25.5 67.5q0 31 23 78zM1179 526h-8q-91 -153 -155 -284v-2h163v286z" />
    <glyph glyph-name="onehalf" unicode="&#xbd;" horiz-adv-x="1483" 
d="M197 803v418h-2l-60 -35q-25 -15 -43 -15q-28 0 -47 18.5t-19 45.5q0 37 38 61l95 58q57 36 113 36q51 0 79 -28.5t28 -78.5v-480q0 -39 -25.5 -65t-65.5 -26t-65.5 26t-25.5 65zM162 100l486 630l469 615q33 44 81 29q26 -4 42.5 -22.5t17.5 -44.5q0 -29 -22 -57
l-469 -610l-486 -637q-33 -42 -83 -28q-23 3 -40 21.5t-18 40.5q-2 33 22 63zM1005 428q-34 0 -55.5 20.5t-21.5 52.5q0 64 70 124.5t179 60.5q111 0 179.5 -54t68.5 -138q0 -34 -9.5 -63.5t-30 -57t-37 -44.5t-45.5 -44l-118 -119v-6h164q46 0 69 -18.5t23 -50.5
q0 -72 -92 -72h-345q-32 0 -53.5 20.5t-21.5 50.5q0 31 25 54l219 215q73 69 73 117q0 30 -22 50.5t-54 20.5q-33 0 -52 -17.5t-40 -54.5q-30 -47 -73 -47z" />
    <glyph glyph-name="threequarters" unicode="&#xbe;" horiz-adv-x="1468" 
d="M59 1238q0 35 33 61q68 87 213 87q108 0 178.5 -49t71.5 -126q0 -63 -39 -102t-83 -44v-8q56 -3 98 -42.5t42 -110.5q0 -93 -80.5 -145.5t-193.5 -52.5q-152 0 -221 92q-29 26 -29 60q0 33 23 54.5t55 21.5q46 0 74 -42q32 -52 98 -52q43 0 68.5 21.5t24.5 53.5
q0 32 -24 53t-69 21h-25q-25 0 -44.5 18.5t-19.5 46.5t19.5 46t44.5 18h23q38 0 60.5 19.5t22.5 50.5q0 29 -23 47.5t-60 18.5q-57 0 -87 -50q-26 -43 -73 -43q-33 0 -55.5 21.5t-22.5 55.5zM200 100l486 630l470 615q33 44 80 29q26 -4 43 -22.5t17 -44.5q1 -28 -21 -57
l-469 -610l-487 -637q-33 -43 -82 -28q-23 3 -40 21.5t-18 40.5q-2 33 21 63zM1280 -12q-34 0 -57.5 23t-23.5 58v36h-235q-44 0 -69.5 25.5t-25.5 67.5q0 30 22 78q86 173 177 307q56 82 144 82q66 0 108 -33t42 -89v-303h18q27 0 46.5 -20t19.5 -48t-19 -47.5t-47 -19.5
h-18v-36q0 -35 -24 -58t-58 -23zM1031 240h163v286h-8q-91 -153 -155 -284v-2z" />
    <glyph glyph-name="questiondown" unicode="&#xbf;" horiz-adv-x="962" 
d="M653 979q0 -56 -39.5 -92.5t-95.5 -36.5t-95.5 36.5t-39.5 92.5q0 55 39.5 91.5t95.5 36.5t95.5 -36.5t39.5 -91.5zM58 32q0 101 48.5 174.5t155.5 155.5q83 66 112.5 105.5t42.5 108.5q14 47 37.5 70.5t66.5 23.5q48 0 73.5 -28.5t25.5 -80.5q0 -92 -38 -152t-148 -147
q-87 -69 -119 -112.5t-32 -103.5q0 -86 60 -135.5t157 -49.5q79 0 131 33t90 108q21 35 40.5 49t48.5 14q40 0 62.5 -24.5t22.5 -63.5q0 -50 -29.5 -104t-80.5 -98q-112 -95 -302 -95t-307.5 96t-117.5 256z" />
    <glyph glyph-name="Agrave" unicode="&#xc0;" horiz-adv-x="1233" 
d="M538 1533l-120 141q-19 22 -19 54q0 34 24 58t58 24q44 0 69 -38l96 -151q15 -23 15 -43q0 -29 -20.5 -50t-48.5 -21q-31 0 -54 26zM155 -12q-48 0 -77 26t-29 69q0 32 19 88l375 1061q26 76 66.5 110t108.5 34q67 0 107.5 -34t66.5 -110l375 -1061q17 -51 17 -85
q0 -45 -29.5 -71.5t-78.5 -26.5q-47 0 -75 25t-46 83l-94 282h-493l-94 -282q-18 -58 -45.5 -83t-73.5 -25zM422 552h386l-188 577h-10z" />
    <glyph glyph-name="Aacute" unicode="&#xc1;" horiz-adv-x="1233" 
d="M565 1576q0 17 15 43l96 150q26 39 70 39q34 0 58 -24t24 -58q0 -31 -19 -55l-121 -140q-23 -26 -53 -26q-29 0 -49.5 21t-20.5 50zM155 -12q-48 0 -77 26t-29 69q0 32 19 88l375 1061q26 76 66.5 110t108.5 34q67 0 107.5 -34t66.5 -110l375 -1061q17 -51 17 -85
q0 -45 -29.5 -71.5t-78.5 -26.5q-47 0 -75 25t-46 83l-94 282h-493l-94 -282q-18 -58 -45.5 -83t-73.5 -25zM422 552h386l-188 577h-10z" />
    <glyph glyph-name="Acircumflex" unicode="&#xc2;" horiz-adv-x="1233" 
d="M617 1694h-4l-122 -161q-26 -30 -58 -30q-28 0 -45.5 18t-17.5 44q0 31 26 54l128 147q41 41 92 41q49 0 90 -41l130 -149q25 -22 25 -52q0 -26 -18 -44t-45 -18q-31 0 -59 33zM155 -12q-48 0 -77 26t-29 69q0 32 19 88l375 1061q27 76 67.5 110t107.5 34q68 0 108 -34
t66 -110l375 -1061q17 -51 17 -85q0 -45 -29.5 -71.5t-78.5 -26.5q-46 0 -74.5 25.5t-45.5 82.5l-94 282h-494l-94 -282q-18 -58 -45.5 -83t-73.5 -25zM422 552h386l-187 577h-11z" />
    <glyph glyph-name="Atilde" unicode="&#xc3;" horiz-adv-x="1233" 
d="M335 1549q0 63 47.5 108t117.5 45q83 0 142 -57q49 -48 81 -48q18 0 32.5 16t21.5 43q12 45 55 45q58 0 58 -69q0 -63 -47 -106.5t-116 -43.5q-44 0 -76 15t-66 46q-50 47 -77 47q-38 0 -55 -57q-14 -47 -62 -47q-56 0 -56 63zM155 -12q-48 0 -77 26t-29 69q0 32 19 88
l375 1061q26 76 66.5 110t108.5 34q67 0 107.5 -34t66.5 -110l375 -1061q17 -51 17 -85q0 -45 -29.5 -71.5t-78.5 -26.5q-47 0 -75 25t-46 83l-94 282h-493l-94 -282q-18 -58 -45.5 -83t-73.5 -25zM422 552h386l-188 577h-10z" />
    <glyph glyph-name="Adieresis" unicode="&#xc4;" horiz-adv-x="1233" 
d="M355 1586q0 42 26 69.5t66 27.5q41 0 69.5 -27.5t28.5 -69.5q0 -40 -28.5 -67t-69.5 -27q-40 0 -66 26.5t-26 67.5zM687 1586q0 42 27.5 69.5t66.5 27.5q42 0 69 -27.5t27 -69.5q0 -41 -27 -67.5t-69 -26.5q-39 0 -66.5 27t-27.5 67zM155 -12q-48 0 -77 26t-29 69
q0 32 19 88l375 1061q27 76 67.5 110t107.5 34q68 0 108 -34t66 -110l375 -1061q17 -51 17 -85q0 -45 -29.5 -71.5t-78.5 -26.5q-46 0 -74.5 25.5t-45.5 82.5l-94 282h-494l-94 -282q-18 -58 -45.5 -83t-73.5 -25zM422 552h386l-187 577h-11z" />
    <glyph glyph-name="Aring" unicode="&#xc5;" horiz-adv-x="1233" 
d="M615 1479q-85 0 -144 56.5t-59 141.5q0 84 58.5 140t144.5 56t144.5 -56t58.5 -140q0 -85 -58.5 -141.5t-144.5 -56.5zM518 1676q0 -41 28 -70t69 -29q42 0 69.5 28.5t27.5 70.5t-27.5 70t-69.5 28q-41 0 -69 -28t-28 -70zM155 -12q-48 0 -77 26t-29 69q0 32 19 88
l375 1061q27 76 67.5 110t107.5 34q68 0 108 -34t66 -110l375 -1061q17 -51 17 -85q0 -45 -29.5 -71.5t-78.5 -26.5q-46 0 -74.5 25.5t-45.5 82.5l-94 282h-494l-94 -282q-18 -58 -45.5 -83t-73.5 -25zM422 552h386l-187 577h-11z" />
    <glyph glyph-name="AE" unicode="&#xc6;" horiz-adv-x="1873" 
d="M451 388l-157 -300q-47 -93 -123 -93q-48 0 -79.5 30.5t-31.5 75.5q0 31 21 72l557 1043q42 82 92 115.5t130 33.5h825q46 0 75 -27t29 -69t-29 -68.5t-75 -26.5h-542v-389h511q44 0 71.5 -26t27.5 -66q0 -41 -27.5 -66t-71.5 -25h-511v-411h540q47 0 76.5 -26.5
t29.5 -69.5t-29 -69t-77 -26h-590q-89 0 -132 40.5t-43 123.5v224h-467zM538 568h380v606h-70z" />
    <glyph glyph-name="Ccedilla" unicode="&#xc7;" horiz-adv-x="1265" 
d="M653 -472q-77 0 -123.5 24t-46.5 64q0 24 15 39t39 15q13 0 44 -11t62 -11q39 0 63 19.5t24 50.5q0 64 -98 64q-99 0 -99 70q0 24 39 123q-226 25 -348 184t-122 428v195q0 288 145 449t408 161q258 0 406 -150q50 -50 79.5 -108t29.5 -104q0 -44 -26.5 -70t-69.5 -26
q-34 0 -58 15.5t-51 54.5q-60 98 -131.5 144t-167.5 46q-162 0 -250 -109.5t-88 -309.5v-181q0 -205 87.5 -315t250.5 -110q195 0 303 186q27 39 50 55t54 16q45 0 71 -26t26 -70q0 -51 -33 -112t-89 -111q-130 -121 -337 -134l-34 -88q98 0 152.5 -45t54.5 -125
q0 -82 -65 -134.5t-166 -52.5z" />
    <glyph glyph-name="Egrave" unicode="&#xc8;" horiz-adv-x="1114" 
d="M497 1533l-121 141q-19 22 -19 54q0 34 24 58t58 24q44 0 69 -38l96 -151q15 -23 15 -43q0 -29 -20.5 -50t-48.5 -21q-32 0 -53 26zM153 162v1041q0 83 42 122.5t130 39.5h593q47 0 75 -26.5t28 -69.5t-28 -69t-75 -26h-539v-389h508q44 0 71 -25t27 -67t-27 -66.5
t-71 -24.5h-508v-411h537q48 0 76.5 -26t28.5 -70q0 -43 -28.5 -69t-76.5 -26h-591q-89 0 -130.5 39t-41.5 123z" />
    <glyph glyph-name="Eacute" unicode="&#xc9;" horiz-adv-x="1114" 
d="M523 1576q0 19 16 43l95 150q27 39 70 39q34 0 58 -24t24 -58q0 -31 -19 -55l-121 -140q-21 -26 -53 -26q-29 0 -49.5 21t-20.5 50zM153 162v1041q0 83 42 122.5t130 39.5h593q47 0 75 -26.5t28 -69.5t-28 -69t-75 -26h-539v-389h508q44 0 71 -25t27 -67t-27 -66.5
t-71 -24.5h-508v-411h537q48 0 76.5 -26t28.5 -70q0 -43 -28.5 -69t-76.5 -26h-591q-89 0 -130.5 39t-41.5 123z" />
    <glyph glyph-name="Ecircumflex" unicode="&#xca;" horiz-adv-x="1114" 
d="M575 1694h-5l-121 -161q-28 -30 -59 -30q-27 0 -45 18t-18 44q0 30 27 54l128 147q41 41 92 41q50 0 89 -41l131 -149q25 -22 25 -52q0 -26 -18 -44t-46 -18q-30 0 -58 33zM153 162v1041q0 83 42 122.5t130 39.5h593q47 0 75 -26.5t28 -69.5t-28 -69t-75 -26h-539v-389
h508q44 0 71 -25t27 -67t-27 -66.5t-71 -24.5h-508v-411h537q48 0 76.5 -26t28.5 -70q0 -43 -28.5 -69t-76.5 -26h-591q-89 0 -130.5 39t-41.5 123z" />
    <glyph glyph-name="Edieresis" unicode="&#xcb;" horiz-adv-x="1114" 
d="M312 1586q0 42 26 69.5t66 27.5q41 0 69.5 -27.5t28.5 -69.5q0 -40 -28.5 -67t-69.5 -27q-40 0 -66 26.5t-26 67.5zM644 1586q0 42 27.5 69.5t66.5 27.5q42 0 69 -27.5t27 -69.5q0 -41 -27 -67.5t-69 -26.5q-39 0 -66.5 27t-27.5 67zM153 162v1041q0 83 42 122.5
t130 39.5h593q47 0 75 -26.5t28 -69.5t-28 -69t-75 -26h-539v-389h508q44 0 71 -25t27 -67t-27 -66.5t-71 -24.5h-508v-411h537q48 0 76.5 -26t28.5 -70q0 -43 -28.5 -69t-76.5 -26h-591q-89 0 -130.5 39t-41.5 123z" />
    <glyph glyph-name="Igrave" unicode="&#xcc;" horiz-adv-x="534" 
d="M190 1533l-120 141q-19 22 -19 54q0 34 24 58t58 24q44 0 69 -38l96 -151q15 -23 15 -43q0 -29 -20.5 -50t-48.5 -21q-31 0 -54 26zM267 -10q-53 0 -83.5 33t-30.5 91v1137q0 59 30 91.5t84 32.5q53 0 83 -33t30 -91v-1137q0 -58 -30 -91t-83 -33z" />
    <glyph glyph-name="Iacute" unicode="&#xcd;" horiz-adv-x="534" 
d="M217 1576q0 17 15 43l96 150q26 39 70 39q34 0 58 -24t24 -58q0 -31 -19 -55l-121 -140q-23 -26 -54 -26q-28 0 -48.5 21t-20.5 50zM267 -10q-53 0 -83.5 33t-30.5 91v1137q0 59 30 91.5t84 32.5q53 0 83 -33t30 -91v-1137q0 -58 -30 -91t-83 -33z" />
    <glyph glyph-name="Icircumflex" unicode="&#xce;" horiz-adv-x="534" 
d="M268 1694h-4l-121 -161q-28 -30 -59 -30q-27 0 -45 18t-18 44q0 31 26 54l129 147q41 41 91 41q51 0 90 -41l130 -149q26 -23 26 -52q0 -26 -18 -44t-46 -18q-29 0 -59 33zM267 -10q-53 0 -83.5 33t-30.5 91v1137q0 59 30 91.5t84 32.5q53 0 83 -33t30 -91v-1137
q0 -58 -30 -91t-83 -33z" />
    <glyph glyph-name="Idieresis" unicode="&#xcf;" horiz-adv-x="534" 
d="M6 1586q0 42 26 69.5t66 27.5q41 0 69.5 -27.5t28.5 -69.5q0 -40 -28.5 -67t-69.5 -27q-40 0 -66 26.5t-26 67.5zM338 1586q0 42 27.5 69.5t66.5 27.5q42 0 69 -27.5t27 -69.5q0 -41 -27 -67.5t-69 -26.5q-39 0 -66.5 27t-27.5 67zM267 -10q-53 0 -83.5 33t-30.5 91v1137
q0 59 30 91.5t84 32.5q53 0 83 -33t30 -91v-1137q0 -58 -30 -91t-83 -33z" />
    <glyph glyph-name="Eth" unicode="&#xd0;" horiz-adv-x="1395" 
d="M235 164v431h-69q-54 0 -85.5 27t-31.5 73t32 73.5t85 27.5h69v405q0 83 43 123.5t131 40.5h297q299 0 452.5 -172.5t153.5 -508.5t-154 -510t-452 -174h-297q-88 0 -131 40.5t-43 123.5zM462 191h222q201 0 298.5 121t97.5 369q0 493 -396 493h-222v-378h204
q54 0 86 -27.5t32 -73.5t-32 -73t-86 -27h-204v-404z" />
    <glyph glyph-name="Ntilde" unicode="&#xd1;" horiz-adv-x="1372" 
d="M405 1549q0 63 47.5 108t117.5 45q83 0 143 -57q49 -48 81 -48q18 0 32 16t21 43q13 45 56 45q57 0 57 -69q0 -63 -47 -106.5t-116 -43.5q-77 0 -141 61q-52 47 -78 47q-38 0 -54 -57q-16 -47 -63 -47q-56 0 -56 63zM371 111q0 -57 -28 -89t-79 -32t-79.5 32.5
t-28.5 88.5v1123q0 141 121 141q42 0 72.5 -26t70.5 -86l570 -878h11v869q0 57 27.5 89t78.5 32t79.5 -32.5t28.5 -88.5v-1127q0 -137 -115 -137q-44 0 -74 22t-70 83l-575 888h-10v-872z" />
    <glyph glyph-name="Ograve" unicode="&#xd2;" horiz-adv-x="1334" 
d="M589 1533l-121 141q-19 22 -19 54q0 34 24.5 58t57.5 24q45 0 70 -38l96 -151q15 -23 15 -43q0 -29 -20.5 -50t-48.5 -21q-31 0 -54 26zM102 582v188q0 290 151 456t414 166t413.5 -166.5t150.5 -455.5v-188q0 -286 -150 -448.5t-414 -162.5q-266 0 -415.5 162.5
t-149.5 448.5zM329 771v-189q0 -195 90 -306t248 -111q157 0 247.5 111t90.5 306v189q0 199 -90.5 313t-247.5 114t-247.5 -114t-90.5 -313z" />
    <glyph glyph-name="Oacute" unicode="&#xd3;" horiz-adv-x="1334" 
d="M616 1576q0 17 15 43l96 150q26 39 70 39q33 0 57.5 -24t24.5 -58q0 -31 -19 -55l-121 -140q-23 -26 -54 -26q-28 0 -48.5 21t-20.5 50zM102 582v188q0 290 151 456t414 166t413.5 -166.5t150.5 -455.5v-188q0 -286 -150 -448.5t-414 -162.5q-266 0 -415.5 162.5
t-149.5 448.5zM329 771v-189q0 -195 90 -306t248 -111q157 0 247.5 111t90.5 306v189q0 199 -90.5 313t-247.5 114t-247.5 -114t-90.5 -313z" />
    <glyph glyph-name="Ocircumflex" unicode="&#xd4;" horiz-adv-x="1334" 
d="M667 1694h-4l-121 -161q-28 -30 -59 -30q-27 0 -45 18t-18 44q0 29 26 54l129 147q41 41 91 41q51 0 90 -41l130 -149q26 -23 26 -52q0 -26 -18 -44t-46 -18q-30 0 -58 33zM102 582v188q0 290 151 456t414 166t413.5 -166.5t150.5 -455.5v-188q0 -286 -150 -448.5
t-414 -162.5q-266 0 -415.5 162.5t-149.5 448.5zM329 771v-189q0 -195 90 -306t248 -111q157 0 247.5 111t90.5 306v189q0 199 -90.5 313t-247.5 114t-247.5 -114t-90.5 -313z" />
    <glyph glyph-name="Otilde" unicode="&#xd5;" horiz-adv-x="1334" 
d="M386 1549q0 63 47 108t118 45q83 0 142 -57q49 -48 81 -48q18 0 32.5 16.5t20.5 42.5q13 45 56 45q57 0 57 -69q0 -63 -46.5 -106.5t-115.5 -43.5q-78 0 -142 61q-52 47 -78 47q-37 0 -54 -57q-14 -47 -62 -47q-56 0 -56 63zM102 582v188q0 290 151 456t414 166
t413.5 -166.5t150.5 -455.5v-188q0 -286 -150 -448.5t-414 -162.5q-266 0 -415.5 162.5t-149.5 448.5zM329 771v-189q0 -195 90 -306t248 -111q157 0 247.5 111t90.5 306v189q0 199 -90.5 313t-247.5 114t-247.5 -114t-90.5 -313z" />
    <glyph glyph-name="Odieresis" unicode="&#xd6;" horiz-adv-x="1334" 
d="M405 1586q0 42 26.5 69.5t65.5 27.5q42 0 70 -27.5t28 -69.5q0 -40 -28.5 -67t-69.5 -27q-39 0 -65.5 27t-26.5 67zM737 1586q0 42 27.5 69.5t66.5 27.5q42 0 69 -27.5t27 -69.5q0 -41 -27 -67.5t-69 -26.5q-39 0 -66.5 27t-27.5 67zM102 582v188q0 290 151 456t414 166
t413.5 -166.5t150.5 -455.5v-188q0 -286 -150 -448.5t-414 -162.5q-266 0 -415.5 162.5t-149.5 448.5zM329 771v-189q0 -195 90 -306t248 -111q157 0 247.5 111t90.5 306v189q0 199 -90.5 313t-247.5 114t-247.5 -114t-90.5 -313z" />
    <glyph glyph-name="multiply" unicode="&#xd7;" 
d="M296 85q-30 -31 -68 -31.5t-68 29.5q-31 29 -30.5 68t31.5 69l291 293l-293 294q-31 31 -32 69t28 67t67 28.5t69 -31.5l295 -294l292 291q31 32 69.5 33t68.5 -30q30 -30 29 -68.5t-32 -69.5l-291 -293l292 -294q31 -30 32 -68t-28 -67q-30 -30 -68 -29t-68 32l-294 293
z" />
    <glyph glyph-name="Oslash" unicode="&#xd8;" horiz-adv-x="1332" 
d="M115 118l77 96q-90 145 -90 369v187q0 288 150.5 455.5t414.5 167.5q227 0 372 -129l67 82q24 29 57 29q29 0 50 -21t21 -50q0 -25 -21 -50l-78 -97q97 -155 97 -387v-187q0 -284 -150 -448.5t-415 -164.5q-233 0 -381 134l-64 -79q-24 -29 -57 -29q-29 0 -50 21t-21 50
q0 27 21 51zM325 581q0 -98 26 -170l554 687q-89 103 -239 103q-158 0 -249.5 -114.5t-91.5 -314.5v-191zM666 163q159 0 250.5 110.5t91.5 307.5v191q0 108 -32 189l-556 -691q90 -107 246 -107z" />
    <glyph glyph-name="Ugrave" unicode="&#xd9;" horiz-adv-x="1347" 
d="M597 1533l-121 141q-19 22 -19 54q0 34 24 58t58 24q44 0 70 -38l95 -151q16 -24 16 -43q0 -29 -20.5 -50t-49.5 -21q-32 0 -53 26zM1210 472q0 -226 -147 -363.5t-389 -137.5q-250 0 -393 137t-143 367v778q0 57 30 89.5t83 32.5t83.5 -32.5t30.5 -89.5v-764
q0 -148 83 -234t226 -86q142 0 225.5 86t83.5 234v764q0 57 30 89.5t83 32.5t83.5 -32.5t30.5 -89.5v-781z" />
    <glyph glyph-name="Uacute" unicode="&#xda;" horiz-adv-x="1347" 
d="M624 1576q0 20 15 43l96 150q26 39 69 39q34 0 58 -24t24 -58q0 -31 -19 -55l-121 -140q-21 -26 -53 -26q-28 0 -48.5 21t-20.5 50zM1210 472q0 -226 -147 -363.5t-389 -137.5q-250 0 -393 137t-143 367v778q0 57 30 89.5t83 32.5t83.5 -32.5t30.5 -89.5v-764
q0 -148 83 -234t226 -86q142 0 225.5 86t83.5 234v764q0 57 30 89.5t83 32.5t83.5 -32.5t30.5 -89.5v-781z" />
    <glyph glyph-name="Ucircumflex" unicode="&#xdb;" horiz-adv-x="1347" 
d="M675 1694h-5l-121 -161q-28 -30 -59 -30q-27 0 -45 18t-18 44q0 30 27 54l128 147q41 41 92 41q49 0 90 -41l130 -149q25 -22 25 -52q0 -26 -18 -44t-46 -18q-30 0 -58 33zM1210 472q0 -226 -147 -363.5t-389 -137.5q-250 0 -393 137t-143 367v778q0 57 30 89.5t83 32.5
t83.5 -32.5t30.5 -89.5v-764q0 -148 83 -234t226 -86q142 0 225.5 86t83.5 234v764q0 57 30 89.5t83 32.5t83.5 -32.5t30.5 -89.5v-781z" />
    <glyph glyph-name="Udieresis" unicode="&#xdc;" horiz-adv-x="1347" 
d="M412 1586q0 42 26 69.5t66 27.5q41 0 69.5 -27.5t28.5 -69.5q0 -40 -28.5 -67t-69.5 -27q-40 0 -66 26.5t-26 67.5zM744 1586q0 42 27.5 69.5t66.5 27.5q42 0 69 -27.5t27 -69.5q0 -41 -27 -67.5t-69 -26.5q-39 0 -66.5 27t-27.5 67zM1210 472q0 -226 -147 -363.5
t-389 -137.5q-250 0 -393 137t-143 367v778q0 57 30 89.5t83 32.5t83.5 -32.5t30.5 -89.5v-764q0 -148 83 -234t226 -86q142 0 225.5 86t83.5 234v764q0 57 30 89.5t83 32.5t83.5 -32.5t30.5 -89.5v-781z" />
    <glyph glyph-name="Yacute" unicode="&#xdd;" horiz-adv-x="1122" 
d="M511 1576q0 17 15 43l96 150q27 39 70 39q34 0 58 -24t24 -58q0 -31 -19 -55l-121 -140q-21 -26 -53 -26q-29 0 -49.5 21t-20.5 50zM561 -10q-52 0 -83.5 32.5t-30.5 86.5l3 459l-367 605q-39 65 -39 102q0 47 29 75.5t76 28.5q38 0 64 -20.5t53 -70.5l290 -513h9
l293 513q27 49 54 70t63 21q46 0 74.5 -28.5t28.5 -72.5q0 -39 -41 -107l-365 -603l2 -459q1 -54 -30 -86.5t-83 -32.5z" />
    <glyph glyph-name="Thorn" unicode="&#xde;" horiz-adv-x="1172" 
d="M267 -10q-51 0 -82.5 33t-31.5 90v1139q0 56 31.5 89.5t82.5 33.5q48 0 79.5 -31.5t33.5 -83.5v-140h283q205 0 327 -107.5t122 -303.5t-122.5 -303t-328.5 -107h-281v-192q-2 -52 -33.5 -84.5t-79.5 -32.5zM380 932v-449h216q53 0 92 5t77 19t62 38.5t38.5 66t14.5 97.5
q0 223 -252 223h-248z" />
    <glyph glyph-name="germandbls" unicode="&#xdf;" horiz-adv-x="1270" 
d="M529 733q0 38 22 60t78 39q108 32 159 85.5t51 135.5q0 96 -62.5 151.5t-170.5 55.5q-113 0 -172.5 -64.5t-59.5 -187.5v-895q0 -58 -29.5 -90.5t-82.5 -32.5t-81.5 32t-28.5 91v933q0 184 121.5 290t332.5 106q204 0 328 -98.5t124 -260.5q0 -118 -75 -213.5
t-174 -106.5v-14q164 -2 270.5 -104.5t106.5 -259.5q0 -176 -133 -288.5t-342 -112.5q-91 0 -143 25q-51 25 -51 76q0 66 68 75q0 3 40.5 2t57.5 -1q127 1 201.5 65t74.5 170q0 107 -74.5 162.5t-243.5 74.5q-112 11 -112 100z" />
    <glyph glyph-name="agrave" unicode="&#xe0;" horiz-adv-x="1076" 
d="M463 1212l-121 140q-19 24 -19 55q0 34 24.5 58t57.5 24q44 0 70 -39l96 -151q15 -21 15 -42q0 -29 -20.5 -50t-48.5 -21q-31 0 -54 26zM724 137q-43 -73 -120 -112.5t-175 -39.5q-154 0 -249.5 89t-95.5 233q0 146 100.5 230t277.5 85h264v94q0 89 -53 135t-155 46
q-61 0 -108.5 -22t-94.5 -70q-37 -36 -91 -36q-37 0 -59 22.5t-22 58.5q0 98 131 169q99 54 258 54q200 0 308 -93t108 -265v-605q0 -57 -28 -88.5t-80 -31.5q-46 0 -73.5 26.5t-31.5 73.5v47h-11zM307 318q0 -73 52.5 -118.5t138.5 -45.5q97 0 162.5 58t65.5 144v114h-233
q-89 0 -137.5 -39.5t-48.5 -112.5z" />
    <glyph glyph-name="aacute" unicode="&#xe1;" horiz-adv-x="1076" 
d="M490 1257q0 18 15 42l96 151q26 39 70 39q33 0 57.5 -24t24.5 -58q0 -31 -19 -55l-121 -140q-23 -26 -54 -26q-28 0 -48.5 21t-20.5 50zM724 137q-43 -73 -120 -112.5t-175 -39.5q-154 0 -249.5 89t-95.5 233q0 146 100.5 230t277.5 85h264v94q0 89 -53 135t-155 46
q-61 0 -108.5 -22t-94.5 -70q-37 -36 -91 -36q-37 0 -59 22.5t-22 58.5q0 98 131 169q99 54 258 54q200 0 308 -93t108 -265v-605q0 -57 -28 -88.5t-80 -31.5q-46 0 -73.5 26.5t-31.5 73.5v47h-11zM307 318q0 -73 52.5 -118.5t138.5 -45.5q97 0 162.5 58t65.5 144v114h-233
q-89 0 -137.5 -39.5t-48.5 -112.5z" />
    <glyph glyph-name="acircumflex" unicode="&#xe2;" horiz-adv-x="1076" 
d="M355 1180q-29 0 -48.5 20t-19.5 48q0 29 25 55l137 156q21 23 40.5 33.5t49.5 10.5t50 -10.5t41 -33.5l137 -156q25 -27 25 -56q0 -27 -19.5 -47t-48.5 -20q-37 0 -64 38l-117 163h-7l-119 -163q-29 -38 -62 -38zM724 137q-43 -73 -120 -112.5t-175 -39.5
q-154 0 -249.5 89t-95.5 233q0 146 100.5 230t277.5 85h264v94q0 89 -53 135t-155 46q-61 0 -108.5 -22t-94.5 -70q-37 -36 -91 -36q-37 0 -59 22.5t-22 58.5q0 98 131 169q99 54 258 54q200 0 308 -93t108 -265v-605q0 -57 -28 -88.5t-80 -31.5q-46 0 -73.5 26.5
t-31.5 73.5v47h-11zM307 318q0 -73 52.5 -118.5t138.5 -45.5q97 0 162.5 58t65.5 144v114h-233q-89 0 -137.5 -39.5t-48.5 -112.5z" />
    <glyph glyph-name="atilde" unicode="&#xe3;" horiz-adv-x="1076" 
d="M213 1260q0 68 44 117q52 63 145 63q46 0 81.5 -16.5t72.5 -54.5q36 -37 54 -49t41 -12q30 0 45.5 17t23.5 58q13 52 58 52q30 0 47 -19.5t17 -55.5q0 -72 -48 -122q-54 -59 -142 -59q-42 0 -74.5 16t-75.5 57q-42 40 -58.5 50.5t-40.5 10.5q-29 0 -44 -17t-26 -58
q-9 -27 -22 -39.5t-37 -12.5q-61 0 -61 74zM724 137q-43 -73 -120 -112.5t-175 -39.5q-154 0 -249.5 89t-95.5 233q0 146 100.5 230t277.5 85h264v94q0 89 -53 135t-155 46q-61 0 -108.5 -22t-94.5 -70q-37 -36 -91 -36q-37 0 -59 22.5t-22 58.5q0 98 131 169q99 54 258 54
q200 0 308 -93t108 -265v-605q0 -57 -28 -88.5t-80 -31.5q-46 0 -73.5 26.5t-31.5 73.5v47h-11zM307 318q0 -73 52.5 -118.5t138.5 -45.5q97 0 162.5 58t65.5 144v114h-233q-89 0 -137.5 -39.5t-48.5 -112.5z" />
    <glyph glyph-name="adieresis" unicode="&#xe4;" horiz-adv-x="1076" 
d="M252 1301q0 47 29 77t74 30t75 -30t30 -77q0 -45 -30 -74.5t-75 -29.5q-44 0 -73.5 29.5t-29.5 74.5zM618 1301q0 47 29 77t73 30q47 0 77 -30t30 -77q0 -45 -30.5 -74.5t-76.5 -29.5q-44 0 -73 29.5t-29 74.5zM724 137q-43 -73 -120 -112.5t-175 -39.5q-154 0 -249.5 89
t-95.5 233q0 146 100.5 230t277.5 85h264v94q0 89 -53 135t-155 46q-61 0 -108.5 -22t-94.5 -70q-37 -36 -91 -36q-37 0 -59 22.5t-22 58.5q0 98 131 169q99 54 258 54q200 0 308 -93t108 -265v-605q0 -57 -28 -88.5t-80 -31.5q-46 0 -73.5 26.5t-31.5 73.5v47h-11zM307 318
q0 -73 52.5 -118.5t138.5 -45.5q97 0 162.5 58t65.5 144v114h-233q-89 0 -137.5 -39.5t-48.5 -112.5z" />
    <glyph glyph-name="aring" unicode="&#xe5;" horiz-adv-x="1076" 
d="M540 1182q-86 0 -145 56.5t-59 141.5t59 141t145 56t144.5 -56t58.5 -141t-59 -141.5t-144 -56.5zM442 1379q0 -41 28 -69.5t69 -28.5q42 0 69.5 28t27.5 70t-27.5 70.5t-69.5 28.5q-41 0 -69 -28.5t-28 -70.5zM724 137q-43 -73 -120 -112.5t-175 -39.5q-154 0 -249.5 89
t-95.5 233q0 146 100.5 230t277.5 85h264v94q0 89 -53 135t-155 46q-61 0 -108.5 -22t-94.5 -70q-37 -36 -91 -36q-37 0 -59 22.5t-22 58.5q0 98 131 169q99 54 258 54q200 0 308 -93t108 -265v-605q0 -57 -28 -88.5t-80 -31.5q-46 0 -73.5 26.5t-31.5 73.5v47h-11zM307 318
q0 -73 52.5 -118.5t138.5 -45.5q97 0 162.5 58t65.5 144v114h-233q-89 0 -137.5 -39.5t-48.5 -112.5z" />
    <glyph glyph-name="ae" unicode="&#xe6;" horiz-adv-x="1735" 
d="M1212 -18q-141 0 -241 51.5t-153 149.5h-14q-50 -95 -145.5 -146.5t-222.5 -51.5q-159 0 -255.5 88.5t-96.5 233.5q0 148 98.5 230.5t274.5 82.5h268v99q0 175 -200 175q-64 0 -109.5 -20t-91.5 -68q-34 -40 -52.5 -51.5t-47.5 -11.5q-40 0 -63.5 23.5t-23.5 64.5
t27 83.5t74 76.5q109 82 292 82q221 0 328 -133h14q115 129 326 129q201 0 321.5 -126t120.5 -336q0 -73 -27 -104.5t-89 -31.5h-571v-50q0 -121 74 -190.5t204 -69.5q119 0 200 69q42 33 62 43.5t42 10.5q33 0 55 -23t22 -58q0 -66 -66 -118q-54 -48 -142 -75.5t-192 -27.5
zM953 615h470v15q0 122 -62 193.5t-167 71.5q-107 0 -174 -73.5t-67 -191.5v-15zM307 319q0 -74 52.5 -119.5t138.5 -45.5q97 0 162 58t65 144v115h-232q-88 0 -137 -40t-49 -112z" />
    <glyph glyph-name="ccedilla" unicode="&#xe7;" horiz-adv-x="1059" 
d="M535 -470q-59 0 -96 14q-52 18 -52 61q0 25 15.5 38.5t40.5 13.5q10 0 36.5 -5t45.5 -5q41 0 71 17.5t30 56.5q0 25 -16 39.5t-34.5 17.5t-47.5 4q-98 4 -98 70q0 20 43 134q-178 24 -276 146t-98 317v164q0 211 121.5 337.5t337.5 126.5q159 0 272 -70q53 -34 88 -80.5
t35 -94.5q0 -42 -24.5 -69t-66.5 -27q-23 0 -43 10.5t-28.5 19t-26.5 28.5q-75 96 -198 96q-117 0 -178 -78.5t-61 -210.5v-140q0 -135 60 -215t181 -80q125 0 202 98q1 1 7.5 8t8.5 9l8.5 8.5t10 8.5t10 7t11.5 7t12 4.5t14 3.5t15 1q39 0 64 -24.5t25 -69.5
q0 -50 -35.5 -97.5t-95.5 -83.5q-93 -55 -214 -65l-37 -96q93 6 150 -38.5t57 -126.5q0 -92 -69.5 -141t-176.5 -49z" />
    <glyph glyph-name="egrave" unicode="&#xe8;" horiz-adv-x="1099" 
d="M475 1212l-121 140q-19 24 -19 55q0 34 24 58t58 24q44 0 70 -39l96 -151q15 -24 15 -42q0 -29 -20.5 -50t-49.5 -21q-30 0 -53 26zM98 452v150q0 211 127.5 343t332.5 132q195 0 320.5 -126.5t125.5 -321.5q0 -88 -25 -120.5t-91 -32.5h-564v-50q0 -123 72 -195t197 -72
q121 0 199 70q41 35 59.5 45t43.5 10q36 0 58.5 -24t22.5 -62q0 -62 -65 -114q-51 -49 -139 -76.5t-192 -27.5q-224 0 -353 126t-129 346zM324 631h465v3q0 121 -62 193t-166 72q-107 0 -172 -73t-65 -192v-3z" />
    <glyph glyph-name="eacute" unicode="&#xe9;" horiz-adv-x="1099" 
d="M502 1257q0 21 15 42l96 151q26 39 69 39q34 0 58 -24t24 -58q0 -31 -19 -55l-121 -140q-21 -26 -53 -26q-28 0 -48.5 21t-20.5 50zM98 452v150q0 211 127.5 343t332.5 132q195 0 320.5 -126.5t125.5 -321.5q0 -88 -25 -120.5t-91 -32.5h-564v-50q0 -123 72 -195t197 -72
q121 0 199 70q41 35 59.5 45t43.5 10q36 0 58.5 -24t22.5 -62q0 -62 -65 -114q-51 -49 -139 -76.5t-192 -27.5q-224 0 -353 126t-129 346zM324 631h465v3q0 121 -62 193t-166 72q-107 0 -172 -73t-65 -192v-3z" />
    <glyph glyph-name="ecircumflex" unicode="&#xea;" horiz-adv-x="1099" 
d="M367 1180q-29 0 -48.5 20t-19.5 48q0 29 25 55l137 156q21 23 40.5 33.5t49.5 10.5q50 0 91 -44l137 -156q25 -28 25 -56q0 -27 -20 -47t-49 -20q-35 0 -64 38l-116 163h-7l-120 -163q-27 -38 -61 -38zM98 452v150q0 211 127.5 343t332.5 132q195 0 320.5 -126.5
t125.5 -321.5q0 -88 -25 -120.5t-91 -32.5h-564v-50q0 -123 72 -195t197 -72q121 0 199 70q41 35 59.5 45t43.5 10q36 0 58.5 -24t22.5 -62q0 -62 -65 -114q-51 -49 -139 -76.5t-192 -27.5q-224 0 -353 126t-129 346zM324 631h465v3q0 121 -62 193t-166 72q-107 0 -172 -73
t-65 -192v-3z" />
    <glyph glyph-name="edieresis" unicode="&#xeb;" horiz-adv-x="1099" 
d="M264 1301q0 47 29 77t74 30t75 -30t30 -77q0 -45 -30 -74.5t-75 -29.5q-44 0 -73.5 29.5t-29.5 74.5zM630 1301q0 47 29 77t73 30q47 0 77 -30t30 -77q0 -45 -30.5 -74.5t-76.5 -29.5q-44 0 -73 29.5t-29 74.5zM98 452v150q0 211 127.5 343t332.5 132q195 0 320.5 -126.5
t125.5 -321.5q0 -88 -25 -120.5t-91 -32.5h-564v-50q0 -123 72 -195t197 -72q121 0 199 70q41 35 59.5 45t43.5 10q36 0 58.5 -24t22.5 -62q0 -62 -65 -114q-51 -49 -139 -76.5t-192 -27.5q-224 0 -353 126t-129 346zM324 631h465v3q0 121 -62 193t-166 72q-107 0 -172 -73
t-65 -192v-3z" />
    <glyph glyph-name="igrave" unicode="&#xec;" horiz-adv-x="524" 
d="M182 1212l-121 140q-19 24 -19 55q0 34 24 58t58 24q44 0 70 -39l96 -151q15 -24 15 -42q0 -29 -20.5 -50t-48.5 -21q-31 0 -54 26zM151 113v831q0 60 29.5 91.5t81.5 31.5q51 0 80.5 -31.5t29.5 -91.5v-831q0 -60 -29.5 -91.5t-81.5 -31.5q-51 0 -80.5 32t-29.5 91z" />
    <glyph glyph-name="iacute" unicode="&#xed;" horiz-adv-x="524" 
d="M209 1257q0 21 15 42l96 151q26 39 70 39q33 0 57.5 -24t24.5 -58q0 -32 -20 -55l-120 -140q-23 -26 -54 -26q-28 0 -48.5 21t-20.5 50zM151 113v831q0 60 29.5 91.5t81.5 31.5q51 0 80.5 -31.5t29.5 -91.5v-831q0 -60 -29.5 -91.5t-81.5 -31.5q-51 0 -80.5 32t-29.5 91z
" />
    <glyph glyph-name="icircumflex" unicode="&#xee;" horiz-adv-x="524" 
d="M74 1180q-29 0 -48.5 20t-19.5 48q0 29 25 55l137 156q21 23 40.5 33.5t49.5 10.5q50 0 91 -44l137 -156q25 -28 25 -56q0 -27 -19.5 -47t-48.5 -20q-36 0 -65 38l-116 163h-7l-120 -163q-27 -38 -61 -38zM151 113v831q0 60 29.5 91.5t81.5 31.5q51 0 80.5 -31.5
t29.5 -91.5v-831q0 -60 -29.5 -91.5t-81.5 -31.5q-51 0 -80.5 32t-29.5 91z" />
    <glyph glyph-name="idieresis" unicode="&#xef;" horiz-adv-x="524" 
d="M-29 1301q0 47 29 77t74 30t75 -30t30 -77q0 -45 -30 -74.5t-75 -29.5q-44 0 -73.5 29.5t-29.5 74.5zM337 1301q0 47 29 77t73 30q47 0 77 -30t30 -77q0 -45 -30.5 -74.5t-76.5 -29.5q-44 0 -73 29.5t-29 74.5zM151 113v831q0 60 29.5 91.5t81.5 31.5q51 0 80.5 -31.5
t29.5 -91.5v-831q0 -60 -29.5 -91.5t-81.5 -31.5q-51 0 -80.5 32t-29.5 91z" />
    <glyph glyph-name="eth" unicode="&#xf0;" horiz-adv-x="1122" 
d="M419 1132q-11 -4 -21 -4q-25 0 -42.5 17.5t-17.5 41.5q0 38 43 56l185 69q-55 55 -109 98q-26 26 -23 62q5 32 29.5 54t57.5 22q27 0 55 -15q83 -45 185 -147l212 79q13 5 24 5q25 0 41 -17.5t16 -42.5q0 -37 -42 -55l-161 -61q90 -112 138.5 -257t48.5 -298v-273
q0 -222 -127 -353t-343 -131q-217 0 -343.5 129t-126.5 350v83q0 214 120 345t317 131q168 0 254 -108h11q-3 66 -47 161q-40 82 -96 145zM569 843q-114 0 -182.5 -83.5t-68.5 -221.5v-69q0 -142 67 -223t184 -81q116 0 182.5 81t66.5 223v79q0 140 -65.5 217.5t-183.5 77.5
z" />
    <glyph glyph-name="ntilde" unicode="&#xf1;" horiz-adv-x="1172" 
d="M262 1260q0 68 44 117q52 63 145 63q47 0 82 -16.5t72 -54.5q36 -37 54 -49t42 -12q30 0 45.5 17t23.5 58q12 52 58 52q30 0 46.5 -19.5t16.5 -55.5q0 -72 -48 -122q-54 -59 -142 -59q-43 0 -75 16t-75 57q-42 40 -58.5 50.5t-39.5 10.5q-29 0 -44.5 -17.5t-26.5 -57.5
q-15 -52 -58 -52q-62 0 -62 74zM1043 112q0 -58 -29 -90t-82 -32t-82.5 32.5t-29.5 90.5v539q0 112 -53.5 171.5t-154.5 59.5q-115 0 -182.5 -78.5t-67.5 -215.5v-476q0 -58 -29 -90.5t-82 -32.5t-82 32t-29 91v833q0 56 29.5 88t80.5 32q50 0 78.5 -29.5t29.5 -84.5v-85h11
q32 97 116 151.5t202 54.5q170 0 263 -94t93 -265v-602z" />
    <glyph glyph-name="ograve" unicode="&#xf2;" horiz-adv-x="1137" 
d="M494 1212l-121 140q-19 24 -19 55q0 34 24 58t58 24q43 0 69 -39l96 -151q15 -21 15 -42q0 -29 -20.5 -50t-48.5 -21q-32 0 -53 26zM569 1077q210 0 341 -127.5t131 -348.5v-142q0 -224 -130.5 -351.5t-341.5 -127.5q-212 0 -342.5 127.5t-130.5 351.5v141
q0 222 131 349.5t342 127.5zM569 897q-113 0 -179.5 -83t-66.5 -224v-123q0 -143 66 -225.5t180 -82.5t179 82.5t65 225.5v123q0 142 -65 224.5t-179 82.5z" />
    <glyph glyph-name="oacute" unicode="&#xf3;" horiz-adv-x="1137" 
d="M520 1257q0 20 16 42l95 151q27 39 70 39q34 0 58 -24t24 -58q0 -31 -19 -55l-121 -140q-21 -26 -53 -26q-29 0 -49.5 21t-20.5 50zM569 1077q210 0 341 -127.5t131 -348.5v-142q0 -224 -130.5 -351.5t-341.5 -127.5q-212 0 -342.5 127.5t-130.5 351.5v141
q0 222 131 349.5t342 127.5zM569 897q-113 0 -179.5 -83t-66.5 -224v-123q0 -143 66 -225.5t180 -82.5t179 82.5t65 225.5v123q0 142 -65 224.5t-179 82.5z" />
    <glyph glyph-name="ocircumflex" unicode="&#xf4;" horiz-adv-x="1137" 
d="M386 1180q-29 0 -48.5 20t-19.5 48q0 30 25 55l137 156q21 23 40.5 33.5t49.5 10.5q49 0 91 -44l136 -156q25 -27 25 -56q0 -27 -19.5 -47t-48.5 -20q-37 0 -64 38l-117 163h-7l-119 -163q-27 -38 -61 -38zM569 1077q210 0 341 -127.5t131 -348.5v-142
q0 -224 -130.5 -351.5t-341.5 -127.5q-212 0 -342.5 127.5t-130.5 351.5v141q0 222 131 349.5t342 127.5zM569 897q-113 0 -179.5 -83t-66.5 -224v-123q0 -143 66 -225.5t180 -82.5t179 82.5t65 225.5v123q0 142 -65 224.5t-179 82.5z" />
    <glyph glyph-name="otilde" unicode="&#xf5;" horiz-adv-x="1137" 
d="M243 1260q0 68 44 117q52 63 145 63q47 0 82 -16.5t72 -54.5q36 -37 54 -49t42 -12q30 0 45.5 17t23.5 58q12 52 58 52q30 0 46.5 -19.5t16.5 -55.5q0 -72 -48 -122q-54 -59 -142 -59q-42 0 -74.5 16t-75.5 57q-42 40 -58.5 50.5t-39.5 10.5q-29 0 -44.5 -17.5
t-26.5 -57.5q-15 -52 -58 -52q-62 0 -62 74zM569 1077q210 0 341 -127.5t131 -348.5v-142q0 -224 -130.5 -351.5t-341.5 -127.5q-212 0 -342.5 127.5t-130.5 351.5v141q0 222 131 349.5t342 127.5zM569 897q-113 0 -179.5 -83t-66.5 -224v-123q0 -143 66 -225.5t180 -82.5
t179 82.5t65 225.5v123q0 142 -65 224.5t-179 82.5z" />
    <glyph glyph-name="odieresis" unicode="&#xf6;" horiz-adv-x="1137" 
d="M282 1301q0 47 29.5 77t73.5 30q46 0 76 -30t30 -77q0 -45 -30 -74.5t-76 -29.5q-44 0 -73.5 29.5t-29.5 74.5zM648 1301q0 47 29.5 77t73.5 30q47 0 77 -30t30 -77q0 -45 -30.5 -74.5t-76.5 -29.5q-44 0 -73.5 29.5t-29.5 74.5zM569 1077q210 0 341 -127.5t131 -348.5
v-142q0 -224 -130.5 -351.5t-341.5 -127.5q-212 0 -342.5 127.5t-130.5 351.5v141q0 222 131 349.5t342 127.5zM569 897q-113 0 -179.5 -83t-66.5 -224v-123q0 -143 66 -225.5t180 -82.5t179 82.5t65 225.5v123q0 142 -65 224.5t-179 82.5z" />
    <glyph glyph-name="divide" unicode="&#xf7;" 
d="M438 961q0 62 41 102.5t102 40.5q63 0 105 -40.5t42 -102.5q0 -61 -42 -100.5t-105 -39.5q-60 0 -101.5 39.5t-41.5 100.5zM87 561q0 39 25 61.5t72 22.5h804q47 0 72 -22.5t25 -61.5t-25 -62t-72 -23h-804q-47 0 -72 23t-25 62zM439 166q0 63 41.5 103.5t102.5 40.5
q63 0 105 -40.5t42 -103.5q0 -61 -42 -100.5t-105 -39.5q-61 0 -102.5 39.5t-41.5 100.5z" />
    <glyph glyph-name="oslash" unicode="&#xf8;" horiz-adv-x="1137" 
d="M126 60l67 90q-97 127 -97 309v141q0 217 131.5 347t341.5 130q155 0 277 -81l53 68q25 33 59 33q23 0 42.5 -19t19.5 -43q0 -26 -18 -50l-61 -79q100 -125 100 -305v-142q0 -224 -130.5 -351.5t-341.5 -127.5q-161 0 -280 81l-60 -79q-27 -33 -59 -33q-25 0 -44 18.5
t-19 42.5q0 25 19 50zM315 442q0 -70 27 -124l388 526q-64 59 -161 59q-117 0 -185.5 -88.5t-68.5 -225.5v-147zM406 215q63 -58 163 -58q120 0 185.5 87t65.5 226v145q0 68 -27 122z" />
    <glyph glyph-name="ugrave" unicode="&#xf9;" horiz-adv-x="1168" 
d="M504 1212l-121 140q-19 24 -19 55q0 34 24 58t58 24q43 0 69 -39l96 -151q15 -21 15 -42q0 -29 -20.5 -50t-48.5 -21q-32 0 -53 26zM797 176q-28 -80 -108 -135.5t-212 -55.5q-160 0 -254.5 85.5t-94.5 261.5v615q0 60 29.5 90t81.5 30t81.5 -30t29.5 -90v-558
q0 -113 56.5 -164.5t148.5 -51.5q111 0 180.5 65.5t69.5 164.5v544q0 60 30 90t82 30q51 0 81 -30t30 -90v-839q0 -57 -30 -87.5t-80 -30.5q-49 0 -78.5 28.5t-30.5 83.5v74h-12z" />
    <glyph glyph-name="uacute" unicode="&#xfa;" horiz-adv-x="1168" 
d="M530 1257q0 18 15 42l96 151q27 39 70 39q34 0 58 -24t24 -58q0 -31 -19 -55l-121 -140q-21 -26 -53 -26q-29 0 -49.5 21t-20.5 50zM797 176q-28 -80 -108 -135.5t-212 -55.5q-160 0 -254.5 85.5t-94.5 261.5v615q0 60 29.5 90t81.5 30t81.5 -30t29.5 -90v-558
q0 -113 56.5 -164.5t148.5 -51.5q111 0 180.5 65.5t69.5 164.5v544q0 60 30 90t82 30q51 0 81 -30t30 -90v-839q0 -57 -30 -87.5t-80 -30.5q-49 0 -78.5 28.5t-30.5 83.5v74h-12z" />
    <glyph glyph-name="ucircumflex" unicode="&#xfb;" horiz-adv-x="1168" 
d="M396 1180q-29 0 -48.5 20t-19.5 48q0 30 24 55l138 156q21 23 40.5 33.5t49.5 10.5q49 0 91 -44l136 -156q25 -27 25 -56q0 -27 -19.5 -47t-48.5 -20q-37 0 -64 38l-117 163h-7l-119 -163q-29 -38 -61 -38zM797 176q-28 -80 -108 -135.5t-212 -55.5q-160 0 -254.5 85.5
t-94.5 261.5v615q0 60 29.5 90t81.5 30t81.5 -30t29.5 -90v-558q0 -113 56.5 -164.5t148.5 -51.5q111 0 180.5 65.5t69.5 164.5v544q0 60 30 90t82 30q51 0 81 -30t30 -90v-839q0 -57 -30 -87.5t-80 -30.5q-49 0 -78.5 28.5t-30.5 83.5v74h-12z" />
    <glyph glyph-name="udieresis" unicode="&#xfc;" horiz-adv-x="1168" 
d="M292 1301q0 47 29.5 77t73.5 30q46 0 76 -30t30 -77q0 -45 -30 -74.5t-76 -29.5q-44 0 -73.5 29.5t-29.5 74.5zM658 1301q0 47 29.5 77t73.5 30q47 0 77 -30t30 -77q0 -45 -30.5 -74.5t-76.5 -29.5q-44 0 -73.5 29.5t-29.5 74.5zM797 176q-28 -80 -108 -135.5t-212 -55.5
q-160 0 -254.5 85.5t-94.5 261.5v615q0 60 29.5 90t81.5 30t81.5 -30t29.5 -90v-558q0 -113 56.5 -164.5t148.5 -51.5q111 0 180.5 65.5t69.5 164.5v544q0 60 30 90t82 30q51 0 81 -30t30 -90v-839q0 -57 -30 -87.5t-80 -30.5q-49 0 -78.5 28.5t-30.5 83.5v74h-12z" />
    <glyph glyph-name="yacute" unicode="&#xfd;" horiz-adv-x="1004" 
d="M457 1257q0 18 15 42l96 151q26 39 70 39q34 0 58 -24t24 -58q0 -31 -19 -55l-121 -140q-23 -26 -53 -26q-29 0 -49.5 21t-20.5 50zM71 -279q0 35 24 56t64 21q8 0 28.5 -2t34.5 -2q48 0 87 36t57 97q2 2 8.5 28.5t6.5 30.5l-324 903q-13 39 -13 67q0 45 31.5 75t79.5 30
q86 0 116 -108l230 -756h9l232 756q30 108 114 108q46 0 76.5 -29.5t30.5 -74.5q0 -25 -15 -68l-335 -948q-60 -170 -150.5 -245t-234.5 -75q-92 0 -132 40q-25 25 -25 60z" />
    <glyph glyph-name="thorn" unicode="&#xfe;" horiz-adv-x="1181" 
d="M143 -249v1570q0 59 29 91t82 32t82 -32.5t29 -90.5v-432h11q32 86 113.5 134t193.5 48q185 0 291.5 -123.5t106.5 -337.5v-163q0 -215 -107.5 -338.5t-295.5 -123.5q-109 0 -187.5 45.5t-114.5 128.5h-11v-408q0 -58 -29 -90t-82 -32t-82 31.5t-29 90.5zM615 168
q115 0 178 81t63 228v102q0 149 -63.5 230t-181.5 81q-114 0 -180 -77.5t-66 -211.5v-161q0 -122 69 -197t181 -75z" />
    <glyph glyph-name="ydieresis" unicode="&#xff;" horiz-adv-x="1004" 
d="M219 1301q0 47 29.5 77t73.5 30q46 0 76 -30t30 -77q0 -45 -30 -74.5t-76 -29.5q-44 0 -73.5 29.5t-29.5 74.5zM585 1301q0 47 29.5 77t72.5 30q47 0 77.5 -30t30.5 -77q0 -45 -30.5 -74.5t-77.5 -29.5q-43 0 -72.5 29.5t-29.5 74.5zM71 -279q0 35 24 56t64 21
q8 0 28.5 -2t34.5 -2q48 0 87 36t57 97q2 2 8.5 28.5t6.5 30.5l-324 903q-13 39 -13 67q0 45 31.5 75t79.5 30q86 0 116 -108l230 -756h9l232 756q30 108 114 108q46 0 76.5 -29.5t30.5 -74.5q0 -25 -15 -68l-335 -948q-60 -170 -150.5 -245t-234.5 -75q-92 0 -132 40
q-25 25 -25 60z" />
    <glyph glyph-name="Amacron" unicode="&#x100;" horiz-adv-x="1233" 
d="M333 1576q0 28 20.5 45t57.5 17h408q37 0 57.5 -17t20.5 -44q0 -28 -21 -46t-57 -18h-408q-36 0 -57 18t-21 45zM155 -12q-48 0 -77 26t-29 69q0 32 19 88l375 1061q27 76 67.5 110t107.5 34q68 0 108 -34t66 -110l375 -1061q17 -51 17 -85q0 -45 -29.5 -71.5
t-78.5 -26.5q-46 0 -74.5 25.5t-45.5 82.5l-94 282h-494l-94 -282q-18 -58 -45.5 -83t-73.5 -25zM422 552h386l-187 577h-11z" />
    <glyph glyph-name="amacron" unicode="&#x101;" horiz-adv-x="1076" 
d="M253 1303q0 29 21 47t58 18h415q37 0 58 -18t21 -47t-21 -48t-58 -19h-415q-37 0 -58 19t-21 48zM724 137q-43 -73 -120 -112.5t-175 -39.5q-154 0 -249.5 89t-95.5 233q0 146 100.5 230t277.5 85h264v94q0 89 -53 135t-155 46q-61 0 -108.5 -22t-94.5 -70
q-37 -36 -91 -36q-37 0 -59 22.5t-22 58.5q0 98 131 169q99 54 258 54q200 0 308 -93t108 -265v-605q0 -57 -28 -88.5t-80 -31.5q-46 0 -73.5 26.5t-31.5 73.5v47h-11zM307 318q0 -73 52.5 -118.5t138.5 -45.5q97 0 162.5 58t65.5 144v114h-233q-89 0 -137.5 -39.5
t-48.5 -112.5z" />
    <glyph glyph-name="Abreve" unicode="&#x102;" horiz-adv-x="1233" 
d="M908 1715q0 -34 -23 -76t-58 -76q-81 -78 -212 -78q-124 0 -207 73q-38 34 -62.5 77t-24.5 81q0 28 18.5 47t47.5 19q47 0 68 -48q12 -26 21.5 -42t28.5 -38t46.5 -33.5t63.5 -11.5q35 0 63 11.5t46 32.5t28.5 38t20.5 40q20 51 66 51q30 0 49.5 -18.5t19.5 -48.5z
M155 -12q-48 0 -77 26t-29 69q0 32 19 88l375 1061q27 76 67.5 110t107.5 34q68 0 108 -34t66 -110l375 -1061q17 -51 17 -85q0 -45 -29.5 -71.5t-78.5 -26.5q-46 0 -74.5 25.5t-45.5 82.5l-94 282h-494l-94 -282q-18 -58 -45.5 -83t-73.5 -25zM422 552h386l-187 577h-11z
" />
    <glyph glyph-name="abreve" unicode="&#x103;" horiz-adv-x="1076" 
d="M244 1414q0 32 19 51t48 19q43 0 67 -48q60 -128 161 -128t158 123q23 53 66 53q30 0 49.5 -19.5t19.5 -51.5q0 -34 -22.5 -76t-56.5 -75q-84 -79 -214 -79q-126 0 -209 74q-37 33 -61.5 76.5t-24.5 80.5zM724 137q-43 -73 -120 -112.5t-175 -39.5q-154 0 -249.5 89
t-95.5 233q0 146 100.5 230t277.5 85h264v94q0 89 -53 135t-155 46q-61 0 -108.5 -22t-94.5 -70q-37 -36 -91 -36q-37 0 -59 22.5t-22 58.5q0 98 131 169q99 54 258 54q200 0 308 -93t108 -265v-605q0 -57 -28 -88.5t-80 -31.5q-46 0 -73.5 26.5t-31.5 73.5v47h-11zM307 318
q0 -73 52.5 -118.5t138.5 -45.5q97 0 162.5 58t65.5 144v114h-233q-89 0 -137.5 -39.5t-48.5 -112.5z" />
    <glyph glyph-name="Aogonek" unicode="&#x104;" horiz-adv-x="1233" 
d="M1069 -390q-106 0 -168.5 54t-62.5 145q0 131 145 234q-9 7 -62 157t-60 178h-493l-94 -282q-17 -57 -45.5 -82.5t-75.5 -25.5t-75.5 26t-28.5 69q0 32 19 88l375 1061q27 76 67.5 110t107.5 34t107.5 -34t66.5 -110l375 -1061q16 -50 16 -76q0 -57 -65 -102
q-62 -46 -86 -77t-24 -68q0 -43 28 -68t75 -26q40 0 54 -2q46 -7 46 -55q0 -38 -40 -62.5t-102 -24.5zM422 552h386l-188 577h-10z" />
    <glyph glyph-name="aogonek" unicode="&#x105;" horiz-adv-x="1076" 
d="M950 -367q-34 -23 -103 -23q-97 0 -159.5 58.5t-62.5 147.5q0 64 27 114t95 109q-3 3 -5.5 25t-4.5 48l-2 25h-11q-43 -73 -120 -112.5t-175 -39.5q-154 0 -249.5 89t-95.5 233q0 146 100.5 229.5t277.5 83.5h263v96q0 89 -53 135t-154 46q-58 0 -103 -20.5t-100 -71.5
q-40 -36 -91 -36q-36 0 -58.5 22t-22.5 59q0 97 131 169q100 54 258 54q200 0 308 -93t108 -265v-606q0 -47 -12 -70t-47 -44q-50 -32 -72.5 -64.5t-22.5 -75.5t28 -68t77 -26q44 -1 65 -18q21 -15 21 -49q0 -41 -35 -61zM307 318q0 -73 52.5 -118.5t138.5 -45.5
q97 0 162 58t65 144v115h-232q-88 0 -137 -40t-49 -113z" />
    <glyph glyph-name="Cacute" unicode="&#x106;" horiz-adv-x="1265" 
d="M598 1576q0 17 15 43l96 150q27 39 70 39q34 0 58 -24t24 -58q0 -31 -19 -55l-121 -140q-21 -26 -53 -26q-29 0 -49.5 21t-20.5 50zM102 587v195q0 288 145 449t408 161q258 0 406 -150q50 -50 79.5 -108t29.5 -104q0 -44 -26.5 -70t-69.5 -26q-34 0 -58 15.5t-51 54.5
q-60 98 -131.5 144t-167.5 46q-162 0 -250 -109.5t-88 -309.5v-182q0 -205 87.5 -314.5t250.5 -109.5q195 0 303 186q27 39 50 55t54 16q45 0 71 -26t26 -70q0 -51 -33 -112t-89 -111q-147 -136 -393 -136q-264 0 -408.5 161t-144.5 455z" />
    <glyph glyph-name="cacute" unicode="&#x107;" horiz-adv-x="1059" 
d="M507 1257q0 21 15 42l96 151q26 39 69 39q34 0 58 -24t24 -58q0 -31 -19 -55l-121 -140q-21 -26 -53 -26q-28 0 -48.5 21t-20.5 50zM99 449v164q0 211 121.5 337.5t337.5 126.5q159 0 272 -70q53 -34 88 -80.5t35 -94.5q0 -42 -24.5 -69t-66.5 -27q-23 0 -43 10.5
t-28.5 19t-26.5 28.5q-75 96 -198 96q-117 0 -178 -78.5t-61 -210.5v-140q0 -135 60 -215t181 -80q125 0 202 98q1 1 7.5 8t8.5 9l8.5 8.5t10 8.5t10 7t11.5 7t12 4.5t14 3.5t15 1q39 0 64 -24.5t25 -69.5q0 -50 -35.5 -97.5t-95.5 -83.5q-110 -66 -266 -66
q-216 0 -338 125.5t-122 343.5z" />
    <glyph glyph-name="Ccircumflex" unicode="&#x108;" horiz-adv-x="1265" 
d="M650 1694h-5l-121 -161q-28 -30 -59 -30q-27 0 -45 18t-18 44q0 29 26 54l129 147q41 41 91 41q51 0 90 -41l130 -149q26 -22 26 -52q0 -26 -18 -44t-46 -18q-30 0 -58 33zM102 587v195q0 288 145 449t408 161q258 0 406 -150q50 -50 79.5 -108t29.5 -104
q0 -44 -26.5 -70t-69.5 -26q-34 0 -58 15.5t-51 54.5q-60 98 -131.5 144t-167.5 46q-162 0 -250 -109.5t-88 -309.5v-182q0 -205 87.5 -314.5t250.5 -109.5q195 0 303 186q27 39 50 55t54 16q45 0 71 -26t26 -70q0 -51 -33 -112t-89 -111q-147 -136 -393 -136
q-264 0 -408.5 161t-144.5 455z" />
    <glyph glyph-name="ccircumflex" unicode="&#x109;" horiz-adv-x="1059" 
d="M372 1180q-29 0 -48.5 20t-19.5 48q0 30 25 55l137 156q21 23 40.5 33.5t49.5 10.5q50 0 91 -44l136 -156q25 -27 25 -56q0 -27 -19.5 -47t-48.5 -20q-35 0 -64 38l-116 163h-7l-120 -163q-27 -38 -61 -38zM99 449v164q0 211 121.5 337.5t337.5 126.5q159 0 272 -70
q53 -34 88 -80.5t35 -94.5q0 -42 -24.5 -69t-66.5 -27q-23 0 -43 10.5t-28.5 19t-26.5 28.5q-75 96 -198 96q-117 0 -178 -78.5t-61 -210.5v-140q0 -135 60 -215t181 -80q125 0 202 98q1 1 7.5 8t8.5 9l8.5 8.5t10 8.5t10 7t11.5 7t12 4.5t14 3.5t15 1q39 0 64 -24.5
t25 -69.5q0 -50 -35.5 -97.5t-95.5 -83.5q-110 -66 -266 -66q-216 0 -338 125.5t-122 343.5z" />
    <glyph glyph-name="Cdotaccent" unicode="&#x10a;" horiz-adv-x="1265" 
d="M533 1636q0 48 33.5 80.5t81.5 32.5t81 -32.5t33 -80.5t-33 -80t-81 -32q-49 0 -82 32t-33 80zM102 587v195q0 288 145 449t408 161q258 0 406 -150q50 -50 79.5 -108t29.5 -104q0 -44 -26.5 -70t-69.5 -26q-34 0 -58 15.5t-51 54.5q-60 98 -131.5 144t-167.5 46
q-162 0 -250 -109.5t-88 -309.5v-182q0 -205 87.5 -314.5t250.5 -109.5q195 0 303 186q27 39 50 55t54 16q45 0 71 -26t26 -70q0 -51 -33 -112t-89 -111q-147 -136 -393 -136q-264 0 -408.5 161t-144.5 455z" />
    <glyph glyph-name="cdotaccent" unicode="&#x10b;" horiz-adv-x="1059" 
d="M438 1310q0 50 34 84t84 34q49 0 83.5 -34t34.5 -84q0 -49 -34 -83t-84 -34t-84 33.5t-34 83.5zM99 449v164q0 211 121.5 337.5t337.5 126.5q159 0 272 -70q53 -34 88 -80.5t35 -94.5q0 -42 -24.5 -69t-66.5 -27q-23 0 -43 10.5t-28.5 19t-26.5 28.5q-75 96 -198 96
q-117 0 -178 -78.5t-61 -210.5v-140q0 -135 60 -215t181 -80q125 0 202 98q1 1 7.5 8t8.5 9l8.5 8.5t10 8.5t10 7t11.5 7t12 4.5t14 3.5t15 1q39 0 64 -24.5t25 -69.5q0 -50 -35.5 -97.5t-95.5 -83.5q-110 -66 -266 -66q-216 0 -338 125.5t-122 343.5z" />
    <glyph glyph-name="Ccaron" unicode="&#x10c;" horiz-adv-x="1265" 
d="M403 1747q0 26 17.5 44t45.5 18q31 0 59 -30l121 -161h4l122 158q30 33 59 33q27 0 45.5 -18t18.5 -44q0 -29 -26 -52l-130 -149q-39 -41 -90 -41q-50 0 -91 41l-129 147q-26 23 -26 54zM102 587v195q0 288 145 449t408 161q258 0 406 -150q50 -50 79.5 -108t29.5 -104
q0 -44 -26.5 -70t-69.5 -26q-34 0 -58 15.5t-51 54.5q-60 98 -131.5 144t-167.5 46q-162 0 -250 -109.5t-88 -309.5v-182q0 -205 87.5 -314.5t250.5 -109.5q195 0 303 186q27 39 50 55t54 16q45 0 71 -26t26 -70q0 -51 -33 -112t-89 -111q-147 -136 -393 -136
q-264 0 -408.5 161t-144.5 455z" />
    <glyph glyph-name="ccaron" unicode="&#x10d;" horiz-adv-x="1059" 
d="M465 1234l-135 155q-25 26 -25 57q0 28 19 48t48 20q34 0 61 -36l120 -166h7l117 164q29 38 64 38q29 0 48.5 -20t19.5 -48q0 -30 -25 -55l-136 -156q-41 -44 -91 -44q-49 0 -92 43zM99 449v164q0 211 121.5 337.5t337.5 126.5q159 0 272 -70q53 -34 88 -80.5t35 -94.5
q0 -42 -24.5 -69t-66.5 -27q-23 0 -43 10.5t-28.5 19t-26.5 28.5q-75 96 -198 96q-117 0 -178 -78.5t-61 -210.5v-140q0 -135 60 -215t181 -80q125 0 202 98q1 1 7.5 8t8.5 9l8.5 8.5t10 8.5t10 7t11.5 7t12 4.5t14 3.5t15 1q39 0 64 -24.5t25 -69.5q0 -50 -35.5 -97.5
t-95.5 -83.5q-110 -66 -266 -66q-216 0 -338 125.5t-122 343.5z" />
    <glyph glyph-name="Dcaron" unicode="&#x10e;" horiz-adv-x="1311" 
d="M357 1747q0 26 17.5 44t45.5 18q32 0 58 -30l122 -161h4l122 158q28 33 59 33q27 0 45 -18t18 -44q0 -30 -25 -52l-130 -149q-41 -41 -90 -41q-51 0 -92 41l-128 147q-26 23 -26 54zM154 162v1041q0 84 41 123t130 39h299q298 0 452 -173.5t154 -509.5
q0 -335 -154 -508.5t-452 -173.5h-299q-89 0 -130 39t-41 123zM380 192h222q201 0 298.5 121t97.5 369q0 249 -98 370.5t-298 121.5h-222v-982z" />
    <glyph glyph-name="dcaron" unicode="&#x10f;" horiz-adv-x="1404" 
d="M813 168q-24 -81 -111 -132t-202 -51q-184 0 -292 122.5t-108 329.5v184q0 207 109.5 329.5t294.5 122.5q110 0 191 -46t112 -127h11v421q0 59 29 91t82 32t82 -32t29 -91v-1208q0 -59 -28 -91t-80 -32q-49 0 -77 29.5t-31 83.5v65h-11zM1208 1039l25 315q4 42 30.5 65.5
t62.5 23.5q47 0 71.5 -34t17.5 -74l-50 -324q-6 -35 -27.5 -53.5t-52.5 -18.5q-37 0 -59 28t-18 72zM327 470q0 -143 64 -223t179 -80q114 0 181 77.5t67 210.5v163q0 120 -70.5 196t-182.5 76t-175 -80t-63 -222v-118z" />
    <glyph glyph-name="Dcroat" unicode="&#x110;" horiz-adv-x="1395" 
d="M235 164v431h-69q-54 0 -85.5 27t-31.5 73t32 73.5t85 27.5h69v405q0 83 43 123.5t131 40.5h297q299 0 452.5 -172.5t153.5 -508.5t-154 -510t-452 -174h-297q-88 0 -131 40.5t-43 123.5zM462 191h222q201 0 298.5 121t97.5 369q0 493 -396 493h-222v-378h204
q54 0 86 -27.5t32 -73.5t-32 -73t-86 -27h-204v-404z" />
    <glyph glyph-name="dcroat" unicode="&#x111;" horiz-adv-x="1189" 
d="M100 438v184q0 207 109.5 329.5t294.5 122.5q110 0 191 -46.5t112 -126.5h11v258h-163q-42 0 -65.5 20.5t-23.5 54.5q0 33 23.5 53t65.5 20h166v73q5 48 33 74t75 26t75.5 -26.5t32.5 -73.5v-73h48q43 0 66 -20t23 -53q0 -34 -23 -54.5t-66 -20.5h-45v-1046
q0 -59 -28 -91t-80 -32q-49 0 -77 29.5t-31 83.5v66h-11q-24 -81 -111 -132t-202 -51q-184 0 -292 122t-108 330zM325 470q0 -142 65 -222.5t180 -80.5q114 0 181 78t67 211v163q0 120 -70.5 196t-182.5 76q-113 0 -176.5 -80t-63.5 -222v-119z" />
    <glyph glyph-name="Emacron" unicode="&#x112;" horiz-adv-x="1114" 
d="M291 1576q0 28 20.5 45t57.5 17h408q36 0 56.5 -17t20.5 -44q0 -28 -20.5 -46t-56.5 -18h-408q-36 0 -57 18t-21 45zM153 162v1041q0 83 42 122.5t130 39.5h593q47 0 75 -26.5t28 -69.5t-28 -69t-75 -26h-539v-389h508q44 0 71 -25t27 -67t-27 -66.5t-71 -24.5h-508v-411
h537q48 0 76.5 -26t28.5 -70q0 -43 -28.5 -69t-76.5 -26h-591q-89 0 -130.5 39t-41.5 123z" />
    <glyph glyph-name="emacron" unicode="&#x113;" horiz-adv-x="1099" 
d="M264 1303q0 29 21 47t59 18h415q37 0 58 -18t21 -47t-21 -48t-58 -19h-415q-38 0 -59 18.5t-21 48.5zM98 452v150q0 211 127.5 343t332.5 132q195 0 320.5 -126.5t125.5 -321.5q0 -88 -25 -120.5t-91 -32.5h-564v-50q0 -123 72 -195t197 -72q121 0 199 70q41 35 59.5 45
t43.5 10q36 0 58.5 -24t22.5 -62q0 -62 -65 -114q-51 -49 -139 -76.5t-192 -27.5q-224 0 -353 126t-129 346zM324 631h465v3q0 121 -62 193t-166 72q-107 0 -172 -73t-65 -192v-3z" />
    <glyph glyph-name="Ebreve" unicode="&#x114;" horiz-adv-x="1114" 
d="M865 1715q0 -34 -22.5 -76t-57.5 -76q-81 -78 -213 -78q-123 0 -206 73q-38 34 -62.5 77t-24.5 81q0 28 18.5 47t47.5 19q46 0 68 -48q11 -25 21 -42t28.5 -38.5t46.5 -33t63 -11.5t63 11.5t46.5 32.5t28.5 38t20 40q22 51 67 51q29 0 48.5 -18.5t19.5 -48.5zM153 162
v1041q0 83 42 122.5t130 39.5h593q47 0 75 -26.5t28 -69.5t-28 -69t-75 -26h-539v-389h508q44 0 71 -25t27 -67t-27 -66.5t-71 -24.5h-508v-411h537q48 0 76.5 -26t28.5 -70q0 -43 -28.5 -69t-76.5 -26h-591q-89 0 -130.5 39t-41.5 123z" />
    <glyph glyph-name="ebreve" unicode="&#x115;" horiz-adv-x="1099" 
d="M256 1414q0 32 18.5 51t47.5 19q44 0 68 -48q60 -128 160 -128q103 0 158 123q25 53 67 53q30 0 49.5 -19.5t19.5 -51.5q0 -34 -22.5 -76t-56.5 -75q-84 -79 -214 -79q-126 0 -209 74q-37 33 -61.5 76.5t-24.5 80.5zM98 452v150q0 211 127.5 343t332.5 132
q195 0 320.5 -126.5t125.5 -321.5q0 -88 -25 -120.5t-91 -32.5h-564v-50q0 -123 72 -195t197 -72q121 0 199 70q41 35 59.5 45t43.5 10q36 0 58.5 -24t22.5 -62q0 -62 -65 -114q-51 -49 -139 -76.5t-192 -27.5q-224 0 -353 126t-129 346zM324 631h465v3q0 121 -62 193
t-166 72q-107 0 -172 -73t-65 -192v-3z" />
    <glyph glyph-name="Edotaccent" unicode="&#x116;" horiz-adv-x="1114" 
d="M458 1636q0 48 33.5 80.5t81.5 32.5t81 -32.5t33 -80.5t-33 -80t-81 -32q-49 0 -82 32t-33 80zM153 162v1041q0 83 42 122.5t130 39.5h593q47 0 75 -26.5t28 -69.5t-28 -69t-75 -26h-539v-389h508q44 0 71 -25t27 -67t-27 -66.5t-71 -24.5h-508v-411h537q48 0 76.5 -26
t28.5 -70q0 -43 -28.5 -69t-76.5 -26h-591q-89 0 -130.5 39t-41.5 123z" />
    <glyph glyph-name="edotaccent" unicode="&#x117;" horiz-adv-x="1099" 
d="M433 1310q0 50 34 84t84 34q49 0 83.5 -34t34.5 -84q0 -49 -34 -83t-84 -34t-84 34t-34 83zM98 452v150q0 211 127.5 343t332.5 132q195 0 320.5 -126.5t125.5 -321.5q0 -88 -25 -120.5t-91 -32.5h-564v-50q0 -123 72 -195t197 -72q121 0 199 70q41 35 59.5 45t43.5 10
q36 0 58.5 -24t22.5 -62q0 -62 -65 -114q-51 -49 -139 -76.5t-192 -27.5q-224 0 -353 126t-129 346zM324 631h465v3q0 121 -62 193t-166 72q-107 0 -172 -73t-65 -192v-3z" />
    <glyph glyph-name="Eogonek" unicode="&#x118;" horiz-adv-x="1115" 
d="M152 162v1041q0 83 42 122.5t130 39.5h594q47 0 75 -26.5t28 -69.5t-28 -69.5t-75 -26.5h-539v-388h508q44 0 71 -25t27 -67t-26.5 -66.5t-71.5 -24.5h-508v-410h537q48 0 76.5 -26t28.5 -69q0 -31 -17 -52.5t-57 -43.5q-81 -42 -112 -75t-31 -75q0 -43 32 -68.5
t87 -26.5q42 -2 53 -5q23 -3 35.5 -18t12.5 -38q0 -43 -46 -64q-39 -21 -108 -21q-104 0 -168.5 51t-64.5 139q0 55 32.5 107t86.5 84v9h-432q-89 0 -130.5 39t-41.5 123z" />
    <glyph glyph-name="eogonek" unicode="&#x119;" horiz-adv-x="1099" 
d="M613 -194q0 82 74 175l-1 9q-47 -10 -106 -10q-224 0 -353 126t-129 346v150q0 211 127.5 343t332.5 132q195 0 320.5 -126t125.5 -322q0 -88 -25 -120.5t-91 -32.5h-564v-50q0 -123 72.5 -195t196.5 -72q122 0 199 70q43 35 62 45t41 10q36 0 58.5 -24t22.5 -62
q0 -55 -59 -112q-77 -87 -107 -138t-30 -95q0 -41 28 -64.5t79 -24.5q45 -1 65 -16.5t20 -49.5q0 -46 -48 -68q-35 -16 -91 -16q-100 0 -160 52t-60 140zM324 631h465v3q0 121 -62 193t-166 72q-107 0 -172 -73t-65 -192v-3z" />
    <glyph glyph-name="Ecaron" unicode="&#x11a;" horiz-adv-x="1114" 
d="M328 1747q0 26 18 44t45 18q31 0 59 -30l121 -161h4l122 158q30 33 59 33q28 0 46 -18t18 -44q0 -29 -26 -52l-130 -149q-39 -41 -90 -41q-50 0 -91 41l-129 147q-26 23 -26 54zM153 162v1041q0 83 42 122.5t130 39.5h593q47 0 75 -26.5t28 -69.5t-28 -69t-75 -26h-539
v-389h508q44 0 71 -25t27 -67t-27 -66.5t-71 -24.5h-508v-411h537q48 0 76.5 -26t28.5 -70q0 -43 -28.5 -69t-76.5 -26h-591q-89 0 -130.5 39t-41.5 123z" />
    <glyph glyph-name="ecaron" unicode="&#x11b;" horiz-adv-x="1099" 
d="M461 1234l-135 155q-26 27 -26 57q0 28 19 48t48 20q34 0 62 -36l119 -166h7l117 164q29 38 64 38q29 0 49 -20t20 -48t-25 -55l-137 -156q-41 -44 -90 -44q-51 0 -92 43zM98 452v150q0 211 127.5 343t332.5 132q195 0 320.5 -126.5t125.5 -321.5q0 -88 -25 -120.5
t-91 -32.5h-564v-50q0 -123 72 -195t197 -72q121 0 199 70q41 35 59.5 45t43.5 10q36 0 58.5 -24t22.5 -62q0 -62 -65 -114q-51 -49 -139 -76.5t-192 -27.5q-224 0 -353 126t-129 346zM324 631h465v3q0 121 -62 193t-166 72q-107 0 -172 -73t-65 -192v-3z" />
    <glyph glyph-name="Gcircumflex" unicode="&#x11c;" horiz-adv-x="1290" 
d="M661 1694h-4l-122 -161q-26 -30 -58 -30q-28 0 -45.5 18t-17.5 44q0 31 26 54l128 147q41 41 92 41q49 0 90 -41l130 -149q25 -22 25 -52q0 -26 -18 -44t-45 -18q-31 0 -59 33zM100 579v208q0 283 147 444t408 161q243 0 388 -137q57 -52 91.5 -112.5t34.5 -109.5
q0 -44 -26 -70.5t-69 -26.5q-28 0 -49 13t-42 45q-63 100 -138 150t-177 50q-164 0 -252.5 -107t-88.5 -307v-200q0 -197 91.5 -306t256.5 -109q135 0 217 74t82 195v107h-223q-50 0 -77.5 23.5t-27.5 66.5t27.5 66.5t77.5 23.5h292q77 0 113 -35.5t36 -111.5v-130
q0 -207 -147.5 -340t-376.5 -133q-267 0 -417.5 161t-150.5 447z" />
    <glyph glyph-name="gcircumflex" unicode="&#x11d;" horiz-adv-x="1184" 
d="M407 1180q-29 0 -48.5 20t-19.5 48q0 29 25 55l137 156q21 23 40.5 33.5t49.5 10.5q50 0 91 -44l137 -156q25 -28 25 -56q0 -27 -20 -47t-49 -20q-35 0 -64 38l-116 163h-7l-120 -163q-27 -38 -61 -38zM806 181q-32 -73 -111.5 -119.5t-187.5 -46.5q-178 0 -292.5 123
t-114.5 333v145q0 210 114 333.5t291 123.5q114 0 195.5 -51t111.5 -125h11v59q1 55 29.5 83.5t76.5 28.5q51 0 80 -31.5t29 -91.5v-915q0 -210 -127 -318.5t-347 -108.5q-191 0 -309 70q-52 30 -83 71.5t-31 85.5q0 40 25 64.5t67 24.5q10 0 20 -2.5l16 -4t17 -9t13.5 -9.5
t16 -13.5t15.5 -12.5q102 -81 228 -81q124 0 191 64.5t67 185.5v144h-11zM327 491q0 -135 69.5 -217.5t182.5 -82.5q111 0 174.5 79t63.5 195v146q0 118 -65 198.5t-178 80.5t-180 -82.5t-67 -219.5v-97z" />
    <glyph glyph-name="Gbreve" unicode="&#x11e;" horiz-adv-x="1290" 
d="M952 1715q0 -34 -23 -76t-58 -76q-81 -78 -212 -78q-124 0 -207 73q-38 34 -62.5 77t-24.5 81q0 28 18.5 47t47.5 19q47 0 68 -48q12 -26 21.5 -42t28.5 -38t46.5 -33.5t63.5 -11.5q35 0 63 11.5t46 32.5t28.5 38t20.5 40q20 51 66 51q30 0 49.5 -18.5t19.5 -48.5z
M100 579v208q0 283 147 444t408 161q243 0 388 -137q57 -52 91.5 -112.5t34.5 -109.5q0 -44 -26 -70.5t-69 -26.5q-28 0 -49 13t-42 45q-63 100 -138 150t-177 50q-164 0 -252.5 -107t-88.5 -307v-200q0 -197 91.5 -306t256.5 -109q135 0 217 74t82 195v107h-223
q-50 0 -77.5 23.5t-27.5 66.5t27.5 66.5t77.5 23.5h292q77 0 113 -35.5t36 -111.5v-130q0 -207 -147.5 -340t-376.5 -133q-267 0 -417.5 161t-150.5 447z" />
    <glyph glyph-name="gbreve" unicode="&#x11f;" horiz-adv-x="1184" 
d="M296 1414q0 32 18.5 51t47.5 19q44 0 68 -48q60 -128 160 -128q103 0 158 123q25 53 67 53q30 0 49.5 -19.5t19.5 -51.5q0 -34 -22.5 -76t-56.5 -75q-84 -79 -214 -79q-126 0 -209 74q-37 33 -61.5 76.5t-24.5 80.5zM806 181q-32 -73 -111.5 -119.5t-187.5 -46.5
q-178 0 -292.5 123t-114.5 333v145q0 210 114 333.5t291 123.5q114 0 195.5 -51t111.5 -125h11v59q1 55 29.5 83.5t76.5 28.5q51 0 80 -31.5t29 -91.5v-915q0 -210 -127 -318.5t-347 -108.5q-191 0 -309 70q-52 30 -83 71.5t-31 85.5q0 40 25 64.5t67 24.5q10 0 20 -2.5
l16 -4t17 -9t13.5 -9.5t16 -13.5t15.5 -12.5q102 -81 228 -81q124 0 191 64.5t67 185.5v144h-11zM327 491q0 -135 69.5 -217.5t182.5 -82.5q111 0 174.5 79t63.5 195v146q0 118 -65 198.5t-178 80.5t-180 -82.5t-67 -219.5v-97z" />
    <glyph glyph-name="Gdotaccent" unicode="&#x120;" horiz-adv-x="1290" 
d="M545 1636q0 48 33 80.5t81 32.5t81.5 -32.5t33.5 -80.5t-33.5 -80t-81.5 -32q-49 0 -81.5 31.5t-32.5 80.5zM100 579v208q0 283 147 444t408 161q243 0 388 -137q57 -52 91.5 -112.5t34.5 -109.5q0 -44 -26 -70.5t-69 -26.5q-28 0 -49 13t-42 45q-63 100 -138 150
t-177 50q-164 0 -252.5 -107t-88.5 -307v-200q0 -197 91.5 -306t256.5 -109q135 0 217 74t82 195v107h-223q-50 0 -77.5 23.5t-27.5 66.5t27.5 66.5t77.5 23.5h292q77 0 113 -35.5t36 -111.5v-130q0 -207 -147.5 -340t-376.5 -133q-267 0 -417.5 161t-150.5 447z" />
    <glyph glyph-name="gdotaccent" unicode="&#x121;" horiz-adv-x="1184" 
d="M473 1310q0 50 34 84t84 34q49 0 83.5 -34t34.5 -84q0 -49 -34 -83t-84 -34t-84 34t-34 83zM806 181q-32 -73 -111.5 -119.5t-187.5 -46.5q-178 0 -292.5 123t-114.5 333v145q0 210 114 333.5t291 123.5q114 0 195.5 -51t111.5 -125h11v59q1 55 29.5 83.5t76.5 28.5
q51 0 80 -31.5t29 -91.5v-915q0 -210 -127 -318.5t-347 -108.5q-191 0 -309 70q-52 30 -83 71.5t-31 85.5q0 40 25 64.5t67 24.5q10 0 20 -2.5l16 -4t17 -9t13.5 -9.5t16 -13.5t15.5 -12.5q102 -81 228 -81q124 0 191 64.5t67 185.5v144h-11zM327 491q0 -135 69.5 -217.5
t182.5 -82.5q111 0 174.5 79t63.5 195v146q0 118 -65 198.5t-178 80.5t-180 -82.5t-67 -219.5v-97z" />
    <glyph glyph-name="Gcommaaccent" unicode="&#x122;" horiz-adv-x="1290" 
d="M100 579v208q0 283 147 444t408 161q243 0 388 -137q57 -52 91.5 -112.5t34.5 -109.5q0 -44 -26 -70.5t-69 -26.5q-28 0 -49 13t-42 45q-63 100 -138 150t-177 50q-164 0 -252.5 -107t-88.5 -307v-200q0 -197 91.5 -306t256.5 -109q135 0 217 74t82 195v107h-223
q-50 0 -77.5 23.5t-27.5 66.5t27.5 66.5t77.5 23.5h292q77 0 113 -35.5t36 -111.5v-130q0 -207 -147.5 -340t-376.5 -133q-267 0 -417.5 161t-150.5 447zM521 -400l55 233q7 32 31.5 50.5t57.5 18.5q49 0 73 -34t11 -72l-83 -233q-21 -52 -73 -52q-45 0 -62.5 26.5
t-9.5 62.5z" />
    <glyph glyph-name="gcommaaccent" unicode="&#x123;" horiz-adv-x="1182" 
d="M703 1516l-54 -232q-7 -31 -31.5 -50t-58.5 -19q-45 0 -71 33t-12 72l83 234q20 52 73 52q38 0 58.5 -27t12.5 -63zM806 181q-32 -73 -111.5 -119.5t-187.5 -46.5q-178 0 -292.5 123t-114.5 333v145q0 210 114 333.5t291 123.5q114 0 195.5 -51t111.5 -125h11v59
q1 55 29.5 83.5t76.5 28.5q51 0 80 -31.5t29 -91.5v-915q0 -210 -127 -318.5t-347 -108.5q-191 0 -309 70q-52 30 -83 71.5t-31 85.5q0 40 25 64.5t67 24.5q10 0 20 -2.5l16 -4t17 -9t13.5 -9.5t16 -13.5t15.5 -12.5q102 -81 228 -81q124 0 191 64.5t67 185.5v144h-11z
M327 491q0 -135 69.5 -217.5t182.5 -82.5q111 0 174.5 79t63.5 195v146q0 118 -65 198.5t-178 80.5t-180 -82.5t-67 -219.5v-97z" />
    <glyph glyph-name="Hcircumflex" unicode="&#x124;" horiz-adv-x="1386" 
d="M694 1694h-4l-122 -161q-26 -30 -58 -30q-28 0 -45.5 18t-17.5 44q0 31 26 54l128 147q41 41 92 41q49 0 90 -41l130 -149q25 -22 25 -52q0 -26 -18 -44t-45 -18q-31 0 -59 33zM1119 -10q-54 0 -84 32.5t-30 91.5v491h-625v-491q0 -58 -30 -91t-83 -33q-54 0 -84 32.5
t-30 91.5v1137q0 59 30 91.5t84 32.5q53 0 83 -33t30 -91v-454h625v454q0 59 30 91.5t84 32.5q53 0 83 -33t30 -91v-1137q0 -58 -30 -91t-83 -33z" />
    <glyph glyph-name="hcircumflex" unicode="&#x125;" horiz-adv-x="1176" 
d="M253 1766h-4l-121 -161q-28 -30 -59 -30q-27 0 -45 18t-18 44q0 29 26 54l129 147q41 41 91 41q51 0 90 -41l130 -149q26 -23 26 -52q0 -26 -18 -44t-46 -18q-30 0 -58 33zM1049 113q0 -58 -29 -90.5t-82 -32.5t-82 32t-29 91v537q0 112 -56 172.5t-158 60.5
q-114 0 -181.5 -79.5t-67.5 -214.5v-476q0 -58 -29 -90.5t-82 -32.5t-82 32t-29 91v1208q0 58 29 90.5t82 32.5t82 -32.5t29 -90.5v-454h11q27 91 116.5 148.5t204.5 57.5q166 0 259.5 -95.5t93.5 -264.5v-600z" />
    <glyph glyph-name="Hbar" unicode="&#x126;" horiz-adv-x="1386" 
d="M152 979h-27q-46 0 -71 22.5t-25 59.5q0 36 25 58.5t71 22.5h27v112q0 57 30 89t83 32t83.5 -32t30.5 -89v-112h625v112q0 57 30 89t83 32q42 0 68.5 -22t34.5 -61q4 -6 7.5 -65.5t3.5 -84.5h24q45 0 70 -22t25 -59t-25 -59.5t-70 -22.5h-24v-865q0 -58 -30.5 -91
t-83.5 -33t-83 33t-30 91v492h-625v-492q0 -58 -30.5 -91t-83.5 -33t-83 33t-30 91v865zM379 796h625v185h-625v-185z" />
    <glyph glyph-name="hbar" unicode="&#x127;" horiz-adv-x="1176" 
d="M142 113v1051h-47q-41 0 -62.5 19.5t-21.5 52.5q0 32 21.5 51.5t62.5 19.5h50v37q4 49 33 74.5t75 25.5q45 0 74.5 -25.5t33.5 -74.5v-37h171q41 0 62.5 -19.5t21.5 -51.5q0 -33 -21.5 -52.5t-62.5 -19.5h-168v-297h11q10 35 33 68.5t60.5 65.5t97 52t130.5 20
q161 0 257 -93.5t96 -266.5v-600q0 -60 -30 -91.5t-81 -31.5q-52 0 -81.5 31.5t-29.5 91.5v537q0 113 -56.5 174.5t-157.5 61.5q-118 0 -183.5 -83.5t-65.5 -213.5v-476q0 -60 -30 -91.5t-81 -31.5q-52 0 -81.5 31.5t-29.5 91.5z" />
    <glyph glyph-name="Itilde" unicode="&#x128;" horiz-adv-x="534" 
d="M-13 1549q0 63 47.5 108t117.5 45q83 0 142 -57q49 -48 81 -48q18 0 32.5 16t21.5 43q12 45 55 45q58 0 58 -69q0 -63 -47 -106.5t-116 -43.5q-78 0 -142 61q-52 47 -77 47q-38 0 -55 -57q-14 -47 -62 -47q-56 0 -56 63zM267 -10q-53 0 -83.5 33t-30.5 91v1137
q0 59 30 91.5t84 32.5q53 0 83 -33t30 -91v-1137q0 -58 -30 -91t-83 -33z" />
    <glyph glyph-name="itilde" unicode="&#x129;" horiz-adv-x="524" 
d="M-69 1260q0 66 44 117q54 63 146 63q46 0 81 -16.5t73 -54.5q36 -37 54 -49t41 -12q30 0 45.5 17t23.5 58q13 52 58 52q30 0 46.5 -19.5t16.5 -55.5q0 -74 -48 -122q-53 -59 -142 -59q-42 0 -74.5 16t-75.5 57q-41 39 -57.5 50t-40.5 11q-29 0 -44.5 -17.5t-26.5 -57.5
q-15 -52 -58 -52q-29 0 -45.5 19t-16.5 55zM151 113v831q0 60 29.5 91.5t81.5 31.5q51 0 80.5 -31.5t29.5 -91.5v-831q0 -60 -29.5 -91.5t-81.5 -31.5q-51 0 -80.5 32t-29.5 91z" />
    <glyph glyph-name="Imacron" unicode="&#x12a;" horiz-adv-x="534" 
d="M-15 1576q0 28 20.5 45t56.5 17h409q36 0 56.5 -17t20.5 -44q0 -28 -20.5 -46t-56.5 -18h-409q-36 0 -56.5 18t-20.5 45zM267 -10q-53 0 -83.5 33t-30.5 91v1137q0 59 30 91.5t84 32.5q53 0 83 -33t30 -91v-1137q0 -58 -30 -91t-83 -33z" />
    <glyph glyph-name="imacron" unicode="&#x12b;" horiz-adv-x="524" 
d="M-28 1303q0 29 21 47t58 18h415q37 0 58 -18t21 -47t-21 -48t-58 -19h-415q-37 0 -58 19t-21 48zM151 113v831q0 60 29.5 91.5t81.5 31.5q51 0 80.5 -31.5t29.5 -91.5v-831q0 -60 -29.5 -91.5t-81.5 -31.5q-51 0 -80.5 32t-29.5 91z" />
    <glyph glyph-name="Ibreve" unicode="&#x12c;" horiz-adv-x="534" 
d="M559 1715q0 -34 -23 -76t-58 -76q-80 -78 -212 -78q-125 0 -206 73q-38 34 -62.5 77t-24.5 81q0 28 18.5 47t47.5 19q46 0 68 -48q11 -25 21 -42t28.5 -38.5t46.5 -33t63 -11.5t63 11.5t46 32.5t28.5 38t20.5 40q22 51 67 51q29 0 48.5 -18.5t19.5 -48.5zM267 -10
q-53 0 -83.5 33t-30.5 91v1137q0 59 30 91.5t84 32.5q53 0 83 -33t30 -91v-1137q0 -58 -30 -91t-83 -33z" />
    <glyph glyph-name="ibreve" unicode="&#x12d;" horiz-adv-x="524" 
d="M-37 1414q0 32 19 51t47 19q44 0 68 -48q60 -128 161 -128q102 0 157 123q25 53 67 53q30 0 49.5 -19.5t19.5 -51.5q0 -34 -22.5 -76t-56.5 -75q-84 -79 -214 -79q-126 0 -209 74q-37 33 -61.5 76.5t-24.5 80.5zM151 113v831q0 60 29.5 91.5t81.5 31.5q51 0 80.5 -31.5
t29.5 -91.5v-831q0 -60 -29.5 -91.5t-81.5 -31.5q-51 0 -80.5 32t-29.5 91z" />
    <glyph glyph-name="Iogonek" unicode="&#x12e;" horiz-adv-x="534" 
d="M270 -390q-105 0 -168 55t-63 147q0 69 35.5 127t100.5 96q-22 17 -22 47v1169q0 59 30 91.5t84 32.5q53 0 83 -33t30 -91v-1137q0 -48 -12.5 -73t-48.5 -46q-58 -32 -84.5 -65t-26.5 -76q0 -46 29 -71t82 -27q87 -2 87 -60q0 -45 -46 -68q-34 -18 -90 -18z" />
    <glyph glyph-name="iogonek" unicode="&#x12f;" horiz-adv-x="524" 
d="M130 1315q0 53 37.5 89t93.5 36q58 0 95.5 -35t37.5 -90q0 -54 -37.5 -89.5t-95.5 -35.5q-56 0 -93.5 36t-37.5 89zM44 -184q0 66 27.5 115.5t97.5 110.5q-18 12 -18 44v857q0 58 29 90.5t82 32.5q52 0 81 -32t29 -91v-828q0 -49 -12.5 -75t-47.5 -46q-53 -31 -76 -64
t-23 -76q0 -44 27 -68t79 -25q38 -1 60 -14q26 -14 26 -52q0 -46 -50 -69q-38 -16 -88 -16q-97 0 -160 58.5t-63 147.5z" />
    <glyph glyph-name="Idotaccent" unicode="&#x130;" horiz-adv-x="534" 
d="M152 1636q0 48 33.5 80.5t81.5 32.5t81 -32.5t33 -80.5t-33 -80t-81 -32q-49 0 -82 32t-33 80zM267 -10q-53 0 -83.5 33t-30.5 91v1137q0 59 30 91.5t84 32.5q53 0 83 -33t30 -91v-1137q0 -58 -30 -91t-83 -33z" />
    <glyph glyph-name="dotlessi" unicode="&#x131;" horiz-adv-x="524" 
d="M151 113v831q0 60 29.5 91.5t81.5 31.5q51 0 80.5 -31.5t29.5 -91.5v-831q0 -60 -29.5 -91.5t-81.5 -31.5q-51 0 -80.5 32t-29.5 91z" />
    <glyph glyph-name="IJ" unicode="&#x132;" horiz-adv-x="1553" 
d="M267 -10q-53 0 -83.5 33t-30.5 91v1137q0 59 30 91.5t84 32.5q53 0 83 -33t30 -91v-1137q0 -58 -30 -91t-83 -33zM1175 1249q0 60 29.5 93t82.5 33q54 0 84.5 -33t30.5 -93v-832q0 -210 -114 -328t-315 -118q-215 0 -328 118q-73 76 -73 165q0 48 25.5 76t69.5 28
q31 0 52 -15.5t44 -51.5q70 -122 207 -122q99 0 152 62t53 181v837z" />
    <glyph glyph-name="ij" unicode="&#x133;" horiz-adv-x="1047" 
d="M130 1323q0 54 37.5 89t93.5 35q58 0 95.5 -35t37.5 -89q0 -55 -37.5 -90.5t-95.5 -35.5q-56 0 -93.5 36t-37.5 90zM654 1323q0 53 37.5 88.5t93.5 35.5q58 0 95.5 -35t37.5 -89q0 -55 -37.5 -90.5t-95.5 -35.5q-56 0 -93.5 36t-37.5 90zM373 113q0 -60 -29.5 -91.5
t-81.5 -31.5q-51 0 -81 31.5t-30 91.5v830q0 60 30 91.5t81 31.5t81 -31.5t30 -91.5v-830zM598 -369q-82 0 -120 29q-34 22 -34 65q0 35 22.5 55.5t61.5 20.5q6 0 23.5 -0.5t22.5 -0.5q54 0 77.5 40.5t23.5 136.5v966q0 58 29 90.5t82 32.5q52 0 81 -32t29 -91v-1002
q0 -149 -77.5 -229.5t-220.5 -80.5z" />
    <glyph glyph-name="Jcircumflex" unicode="&#x134;" horiz-adv-x="1019" 
d="M754 1694h-4l-121 -161q-28 -30 -59 -30q-28 0 -45.5 18t-17.5 44q0 31 26 54l129 147q39 41 91 41q51 0 90 -41l130 -149q26 -23 26 -52q0 -26 -18.5 -44t-45.5 -18q-29 0 -59 33zM641 1249q0 60 29.5 93t82.5 33q54 0 84.5 -33t30.5 -93v-832q0 -210 -114 -328
t-315 -118q-215 0 -328 118q-73 78 -73 165q0 48 26 76t69 28q31 0 52.5 -15.5t43.5 -51.5q70 -122 207 -122q99 0 152 62t53 181v837z" />
    <glyph glyph-name="jcircumflex" unicode="&#x135;" horiz-adv-x="524" 
d="M70 1180q-29 0 -48.5 20t-19.5 48q0 30 25 55l137 156q21 23 40.5 33.5t49.5 10.5q49 0 91 -44l136 -156q25 -27 25 -56q0 -27 -19.5 -47t-48.5 -20q-37 0 -64 38l-117 163h-7l-119 -163q-27 -38 -61 -38zM74 -369q-82 0 -120 29q-34 22 -34 65q0 35 22.5 55.5t61.5 20.5
q6 0 23.5 -0.5t22.5 -0.5q54 0 77.5 40.5t23.5 136.5v966q0 58 29 90.5t82 32.5q52 0 81 -32t29 -91v-1002q0 -149 -77.5 -229.5t-220.5 -80.5z" />
    <glyph glyph-name="Kcommaaccent" unicode="&#x136;" horiz-adv-x="1225" 
d="M1048 -5q-62 0 -121 80l-390 548l-157 -161v-348q0 -59 -29.5 -91.5t-82.5 -32.5q-54 0 -84.5 33t-30.5 91v1137q0 59 30 91.5t84 32.5q53 0 83 -33t30 -91v-512h12l533 571q53 60 102 60q43 0 71.5 -29t28.5 -71q0 -23 -10.5 -42.5t-41.5 -52.5l-369 -402l399 -550
q34 -46 45 -69.5t11 -49.5q0 -48 -31.5 -78.5t-81.5 -30.5zM474 -400l54 233q7 32 32 50.5t58 18.5q49 0 72.5 -33.5t11.5 -72.5l-84 -233q-19 -52 -73 -52q-44 0 -61.5 26.5t-9.5 62.5z" />
    <glyph glyph-name="kcommaaccent" unicode="&#x137;" horiz-adv-x="1030" 
d="M366 113q0 -59 -29 -91t-81 -32q-53 0 -82.5 32.5t-29.5 90.5v1208q0 59 29 91t82 32t82 -32.5t29 -90.5v-701h11l393 400q51 52 99 52q41 0 67 -26t26 -67q0 -44 -41 -86l-287 -291l323 -414q39 -48 39 -91q0 -41 -30 -71.5t-72 -30.5q-54 0 -100 59l-325 418l-103 -98
v-261zM412 -400l55 233q7 32 31.5 50.5t57.5 18.5q49 0 73 -34t11 -72l-83 -233q-21 -52 -73 -52q-45 0 -62.5 26.5t-9.5 62.5z" />
    <glyph glyph-name="Lacute" unicode="&#x139;" horiz-adv-x="1005" 
d="M216 1576q0 19 16 43l95 150q27 39 70 39q34 0 58 -24t24 -58q0 -31 -19 -55l-121 -140q-21 -26 -53 -26q-29 0 -49.5 21t-20.5 50zM995 98q0 -44 -29.5 -71t-76.5 -27h-564q-89 0 -130.5 39t-41.5 123v1089q0 59 30 91.5t84 32.5q53 0 83 -33t30 -91v-1054h509
q47 0 76.5 -27.5t29.5 -71.5z" />
    <glyph glyph-name="lacute" unicode="&#x13a;" horiz-adv-x="518" 
d="M209 1648q0 17 15 43l96 150q26 39 70 39q33 0 57.5 -24t24.5 -58q0 -31 -19 -55l-121 -140q-23 -26 -54 -26q-28 0 -48.5 21t-20.5 50zM258 -10q-51 0 -80.5 31.5t-29.5 91.5v1208q0 60 29.5 91.5t80.5 31.5q52 0 82 -31.5t30 -91.5v-1208q0 -60 -30 -91.5t-82 -31.5z
" />
    <glyph glyph-name="Lcommaaccent" unicode="&#x13b;" horiz-adv-x="1005" 
d="M995 98q0 -44 -29.5 -71t-76.5 -27h-564q-89 0 -130.5 39t-41.5 123v1089q0 59 30 91.5t84 32.5q53 0 83 -33t30 -91v-1054h509q47 0 76.5 -27.5t29.5 -71.5zM372 -400l54 233q7 32 32 50.5t58 18.5q49 0 73 -34t11 -72l-84 -233q-19 -52 -72 -52q-45 0 -62.5 26.5
t-9.5 62.5z" />
    <glyph glyph-name="lcommaaccent" unicode="&#x13c;" horiz-adv-x="518" 
d="M258 -10q-51 0 -80.5 31.5t-29.5 91.5v1208q0 60 29.5 91.5t80.5 31.5q52 0 82 -31.5t30 -91.5v-1208q0 -60 -30 -91.5t-82 -31.5zM121 -400l54 233q7 32 31.5 50.5t57.5 18.5q49 0 73 -34t11 -72l-83 -233q-21 -52 -73 -52q-45 0 -62 26.5t-9 62.5z" />
    <glyph glyph-name="Lcaron" unicode="&#x13d;" horiz-adv-x="1005" 
d="M658 939q-37 0 -59 28t-18 72l25 315q3 42 29.5 65.5t62.5 23.5q48 0 72.5 -34t17.5 -74l-50 -324q-6 -35 -27.5 -53.5t-52.5 -18.5zM995 98q0 -44 -29.5 -71t-76.5 -27h-564q-89 0 -130.5 39t-41.5 123v1089q0 59 30 91.5t84 32.5q53 0 83 -33t30 -91v-1054h509
q47 0 76.5 -27.5t29.5 -71.5z" />
    <glyph glyph-name="lcaron" unicode="&#x13e;" horiz-adv-x="730" 
d="M258 -10q-51 0 -80.5 31.5t-29.5 91.5v1208q0 60 29.5 91.5t80.5 31.5q52 0 82 -31.5t30 -91.5v-1208q0 -60 -30 -91.5t-82 -31.5zM518 1039l25 315q4 42 30.5 65.5t62.5 23.5q47 0 71.5 -34t17.5 -74l-50 -324q-6 -35 -27.5 -53.5t-52.5 -18.5q-37 0 -59 28t-18 72z" />
    <glyph glyph-name="Lslash" unicode="&#x141;" horiz-adv-x="1017" 
d="M333 0q-89 0 -130 39t-41 123v368l-37 -22q-25 -8 -48 -3q-29 5 -48.5 28.5t-19.5 53.5q0 52 46 78l107 62v524q0 59 29.5 91.5t83.5 32.5q53 0 83.5 -33t30.5 -91v-394l245 143q19 11 42 11q36 0 62 -26.5t26 -61.5q0 -23 -11.5 -44t-27.5 -30l-336 -195v-457h508
q48 0 77.5 -27.5t29.5 -71.5t-29.5 -71t-77.5 -27h-564z" />
    <glyph glyph-name="lslash" unicode="&#x142;" horiz-adv-x="648" 
d="M211 113v480q-2 0 -23 -13l-20 -14q-43 -19 -73 -10q-23 5 -37.5 24t-14.5 47q0 49 53 84l115 80v530q0 59 29 91t82 32t82 -32.5t29 -90.5v-388q1 0 24.5 15.5t25.5 15.5q34 14 67 5q23 -5 38 -24t15 -44q0 -55 -64 -97l-106 -73v-618q0 -58 -29 -90.5t-82 -32.5t-82 32
t-29 91z" />
    <glyph glyph-name="Nacute" unicode="&#x143;" horiz-adv-x="1372" 
d="M636 1576q0 20 15 43l96 150q26 39 69 39q34 0 58 -24t24 -58q0 -31 -19 -55l-120 -140q-23 -26 -54 -26q-28 0 -48.5 21t-20.5 50zM371 111q0 -57 -28 -89t-79 -32t-79.5 32.5t-28.5 88.5v1123q0 141 121 141q42 0 72.5 -26t70.5 -86l570 -878h11v869q0 57 27.5 89
t78.5 32t79.5 -32.5t28.5 -88.5v-1127q0 -137 -115 -137q-44 0 -74 22t-70 83l-575 888h-10v-872z" />
    <glyph glyph-name="nacute" unicode="&#x144;" horiz-adv-x="1172" 
d="M539 1257q0 20 16 42l95 151q27 39 70 39q34 0 58 -24t24 -58q0 -31 -19 -55l-121 -140q-21 -26 -53 -26q-29 0 -49.5 21t-20.5 50zM1043 112q0 -58 -29 -90t-82 -32t-82.5 32.5t-29.5 90.5v539q0 112 -53.5 171.5t-154.5 59.5q-115 0 -182.5 -78.5t-67.5 -215.5v-476
q0 -58 -29 -90.5t-82 -32.5t-82 32t-29 91v833q0 56 29.5 88t80.5 32q50 0 78.5 -29.5t29.5 -84.5v-85h11q32 97 116 151.5t202 54.5q170 0 263 -94t93 -265v-602z" />
    <glyph glyph-name="Ncommaaccent" unicode="&#x145;" horiz-adv-x="1372" 
d="M371 111q0 -57 -28 -89t-79 -32t-79.5 32.5t-28.5 88.5v1123q0 141 121 141q42 0 72.5 -26t70.5 -86l570 -878h11v869q0 57 27.5 89t78.5 32t79.5 -32.5t28.5 -88.5v-1127q0 -137 -115 -137q-44 0 -74 22t-70 83l-575 888h-10v-872zM547 -400l55 233q7 32 31.5 50.5
t57.5 18.5q49 0 73 -34t11 -72l-83 -233q-21 -52 -73 -52q-45 0 -62.5 26.5t-9.5 62.5z" />
    <glyph glyph-name="ncommaaccent" unicode="&#x146;" horiz-adv-x="1172" 
d="M1043 112q0 -58 -29 -90t-82 -32t-82.5 32.5t-29.5 90.5v539q0 112 -53.5 171.5t-154.5 59.5q-115 0 -182.5 -78.5t-67.5 -215.5v-476q0 -58 -29 -90.5t-82 -32.5t-82 32t-29 91v833q0 56 29.5 88t80.5 32q50 0 78.5 -29.5t29.5 -84.5v-85h11q32 97 116 151.5t202 54.5
q170 0 263 -94t93 -265v-602zM451 -400l54 233q7 32 32 50.5t58 18.5q49 0 73 -34t11 -72l-84 -233q-19 -52 -72 -52q-45 0 -62.5 26.5t-9.5 62.5z" />
    <glyph glyph-name="Ncaron" unicode="&#x147;" horiz-adv-x="1372" 
d="M440 1747q0 26 18 44t45 18q31 0 59 -30l121 -161h5l122 158q28 33 58 33q28 0 46 -18t18 -44q0 -30 -25 -52l-130 -149q-41 -41 -90 -41q-51 0 -92 41l-128 147q-27 24 -27 54zM371 111q0 -57 -28 -89t-79 -32t-79.5 32.5t-28.5 88.5v1123q0 141 121 141q42 0 72.5 -26
t70.5 -86l570 -878h11v869q0 57 27.5 89t78.5 32t79.5 -32.5t28.5 -88.5v-1127q0 -137 -115 -137q-44 0 -74 22t-70 83l-575 888h-10v-872z" />
    <glyph glyph-name="ncaron" unicode="&#x148;" horiz-adv-x="1172" 
d="M498 1234l-135 155q-25 26 -25 57q0 28 19 48t48 20q34 0 61 -36l120 -166h7l117 164q27 38 64 38q29 0 48.5 -20t19.5 -48q0 -30 -25 -55l-136 -156q-42 -44 -91 -44q-51 0 -92 43zM1043 112q0 -58 -29 -90t-82 -32t-82.5 32.5t-29.5 90.5v539q0 112 -53.5 171.5
t-154.5 59.5q-115 0 -182.5 -78.5t-67.5 -215.5v-476q0 -58 -29 -90.5t-82 -32.5t-82 32t-29 91v833q0 56 29.5 88t80.5 32q50 0 78.5 -29.5t29.5 -84.5v-85h11q32 97 116 151.5t202 54.5q170 0 263 -94t93 -265v-602z" />
    <glyph glyph-name="Omacron" unicode="&#x14c;" horiz-adv-x="1334" 
d="M385 1576q0 28 20.5 45t57.5 17h408q37 0 57.5 -17t20.5 -44q0 -28 -21 -46t-57 -18h-408q-36 0 -57 18t-21 45zM102 582v188q0 290 151 456t414 166t413.5 -166.5t150.5 -455.5v-188q0 -286 -150 -448.5t-414 -162.5q-266 0 -415.5 162.5t-149.5 448.5zM329 771v-189
q0 -195 90 -306t248 -111q157 0 247.5 111t90.5 306v189q0 199 -90.5 313t-247.5 114t-247.5 -114t-90.5 -313z" />
    <glyph glyph-name="omacron" unicode="&#x14d;" horiz-adv-x="1137" 
d="M283 1303q0 29 21 47t58 18h415q37 0 58.5 -18t21.5 -47t-21.5 -48t-58.5 -19h-415q-37 0 -58 19t-21 48zM569 1077q210 0 341 -127.5t131 -348.5v-142q0 -224 -130.5 -351.5t-341.5 -127.5q-212 0 -342.5 127.5t-130.5 351.5v141q0 222 131 349.5t342 127.5zM569 897
q-113 0 -179.5 -83t-66.5 -224v-123q0 -143 66 -225.5t180 -82.5t179 82.5t65 225.5v123q0 142 -65 224.5t-179 82.5z" />
    <glyph glyph-name="Obreve" unicode="&#x14e;" horiz-adv-x="1334" 
d="M958 1715q0 -34 -23 -76t-58 -76q-80 -78 -212 -78q-124 0 -207 73q-38 35 -62.5 78t-24.5 80q0 28 18.5 47t47.5 19q47 0 68 -48q12 -25 21.5 -41.5t28.5 -38.5t47 -33.5t63 -11.5t63 11.5t46 32.5t28.5 38t20.5 40q22 51 67 51q29 0 48.5 -18.5t19.5 -48.5zM102 582
v188q0 290 151 456t414 166t413.5 -166.5t150.5 -455.5v-188q0 -286 -150 -448.5t-414 -162.5q-266 0 -415.5 162.5t-149.5 448.5zM329 771v-189q0 -195 90 -306t248 -111q157 0 247.5 111t90.5 306v189q0 199 -90.5 313t-247.5 114t-247.5 -114t-90.5 -313z" />
    <glyph glyph-name="obreve" unicode="&#x14f;" horiz-adv-x="1137" 
d="M274 1414q0 32 19 51t48 19q44 0 68 -48q58 -128 160 -128q103 0 158 123q25 53 67 53q30 0 49.5 -19.5t19.5 -51.5q0 -34 -22.5 -76t-57.5 -75q-84 -79 -213 -79q-127 0 -210 74q-37 33 -61.5 76.5t-24.5 80.5zM569 1077q210 0 341 -127.5t131 -348.5v-142
q0 -224 -130.5 -351.5t-341.5 -127.5q-212 0 -342.5 127.5t-130.5 351.5v141q0 222 131 349.5t342 127.5zM569 897q-113 0 -179.5 -83t-66.5 -224v-123q0 -143 66 -225.5t180 -82.5t179 82.5t65 225.5v123q0 142 -65 224.5t-179 82.5z" />
    <glyph glyph-name="Ohungarumlaut" unicode="&#x150;" horiz-adv-x="1334" 
d="M451 1572q0 20 15 41l94 149q26 38 68 38q32 0 56 -23.5t24 -56.5q0 -31 -19 -53l-119 -139q-22 -25 -52 -25q-27 0 -47 20.5t-20 48.5zM747 1572q0 20 15 41l94 149q26 38 68 38q32 0 55.5 -23.5t23.5 -56.5q0 -32 -18 -53l-119 -139q-22 -25 -52 -25q-27 0 -47 20.5
t-20 48.5zM102 582v188q0 290 151 456t414 166t413.5 -166.5t150.5 -455.5v-188q0 -286 -150 -448.5t-414 -162.5q-266 0 -415.5 162.5t-149.5 448.5zM329 771v-189q0 -195 90 -306t248 -111q157 0 247.5 111t90.5 306v189q0 199 -90.5 313t-247.5 114t-247.5 -114
t-90.5 -313z" />
    <glyph glyph-name="ohungarumlaut" unicode="&#x151;" horiz-adv-x="1137" 
d="M363 1255q0 17 15 41l94 149q26 38 68 38q33 0 56.5 -23.5t23.5 -56.5q0 -31 -19 -53l-118 -139q-23 -25 -52 -25q-28 0 -48 20.5t-20 48.5zM659 1255q0 20 15 41l94 149q26 38 68 38q32 0 56 -23.5t24 -56.5q0 -31 -19 -53l-119 -139q-22 -25 -52 -25q-27 0 -47 20.5
t-20 48.5zM569 1077q210 0 341 -127.5t131 -348.5v-142q0 -224 -130.5 -351.5t-341.5 -127.5q-212 0 -342.5 127.5t-130.5 351.5v141q0 222 131 349.5t342 127.5zM569 897q-113 0 -179.5 -83t-66.5 -224v-123q0 -143 66 -225.5t180 -82.5t179 82.5t65 225.5v123
q0 142 -65 224.5t-179 82.5z" />
    <glyph glyph-name="OE" unicode="&#x152;" horiz-adv-x="1960" 
d="M99 584v185q0 288 147 456t399 168q124 0 220.5 -44t146.5 -124h16q5 72 46.5 106t124.5 34h576q45 0 74.5 -27t29.5 -69t-29 -68.5t-75 -26.5h-543v-389h512q44 0 71.5 -26t27.5 -66q0 -41 -27.5 -66t-71.5 -25h-512v-411h541q47 0 76.5 -26.5t29.5 -69.5t-29.5 -69
t-76.5 -26h-574q-83 0 -124.5 34.5t-46.5 109.5h-15q-53 -81 -151.5 -126.5t-219.5 -45.5q-253 0 -398 164t-145 448zM334 582q0 -195 89 -305.5t248 -110.5q162 0 251.5 106.5t89.5 299.5v216q0 194 -90 302t-251 108q-157 0 -247 -114.5t-90 -311.5v-190z" />
    <glyph glyph-name="oe" unicode="&#x153;" horiz-adv-x="1806" 
d="M91 461v137q0 214 130 345.5t341 131.5q116 0 207 -43t144 -124h14q53 80 143.5 123.5t202.5 43.5q197 0 322 -125.5t125 -322.5q0 -85 -25.5 -118t-90.5 -33h-570v-50q0 -122 74 -192t203 -70q120 0 198 68q43 35 61.5 45.5t41.5 10.5q35 0 57.5 -24t22.5 -61
q0 -69 -74 -121q-51 -47 -136.5 -73.5t-185.5 -26.5q-251 0 -369 165h-14q-58 -79 -150 -122t-201 -43q-218 0 -344.5 128.5t-126.5 350.5zM1274 900q-108 0 -174 -75t-66 -197v-7h469v7q0 126 -61.5 199t-167.5 73zM314 469q0 -144 66 -226t181 -82t180.5 82t65.5 226v119
q0 142 -66.5 225.5t-179.5 83.5t-180 -84t-67 -225v-119z" />
    <glyph glyph-name="Racute" unicode="&#x154;" horiz-adv-x="1239" 
d="M540 1576q0 20 15 43l96 150q26 39 70 39q33 0 57.5 -24t24.5 -58q0 -32 -20 -55l-120 -140q-23 -26 -54 -26q-28 0 -48.5 21t-20.5 50zM379 114q0 -58 -30 -91t-83 -33q-54 0 -84 32.5t-30 91.5v1069q0 95 44.5 138.5t141.5 43.5h341q211 0 333.5 -111t122.5 -302
q0 -131 -65 -231t-180 -145l212 -398q20 -35 20 -79q0 -45 -31.5 -74.5t-79.5 -29.5q-44 0 -72 22t-57 79l-217 428h-286v-410zM379 703h265q127 0 195 60t68 173t-68 175.5t-190 62.5h-270v-471z" />
    <glyph glyph-name="racute" unicode="&#x155;" horiz-adv-x="734" 
d="M360 1257q0 21 15 42l96 151q26 39 70 39q33 0 57.5 -24t24.5 -58q0 -31 -19 -55l-121 -140q-23 -26 -54 -26q-28 0 -48.5 21t-20.5 50zM363 113q0 -58 -29.5 -90.5t-82.5 -32.5t-81.5 32t-28.5 91v830q0 58 29 90.5t82 32.5q49 0 77 -29.5t30 -82.5v-32h8
q72 151 226 151q54 0 84 -24q37 -25 37 -76q0 -52 -36 -76q-28 -19 -87 -21q-228 -3 -228 -250v-513z" />
    <glyph glyph-name="Rcommaaccent" unicode="&#x156;" horiz-adv-x="1239" 
d="M379 114q0 -58 -30 -91t-83 -33q-54 0 -84 32.5t-30 91.5v1069q0 95 44.5 138.5t141.5 43.5h341q211 0 333.5 -111t122.5 -302q0 -131 -65 -231t-180 -145l212 -398q20 -35 20 -79q0 -45 -31.5 -74.5t-79.5 -29.5q-44 0 -72 22t-57 79l-217 428h-286v-410zM379 703h265
q127 0 195 60t68 173t-68 175.5t-190 62.5h-270v-471zM451 -400l55 233q7 32 31.5 50.5t57.5 18.5q49 0 73 -34t11 -72l-83 -233q-21 -52 -73 -52q-45 0 -62.5 26.5t-9.5 62.5z" />
    <glyph glyph-name="rcommaaccent" unicode="&#x157;" horiz-adv-x="734" 
d="M363 113q0 -58 -29.5 -90.5t-82.5 -32.5t-81.5 32t-28.5 91v830q0 58 29 90.5t82 32.5q49 0 77 -29.5t30 -82.5v-32h8q72 151 226 151q54 0 84 -24q37 -25 37 -76q0 -52 -36 -76q-28 -19 -87 -21q-228 -3 -228 -250v-513zM117 -400l54 233q7 32 32 50.5t58 18.5
q49 0 73 -34t11 -72l-84 -233q-19 -52 -72 -52q-45 0 -62.5 26.5t-9.5 62.5z" />
    <glyph glyph-name="Rcaron" unicode="&#x158;" horiz-adv-x="1239" 
d="M345 1747q0 26 17.5 44t45.5 18q30 0 58 -30l122 -161h4l122 158q28 33 59 33q27 0 45 -18t18 -44q0 -30 -25 -52l-130 -149q-41 -41 -90 -41q-51 0 -92 41l-128 147q-26 23 -26 54zM379 114q0 -58 -30 -91t-83 -33q-54 0 -84 32.5t-30 91.5v1069q0 95 44.5 138.5
t141.5 43.5h341q211 0 333.5 -111t122.5 -302q0 -131 -65 -231t-180 -145l212 -398q20 -35 20 -79q0 -45 -31.5 -74.5t-79.5 -29.5q-44 0 -72 22t-57 79l-217 428h-286v-410zM379 703h265q127 0 195 60t68 173t-68 175.5t-190 62.5h-270v-471z" />
    <glyph glyph-name="rcaron" unicode="&#x159;" horiz-adv-x="734" 
d="M319 1234l-135 155q-26 27 -26 57q0 28 19 48t48 20q34 0 62 -36l119 -166h7l118 164q27 38 64 38q29 0 48.5 -20t19.5 -48q0 -30 -25 -55l-137 -156q-21 -23 -40.5 -33.5t-49.5 -10.5q-51 0 -92 43zM363 113q0 -58 -29.5 -90.5t-82.5 -32.5t-81.5 32t-28.5 91v830
q0 58 29 90.5t82 32.5q49 0 77 -29.5t30 -82.5v-32h8q72 151 226 151q54 0 84 -24q37 -25 37 -76q0 -52 -36 -76q-28 -19 -87 -21q-228 -3 -228 -250v-513z" />
    <glyph glyph-name="Sacute" unicode="&#x15a;" horiz-adv-x="1183" 
d="M539 1576q0 17 15 43l96 150q26 39 70 39q34 0 58 -24t24 -58q0 -31 -19 -55l-121 -140q-23 -26 -54 -26q-28 0 -48.5 21t-20.5 50zM82 281q0 45 26.5 73.5t67.5 28.5q32 0 59.5 -17t59.5 -57q111 -147 309 -147q130 0 202.5 51.5t72.5 145.5q0 77 -53 126.5t-165 77.5
l-216 56q-342 84 -342 369q0 183 133.5 293.5t353.5 110.5q116 0 214.5 -32t164.5 -92q100 -91 100 -189q0 -42 -26 -68t-68 -26q-62 0 -98 58q-41 76 -114.5 117.5t-168.5 41.5q-118 0 -188.5 -53.5t-70.5 -143.5q0 -69 48.5 -117.5t143.5 -72.5l215 -54q186 -47 274 -138
t88 -239q0 -190 -138.5 -301.5t-373.5 -111.5q-128 0 -235 33.5t-173 94.5q-102 93 -102 182z" />
    <glyph glyph-name="sacute" unicode="&#x15b;" horiz-adv-x="1014" 
d="M461 1257q0 21 15 42l96 151q26 39 69 39q34 0 58 -24t24 -58q0 -31 -19 -55l-121 -140q-21 -26 -53 -26q-28 0 -48.5 21t-20.5 50zM86 213q0 41 24 65t65 24q23 0 44 -11.5t52 -41.5q105 -99 242 -99q91 0 143.5 36.5t52.5 100.5q0 51 -37 86.5t-108 51.5l-182 42
q-143 32 -212 103.5t-69 185.5q0 146 111.5 233.5t297.5 87.5q159 0 274 -69q53 -31 83 -72t30 -84q0 -38 -24 -60.5t-64 -22.5q-24 0 -44.5 10t-54.5 39q-54 49 -102.5 69.5t-108.5 20.5q-85 0 -134 -37t-49 -100q0 -51 34.5 -83t108.5 -49l192 -44q140 -32 207 -102.5
t67 -186.5q0 -151 -113.5 -238.5t-310.5 -87.5q-171 0 -293 67t-122 166z" />
    <glyph glyph-name="Scircumflex" unicode="&#x15c;" horiz-adv-x="1183" 
d="M590 1694h-4l-121 -161q-28 -30 -59 -30q-28 0 -45.5 18t-17.5 44q0 31 26 54l129 147q41 41 91 41q51 0 90 -41l130 -149q26 -23 26 -52q0 -26 -18 -44t-46 -18q-29 0 -59 33zM82 281q0 45 26.5 73.5t67.5 28.5q32 0 59.5 -17t59.5 -57q111 -147 309 -147
q130 0 202.5 51.5t72.5 145.5q0 77 -53 126.5t-165 77.5l-216 56q-342 84 -342 369q0 183 133.5 293.5t353.5 110.5q116 0 214.5 -32t164.5 -92q100 -91 100 -189q0 -42 -26 -68t-68 -26q-62 0 -98 58q-41 76 -114.5 117.5t-168.5 41.5q-118 0 -188.5 -53.5t-70.5 -143.5
q0 -69 48.5 -117.5t143.5 -72.5l215 -54q186 -47 274 -138t88 -239q0 -190 -138.5 -301.5t-373.5 -111.5q-128 0 -235 33.5t-173 94.5q-102 93 -102 182z" />
    <glyph glyph-name="scircumflex" unicode="&#x15d;" horiz-adv-x="1014" 
d="M326 1180q-29 0 -48.5 20t-19.5 48q0 29 25 55l137 156q21 23 40.5 33.5t49.5 10.5q50 0 91 -44l137 -156q24 -27 24 -56q0 -27 -19.5 -47t-48.5 -20q-35 0 -64 38l-116 163h-7l-120 -163q-27 -38 -61 -38zM86 213q0 41 24 65t65 24q23 0 44 -11.5t52 -41.5
q105 -99 242 -99q91 0 143.5 36.5t52.5 100.5q0 51 -37 86.5t-108 51.5l-182 42q-143 32 -212 103.5t-69 185.5q0 146 111.5 233.5t297.5 87.5q159 0 274 -69q53 -31 83 -72t30 -84q0 -38 -24 -60.5t-64 -22.5q-24 0 -44.5 10t-54.5 39q-54 49 -102.5 69.5t-108.5 20.5
q-85 0 -134 -37t-49 -100q0 -51 34.5 -83t108.5 -49l192 -44q140 -32 207 -102.5t67 -186.5q0 -151 -113.5 -238.5t-310.5 -87.5q-171 0 -293 67t-122 166z" />
    <glyph glyph-name="Scedilla" unicode="&#x15e;" horiz-adv-x="1183" 
d="M596 -472q-76 0 -122.5 24t-46.5 64q0 24 15 39t39 15q13 0 43 -11t62 -11q39 0 63 19.5t24 50.5q0 64 -98 64q-99 0 -99 70q0 33 39 122q-215 19 -331 125q-102 93 -102 182q0 45 26.5 73.5t67.5 28.5q32 0 59.5 -17t59.5 -57q111 -147 309 -147q130 0 202.5 51.5
t72.5 145.5q0 77 -53 126.5t-165 77.5l-216 56q-342 84 -342 369q0 183 133.5 293.5t353.5 110.5q116 0 214.5 -32t164.5 -92q100 -91 100 -189q0 -42 -26 -68t-68 -26q-62 0 -98 58q-41 76 -114.5 117.5t-168.5 41.5q-118 0 -188.5 -53.5t-70.5 -143.5q0 -69 48.5 -117.5
t143.5 -72.5l215 -54q186 -47 274 -138t88 -239q0 -177 -120.5 -286.5t-328.5 -123.5l-34 -89q98 0 152.5 -45t54.5 -125q0 -82 -65 -134.5t-167 -52.5z" />
    <glyph glyph-name="scedilla" unicode="&#x15f;" horiz-adv-x="1014" 
d="M487 -465q-60 0 -95 14q-52 19 -52 61q0 25 15.5 38.5t39.5 13.5q11 0 37 -5t46 -5q40 0 70.5 17.5t30.5 56.5q0 25 -16 39.5t-34.5 18t-47.5 4.5q-99 2 -99 69q0 21 40 126q-124 14 -214 64q-122 67 -122 166q0 41 24 65t65 24q23 0 44 -11.5t52 -41.5q105 -99 242 -99
q91 0 143.5 36.5t52.5 100.5q0 51 -37 86.5t-108 51.5l-182 42q-143 32 -212 103.5t-69 185.5q0 146 111.5 233.5t297.5 87.5q159 0 274 -69q53 -31 83 -72t30 -84q0 -38 -24 -60.5t-64 -22.5q-24 0 -44.5 10t-54.5 39q-54 49 -102.5 69.5t-108.5 20.5q-85 0 -134 -37
t-49 -100q0 -51 34.5 -83t108.5 -49l192 -44q140 -32 207 -102.5t67 -186.5q0 -139 -97 -225t-267 -99l-35 -92q93 6 150 -38.5t57 -126.5q0 -92 -69.5 -141t-176.5 -49z" />
    <glyph glyph-name="Scaron" unicode="&#x160;" horiz-adv-x="1183" 
d="M344 1747q0 26 17.5 44t45.5 18q32 0 58 -30l122 -161h4l122 158q30 33 59 33q27 0 45 -18t18 -44q0 -30 -25 -52l-130 -149q-41 -41 -90 -41q-52 0 -91 41l-129 147q-26 23 -26 54zM82 281q0 45 26.5 73.5t67.5 28.5q32 0 59.5 -17t59.5 -57q111 -147 309 -147
q130 0 202.5 51.5t72.5 145.5q0 77 -53 126.5t-165 77.5l-216 56q-342 84 -342 369q0 183 133.5 293.5t353.5 110.5q116 0 214.5 -32t164.5 -92q100 -91 100 -189q0 -42 -26 -68t-68 -26q-62 0 -98 58q-41 76 -114.5 117.5t-168.5 41.5q-118 0 -188.5 -53.5t-70.5 -143.5
q0 -69 48.5 -117.5t143.5 -72.5l215 -54q186 -47 274 -138t88 -239q0 -190 -138.5 -301.5t-373.5 -111.5q-128 0 -235 33.5t-173 94.5q-102 93 -102 182z" />
    <glyph glyph-name="scaron" unicode="&#x161;" horiz-adv-x="1014" 
d="M420 1234l-135 155q-26 27 -26 57q0 28 19 48t48 20q34 0 61 -36l120 -166h7l117 164q29 38 64 38q29 0 48.5 -20t19.5 -48q0 -29 -24 -55l-137 -156q-41 -44 -90 -44q-51 0 -92 43zM86 213q0 41 24 65t65 24q23 0 44 -11.5t52 -41.5q105 -99 242 -99q91 0 143.5 36.5
t52.5 100.5q0 51 -37 86.5t-108 51.5l-182 42q-143 32 -212 103.5t-69 185.5q0 146 111.5 233.5t297.5 87.5q159 0 274 -69q53 -31 83 -72t30 -84q0 -38 -24 -60.5t-64 -22.5q-24 0 -44.5 10t-54.5 39q-54 49 -102.5 69.5t-108.5 20.5q-85 0 -134 -37t-49 -100
q0 -51 34.5 -83t108.5 -49l192 -44q140 -32 207 -102.5t67 -186.5q0 -151 -113.5 -238.5t-310.5 -87.5q-171 0 -293 67t-122 166z" />
    <glyph glyph-name="Tcedilla" unicode="&#x162;" horiz-adv-x="1061" 
d="M527 -458q-69 0 -106 18q-41 20 -41 58q0 24 15 38t40 14q11 0 37 -5t46 -5q47 0 74 19.5t27 53.5q0 31 -23 45.5t-75 16.5q-99 1 -99 66q0 17 8 39.5t46 110.5q-59 26 -59 106v1053h-310q-46 0 -75 27t-29 70t29 70.5t75 27.5h848q46 0 74.5 -27t28.5 -71t-28.5 -70.5
t-74.5 -26.5h-311v-1055q0 -43 -17 -77l-61 -140q94 6 150.5 -39.5t56.5 -126.5q0 -87 -66.5 -138.5t-179.5 -51.5z" />
    <glyph glyph-name="tcedilla" unicode="&#x163;" horiz-adv-x="730" 
d="M399 -470q-61 0 -95 14q-52 18 -52 61q0 24 15 38t41 14q10 0 36 -5t46 -5q46 0 73.5 20t27.5 54q0 31 -23 45t-75 16q-99 4 -99 70q0 20 57 153q-71 28 -104.5 95t-33.5 181v592h-64q-46 0 -72 24t-26 65q0 42 26 65.5t72 23.5h68v155q0 57 28 88.5t80 31.5t80.5 -31.5
t28.5 -88.5v-155h122q46 0 71.5 -23.5t25.5 -65.5q0 -41 -25.5 -65t-71.5 -24h-120v-576q0 -78 24 -107t90 -29q15 0 37 1.5t32 1.5q32 0 52 -19.5t20 -52.5q0 -54 -49 -82q-48 -27 -133 -28h-30l-41 -97q95 6 151.5 -39t56.5 -126q0 -87 -67 -138.5t-180 -51.5z" />
    <glyph glyph-name="Tcaron" unicode="&#x164;" horiz-adv-x="1061" 
d="M285 1747q0 26 17.5 44t45.5 18q32 0 58 -30l122 -161h4l122 158q30 33 59 33q27 0 45 -18t18 -44q0 -30 -25 -52l-130 -149q-41 -41 -90 -41q-52 0 -91 41l-129 147q-26 23 -26 54zM530 -10q-53 0 -83 32.5t-30 89.5v1058h-310q-46 0 -75 27t-29 70t29 70.5t75 27.5h848
q46 0 74.5 -27t28.5 -71t-28.5 -70.5t-74.5 -26.5h-311v-1058q0 -56 -30.5 -89t-83.5 -33z" />
    <glyph glyph-name="tcaron" unicode="&#x165;" horiz-adv-x="738" 
d="M705 1197q-37 0 -59 27.5t-18 71.5l25 316q4 41 30.5 64.5t62.5 23.5q47 0 71.5 -34t17.5 -74l-50 -323q-12 -72 -80 -72zM213 281v592h-64q-46 0 -72 24t-26 65q0 42 26 65.5t72 23.5h68v155q0 57 28 88.5t80 31.5t80.5 -31.5t28.5 -88.5v-155h122q46 0 71.5 -23.5
t25.5 -65.5q0 -41 -25.5 -65t-71.5 -24h-120v-576q0 -78 24 -107t90 -29q15 0 37 1.5t32 1.5q32 0 52 -19.5t20 -52.5q0 -54 -49 -82q-50 -29 -146 -29q-151 0 -217 69t-66 231z" />
    <glyph glyph-name="Tbar" unicode="&#x166;" horiz-adv-x="1062" 
d="M644 112q0 -56 -30.5 -89t-83.5 -33t-83 32.5t-30 89.5v502h-160q-44 0 -68.5 22.5t-24.5 60.5q0 37 24.5 59.5t68.5 22.5h160v391h-310q-46 0 -75 27t-29 70t29 70.5t75 27.5h848q46 0 74.5 -27t28.5 -71t-28.5 -70.5t-74.5 -26.5h-311v-391h160q44 0 68.5 -22.5
t24.5 -59.5q0 -38 -24.5 -60.5t-68.5 -22.5h-160v-502z" />
    <glyph glyph-name="tbar" unicode="&#x167;" horiz-adv-x="728" 
d="M642 10q-50 -29 -146 -29q-151 0 -217 69t-66 231v234h-61q-41 0 -64 20.5t-23 53.5q0 34 23 54t64 20h61v212h-64q-46 0 -72 23.5t-26 64.5q0 42 25.5 65t72.5 23h68v155q0 57 28 88.5t80 31.5t80.5 -31.5t28.5 -88.5v-155h122q46 0 71.5 -23t25.5 -65
q0 -41 -25.5 -64.5t-71.5 -23.5h-120v-212h119q41 0 64 -19.5t23 -53.5t-22.5 -54.5t-64.5 -20.5h-119v-218q0 -78 24 -107t90 -29q15 0 37 1.5t32 1.5q32 0 52 -19.5t20 -52.5q0 -54 -49 -82z" />
    <glyph glyph-name="Utilde" unicode="&#x168;" horiz-adv-x="1347" 
d="M393 1549q0 63 47.5 108t117.5 45q83 0 142 -57q49 -48 81 -48q18 0 32.5 16t21.5 43q13 45 56 45q27 0 42 -18t15 -51q0 -63 -47 -106.5t-116 -43.5q-44 0 -76 15t-66 46q-50 47 -77 47q-38 0 -55 -57q-14 -47 -62 -47q-56 0 -56 63zM1210 472q0 -226 -147 -363.5
t-389 -137.5q-250 0 -393 137t-143 367v778q0 57 30 89.5t83 32.5t83.5 -32.5t30.5 -89.5v-764q0 -148 83 -234t226 -86q142 0 225.5 86t83.5 234v764q0 57 30 89.5t83 32.5t83.5 -32.5t30.5 -89.5v-781z" />
    <glyph glyph-name="utilde" unicode="&#x169;" horiz-adv-x="1168" 
d="M253 1260q0 68 44 117q52 63 145 63q47 0 82 -16.5t72 -54.5q36 -37 54 -49t42 -12q30 0 45 17t23 58q13 52 59 52q30 0 46.5 -19.5t16.5 -55.5q0 -72 -48 -122q-54 -59 -142 -59q-42 0 -74.5 16t-75.5 57q-42 40 -58.5 50.5t-39.5 10.5q-30 0 -45 -17t-26 -58
q-15 -52 -58 -52q-62 0 -62 74zM797 176q-28 -80 -108 -135.5t-212 -55.5q-160 0 -254.5 85.5t-94.5 261.5v615q0 60 29.5 90t81.5 30t81.5 -30t29.5 -90v-558q0 -113 56.5 -164.5t148.5 -51.5q111 0 180.5 65.5t69.5 164.5v544q0 60 30 90t82 30q51 0 81 -30t30 -90v-839
q0 -57 -30 -87.5t-80 -30.5q-49 0 -78.5 28.5t-30.5 83.5v74h-12z" />
    <glyph glyph-name="Umacron" unicode="&#x16a;" horiz-adv-x="1347" 
d="M391 1576q0 28 20.5 45t57.5 17h408q37 0 57.5 -17t20.5 -44q0 -28 -21 -46t-57 -18h-408q-36 0 -57 18t-21 45zM1210 472q0 -226 -147 -363.5t-389 -137.5q-250 0 -393 137t-143 367v778q0 57 30 89.5t83 32.5t83.5 -32.5t30.5 -89.5v-764q0 -148 83 -234t226 -86
q142 0 225.5 86t83.5 234v764q0 57 30 89.5t83 32.5t83.5 -32.5t30.5 -89.5v-781z" />
    <glyph glyph-name="umacron" unicode="&#x16b;" horiz-adv-x="1168" 
d="M293 1303q0 29 21 47t58 18h415q37 0 58.5 -18t21.5 -47t-21.5 -48t-58.5 -19h-415q-37 0 -58 19t-21 48zM797 176q-28 -80 -108 -135.5t-212 -55.5q-160 0 -254.5 85.5t-94.5 261.5v615q0 60 29.5 90t81.5 30t81.5 -30t29.5 -90v-558q0 -113 56.5 -164.5t148.5 -51.5
q111 0 180.5 65.5t69.5 164.5v544q0 60 30 90t82 30q51 0 81 -30t30 -90v-839q0 -57 -30 -87.5t-80 -30.5q-49 0 -78.5 28.5t-30.5 83.5v74h-12z" />
    <glyph glyph-name="Ubreve" unicode="&#x16c;" horiz-adv-x="1347" 
d="M965 1715q0 -34 -22.5 -76t-57.5 -76q-81 -78 -213 -78q-123 0 -206 73q-38 34 -62.5 77t-24.5 81q0 28 18.5 47t47.5 19q46 0 68 -48q12 -26 21.5 -42t28.5 -38t46.5 -33.5t62.5 -11.5t63 11.5t46.5 32.5t28.5 38t20 40q22 51 67 51q30 0 49 -18.5t19 -48.5zM1210 472
q0 -226 -147 -363.5t-389 -137.5q-250 0 -393 137t-143 367v778q0 57 30 89.5t83 32.5t83.5 -32.5t30.5 -89.5v-764q0 -148 83 -234t226 -86q142 0 225.5 86t83.5 234v764q0 57 30 89.5t83 32.5t83.5 -32.5t30.5 -89.5v-781z" />
    <glyph glyph-name="ubreve" unicode="&#x16d;" horiz-adv-x="1168" 
d="M284 1414q0 32 19 51t48 19q44 0 68 -48q58 -128 160 -128q103 0 158 123q23 53 67 53q30 0 49.5 -19.5t19.5 -51.5q0 -34 -22.5 -76t-57.5 -75q-84 -79 -213 -79q-127 0 -210 74q-37 33 -61.5 76.5t-24.5 80.5zM797 176q-28 -80 -108 -135.5t-212 -55.5
q-160 0 -254.5 85.5t-94.5 261.5v615q0 60 29.5 90t81.5 30t81.5 -30t29.5 -90v-558q0 -113 56.5 -164.5t148.5 -51.5q111 0 180.5 65.5t69.5 164.5v544q0 60 30 90t82 30q51 0 81 -30t30 -90v-839q0 -57 -30 -87.5t-80 -30.5q-49 0 -78.5 28.5t-30.5 83.5v74h-12z" />
    <glyph glyph-name="Uring" unicode="&#x16e;" horiz-adv-x="1347" 
d="M673 1479q-85 0 -144 56.5t-59 141.5q0 84 58.5 140t144.5 56t144.5 -56t58.5 -140q0 -85 -58.5 -141.5t-144.5 -56.5zM575 1676q0 -41 28.5 -70t69.5 -29t69 29t28 70q0 42 -28 70t-69 28t-69.5 -28t-28.5 -70zM1210 472q0 -226 -147 -363.5t-389 -137.5
q-250 0 -393 137t-143 367v778q0 57 30 89.5t83 32.5t83.5 -32.5t30.5 -89.5v-764q0 -148 83 -234t226 -86q142 0 225.5 86t83.5 234v764q0 57 30 89.5t83 32.5t83.5 -32.5t30.5 -89.5v-781z" />
    <glyph glyph-name="uring" unicode="&#x16f;" horiz-adv-x="1168" 
d="M580 1182q-86 0 -144.5 56.5t-58.5 141.5t58.5 141t144.5 56t144.5 -56t58.5 -141t-58.5 -141.5t-144.5 -56.5zM482 1379q0 -41 28 -69.5t70 -28.5q41 0 69 28.5t28 69.5q0 42 -28 70.5t-69 28.5q-42 0 -70 -28.5t-28 -70.5zM797 176q-28 -80 -108 -135.5t-212 -55.5
q-160 0 -254.5 85.5t-94.5 261.5v615q0 60 29.5 90t81.5 30t81.5 -30t29.5 -90v-558q0 -113 56.5 -164.5t148.5 -51.5q111 0 180.5 65.5t69.5 164.5v544q0 60 30 90t82 30q51 0 81 -30t30 -90v-839q0 -57 -30 -87.5t-80 -30.5q-49 0 -78.5 28.5t-30.5 83.5v74h-12z" />
    <glyph glyph-name="Uhungarumlaut" unicode="&#x170;" horiz-adv-x="1347" 
d="M459 1572q0 19 14 41l95 149q25 38 68 38q32 0 55.5 -23.5t23.5 -56.5q0 -30 -18 -53l-119 -139q-22 -25 -52 -25q-27 0 -47 20.5t-20 48.5zM754 1572q0 17 15 41l94 149q26 38 68 38q33 0 56.5 -23.5t23.5 -56.5q0 -31 -19 -53l-118 -139q-23 -25 -52 -25
q-28 0 -48 20.5t-20 48.5zM1210 472q0 -226 -147 -363.5t-389 -137.5q-250 0 -393 137t-143 367v778q0 57 30 89.5t83 32.5t83.5 -32.5t30.5 -89.5v-764q0 -148 83 -234t226 -86q142 0 225.5 86t83.5 234v764q0 57 30 89.5t83 32.5t83.5 -32.5t30.5 -89.5v-781z" />
    <glyph glyph-name="uhungarumlaut" unicode="&#x171;" horiz-adv-x="1168" 
d="M373 1255q0 17 15 41l94 149q26 38 68 38q33 0 56.5 -23.5t23.5 -56.5q0 -31 -19 -53l-118 -139q-23 -25 -52 -25q-28 0 -48 20.5t-20 48.5zM669 1255q0 20 15 41l94 149q26 38 68 38q32 0 56 -23.5t24 -56.5q0 -31 -19 -53l-119 -139q-22 -25 -52 -25q-27 0 -47 20.5
t-20 48.5zM797 176q-28 -80 -108 -135.5t-212 -55.5q-160 0 -254.5 85.5t-94.5 261.5v615q0 60 29.5 90t81.5 30t81.5 -30t29.5 -90v-558q0 -113 56.5 -164.5t148.5 -51.5q111 0 180.5 65.5t69.5 164.5v544q0 60 30 90t82 30q51 0 81 -30t30 -90v-839q0 -57 -30 -87.5
t-80 -30.5q-49 0 -78.5 28.5t-30.5 83.5v74h-12z" />
    <glyph glyph-name="Uogonek" unicode="&#x172;" horiz-adv-x="1347" 
d="M1096 -306q0 -45 -48 -68q-37 -16 -90 -16q-103 0 -161.5 53.5t-58.5 138.5q0 111 99 204l-5 11q-78 -46 -203 -46q-220 0 -355.5 138.5t-135.5 365.5v778q0 57 30 89.5t83 32.5t83.5 -32.5t30.5 -89.5v-764q0 -150 83.5 -235t225.5 -85q141 0 225 85.5t84 234.5v764
q0 57 30 89.5t83 32.5t83.5 -32.5t30.5 -89.5v-781q0 -224 -141 -375q-73 -81 -98.5 -111.5t-45.5 -67t-20 -70.5q0 -85 107 -87q42 -2 62 -17q22 -16 22 -50z" />
    <glyph glyph-name="uogonek" unicode="&#x173;" horiz-adv-x="1168" 
d="M705 -184q0 66 26.5 116t92.5 107q-7 7 -15 137h-12q-28 -80 -108 -135.5t-212 -55.5q-159 0 -254 86t-95 261v615q0 60 29.5 90t81.5 30t81.5 -30t29.5 -90v-558q0 -113 56.5 -164.5t148.5 -51.5q111 0 180.5 65.5t69.5 164.5v544q0 60 30 90t82 30q51 0 81 -30t30 -90
v-828q0 -47 -11.5 -72.5t-39.5 -45.5q-52 -36 -76.5 -69t-24.5 -77q0 -43 27.5 -68t76.5 -26q42 -1 65 -17q21 -15 21 -49q0 -47 -48 -69q-33 -16 -90 -16q-97 0 -160 58.5t-63 147.5z" />
    <glyph glyph-name="Wcircumflex" unicode="&#x174;" horiz-adv-x="1713" 
d="M859 1694h-5l-121 -161q-28 -30 -59 -30q-27 0 -45 18t-18 44q0 30 27 54l128 147q41 41 92 41q50 0 89 -41l131 -149q25 -22 25 -52q0 -26 -18 -44t-46 -18q-30 0 -58 33zM344 125l-294 1059q-12 42 -12 80q0 50 32.5 82.5t84.5 32.5q92 0 122 -132l211 -921h12l225 921
q17 68 48.5 100t84.5 32t84.5 -32t48.5 -100l225 -921h12l209 921q29 132 122 132q51 0 84 -32t33 -82q0 -38 -10 -73l-294 -1067q-20 -72 -50.5 -101t-83.5 -29q-56 0 -89.5 31t-52.5 102l-233 885h-10l-234 -888q-18 -67 -51.5 -98.5t-86.5 -31.5q-55 0 -85.5 28.5
t-51.5 101.5z" />
    <glyph glyph-name="wcircumflex" unicode="&#x175;" horiz-adv-x="1525" 
d="M578 1180q-29 0 -48.5 20t-19.5 48q0 29 25 55l137 156q21 23 40.5 33.5t49.5 10.5t50 -10.5t41 -33.5l137 -156q25 -27 25 -56q0 -27 -19.5 -47t-48.5 -20q-37 0 -64 38l-117 163h-7l-119 -163q-29 -38 -62 -38zM265 178l-197 714q-9 40 -9 60q0 49 31.5 79.5t82.5 30.5
q44 0 73 -29.5t39 -85.5l148 -701h10l173 654q25 94 55.5 128t89.5 34q58 0 89.5 -34t56.5 -128l177 -654h10l155 703q11 54 39.5 83.5t68.5 29.5q48 0 78 -28.5t30 -73.5q0 -24 -11 -61l-195 -721q-29 -108 -63.5 -148t-94.5 -40q-64 0 -100 39.5t-65 148.5l-171 604h-8
l-167 -604q-29 -110 -63 -149t-98 -39t-99.5 40t-64.5 148z" />
    <glyph glyph-name="Ycircumflex" unicode="&#x176;" horiz-adv-x="1122" 
d="M563 1694h-5l-121 -161q-28 -30 -59 -30q-27 0 -45 18t-18 44q0 29 26 54l129 147q41 41 91 41q51 0 90 -41l130 -149q26 -22 26 -52q0 -26 -18 -44t-46 -18q-30 0 -58 33zM561 -10q-52 0 -83.5 32.5t-30.5 86.5l3 459l-367 605q-39 65 -39 102q0 47 29 75.5t76 28.5
q38 0 64 -20.5t53 -70.5l290 -513h9l293 513q27 49 54 70t63 21q46 0 74.5 -28.5t28.5 -72.5q0 -39 -41 -107l-365 -603l2 -459q1 -54 -30 -86.5t-83 -32.5z" />
    <glyph glyph-name="ycircumflex" unicode="&#x177;" horiz-adv-x="1004" 
d="M323 1180q-29 0 -49 20t-20 48q0 29 25 55l138 156q21 23 40.5 33.5t48.5 10.5q30 0 50 -10.5t42 -33.5l136 -156q25 -27 25 -56q0 -27 -19.5 -47t-48.5 -20q-37 0 -64 38l-117 163h-7l-119 -163q-29 -38 -61 -38zM71 -279q0 35 24 56t64 21q8 0 28.5 -2t34.5 -2
q48 0 87 36t57 97q2 2 8.5 28.5t6.5 30.5l-324 903q-13 39 -13 67q0 45 31.5 75t79.5 30q86 0 116 -108l230 -756h9l232 756q30 108 114 108q46 0 76.5 -29.5t30.5 -74.5q0 -25 -15 -68l-335 -948q-60 -170 -150.5 -245t-234.5 -75q-92 0 -132 40q-25 25 -25 60z" />
    <glyph glyph-name="Ydieresis" unicode="&#x178;" horiz-adv-x="1123" 
d="M299 1586q0 42 26.5 69.5t65.5 27.5q42 0 70 -27.5t28 -69.5q0 -40 -28.5 -67t-69.5 -27q-39 0 -65.5 27t-26.5 67zM631 1586q0 42 27.5 69.5t66.5 27.5q42 0 69 -27.5t27 -69.5q0 -41 -27 -67.5t-69 -26.5q-39 0 -66.5 27t-27.5 67zM561 -10q-52 0 -83.5 32.5
t-30.5 86.5l3 459l-367 605q-39 65 -39 102q0 47 29 75.5t76 28.5q38 0 64 -20.5t53 -70.5l290 -513h9l293 513q27 49 54 70t63 21q46 0 74.5 -28.5t28.5 -72.5q0 -39 -41 -107l-365 -603l2 -459q1 -54 -30 -86.5t-83 -32.5z" />
    <glyph glyph-name="Zacute" unicode="&#x179;" horiz-adv-x="1163" 
d="M532 1576q0 20 15 43l96 150q26 39 69 39q34 0 58 -24t24 -58q0 -31 -19 -55l-121 -140q-21 -26 -53 -26q-28 0 -48.5 21t-20.5 50zM78 116q0 32 19.5 68t86.5 128l601 848v13h-584q-46 0 -74 26t-28 70t28 70t75 26h732q55 0 87 -30t32 -81q0 -33 -20.5 -72t-87.5 -131
l-591 -847v-12h626q46 0 74 -26.5t28 -70.5q0 -43 -28.5 -69t-74.5 -26h-778q-55 0 -89 32.5t-34 83.5z" />
    <glyph glyph-name="zacute" unicode="&#x17a;" horiz-adv-x="985" 
d="M448 1257q0 18 15 42l96 151q26 39 70 39q34 0 58 -24t24 -58q0 -31 -19 -55l-121 -140q-23 -26 -53 -26q-29 0 -49.5 21t-20.5 50zM100 103q0 57 57 127l476 632v12h-440q-47 0 -73.5 26t-26.5 67t26.5 66.5t73.5 25.5h582q58 0 90 -28.5t32 -75.5q0 -59 -56 -129
l-473 -633v-11h452q47 0 73.5 -25.5t26.5 -64.5q0 -42 -26.5 -68.5t-73.5 -26.5h-596q-59 0 -91.5 29t-32.5 77z" />
    <glyph glyph-name="Zdotaccent" unicode="&#x17b;" horiz-adv-x="1163" 
d="M466 1636q0 48 33.5 80.5t81.5 32.5t81 -32.5t33 -80.5t-33 -80t-81 -32q-49 0 -82 32t-33 80zM78 116q0 32 19.5 68t86.5 128l601 848v13h-584q-46 0 -74 26t-28 70t28 70t75 26h732q55 0 87 -30t32 -81q0 -33 -20.5 -72t-87.5 -131l-591 -847v-12h626q46 0 74 -26.5
t28 -70.5q0 -43 -28.5 -69t-74.5 -26h-778q-55 0 -89 32.5t-34 83.5z" />
    <glyph glyph-name="zdotaccent" unicode="&#x17c;" horiz-adv-x="985" 
d="M380 1310q0 50 34 84t84 34q49 0 83.5 -34t34.5 -84q0 -49 -34.5 -83t-83.5 -34q-50 0 -84 33.5t-34 83.5zM100 103q0 57 57 127l476 632v12h-440q-47 0 -73.5 26t-26.5 67t26.5 66.5t73.5 25.5h582q58 0 90 -28.5t32 -75.5q0 -59 -56 -129l-473 -633v-11h452
q47 0 73.5 -25.5t26.5 -64.5q0 -42 -26.5 -68.5t-73.5 -26.5h-596q-59 0 -91.5 29t-32.5 77z" />
    <glyph glyph-name="Zcaron" unicode="&#x17d;" horiz-adv-x="1163" 
d="M336 1747q0 26 18 44t45 18q31 0 59 -30l121 -161h4l123 158q28 33 58 33q28 0 46 -18t18 -44q0 -29 -26 -52l-130 -149q-39 -41 -90 -41q-50 0 -91 41l-129 147q-26 25 -26 54zM78 116q0 32 19.5 68t86.5 128l601 848v13h-584q-46 0 -74 26t-28 70t28 70t75 26h732
q55 0 87 -30t32 -81q0 -33 -20.5 -72t-87.5 -131l-591 -847v-12h626q46 0 74 -26.5t28 -70.5q0 -43 -28.5 -69t-74.5 -26h-778q-55 0 -89 32.5t-34 83.5z" />
    <glyph glyph-name="zcaron" unicode="&#x17e;" horiz-adv-x="985" 
d="M407 1234l-135 155q-26 27 -26 57q0 28 19.5 48t48.5 20q33 0 61 -36l120 -166h6l118 164q27 38 64 38q29 0 48.5 -20t19.5 -48q0 -30 -25 -55l-136 -156q-42 -44 -91 -44q-51 0 -92 43zM100 103q0 57 57 127l476 632v12h-440q-47 0 -73.5 26t-26.5 67t26.5 66.5
t73.5 25.5h582q58 0 90 -28.5t32 -75.5q0 -59 -56 -129l-473 -633v-11h452q47 0 73.5 -25.5t26.5 -64.5q0 -42 -26.5 -68.5t-73.5 -26.5h-596q-59 0 -91.5 29t-32.5 77z" />
    <glyph glyph-name="uni04D8" unicode="&#x18f;" horiz-adv-x="1338" 
d="M648 1392q268 0 424.5 -164t156.5 -448v-192q0 -283 -149 -449t-413 -166q-258 0 -408 160.5t-150 427.5v25q0 61 32.5 97t97.5 36h762v65q0 201 -98.5 307.5t-256.5 106.5q-106 0 -188 -50t-118 -149q-26 -57 -98 -59q-41 1 -67.5 27.5t-27.5 67.5q0 59 34.5 120.5
t95.5 115t159 87.5t212 34zM664 167q146 0 241 95t95 267v12h-671v-7q0 -175 92.5 -271t242.5 -96z" />
    <glyph glyph-name="florin" unicode="&#x192;" 
d="M638 294q-47 -321 -354 -321q-110 0 -180 47q-48 29 -48 80q0 37 22 58.5t53 21.5q19 0 61 -14.5t77 -14.5q127 0 153 177l60 407h-147q-47 0 -72 21.5t-25 61.5q0 81 97 81h171l25 172q47 321 354 321q109 0 180 -47q48 -29 48 -79q0 -37 -21.5 -58.5t-52.5 -21.5
q-19 0 -61.5 14t-77.5 14q-127 0 -153 -177l-20 -138h178q46 0 71 -21t25 -60q0 -40 -25 -61.5t-71 -21.5h-202z" />
    <glyph glyph-name="Ohorn" unicode="&#x1a0;" horiz-adv-x="1348" 
d="M102 583v187q0 289 150.5 455.5t410.5 166.5q79 0 152 -21t137 -41.5t121 -20.5q71 0 103.5 35.5t32.5 111.5v28q0 51 23.5 78.5t67.5 27.5t69 -28t25 -78v-41q0 -197 -140 -259q-52 -24 -123 -24l-1 -5q101 -151 101 -385v-187q0 -286 -150.5 -449t-413.5 -163
q-265 0 -415 163t-150 449zM329 772v-190q0 -195 90 -305.5t248 -110.5q157 0 247.5 111t90.5 305v190q0 198 -90.5 312t-247.5 114t-247.5 -114t-90.5 -312z" />
    <glyph glyph-name="ohorn" unicode="&#x1a1;" horiz-adv-x="1194" 
d="M96 459v141q0 222 131 349.5t342 127.5q59 0 139.5 -20t132.5 -20q69 0 96 34.5t27 106.5v56q0 48 26 75.5t68 27.5q41 0 66 -27.5t25 -75.5v-63q0 -255 -201 -274v-10q35 -41 64 -123t29 -163v-142q0 -224 -130.5 -351.5t-341.5 -127.5q-214 0 -343.5 126.5
t-129.5 352.5zM323 467q0 -143 66 -225.5t180 -82.5t179 82.5t65 225.5v123q0 142 -65 224.5t-179 82.5q-113 0 -179.5 -83t-66.5 -224v-123z" />
    <glyph glyph-name="Uhorn" unicode="&#x1af;" horiz-adv-x="1426" 
d="M1210 472q0 -226 -147 -364t-389 -138q-250 0 -393 137.5t-143 367.5v778q0 57 30 89.5t83 32.5t83.5 -32.5t30.5 -89.5v-764q0 -148 83 -234t226 -86q142 0 225.5 86t83.5 234v764q0 58 30 90t86 32q13 0 59 -2.5t64 -2.5q63 0 87.5 31t24.5 94v24q0 52 25 78t68 26
t67 -26t24 -78v-40q0 -118 -65.5 -194.5t-191.5 -76.5q-44 0 -51 1v-737z" />
    <glyph glyph-name="uhorn" unicode="&#x1b0;" horiz-adv-x="1296" 
d="M128 332v615q0 58 29 89t82 31t82 -31t29 -89v-558q0 -106 53.5 -162.5t151.5 -56.5q109 0 179.5 66t70.5 167v544q0 58 29 89t83 31h88q70 0 93 21.5t23 86.5v58q0 46 25 73.5t68 27.5q42 0 67 -27.5t25 -74.5v-64q0 -262 -234 -262h-44v-798q0 -56 -29 -87t-81 -31
q-51 0 -79.5 29t-29.5 83v74h-12q-33 -90 -118 -140.5t-202 -50.5q-168 0 -258.5 90t-90.5 257z" />
    <glyph glyph-name="uni01C4" unicode="&#x1c4;" horiz-adv-x="2474" 
d="M1647 1747q0 26 18 44t45 18q31 0 59 -30l121 -161h5l122 158q28 33 58 33q28 0 46 -18t18 -44q0 -30 -25 -52l-130 -149q-41 -41 -90 -41q-51 0 -92 41l-128 147q-27 24 -27 54zM154 162v1041q0 84 41 123t130 39h299q298 0 452 -173.5t154 -509.5q0 -335 -154 -508.5
t-452 -173.5h-299q-89 0 -130 39t-41 123zM1390 116q0 32 19.5 68.5t85.5 127.5l601 848v13h-583q-47 0 -75 26t-28 70t28 70t75 26h732q55 0 87 -30t32 -81q0 -33 -20.5 -71.5t-86.5 -131.5l-592 -847v-12h626q46 0 74 -26.5t28 -70.5q0 -43 -28.5 -69t-74.5 -26h-777
q-55 0 -89 32.5t-34 83.5zM380 192h222q201 0 298.5 121t97.5 369q0 249 -98 370.5t-298 121.5h-222v-982z" />
    <glyph glyph-name="uni01C5" unicode="&#x1c5;" horiz-adv-x="2296" 
d="M1718 1234l-135 155q-25 26 -25 57q0 28 19 48t48 20q34 0 61 -36l120 -166h7l117 164q29 38 64 38q29 0 48.5 -20t19.5 -48q0 -30 -25 -55l-136 -156q-41 -44 -91 -44q-51 0 -92 43zM154 162v1041q0 84 41 123t130 39h299q298 0 452 -173.5t154 -509.5
q0 -335 -154 -508.5t-452 -173.5h-299q-89 0 -130 39t-41 123zM380 192h222q201 0 298.5 121t97.5 369q0 249 -98 370.5t-298 121.5h-222v-982zM1412 103q0 56 56 127l476 632v12h-440q-47 0 -73 26t-26 67t26 66.5t73 25.5h582q58 0 90.5 -28.5t32.5 -75.5q0 -57 -57 -129
l-473 -633v-11h452q47 0 74 -25.5t27 -64.5q0 -42 -27 -68.5t-74 -26.5h-596q-59 0 -91 29t-32 77z" />
    <glyph glyph-name="uni01C6" unicode="&#x1c6;" horiz-adv-x="2172" 
d="M1595 1234l-135 155q-26 27 -26 57q0 28 19 48t48 20q34 0 62 -36l119 -166h7l117 164q29 38 65 38q29 0 48.5 -20t19.5 -48t-25 -55l-137 -156q-41 -44 -90 -44q-51 0 -92 43zM813 168q-24 -81 -111 -132t-202 -51q-184 0 -292 122.5t-108 329.5v184q0 207 109.5 329.5
t294.5 122.5q110 0 191 -46t112 -127h11v421q0 59 29 91t82 32t82 -32t29 -91v-1208q0 -59 -28 -91t-80 -32q-49 0 -77 29.5t-31 83.5v65h-11zM1288 103q0 57 57 127l475 632v12h-440q-47 0 -73 26t-26 67t26 66.5t73 25.5h582q58 0 90.5 -28.5t32.5 -75.5q0 -57 -56 -129
l-474 -633v-11h453q47 0 73.5 -25.5t26.5 -64.5q0 -42 -26.5 -68.5t-73.5 -26.5h-597q-59 0 -91 29t-32 77zM327 470q0 -143 64 -223t179 -80q114 0 181 77.5t67 210.5v163q0 120 -70.5 196t-182.5 76t-175 -80t-63 -222v-118z" />
    <glyph glyph-name="uni01C7" unicode="&#x1c7;" horiz-adv-x="2024" 
d="M995 98q0 -44 -29.5 -71t-76.5 -27h-564q-89 0 -130.5 39t-41.5 123v1089q0 59 30 91.5t84 32.5q53 0 83 -33t30 -91v-1054h509q47 0 76.5 -27.5t29.5 -71.5zM1646 1249q0 60 29.5 93t82.5 33q54 0 84.5 -33t30.5 -93v-832q0 -210 -114 -328t-315 -118q-215 0 -328 118
q-73 78 -73 165q0 48 26 76t69 28q31 0 52.5 -15.5t43.5 -51.5q70 -122 207 -122q99 0 152 62t53 181v837z" />
    <glyph glyph-name="uni01C8" unicode="&#x1c8;" horiz-adv-x="1529" 
d="M1135 1323q0 53 37.5 88.5t93.5 35.5q58 0 95.5 -35t37.5 -89q0 -55 -37.5 -90.5t-95.5 -35.5q-56 0 -93.5 36t-37.5 90zM995 98q0 -44 -29.5 -71t-76.5 -27h-564q-89 0 -130.5 39t-41.5 123v1089q0 59 30 91.5t84 32.5q53 0 83 -33t30 -91v-1054h509q47 0 76.5 -27.5
t29.5 -71.5zM1079 -369q-82 0 -120 29q-34 22 -34 65q0 35 23 55.5t62 20.5q6 0 23 -0.5t22 -0.5q54 0 77.5 40.5t23.5 136.5v966q0 58 29 90.5t82 32.5t82 -32.5t29 -90.5v-1002q0 -149 -78 -229.5t-221 -80.5z" />
    <glyph glyph-name="uni01C9" unicode="&#x1c9;" horiz-adv-x="1041" 
d="M648 1323q0 53 37.5 88.5t92.5 35.5q58 0 96 -35t38 -89q0 -55 -38 -90.5t-96 -35.5q-56 0 -93 36t-37 90zM258 -10q-51 0 -80.5 31.5t-29.5 91.5v1208q0 60 29.5 91.5t80.5 31.5q52 0 82 -31.5t30 -91.5v-1208q0 -60 -30 -91.5t-82 -31.5zM592 -369q-81 0 -121 29
q-33 22 -33 65q0 35 22.5 55.5t61.5 20.5q6 0 23.5 -0.5t22.5 -0.5q54 0 77 40.5t23 136.5v966q0 58 29.5 90.5t82.5 32.5q52 0 81 -32t29 -91v-1002q0 -149 -77.5 -229.5t-220.5 -80.5z" />
    <glyph glyph-name="uni01CA" unicode="&#x1ca;" horiz-adv-x="2390" 
d="M371 111q0 -57 -28 -89t-79 -32t-79.5 32.5t-28.5 88.5v1123q0 141 121 141q42 0 72.5 -26t70.5 -86l570 -878h11v869q0 57 27.5 89t78.5 32t79.5 -32.5t28.5 -88.5v-1127q0 -137 -115 -137q-44 0 -74 22t-70 83l-575 888h-10v-872zM2013 1249q0 60 29.5 93t82.5 33
q54 0 84 -33t30 -93v-832q0 -210 -113.5 -328t-314.5 -118q-215 0 -328 118q-73 76 -73 165q0 48 25.5 76t69.5 28q31 0 52 -15.5t44 -51.5q70 -122 207 -122q99 0 152 62t53 181v837z" />
    <glyph glyph-name="uni01CB" unicode="&#x1cb;" horiz-adv-x="1895" 
d="M1502 1323q0 53 37.5 88.5t93.5 35.5q58 0 95.5 -35t37.5 -89q0 -55 -37.5 -90.5t-95.5 -35.5q-56 0 -93.5 36t-37.5 90zM371 111q0 -57 -28 -89t-79 -32t-79.5 32.5t-28.5 88.5v1123q0 141 121 141q42 0 72.5 -26t70.5 -86l570 -878h11v869q0 57 27.5 89t78.5 32
t79.5 -32.5t28.5 -88.5v-1127q0 -137 -115 -137q-44 0 -74 22t-70 83l-575 888h-10v-872zM1446 -369q-82 0 -120 29q-34 22 -34 65q0 35 22.5 55.5t61.5 20.5q6 0 23.5 -0.5t22.5 -0.5q54 0 77.5 40.5t23.5 136.5v966q0 58 29 90.5t82 32.5q52 0 81 -32t29 -91v-1002
q0 -149 -77.5 -229.5t-220.5 -80.5z" />
    <glyph glyph-name="uni01CC" unicode="&#x1cc;" horiz-adv-x="1696" 
d="M1303 1323q0 53 37 88.5t93 35.5q58 0 96 -35t38 -89q0 -55 -38 -90.5t-96 -35.5q-56 0 -93 36t-37 90zM1043 112q0 -58 -29 -90t-82 -32t-82.5 32.5t-29.5 90.5v539q0 112 -53.5 171.5t-154.5 59.5q-115 0 -182.5 -78.5t-67.5 -215.5v-476q0 -58 -29 -90.5t-82 -32.5
t-82 32t-29 91v833q0 56 29.5 88t80.5 32q50 0 78.5 -29.5t29.5 -84.5v-85h11q32 97 116 151.5t202 54.5q170 0 263 -94t93 -265v-602zM1247 -369q-83 0 -121 29q-33 22 -33 65q0 35 22.5 55.5t61.5 20.5q6 0 23 -0.5t22 -0.5q54 0 77.5 40.5t23.5 136.5v966q0 58 29.5 90.5
t82.5 32.5q52 0 81 -32.5t29 -90.5v-1002q0 -149 -77.5 -229.5t-220.5 -80.5z" />
    <glyph glyph-name="Acaron" unicode="&#x1cd;" horiz-adv-x="1233" 
d="M370 1747q0 26 18 44t45 18q31 0 59 -30l121 -161h5l122 158q28 33 58 33q28 0 46 -18t18 -44q0 -30 -25 -52l-130 -149q-41 -41 -90 -41q-51 0 -92 41l-128 147q-27 24 -27 54zM155 -12q-48 0 -77 26t-29 69q0 32 19 88l375 1061q27 76 67.5 110t107.5 34q68 0 108 -34
t66 -110l375 -1061q17 -51 17 -85q0 -45 -29.5 -71.5t-78.5 -26.5q-46 0 -74.5 25.5t-45.5 82.5l-94 282h-494l-94 -282q-18 -58 -45.5 -83t-73.5 -25zM422 552h386l-187 577h-11z" />
    <glyph glyph-name="acaron" unicode="&#x1ce;" horiz-adv-x="1076" 
d="M449 1234l-135 155q-26 27 -26 57q0 28 19.5 48t48.5 20q33 0 61 -36l119 -166h7l118 164q27 38 64 38q29 0 48.5 -20t19.5 -48q0 -30 -25 -55l-137 -156q-21 -23 -40.5 -33.5t-49.5 -10.5q-51 0 -92 43zM724 137q-43 -73 -120 -112.5t-175 -39.5q-154 0 -249.5 89
t-95.5 233q0 146 100.5 230t277.5 85h264v94q0 89 -53 135t-155 46q-61 0 -108.5 -22t-94.5 -70q-37 -36 -91 -36q-37 0 -59 22.5t-22 58.5q0 98 131 169q99 54 258 54q200 0 308 -93t108 -265v-605q0 -57 -28 -88.5t-80 -31.5q-46 0 -73.5 26.5t-31.5 73.5v47h-11zM307 318
q0 -73 52.5 -118.5t138.5 -45.5q97 0 162.5 58t65.5 144v114h-233q-89 0 -137.5 -39.5t-48.5 -112.5z" />
    <glyph glyph-name="Icaron" unicode="&#x1cf;" horiz-adv-x="533" 
d="M21 1747q0 26 18 44t45 18q31 0 59 -30l121 -161h4l122 158q30 33 59 33q28 0 46 -18t18 -44q0 -29 -26 -52l-130 -149q-39 -41 -90 -41q-50 0 -91 41l-129 147q-26 23 -26 54zM267 -10q-54 0 -84 32.5t-30 91.5v1137q0 59 29.5 91.5t83.5 32.5q53 0 83.5 -33t30.5 -91
v-1137q0 -58 -30 -91t-83 -33z" />
    <glyph glyph-name="icaron" unicode="&#x1d0;" horiz-adv-x="524" 
d="M168 1234l-135 155q-26 27 -26 57q0 28 19 48t48 20q34 0 62 -36l119 -166h7l117 164q29 38 65 38q29 0 48.5 -20t19.5 -48t-25 -55l-137 -156q-41 -44 -90 -44q-51 0 -92 43zM151 113v831q0 60 29.5 91.5t81.5 31.5q51 0 80.5 -31.5t29.5 -91.5v-831q0 -60 -29.5 -91.5
t-81.5 -31.5q-51 0 -80.5 32t-29.5 91z" />
    <glyph glyph-name="Ocaron" unicode="&#x1d1;" horiz-adv-x="1334" 
d="M421 1747q0 26 17.5 44t45.5 18q31 0 59 -30l121 -161h4l122 158q30 33 59 33q27 0 45.5 -18t18.5 -44q0 -29 -26 -52l-130 -149q-39 -41 -90 -41q-52 0 -91 41l-129 147q-26 23 -26 54zM102 582v188q0 290 151 456t414 166t413.5 -166.5t150.5 -455.5v-188
q0 -286 -150 -448.5t-414 -162.5q-266 0 -415.5 162.5t-149.5 448.5zM329 771v-189q0 -195 90 -306t248 -111q157 0 247.5 111t90.5 306v189q0 199 -90.5 313t-247.5 114t-247.5 -114t-90.5 -313z" />
    <glyph glyph-name="ocaron" unicode="&#x1d2;" horiz-adv-x="1137" 
d="M479 1234l-135 155q-25 26 -25 57q0 28 19 48t48 20q34 0 61 -36l120 -166h7l117 164q27 38 64 38q29 0 48.5 -20t19.5 -48q0 -30 -25 -55l-136 -156q-42 -44 -91 -44q-51 0 -92 43zM569 1077q210 0 341 -127.5t131 -348.5v-142q0 -224 -130.5 -351.5t-341.5 -127.5
q-212 0 -342.5 127.5t-130.5 351.5v141q0 222 131 349.5t342 127.5zM569 897q-113 0 -179.5 -83t-66.5 -224v-123q0 -143 66 -225.5t180 -82.5t179 82.5t65 225.5v123q0 142 -65 224.5t-179 82.5z" />
    <glyph glyph-name="Ucaron" unicode="&#x1d3;" horiz-adv-x="1347" 
d="M428 1747q0 26 18 44t45 18q31 0 59 -30l121 -161h4l123 158q28 33 58 33q28 0 46 -18t18 -44q0 -29 -26 -52l-130 -149q-39 -41 -90 -41q-50 0 -91 41l-129 147q-26 25 -26 54zM1210 472q0 -226 -147 -363.5t-389 -137.5q-250 0 -393 137t-143 367v778q0 57 30 89.5
t83 32.5t83.5 -32.5t30.5 -89.5v-764q0 -148 83 -234t226 -86q142 0 225.5 86t83.5 234v764q0 57 30 89.5t83 32.5t83.5 -32.5t30.5 -89.5v-781z" />
    <glyph glyph-name="ucaron" unicode="&#x1d4;" horiz-adv-x="1168" 
d="M489 1234l-135 155q-25 26 -25 57q0 28 19 48t48 20q33 0 61 -36l120 -166h7l117 164q27 38 64 38q29 0 48.5 -20t19.5 -48q0 -30 -25 -55l-136 -156q-42 -44 -91 -44q-51 0 -92 43zM797 176q-28 -80 -108 -135.5t-212 -55.5q-160 0 -254.5 85.5t-94.5 261.5v615
q0 60 29.5 90t81.5 30t81.5 -30t29.5 -90v-558q0 -113 56.5 -164.5t148.5 -51.5q111 0 180.5 65.5t69.5 164.5v544q0 60 30 90t82 30q51 0 81 -30t30 -90v-839q0 -57 -30 -87.5t-80 -30.5q-49 0 -78.5 28.5t-30.5 83.5v74h-12z" />
    <glyph glyph-name="Udieresismacron" unicode="&#x1d5;" horiz-adv-x="1347" 
d="M391 1851q0 27 21 44.5t57 17.5h408q36 0 57 -17.5t21 -44.5q0 -28 -21 -46t-57 -18h-408q-36 0 -57 18t-21 46zM412 1586q0 42 26 69.5t66 27.5q41 0 69.5 -27.5t28.5 -69.5q0 -40 -28.5 -67t-69.5 -27q-40 0 -66 26.5t-26 67.5zM744 1586q0 42 27.5 69.5t66.5 27.5
q42 0 69 -27.5t27 -69.5q0 -41 -27 -67.5t-69 -26.5q-39 0 -66.5 27t-27.5 67zM1210 472q0 -226 -147 -363.5t-389 -137.5q-250 0 -393 137t-143 367v778q0 57 30 89.5t83 32.5t83.5 -32.5t30.5 -89.5v-764q0 -148 83 -234t226 -86q142 0 225.5 86t83.5 234v764
q0 57 30 89.5t83 32.5t83.5 -32.5t30.5 -89.5v-781z" />
    <glyph glyph-name="udieresismacron" unicode="&#x1d6;" horiz-adv-x="1168" 
d="M293 1615q0 29 21 47.5t58 18.5h415q37 0 58.5 -18t21.5 -47t-21.5 -48.5t-58.5 -19.5h-415q-37 0 -58 19t-21 48zM292 1301q0 47 29.5 77t73.5 30q46 0 76 -30t30 -77q0 -45 -30 -74.5t-76 -29.5q-44 0 -73.5 29.5t-29.5 74.5zM658 1301q0 47 29.5 77t73.5 30
q47 0 77 -30t30 -77q0 -45 -30.5 -74.5t-76.5 -29.5q-44 0 -73.5 29.5t-29.5 74.5zM797 176q-28 -80 -108 -135.5t-212 -55.5q-160 0 -254.5 85.5t-94.5 261.5v615q0 60 29.5 90t81.5 30t81.5 -30t29.5 -90v-558q0 -113 56.5 -164.5t148.5 -51.5q111 0 180.5 65.5
t69.5 164.5v544q0 60 30 90t82 30q51 0 81 -30t30 -90v-839q0 -57 -30 -87.5t-80 -30.5q-49 0 -78.5 28.5t-30.5 83.5v74h-12z" />
    <glyph glyph-name="Udieresisacute" unicode="&#x1d7;" horiz-adv-x="1347" 
d="M615 1772q0 29 31 51l108 74q30 20 43.5 26t29.5 6q28 0 46.5 -18.5t18.5 -45.5q0 -39 -49 -66l-114 -58q-36 -20 -61 -20q-23 0 -38 14.5t-15 36.5zM412 1586q0 42 26 69.5t66 27.5q41 0 69.5 -27.5t28.5 -69.5q0 -40 -28.5 -67t-69.5 -27q-40 0 -66 26.5t-26 67.5z
M744 1586q0 42 27.5 69.5t66.5 27.5q42 0 69 -27.5t27 -69.5q0 -41 -27 -67.5t-69 -26.5q-39 0 -66.5 27t-27.5 67zM1210 472q0 -226 -147 -363.5t-389 -137.5q-250 0 -393 137t-143 367v778q0 57 30 89.5t83 32.5t83.5 -32.5t30.5 -89.5v-764q0 -148 83 -234t226 -86
q142 0 225.5 86t83.5 234v764q0 57 30 89.5t83 32.5t83.5 -32.5t30.5 -89.5v-781z" />
    <glyph glyph-name="udieresisacute" unicode="&#x1d8;" horiz-adv-x="1168" 
d="M534 1578q0 17 15 43l96 151q26 39 70 39q33 0 57.5 -24.5t24.5 -58.5q0 -32 -19 -54l-121 -141q-23 -26 -54 -26q-28 0 -48.5 21t-20.5 50zM292 1301q0 47 29.5 77t73.5 30q46 0 76 -30t30 -77q0 -45 -30 -74.5t-76 -29.5q-44 0 -73.5 29.5t-29.5 74.5zM658 1301
q0 47 29.5 77t73.5 30q47 0 77 -30t30 -77q0 -45 -30.5 -74.5t-76.5 -29.5q-44 0 -73.5 29.5t-29.5 74.5zM797 176q-28 -80 -108 -135.5t-212 -55.5q-160 0 -254.5 85.5t-94.5 261.5v615q0 60 29.5 90t81.5 30t81.5 -30t29.5 -90v-558q0 -113 56.5 -164.5t148.5 -51.5
q111 0 180.5 65.5t69.5 164.5v544q0 60 30 90t82 30q51 0 81 -30t30 -90v-839q0 -57 -30 -87.5t-80 -30.5q-49 0 -78.5 28.5t-30.5 83.5v74h-12z" />
    <glyph glyph-name="Udieresiscaron" unicode="&#x1d9;" horiz-adv-x="1347" 
d="M429 1868q0 26 17 43.5t43 17.5q24 0 64 -30l118 -87h4l118 87q40 30 64 30q26 0 43 -17.5t17 -43.5q0 -29 -32 -50l-125 -83q-52 -33 -87 -33t-87 33l-125 83q-32 21 -32 50zM423 1580q0 40 24 65.5t62 25.5q39 0 65 -25.5t26 -65.5q0 -38 -26 -63t-65 -25
q-37 0 -61.5 25t-24.5 63zM746 1580q0 39 25 65t62 26q40 0 65 -25.5t25 -65.5q0 -39 -25.5 -63.5t-64.5 -24.5q-36 0 -61.5 25.5t-25.5 62.5zM1210 472q0 -226 -147 -363.5t-389 -137.5q-250 0 -393 137t-143 367v778q0 57 30 89.5t83 32.5t83.5 -32.5t30.5 -89.5v-764
q0 -148 83 -234t226 -86q142 0 225.5 86t83.5 234v764q0 57 30 89.5t83 32.5t83.5 -32.5t30.5 -89.5v-781z" />
    <glyph glyph-name="udieresiscaron" unicode="&#x1da;" horiz-adv-x="1168" 
d="M489 1539l-135 155q-25 26 -25 57q0 28 19 48t48 20q33 0 61 -36l120 -166h7l117 164q27 38 64 38q29 0 48.5 -20t19.5 -48q0 -30 -25 -55l-136 -156q-42 -44 -91 -44q-51 0 -92 43zM292 1301q0 47 29.5 77t73.5 30q46 0 76 -30t30 -77q0 -45 -30 -74.5t-76 -29.5
q-44 0 -73.5 29.5t-29.5 74.5zM658 1301q0 47 29.5 77t73.5 30q47 0 77 -30t30 -77q0 -45 -30.5 -74.5t-76.5 -29.5q-44 0 -73.5 29.5t-29.5 74.5zM797 176q-28 -80 -108 -135.5t-212 -55.5q-160 0 -254.5 85.5t-94.5 261.5v615q0 60 29.5 90t81.5 30t81.5 -30t29.5 -90
v-558q0 -113 56.5 -164.5t148.5 -51.5q111 0 180.5 65.5t69.5 164.5v544q0 60 30 90t82 30q51 0 81 -30t30 -90v-839q0 -57 -30 -87.5t-80 -30.5q-49 0 -78.5 28.5t-30.5 83.5v74h-12z" />
    <glyph glyph-name="Udieresisgrave" unicode="&#x1db;" horiz-adv-x="1347" 
d="M727 1772q0 -22 -15 -36.5t-38 -14.5q-25 0 -61 20l-113 58q-49 26 -49 66q0 27 18 45.5t46 18.5q16 0 29.5 -6t43.5 -26l108 -74q31 -22 31 -51zM412 1586q0 42 26 69.5t66 27.5q41 0 69.5 -27.5t28.5 -69.5q0 -40 -28.5 -67t-69.5 -27q-40 0 -66 26.5t-26 67.5z
M744 1586q0 42 27.5 69.5t66.5 27.5q42 0 69 -27.5t27 -69.5q0 -41 -27 -67.5t-69 -26.5q-39 0 -66.5 27t-27.5 67zM1210 472q0 -226 -147 -363.5t-389 -137.5q-250 0 -393 137t-143 367v778q0 57 30 89.5t83 32.5t83.5 -32.5t30.5 -89.5v-764q0 -148 83 -234t226 -86
q142 0 225.5 86t83.5 234v764q0 57 30 89.5t83 32.5t83.5 -32.5t30.5 -89.5v-781z" />
    <glyph glyph-name="udieresisgrave" unicode="&#x1dc;" horiz-adv-x="1168" 
d="M504 1533l-121 141q-19 22 -19 54q0 34 24 58.5t58 24.5q43 0 69 -39l96 -151q15 -23 15 -43q0 -29 -20.5 -50t-48.5 -21q-32 0 -53 26zM292 1301q0 47 29.5 77t73.5 30q46 0 76 -30t30 -77q0 -45 -30 -74.5t-76 -29.5q-44 0 -73.5 29.5t-29.5 74.5zM658 1301
q0 47 29.5 77t73.5 30q47 0 77 -30t30 -77q0 -45 -30.5 -74.5t-76.5 -29.5q-44 0 -73.5 29.5t-29.5 74.5zM797 176q-28 -80 -108 -135.5t-212 -55.5q-160 0 -254.5 85.5t-94.5 261.5v615q0 60 29.5 90t81.5 30t81.5 -30t29.5 -90v-558q0 -113 56.5 -164.5t148.5 -51.5
q111 0 180.5 65.5t69.5 164.5v544q0 60 30 90t82 30q51 0 81 -30t30 -90v-839q0 -57 -30 -87.5t-80 -30.5q-49 0 -78.5 28.5t-30.5 83.5v74h-12z" />
    <glyph glyph-name="uni04D9" unicode="&#x259;" horiz-adv-x="1122" 
d="M1010 604v-150q0 -212 -127.5 -343t-332.5 -131q-195 0 -320 126t-125 321q0 88 24.5 120.5t90.5 32.5h565v50q-1 124 -73 195.5t-197 71.5q-121 0 -199 -69q-42 -36 -59.5 -46t-43.5 -10q-36 0 -58.5 24t-22.5 62q0 61 65 115q51 49 139 76.5t192 27.5q224 0 353 -126.5
t129 -346.5zM785 426h-465v-3q0 -121 61.5 -193t165.5 -72q108 0 173 73t65 192v3z" />
    <glyph glyph-name="uni04D9" unicode="&#x1dd;" horiz-adv-x="1122" 
d="M1010 604v-150q0 -212 -127.5 -343t-332.5 -131q-195 0 -320 126t-125 321q0 88 24.5 120.5t90.5 32.5h565v50q-1 124 -73 195.5t-197 71.5q-121 0 -199 -69q-42 -36 -59.5 -46t-43.5 -10q-36 0 -58.5 24t-22.5 62q0 61 65 115q51 49 139 76.5t192 27.5q224 0 353 -126.5
t129 -346.5zM785 426h-465v-3q0 -121 61.5 -193t165.5 -72q108 0 173 73t65 192v3z" />
    <glyph glyph-name="Adieresismacron" unicode="&#x1de;" horiz-adv-x="1233" 
d="M334 1851q0 27 20.5 44.5t56.5 17.5h409q36 0 56.5 -17.5t20.5 -44.5q0 -28 -20.5 -46t-56.5 -18h-409q-36 0 -56.5 18t-20.5 46zM354 1586q0 42 26.5 69.5t65.5 27.5q42 0 70 -27.5t28 -69.5q0 -40 -28.5 -67t-69.5 -27q-39 0 -65.5 27t-26.5 67zM686 1586
q0 42 27.5 69.5t66.5 27.5q42 0 69 -27.5t27 -69.5q0 -41 -27 -67.5t-69 -26.5q-39 0 -66.5 27t-27.5 67zM155 -12q-48 0 -77 26t-29 69q0 32 19 88l375 1061q27 76 67.5 110t107.5 34q68 0 108 -34t66 -110l375 -1061q17 -51 17 -85q0 -45 -29.5 -71.5t-78.5 -26.5
q-46 0 -74.5 25.5t-45.5 82.5l-94 282h-494l-94 -282q-18 -58 -45.5 -83t-73.5 -25zM422 552h386l-187 577h-11z" />
    <glyph glyph-name="adieresismacron" unicode="&#x1df;" horiz-adv-x="1076" 
d="M253 1615q0 29 21 47.5t58 18.5h415q37 0 58 -18t21 -47q0 -30 -21 -49t-58 -19h-415q-37 0 -58 19t-21 48zM252 1301q0 47 29 77t74 30t75 -30t30 -77q0 -45 -30 -74.5t-75 -29.5q-44 0 -73.5 29.5t-29.5 74.5zM618 1301q0 47 29 77t73 30q47 0 77 -30t30 -77
q0 -45 -30.5 -74.5t-76.5 -29.5q-44 0 -73 29.5t-29 74.5zM724 137q-43 -73 -120 -112.5t-175 -39.5q-154 0 -249.5 89t-95.5 233q0 146 100.5 230t277.5 85h264v94q0 89 -53 135t-155 46q-61 0 -108.5 -22t-94.5 -70q-37 -36 -91 -36q-37 0 -59 22.5t-22 58.5q0 98 131 169
q99 54 258 54q200 0 308 -93t108 -265v-605q0 -57 -28 -88.5t-80 -31.5q-46 0 -73.5 26.5t-31.5 73.5v47h-11zM307 318q0 -73 52.5 -118.5t138.5 -45.5q97 0 162.5 58t65.5 144v114h-233q-89 0 -137.5 -39.5t-48.5 -112.5z" />
    <glyph glyph-name="Adotmacron" unicode="&#x1e0;" horiz-adv-x="1233" 
d="M334 1851q0 27 20.5 44.5t56.5 17.5h409q36 0 56.5 -17.5t20.5 -44.5q0 -28 -20.5 -46t-56.5 -18h-409q-36 0 -56.5 18t-20.5 46zM501 1578q0 49 33 81.5t81 32.5t81.5 -33t33.5 -81t-33.5 -80t-81.5 -32q-49 0 -81.5 32t-32.5 80zM155 -12q-48 0 -77 26t-29 69
q0 32 19 88l375 1061q27 76 67.5 110t107.5 34q68 0 108 -34t66 -110l375 -1061q17 -51 17 -85q0 -45 -29.5 -71.5t-78.5 -26.5q-46 0 -74.5 25.5t-45.5 82.5l-94 282h-494l-94 -282q-18 -58 -45.5 -83t-73.5 -25zM422 552h386l-187 577h-11z" />
    <glyph glyph-name="adotmacron" unicode="&#x1e1;" horiz-adv-x="1076" 
d="M253 1615q0 29 21 47.5t58 18.5h415q37 0 58 -18t21 -47q0 -30 -21 -49t-58 -19h-415q-37 0 -58 19t-21 48zM420 1302q0 50 34.5 84t84.5 34q49 0 83.5 -34t34.5 -84q0 -49 -34.5 -83t-83.5 -34q-50 0 -84.5 34t-34.5 83zM724 137q-43 -73 -120 -112.5t-175 -39.5
q-154 0 -249.5 89t-95.5 233q0 146 100.5 230t277.5 85h264v94q0 89 -53 135t-155 46q-61 0 -108.5 -22t-94.5 -70q-37 -36 -91 -36q-37 0 -59 22.5t-22 58.5q0 98 131 169q99 54 258 54q200 0 308 -93t108 -265v-605q0 -57 -28 -88.5t-80 -31.5q-46 0 -73.5 26.5
t-31.5 73.5v47h-11zM307 318q0 -73 52.5 -118.5t138.5 -45.5q97 0 162.5 58t65.5 144v114h-233q-89 0 -137.5 -39.5t-48.5 -112.5z" />
    <glyph glyph-name="AEmacron" unicode="&#x1e2;" horiz-adv-x="1873" 
d="M1061 1576q0 28 20.5 45t56.5 17h409q36 0 56.5 -17t20.5 -44q0 -28 -20.5 -46t-56.5 -18h-409q-36 0 -56.5 18t-20.5 45zM451 388l-157 -300q-47 -93 -123 -93q-48 0 -79.5 30.5t-31.5 75.5q0 31 21 72l557 1043q42 82 92 115.5t130 33.5h825q46 0 75 -27t29 -69
t-29 -68.5t-75 -26.5h-542v-389h511q44 0 71.5 -26t27.5 -66q0 -41 -27.5 -66t-71.5 -25h-511v-411h540q47 0 76.5 -26.5t29.5 -69.5t-29 -69t-77 -26h-590q-89 0 -132 40.5t-43 123.5v224h-467zM538 568h380v606h-70z" />
    <glyph glyph-name="aemacron" unicode="&#x1e3;" horiz-adv-x="1735" 
d="M574 1303q0 29 21 47t58 18h415q37 0 58.5 -18t21.5 -47t-21.5 -48t-58.5 -19h-415q-37 0 -58 19t-21 48zM1212 -18q-141 0 -241 51.5t-153 149.5h-14q-50 -95 -145.5 -146.5t-222.5 -51.5q-159 0 -255.5 88.5t-96.5 233.5q0 148 98.5 230.5t274.5 82.5h268v99
q0 175 -200 175q-64 0 -109.5 -20t-91.5 -68q-34 -40 -52.5 -51.5t-47.5 -11.5q-40 0 -63.5 23.5t-23.5 64.5t27 83.5t74 76.5q109 82 292 82q221 0 328 -133h14q115 129 326 129q201 0 321.5 -126t120.5 -336q0 -73 -27 -104.5t-89 -31.5h-571v-50q0 -121 74 -190.5
t204 -69.5q119 0 200 69q42 33 62 43.5t42 10.5q33 0 55 -23t22 -58q0 -66 -66 -118q-54 -48 -142 -75.5t-192 -27.5zM953 615h470v15q0 122 -62 193.5t-167 71.5q-107 0 -174 -73.5t-67 -191.5v-15zM307 319q0 -74 52.5 -119.5t138.5 -45.5q97 0 162 58t65 144v115h-232
q-88 0 -137 -40t-49 -112z" />
    <glyph glyph-name="Gcaron" unicode="&#x1e6;" horiz-adv-x="1290" 
d="M414 1747q0 26 18 44t45 18q31 0 59 -30l121 -161h5l122 158q28 33 58 33q28 0 46 -18t18 -44q0 -30 -25 -52l-130 -149q-41 -41 -90 -41q-51 0 -92 41l-128 147q-27 24 -27 54zM100 579v208q0 283 147 444t408 161q243 0 388 -137q57 -52 91.5 -112.5t34.5 -109.5
q0 -44 -26 -70.5t-69 -26.5q-28 0 -49 13t-42 45q-63 100 -138 150t-177 50q-164 0 -252.5 -107t-88.5 -307v-200q0 -197 91.5 -306t256.5 -109q135 0 217 74t82 195v107h-223q-50 0 -77.5 23.5t-27.5 66.5t27.5 66.5t77.5 23.5h292q77 0 113 -35.5t36 -111.5v-130
q0 -207 -147.5 -340t-376.5 -133q-267 0 -417.5 161t-150.5 447z" />
    <glyph glyph-name="gcaron" unicode="&#x1e7;" horiz-adv-x="1184" 
d="M501 1234l-135 155q-26 27 -26 57q0 28 19 48t48 20q34 0 62 -36l119 -166h7l117 164q29 38 64 38q29 0 49 -20t20 -48t-25 -55l-137 -156q-41 -44 -90 -44q-51 0 -92 43zM806 181q-32 -73 -111.5 -119.5t-187.5 -46.5q-178 0 -292.5 123t-114.5 333v145q0 210 114 333.5
t291 123.5q114 0 195.5 -51t111.5 -125h11v59q1 55 29.5 83.5t76.5 28.5q51 0 80 -31.5t29 -91.5v-915q0 -210 -127 -318.5t-347 -108.5q-191 0 -309 70q-52 30 -83 71.5t-31 85.5q0 40 25 64.5t67 24.5q10 0 20 -2.5l16 -4t17 -9t13.5 -9.5t16 -13.5t15.5 -12.5
q102 -81 228 -81q124 0 191 64.5t67 185.5v144h-11zM327 491q0 -135 69.5 -217.5t182.5 -82.5q111 0 174.5 79t63.5 195v146q0 118 -65 198.5t-178 80.5t-180 -82.5t-67 -219.5v-97z" />
    <glyph glyph-name="Kcaron" unicode="&#x1e8;" horiz-adv-x="1225" 
d="M349 1747q0 26 17.5 44t45.5 18q32 0 58 -30l122 -161h4l122 158q30 33 59 33q27 0 45 -18t18 -44q0 -30 -25 -52l-130 -149q-41 -41 -90 -41q-52 0 -91 41l-129 147q-26 23 -26 54zM1048 -5q-62 0 -121 80l-390 548l-157 -161v-348q0 -59 -29.5 -91.5t-82.5 -32.5
q-54 0 -84.5 33t-30.5 91v1137q0 59 30 91.5t84 32.5q53 0 83 -33t30 -91v-512h12l533 571q53 60 102 60q43 0 71.5 -29t28.5 -71q0 -23 -10.5 -42.5t-41.5 -52.5l-369 -402l399 -550q34 -46 45 -69.5t11 -49.5q0 -48 -31.5 -78.5t-81.5 -30.5z" />
    <glyph glyph-name="kcaron" unicode="&#x1e9;" horiz-adv-x="1030" 
d="M6 1819q0 26 18 44t45 18q31 0 59 -30l121 -161h5l122 158q28 33 58 33q28 0 46 -18t18 -44q0 -30 -25 -52l-130 -149q-41 -41 -90 -41q-51 0 -92 41l-128 147q-27 24 -27 54zM366 113q0 -59 -29 -91t-81 -32q-53 0 -82.5 32.5t-29.5 90.5v1208q0 59 29 91t82 32
t82 -32.5t29 -90.5v-701h11l393 400q51 52 99 52q41 0 67 -26t26 -67q0 -44 -41 -86l-287 -291l323 -414q39 -48 39 -91q0 -41 -30 -71.5t-72 -30.5q-54 0 -100 59l-325 418l-103 -98v-261z" />
    <glyph glyph-name="Oogonek" unicode="&#x1ea;" horiz-adv-x="1334" 
d="M102 583v187q0 289 151 455.5t414 166.5t413.5 -166.5t150.5 -455.5v-187q0 -95 -12.5 -170t-38.5 -132.5t-55 -98.5t-72 -87q-12 -13 -38.5 -41t-36 -38.5t-28 -31.5t-25 -33t-16 -29.5t-12.5 -33.5t-3 -33q0 -45 28.5 -69t76.5 -25q42 -1 65 -18q21 -15 21 -49
q0 -45 -49 -67q-35 -17 -89 -17q-94 0 -157 49t-63 141q0 121 98 206l-6 11q-21 -16 -73.5 -29.5t-103.5 -13.5q-247 0 -393.5 165.5t-146.5 443.5zM329 771v-189q0 -195 90 -306t248 -111q157 0 247.5 111t90.5 306v189q0 199 -90.5 313t-247.5 114t-247.5 -114t-90.5 -313
z" />
    <glyph glyph-name="oogonek" unicode="&#x1eb;" horiz-adv-x="1137" 
d="M578 -195q0 113 102 192l-7 11q-56 -28 -122 -28q-205 0 -330 131.5t-125 347.5v141q0 217 129 347t344 130q214 0 343 -130t129 -346v-142q0 -115 -38 -206.5t-125 -184.5q-87 -94 -110 -134t-23 -93q0 -40 30 -63t83 -24q46 -2 69 -15q23 -15 23 -43q0 -37 -34 -60
q-35 -26 -108 -26q-104 0 -167 53.5t-63 141.5zM569 897q-113 0 -179.5 -82.5t-66.5 -224.5v-123q0 -142 66.5 -225t179.5 -83q114 0 179 82.5t65 225.5v123q0 142 -65.5 224.5t-178.5 82.5z" />
    <glyph glyph-name="Oogonekmacron" unicode="&#x1ec;" horiz-adv-x="1332" 
d="M384 1576q0 28 20 45t57 17h409q36 0 56.5 -17t20.5 -44q0 -28 -20.5 -46t-56.5 -18h-409q-36 0 -56.5 18t-20.5 45zM102 583v187q0 289 151 455.5t414 166.5t413.5 -166.5t150.5 -455.5v-187q0 -95 -12.5 -170t-38.5 -132.5t-55 -98.5t-72 -87q-12 -13 -38.5 -41
t-36 -38.5t-28 -31.5t-25 -33t-16 -29.5t-12.5 -33.5t-3 -33q0 -45 28.5 -69t76.5 -25q42 -1 65 -18q21 -15 21 -49q0 -45 -49 -67q-35 -17 -89 -17q-94 0 -157 49t-63 141q0 121 98 206l-6 11q-21 -16 -73.5 -29.5t-103.5 -13.5q-247 0 -393.5 165.5t-146.5 443.5zM329 771
v-189q0 -195 90 -306t248 -111q157 0 247.5 111t90.5 306v189q0 199 -90.5 313t-247.5 114t-247.5 -114t-90.5 -313z" />
    <glyph glyph-name="oogonekmacron" unicode="&#x1ed;" horiz-adv-x="1137" 
d="M282 1303q0 29 21 47t58 18h415q37 0 58.5 -18t21.5 -47t-21.5 -48t-58.5 -19h-415q-37 0 -58 19t-21 48zM578 -195q0 113 102 192l-7 11q-56 -28 -122 -28q-205 0 -330 131.5t-125 347.5v141q0 217 129 347t344 130q214 0 343 -130t129 -346v-142q0 -115 -38 -206.5
t-125 -184.5q-87 -94 -110 -134t-23 -93q0 -40 30 -63t83 -24q46 -2 69 -15q23 -15 23 -43q0 -37 -34 -60q-35 -26 -108 -26q-104 0 -167 53.5t-63 141.5zM569 897q-113 0 -179.5 -82.5t-66.5 -224.5v-123q0 -142 66.5 -225t179.5 -83q114 0 179 82.5t65 225.5v123
q0 142 -65.5 224.5t-178.5 82.5z" />
    <glyph glyph-name="uni01F1" unicode="&#x1f1;" horiz-adv-x="2474" 
d="M154 162v1041q0 84 41 123t130 39h299q298 0 452 -173.5t154 -509.5q0 -335 -154 -508.5t-452 -173.5h-299q-89 0 -130 39t-41 123zM1390 116q0 32 19.5 68.5t85.5 127.5l601 848v13h-583q-47 0 -75 26t-28 70t28 70t75 26h732q55 0 87 -30t32 -81q0 -33 -20.5 -71.5
t-86.5 -131.5l-592 -847v-12h626q46 0 74 -26.5t28 -70.5q0 -43 -28.5 -69t-74.5 -26h-777q-55 0 -89 32.5t-34 83.5zM380 192h222q201 0 298.5 121t97.5 369q0 249 -98 370.5t-298 121.5h-222v-982z" />
    <glyph glyph-name="uni01F2" unicode="&#x1f2;" horiz-adv-x="2296" 
d="M154 162v1041q0 84 41 123t130 39h299q298 0 452 -173.5t154 -509.5q0 -335 -154 -508.5t-452 -173.5h-299q-89 0 -130 39t-41 123zM380 192h222q201 0 298.5 121t97.5 369q0 249 -98 370.5t-298 121.5h-222v-982zM1412 103q0 56 56 127l476 632v12h-440q-47 0 -73 26
t-26 67t26 66.5t73 25.5h582q58 0 90.5 -28.5t32.5 -75.5q0 -57 -57 -129l-473 -633v-11h452q47 0 74 -25.5t27 -64.5q0 -42 -27 -68.5t-74 -26.5h-596q-59 0 -91 29t-32 77z" />
    <glyph glyph-name="uni01F3" unicode="&#x1f3;" horiz-adv-x="2172" 
d="M813 168q-24 -81 -111 -132t-202 -51q-184 0 -292 122.5t-108 329.5v184q0 207 109.5 329.5t294.5 122.5q110 0 191 -46t112 -127h11v421q0 59 29 91t82 32t82 -32t29 -91v-1208q0 -59 -28 -91t-80 -32q-49 0 -77 29.5t-31 83.5v65h-11zM1288 103q0 57 57 127l475 632v12
h-440q-47 0 -73 26t-26 67t26 66.5t73 25.5h582q58 0 90.5 -28.5t32.5 -75.5q0 -57 -56 -129l-474 -633v-11h453q47 0 73.5 -25.5t26.5 -64.5q0 -42 -26.5 -68.5t-73.5 -26.5h-597q-59 0 -91 29t-32 77zM327 470q0 -143 64 -223t179 -80q114 0 181 77.5t67 210.5v163
q0 120 -70.5 196t-182.5 76t-175 -80t-63 -222v-118z" />
    <glyph glyph-name="Gacute" unicode="&#x1f4;" horiz-adv-x="1290" 
d="M610 1576q0 20 15 43l96 150q26 39 69 39q34 0 58 -24t24 -58q0 -31 -19 -55l-121 -140q-21 -26 -53 -26q-28 0 -48.5 21t-20.5 50zM100 579v208q0 283 147 444t408 161q243 0 388 -137q57 -52 91.5 -112.5t34.5 -109.5q0 -44 -26 -70.5t-69 -26.5q-28 0 -49 13t-42 45
q-63 100 -138 150t-177 50q-164 0 -252.5 -107t-88.5 -307v-200q0 -197 91.5 -306t256.5 -109q135 0 217 74t82 195v107h-223q-50 0 -77.5 23.5t-27.5 66.5t27.5 66.5t77.5 23.5h292q77 0 113 -35.5t36 -111.5v-130q0 -207 -147.5 -340t-376.5 -133q-267 0 -417.5 161
t-150.5 447z" />
    <glyph glyph-name="gacute" unicode="&#x1f5;" horiz-adv-x="1184" 
d="M542 1257q0 21 15 42l96 151q26 39 69 39q34 0 58 -24t24 -58q0 -31 -19 -55l-120 -140q-23 -26 -54 -26q-28 0 -48.5 21t-20.5 50zM806 181q-32 -73 -111.5 -119.5t-187.5 -46.5q-178 0 -292.5 123t-114.5 333v145q0 210 114 333.5t291 123.5q114 0 195.5 -51
t111.5 -125h11v59q1 55 29.5 83.5t76.5 28.5q51 0 80 -31.5t29 -91.5v-915q0 -210 -127 -318.5t-347 -108.5q-191 0 -309 70q-52 30 -83 71.5t-31 85.5q0 40 25 64.5t67 24.5q10 0 20 -2.5l16 -4t17 -9t13.5 -9.5t16 -13.5t15.5 -12.5q102 -81 228 -81q124 0 191 64.5
t67 185.5v144h-11zM327 491q0 -135 69.5 -217.5t182.5 -82.5q111 0 174.5 79t63.5 195v146q0 118 -65 198.5t-178 80.5t-180 -82.5t-67 -219.5v-97z" />
    <glyph glyph-name="Ngrave" unicode="&#x1f8;" horiz-adv-x="1372" 
d="M609 1533l-121 141q-19 22 -19 54q0 34 24 58t58 24q45 0 70 -38l96 -151q15 -26 15 -43q0 -29 -20.5 -50t-49.5 -21q-30 0 -53 26zM371 111q0 -57 -28 -89t-79 -32t-79.5 32.5t-28.5 88.5v1123q0 141 121 141q42 0 72.5 -26t70.5 -86l570 -878h11v869q0 57 27.5 89
t78.5 32t79.5 -32.5t28.5 -88.5v-1127q0 -137 -115 -137q-44 0 -74 22t-70 83l-575 888h-10v-872z" />
    <glyph glyph-name="ngrave" unicode="&#x1f9;" horiz-adv-x="1172" 
d="M513 1212l-121 140q-19 24 -19 55q0 34 24 58t58 24q43 0 69 -39l96 -151q15 -21 15 -42q0 -29 -20.5 -50t-48.5 -21q-32 0 -53 26zM1043 112q0 -58 -29 -90t-82 -32t-82.5 32.5t-29.5 90.5v539q0 112 -53.5 171.5t-154.5 59.5q-115 0 -182.5 -78.5t-67.5 -215.5v-476
q0 -58 -29 -90.5t-82 -32.5t-82 32t-29 91v833q0 56 29.5 88t80.5 32q50 0 78.5 -29.5t29.5 -84.5v-85h11q32 97 116 151.5t202 54.5q170 0 263 -94t93 -265v-602z" />
    <glyph glyph-name="Aringacute" unicode="&#x1fa;" horiz-adv-x="1233" 
d="M712 1830l-95 -26q-12 -4 -21 -4q-20 0 -35.5 13.5t-15.5 35.5q0 33 44 50l85 36q16 8 32 8q24 0 41 -15.5t17 -39.5q0 -45 -52 -58zM615 1421q-76 0 -127.5 49.5t-51.5 124.5q0 74 52 123.5t127 49.5t127 -49.5t52 -123.5q0 -75 -51.5 -124.5t-127.5 -49.5zM531 1594
q0 -36 24 -60.5t60 -24.5t60 24.5t24 60.5q0 37 -24 61.5t-60 24.5t-60 -24.5t-24 -61.5zM155 -12q-48 0 -77 26t-29 69q0 32 19 88l375 1061q27 76 67.5 110t107.5 34q68 0 108 -34t66 -110l375 -1061q17 -51 17 -85q0 -45 -29.5 -71.5t-78.5 -26.5q-46 0 -74.5 25.5
t-45.5 82.5l-94 282h-494l-94 -282q-18 -58 -45.5 -83t-73.5 -25zM422 552h386l-187 577h-11z" />
    <glyph glyph-name="aringacute" unicode="&#x1fb;" horiz-adv-x="1076" 
d="M513 1673q0 20 22 48l60 85q19 28 58 28q27 0 47.5 -18t20.5 -43q0 -33 -23 -52l-77 -78q-26 -23 -53 -23q-21 0 -38 15.5t-17 37.5zM538 1182q-86 0 -144.5 56.5t-58.5 141.5t58.5 141t144.5 56t144.5 -56t58.5 -141t-59 -141.5t-144 -56.5zM440 1379q0 -41 28 -69.5
t70 -28.5q41 0 69 28.5t28 69.5q0 42 -28 70.5t-69 28.5q-42 0 -70 -28.5t-28 -70.5zM724 137q-43 -73 -120 -112.5t-175 -39.5q-154 0 -249.5 89t-95.5 233q0 146 100.5 230t277.5 85h264v94q0 89 -53 135t-155 46q-61 0 -108.5 -22t-94.5 -70q-37 -36 -91 -36
q-37 0 -59 22.5t-22 58.5q0 98 131 169q99 54 258 54q200 0 308 -93t108 -265v-605q0 -57 -28 -88.5t-80 -31.5q-46 0 -73.5 26.5t-31.5 73.5v47h-11zM307 318q0 -73 52.5 -118.5t138.5 -45.5q97 0 162.5 58t65.5 144v114h-233q-89 0 -137.5 -39.5t-48.5 -112.5z" />
    <glyph glyph-name="AEacute" unicode="&#x1fc;" horiz-adv-x="1873" 
d="M1293 1576q0 17 15 43l96 150q26 39 70 39q34 0 58 -24t24 -58q0 -31 -19 -55l-121 -140q-23 -26 -54 -26q-28 0 -48.5 21t-20.5 50zM451 388l-157 -300q-47 -93 -123 -93q-48 0 -79.5 30.5t-31.5 75.5q0 31 21 72l557 1043q42 82 92 115.5t130 33.5h825q46 0 75 -27
t29 -69t-29 -68.5t-75 -26.5h-542v-389h511q44 0 71.5 -26t27.5 -66q0 -41 -27.5 -66t-71.5 -25h-511v-411h540q47 0 76.5 -26.5t29.5 -69.5t-29 -69t-77 -26h-590q-89 0 -132 40.5t-43 123.5v224h-467zM538 568h380v606h-70z" />
    <glyph glyph-name="aeacute" unicode="&#x1fd;" horiz-adv-x="1735" 
d="M811 1257q0 20 16 42l95 151q27 39 70 39q34 0 58 -24t24 -58q0 -31 -19 -55l-121 -140q-21 -26 -53 -26q-29 0 -49.5 21t-20.5 50zM1212 -18q-141 0 -241 51.5t-153 149.5h-14q-50 -95 -145.5 -146.5t-222.5 -51.5q-159 0 -255.5 88.5t-96.5 233.5q0 148 98.5 230.5
t274.5 82.5h268v99q0 175 -200 175q-64 0 -109.5 -20t-91.5 -68q-34 -40 -52.5 -51.5t-47.5 -11.5q-40 0 -63.5 23.5t-23.5 64.5t27 83.5t74 76.5q109 82 292 82q221 0 328 -133h14q115 129 326 129q201 0 321.5 -126t120.5 -336q0 -73 -27 -104.5t-89 -31.5h-571v-50
q0 -121 74 -190.5t204 -69.5q119 0 200 69q42 33 62 43.5t42 10.5q33 0 55 -23t22 -58q0 -66 -66 -118q-54 -48 -142 -75.5t-192 -27.5zM953 615h470v15q0 122 -62 193.5t-167 71.5q-107 0 -174 -73.5t-67 -191.5v-15zM307 319q0 -74 52.5 -119.5t138.5 -45.5q97 0 162 58
t65 144v115h-232q-88 0 -137 -40t-49 -112z" />
    <glyph glyph-name="Oslashacute" unicode="&#x1fe;" horiz-adv-x="1332" 
d="M616 1576q0 17 15 43l96 150q26 39 70 39q33 0 57.5 -24t24.5 -58q0 -31 -19 -55l-121 -140q-23 -26 -54 -26q-28 0 -48.5 21t-20.5 50zM115 118l77 96q-90 145 -90 369v187q0 288 150.5 455.5t414.5 167.5q227 0 372 -129l67 82q24 29 57 29q29 0 50 -21t21 -50
q0 -25 -21 -50l-78 -97q97 -155 97 -387v-187q0 -284 -150 -448.5t-415 -164.5q-233 0 -381 134l-64 -79q-24 -29 -57 -29q-29 0 -50 21t-21 50q0 27 21 51zM325 581q0 -98 26 -170l554 687q-89 103 -239 103q-158 0 -249.5 -114.5t-91.5 -314.5v-191zM666 163
q159 0 250.5 110.5t91.5 307.5v191q0 108 -32 189l-556 -691q90 -107 246 -107z" />
    <glyph glyph-name="oslashacute" unicode="&#x1ff;" horiz-adv-x="1137" 
d="M519 1257q0 18 15 42l96 151q26 39 70 39q34 0 58 -24t24 -58q0 -31 -19 -55l-121 -140q-23 -26 -53 -26q-29 0 -49.5 21t-20.5 50zM126 60l67 90q-97 127 -97 309v141q0 217 131.5 347t341.5 130q155 0 277 -81l53 68q25 33 59 33q23 0 42.5 -19t19.5 -43q0 -26 -18 -50
l-61 -79q100 -125 100 -305v-142q0 -224 -130.5 -351.5t-341.5 -127.5q-161 0 -280 81l-60 -79q-27 -33 -59 -33q-25 0 -44 18.5t-19 42.5q0 25 19 50zM315 442q0 -70 27 -124l388 526q-64 59 -161 59q-117 0 -185.5 -88.5t-68.5 -225.5v-147zM406 215q63 -58 163 -58
q120 0 185.5 87t65.5 226v145q0 68 -27 122z" />
    <glyph glyph-name="Adblgrave" unicode="&#x200;" horiz-adv-x="1233" 
d="M520 1580q0 -28 -20 -48.5t-47 -20.5q-30 0 -52 25l-119 139q-18 21 -18 53q0 33 23.5 56.5t55.5 23.5q42 0 68 -38l94 -149q15 -21 15 -41zM816 1580q0 -28 -20 -48.5t-48 -20.5q-29 0 -51 25l-119 139q-19 22 -19 53q0 33 23.5 56.5t56.5 23.5q42 0 68 -38l94 -149
q15 -24 15 -41zM155 -12q-48 0 -77 26t-29 69q0 32 19 88l375 1061q26 76 66.5 110t108.5 34q67 0 107.5 -34t66.5 -110l375 -1061q17 -51 17 -85q0 -45 -29.5 -71.5t-78.5 -26.5q-47 0 -75 25t-46 83l-94 282h-493l-94 -282q-18 -58 -45.5 -83t-73.5 -25zM422 552h386
l-188 577h-10z" />
    <glyph glyph-name="adblgrave" unicode="&#x201;" horiz-adv-x="1076" 
d="M434 1255q0 -28 -20 -48.5t-47 -20.5q-29 0 -52 25l-119 139q-18 23 -18 53q0 33 23.5 56.5t56.5 23.5q42 0 67 -38l95 -149q14 -22 14 -41zM730 1255q0 -28 -20 -48.5t-47 -20.5q-30 0 -52 25l-119 139q-18 21 -18 53q0 33 23.5 56.5t55.5 23.5q42 0 68 -38l94 -149
q15 -21 15 -41zM724 137q-43 -73 -120 -112.5t-175 -39.5q-154 0 -249.5 89t-95.5 233q0 146 100.5 230t277.5 85h264v94q0 89 -53 135t-155 46q-61 0 -108.5 -22t-94.5 -70q-37 -36 -91 -36q-37 0 -59 22.5t-22 58.5q0 98 131 169q99 54 258 54q200 0 308 -93t108 -265
v-605q0 -57 -28 -88.5t-80 -31.5q-46 0 -73.5 26.5t-31.5 73.5v47h-11zM307 318q0 -73 52.5 -118.5t138.5 -45.5q97 0 162.5 58t65.5 144v114h-233q-89 0 -137.5 -39.5t-48.5 -112.5z" />
    <glyph glyph-name="Ainvertedbreve" unicode="&#x202;" horiz-adv-x="1233" 
d="M317 1552q0 39 25 83t64 78q82 75 209 75q133 0 216 -80q36 -35 59 -77.5t23 -77.5q0 -30 -20 -50t-50 -20q-45 0 -68 54q-10 24 -20.5 41t-29 38.5t-46.5 33t-64 11.5q-29 0 -53.5 -9t-40 -21t-30 -32t-21.5 -33.5t-16 -33.5q-24 -49 -70 -49q-29 0 -48 19.5t-19 49.5z
M155 -12q-48 0 -77 26t-29 69q0 32 19 88l375 1061q27 76 67.5 110t107.5 34q68 0 108 -34t66 -110l375 -1061q17 -51 17 -85q0 -45 -29.5 -71.5t-78.5 -26.5q-46 0 -74.5 25.5t-45.5 82.5l-94 282h-494l-94 -282q-18 -58 -45.5 -83t-73.5 -25zM422 552h386l-187 577h-11z
" />
    <glyph glyph-name="ainvertedbreve" unicode="&#x203;" horiz-adv-x="1076" 
d="M241 1265q0 39 25 83.5t64 78.5q82 74 209 74q134 0 216 -79q36 -35 59 -77.5t23 -78.5q0 -30 -20 -49.5t-50 -19.5q-46 0 -68 53q-10 24 -20.5 41t-29 38.5t-46.5 33t-64 11.5t-64 -11.5t-46.5 -34t-29 -39.5t-21.5 -43q-23 -49 -70 -49q-29 0 -48 19.5t-19 48.5z
M724 137q-43 -73 -120 -112.5t-175 -39.5q-154 0 -249.5 89t-95.5 233q0 146 100.5 230t277.5 85h264v94q0 89 -53 135t-155 46q-61 0 -108.5 -22t-94.5 -70q-37 -36 -91 -36q-37 0 -59 22.5t-22 58.5q0 98 131 169q99 54 258 54q200 0 308 -93t108 -265v-605
q0 -57 -28 -88.5t-80 -31.5q-46 0 -73.5 26.5t-31.5 73.5v47h-11zM307 318q0 -73 52.5 -118.5t138.5 -45.5q97 0 162.5 58t65.5 144v114h-233q-89 0 -137.5 -39.5t-48.5 -112.5z" />
    <glyph glyph-name="Edblgrave" unicode="&#x204;" horiz-adv-x="1114" 
d="M478 1579q0 -28 -20 -48.5t-47 -20.5q-30 0 -52 25l-119 139q-18 23 -18 53q0 33 23.5 56.5t56.5 23.5q43 0 67 -38l95 -148q14 -24 14 -42zM774 1579q0 -28 -20 -48.5t-47 -20.5q-30 0 -52 25l-119 139q-19 22 -19 53q0 33 24 56.5t56 23.5q43 0 68 -38l94 -148
q15 -23 15 -42zM153 162v1041q0 83 42 122.5t130 39.5h593q47 0 75 -26.5t28 -69.5t-28 -69t-75 -26h-539v-389h508q44 0 71 -25t27 -67t-27 -66.5t-71 -24.5h-508v-411h537q48 0 76.5 -26t28.5 -70q0 -43 -28.5 -69t-76.5 -26h-591q-89 0 -130.5 39t-41.5 123z" />
    <glyph glyph-name="edblgrave" unicode="&#x205;" horiz-adv-x="1099" 
d="M446 1255q0 -28 -20 -48.5t-47 -20.5q-30 0 -52 25l-119 139q-18 21 -18 53q0 33 23.5 56.5t55.5 23.5q42 0 68 -38l94 -149q15 -21 15 -41zM742 1255q0 -28 -20 -48.5t-48 -20.5q-29 0 -51 25l-119 139q-19 22 -19 53q0 33 23.5 56.5t56.5 23.5q42 0 68 -38l94 -149
q15 -24 15 -41zM98 452v150q0 211 127.5 343t332.5 132q195 0 320.5 -126.5t125.5 -321.5q0 -88 -25 -120.5t-91 -32.5h-564v-50q0 -123 72 -195t197 -72q121 0 199 70q41 35 59.5 45t43.5 10q36 0 58.5 -24t22.5 -62q0 -62 -65 -114q-51 -49 -139 -76.5t-192 -27.5
q-224 0 -353 126t-129 346zM324 631h465v3q0 121 -62 193t-166 72q-107 0 -172 -73t-65 -192v-3z" />
    <glyph glyph-name="Einvertedbreve" unicode="&#x206;" horiz-adv-x="1114" 
d="M275 1552q0 39 25 82.5t63 78.5q83 75 210 75q133 0 215 -80q36 -35 59 -77.5t23 -77.5q0 -31 -20 -50.5t-49 -19.5q-45 0 -68 54q-10 23 -20.5 40.5t-29 39t-47 33t-63.5 11.5q-36 0 -64 -12t-47 -34t-29.5 -39.5t-21.5 -43.5q-22 -49 -69 -49q-29 0 -48 19.5t-19 49.5z
M153 162v1041q0 83 42 122.5t130 39.5h593q47 0 75 -26.5t28 -69.5t-28 -69t-75 -26h-539v-389h508q44 0 71 -25t27 -67t-27 -66.5t-71 -24.5h-508v-411h537q48 0 76.5 -26t28.5 -70q0 -43 -28.5 -69t-76.5 -26h-591q-89 0 -130.5 39t-41.5 123z" />
    <glyph glyph-name="einvertedbreve" unicode="&#x207;" horiz-adv-x="1099" 
d="M253 1265q0 39 25 83.5t64 78.5q82 74 209 74q132 0 216 -79q36 -35 59 -77.5t23 -78.5q0 -30 -20 -49.5t-50 -19.5q-46 0 -68 53q-10 24 -20.5 41t-29 38.5t-46.5 33t-64 11.5t-64 -11.5t-46.5 -34t-29 -39.5t-21.5 -43q-23 -49 -70 -49q-29 0 -48 19.5t-19 48.5z
M98 452v150q0 211 127.5 343t332.5 132q195 0 320.5 -126.5t125.5 -321.5q0 -88 -25 -120.5t-91 -32.5h-564v-50q0 -123 72 -195t197 -72q121 0 199 70q41 35 59.5 45t43.5 10q36 0 58.5 -24t22.5 -62q0 -62 -65 -114q-51 -49 -139 -76.5t-192 -27.5q-224 0 -353 126
t-129 346zM324 631h465v3q0 121 -62 193t-166 72q-107 0 -172 -73t-65 -192v-3z" />
    <glyph glyph-name="Idblgrave" unicode="&#x208;" horiz-adv-x="534" 
d="M172 1579q0 -28 -20 -48.5t-47 -20.5q-30 0 -52 25l-119 139q-18 21 -18 53q0 33 23.5 56.5t55.5 23.5q43 0 68 -38l94 -148q15 -23 15 -42zM468 1579q0 -28 -20 -48.5t-48 -20.5q-29 0 -51 25l-119 139q-19 22 -19 53q0 33 23.5 56.5t56.5 23.5q43 0 68 -38l94 -148
q15 -26 15 -42zM267 -10q-53 0 -83.5 33t-30.5 91v1137q0 59 30 91.5t84 32.5q53 0 83 -33t30 -91v-1137q0 -58 -30 -91t-83 -33z" />
    <glyph glyph-name="idblgrave" unicode="&#x209;" horiz-adv-x="524" 
d="M153 1255q0 -28 -20 -48.5t-47 -20.5q-30 0 -52 25l-119 139q-18 23 -18 53q0 33 23.5 56.5t55.5 23.5q43 0 68 -38l95 -149q14 -22 14 -41zM449 1255q0 -28 -20 -48.5t-47 -20.5q-30 0 -52 25l-119 139q-19 22 -19 53q0 33 24 56.5t56 23.5q42 0 68 -38l94 -149
q15 -21 15 -41zM151 113v831q0 60 29.5 91.5t81.5 31.5q51 0 80.5 -31.5t29.5 -91.5v-831q0 -60 -29.5 -91.5t-81.5 -31.5q-51 0 -80.5 32t-29.5 91z" />
    <glyph glyph-name="Iinvertedbreve" unicode="&#x20a;" horiz-adv-x="534" 
d="M-32 1552q0 39 25 83t64 78q83 75 210 75q133 0 215 -80q36 -35 59 -77.5t23 -77.5q0 -31 -20 -50.5t-50 -19.5q-45 0 -68 54q-10 24 -20.5 41t-29 38.5t-46.5 33t-63 11.5q-36 0 -64 -11.5t-47.5 -34.5t-29 -40t-21.5 -43q-24 -49 -69 -49q-29 0 -48.5 19.5t-19.5 49.5z
M267 -10q-53 0 -83.5 33t-30.5 91v1137q0 59 30 91.5t84 32.5q53 0 83 -33t30 -91v-1137q0 -58 -30 -91t-83 -33z" />
    <glyph glyph-name="iinvertedbreve" unicode="&#x20b;" horiz-adv-x="524" 
d="M-40 1265q0 39 25 83.5t64 78.5q82 74 209 74q132 0 216 -79q36 -35 59 -77.5t23 -78.5q0 -30 -20 -49.5t-50 -19.5q-46 0 -68 53q-10 24 -20.5 41t-29 38.5t-46.5 33t-64 11.5t-64 -11.5t-46.5 -34t-29 -39.5t-21.5 -43q-23 -49 -70 -49q-29 0 -48 19.5t-19 48.5z
M151 113v831q0 60 29.5 91.5t81.5 31.5q51 0 80.5 -31.5t29.5 -91.5v-831q0 -60 -29.5 -91.5t-81.5 -31.5q-51 0 -80.5 32t-29.5 91z" />
    <glyph glyph-name="Odblgrave" unicode="&#x20c;" horiz-adv-x="1334" 
d="M571 1579q0 -28 -20 -48.5t-47 -20.5q-30 0 -52 25l-119 139q-19 22 -19 53q0 33 24 56.5t56 23.5q43 0 68 -38l94 -148q15 -23 15 -42zM867 1579q0 -28 -20 -48.5t-48 -20.5q-29 0 -52 25l-118 139q-19 22 -19 53q0 33 23.5 56.5t56.5 23.5q43 0 68 -38l94 -148
q15 -26 15 -42zM102 582v188q0 290 151 456t414 166t413.5 -166.5t150.5 -455.5v-188q0 -286 -150 -448.5t-414 -162.5q-266 0 -415.5 162.5t-149.5 448.5zM329 771v-189q0 -195 90 -306t248 -111q157 0 247.5 111t90.5 306v189q0 199 -90.5 313t-247.5 114t-247.5 -114
t-90.5 -313z" />
    <glyph glyph-name="odblgrave" unicode="&#x20d;" horiz-adv-x="1137" 
d="M465 1255q0 -28 -20 -48.5t-48 -20.5q-29 0 -51 25l-119 139q-19 22 -19 53q0 33 23.5 56.5t56.5 23.5q42 0 68 -38l94 -149q15 -24 15 -41zM760 1255q0 -28 -20 -48.5t-47 -20.5q-29 0 -52 25l-118 139q-19 22 -19 53q0 33 23.5 56.5t56.5 23.5q42 0 67 -38l95 -149
q14 -22 14 -41zM569 1077q210 0 341 -127.5t131 -348.5v-142q0 -224 -130.5 -351.5t-341.5 -127.5q-212 0 -342.5 127.5t-130.5 351.5v141q0 222 131 349.5t342 127.5zM569 897q-113 0 -179.5 -83t-66.5 -224v-123q0 -143 66 -225.5t180 -82.5t179 82.5t65 225.5v123
q0 142 -65 224.5t-179 82.5z" />
    <glyph glyph-name="Oinvertedbreve" unicode="&#x20e;" horiz-adv-x="1334" 
d="M367 1552q0 39 25 83t64 78q82 75 209 75q134 0 216 -80q36 -35 59 -77.5t23 -77.5q0 -30 -20 -50t-50 -20q-45 0 -68 54q-10 24 -20.5 41t-29 38.5t-46.5 33t-64 11.5q-29 0 -53.5 -9t-40 -21t-30 -32t-21.5 -33.5t-16 -33.5q-24 -49 -70 -49q-29 0 -48 19.5t-19 49.5z
M102 582v188q0 290 151 456t414 166t413.5 -166.5t150.5 -455.5v-188q0 -286 -150 -448.5t-414 -162.5q-266 0 -415.5 162.5t-149.5 448.5zM329 771v-189q0 -195 90 -306t248 -111q157 0 247.5 111t90.5 306v189q0 199 -90.5 313t-247.5 114t-247.5 -114t-90.5 -313z" />
    <glyph glyph-name="oinvertedbreve" unicode="&#x20f;" horiz-adv-x="1137" 
d="M272 1265q0 39 25 83.5t63 78.5q84 74 210 74q133 0 215 -79q36 -35 59 -77.5t23 -78.5q0 -30 -19.5 -49.5t-49.5 -19.5q-46 0 -68 53q-10 23 -20.5 40.5t-29 39t-47 33t-63.5 11.5q-36 0 -64 -11.5t-47 -34t-29.5 -39.5t-21.5 -43q-21 -49 -69 -49q-29 0 -48 19.5
t-19 48.5zM569 1077q210 0 341 -127.5t131 -348.5v-142q0 -224 -130.5 -351.5t-341.5 -127.5q-212 0 -342.5 127.5t-130.5 351.5v141q0 222 131 349.5t342 127.5zM569 897q-113 0 -179.5 -83t-66.5 -224v-123q0 -143 66 -225.5t180 -82.5t179 82.5t65 225.5v123
q0 142 -65 224.5t-179 82.5z" />
    <glyph glyph-name="Rdblgrave" unicode="&#x210;" horiz-adv-x="1239" 
d="M495 1579q0 -28 -20 -48.5t-48 -20.5q-29 0 -51 25l-119 139q-19 22 -19 53q0 33 23.5 56.5t56.5 23.5q43 0 68 -38l94 -148q15 -26 15 -42zM790 1579q0 -28 -20 -48.5t-47 -20.5q-29 0 -52 25l-118 139q-19 22 -19 53q0 33 23.5 56.5t56.5 23.5q43 0 67 -38l95 -148
q14 -24 14 -42zM379 114q0 -58 -30 -91t-83 -33q-54 0 -84 32.5t-30 91.5v1069q0 95 44.5 138.5t141.5 43.5h341q211 0 333.5 -111t122.5 -302q0 -131 -65 -231t-180 -145l212 -398q20 -35 20 -79q0 -45 -31.5 -74.5t-79.5 -29.5q-44 0 -72 22t-57 79l-217 428h-286v-410z
M379 703h265q127 0 195 60t68 173t-68 175.5t-190 62.5h-270v-471z" />
    <glyph glyph-name="rdblgrave" unicode="&#x211;" horiz-adv-x="734" 
d="M304 1255q0 -28 -20 -48.5t-47 -20.5q-30 0 -52 25l-119 139q-18 23 -18 53q0 33 23.5 56.5t56.5 23.5q42 0 67 -38l95 -149q14 -22 14 -41zM600 1255q0 -28 -20 -48.5t-47 -20.5q-30 0 -52 25l-119 139q-18 21 -18 53q0 33 23.5 56.5t55.5 23.5q42 0 68 -38l94 -149
q15 -21 15 -41zM363 113q0 -58 -29.5 -90.5t-82.5 -32.5t-81.5 32t-28.5 91v830q0 58 29 90.5t82 32.5q49 0 77 -29.5t30 -82.5v-32h8q72 151 226 151q54 0 84 -24q37 -25 37 -76q0 -52 -36 -76q-28 -19 -87 -21q-228 -3 -228 -250v-513z" />
    <glyph glyph-name="Rinvertedbreve" unicode="&#x212;" horiz-adv-x="1239" 
d="M291 1552q0 39 25 83t64 78q82 75 209 75q134 0 216 -80q36 -35 59 -77.5t23 -77.5q0 -30 -20 -50t-50 -20q-45 0 -68 54q-10 24 -20.5 41t-29 38.5t-46.5 33t-64 11.5q-29 0 -53.5 -9t-40 -21t-30 -32t-21.5 -33.5t-16 -33.5q-24 -49 -70 -49q-29 0 -48 19.5t-19 49.5z
M379 114q0 -58 -30 -91t-83 -33q-54 0 -84 32.5t-30 91.5v1069q0 95 44.5 138.5t141.5 43.5h341q211 0 333.5 -111t122.5 -302q0 -131 -65 -231t-180 -145l212 -398q20 -35 20 -79q0 -45 -31.5 -74.5t-79.5 -29.5q-44 0 -72 22t-57 79l-217 428h-286v-410zM379 703h265
q127 0 195 60t68 173t-68 175.5t-190 62.5h-270v-471z" />
    <glyph glyph-name="rinvertedbreve" unicode="&#x213;" horiz-adv-x="734" 
d="M111 1265q0 39 25 83.5t64 78.5q84 74 209 74q134 0 216 -79q36 -35 59 -77.5t23 -78.5q0 -30 -20 -49.5t-50 -19.5q-46 0 -68 53q-10 24 -20.5 41t-29 38.5t-46.5 33t-64 11.5t-64 -11.5t-46.5 -34t-29 -39.5t-21.5 -43q-23 -49 -69 -49q-29 0 -48.5 19.5t-19.5 48.5z
M363 113q0 -58 -29.5 -90.5t-82.5 -32.5t-81.5 32t-28.5 91v830q0 58 29 90.5t82 32.5q49 0 77 -29.5t30 -82.5v-32h8q72 151 226 151q54 0 84 -24q37 -25 37 -76q0 -52 -36 -76q-28 -19 -87 -21q-228 -3 -228 -250v-513z" />
    <glyph glyph-name="Udblgrave" unicode="&#x214;" horiz-adv-x="1347" 
d="M578 1579q0 -28 -20 -48.5t-47 -20.5q-29 0 -52 25l-118 139q-19 22 -19 53q0 33 23.5 56.5t56.5 23.5q43 0 67 -38l95 -148q14 -24 14 -42zM874 1579q0 -28 -20 -48.5t-47 -20.5q-30 0 -52 25l-119 139q-18 21 -18 53q0 33 23.5 56.5t55.5 23.5q43 0 68 -38l94 -148
q15 -23 15 -42zM1210 472q0 -226 -147 -363.5t-389 -137.5q-250 0 -393 137t-143 367v778q0 57 30 89.5t83 32.5t83.5 -32.5t30.5 -89.5v-764q0 -148 83 -234t226 -86q142 0 225.5 86t83.5 234v764q0 57 30 89.5t83 32.5t83.5 -32.5t30.5 -89.5v-781z" />
    <glyph glyph-name="udblgrave" unicode="&#x215;" horiz-adv-x="1168" 
d="M475 1255q0 -28 -20 -48.5t-48 -20.5q-29 0 -51 25l-119 139q-19 22 -19 53q0 33 23.5 56.5t56.5 23.5q42 0 68 -38l94 -149q15 -24 15 -41zM770 1255q0 -28 -20 -48.5t-47 -20.5q-29 0 -52 25l-118 139q-19 22 -19 53q0 33 23.5 56.5t56.5 23.5q42 0 67 -38l95 -149
q14 -22 14 -41zM797 176q-28 -80 -108 -135.5t-212 -55.5q-160 0 -254.5 85.5t-94.5 261.5v615q0 60 29.5 90t81.5 30t81.5 -30t29.5 -90v-558q0 -113 56.5 -164.5t148.5 -51.5q111 0 180.5 65.5t69.5 164.5v544q0 60 30 90t82 30q51 0 81 -30t30 -90v-839q0 -57 -30 -87.5
t-80 -30.5q-49 0 -78.5 28.5t-30.5 83.5v74h-12z" />
    <glyph glyph-name="Uinvertedbreve" unicode="&#x216;" horiz-adv-x="1347" 
d="M375 1552q0 39 25 82.5t63 78.5q83 75 210 75q133 0 215 -80q36 -35 59.5 -77.5t23.5 -77.5q0 -30 -20 -50t-50 -20q-45 0 -68 54q-10 23 -20.5 40.5t-29 39t-47 33t-63.5 11.5q-36 0 -64 -12t-47 -34t-29.5 -39.5t-21.5 -43.5q-22 -49 -69 -49q-29 0 -48 19.5t-19 49.5z
M1210 472q0 -226 -147 -363.5t-389 -137.5q-250 0 -393 137t-143 367v778q0 57 30 89.5t83 32.5t83.5 -32.5t30.5 -89.5v-764q0 -148 83 -234t226 -86q142 0 225.5 86t83.5 234v764q0 57 30 89.5t83 32.5t83.5 -32.5t30.5 -89.5v-781z" />
    <glyph glyph-name="uinvertedbreve" unicode="&#x217;" horiz-adv-x="1168" 
d="M282 1265q0 39 25 83.5t63 78.5q84 74 210 74q133 0 215 -79q36 -35 59 -77.5t23 -78.5q0 -30 -19.5 -49.5t-49.5 -19.5q-45 0 -69 53q-51 124 -159 124q-36 0 -64 -11.5t-47 -34t-29.5 -39.5t-21.5 -43q-21 -49 -69 -49q-29 0 -48 19.5t-19 48.5zM797 176
q-28 -80 -108 -135.5t-212 -55.5q-160 0 -254.5 85.5t-94.5 261.5v615q0 60 29.5 90t81.5 30t81.5 -30t29.5 -90v-558q0 -113 56.5 -164.5t148.5 -51.5q111 0 180.5 65.5t69.5 164.5v544q0 60 30 90t82 30q51 0 81 -30t30 -90v-839q0 -57 -30 -87.5t-80 -30.5
q-49 0 -78.5 28.5t-30.5 83.5v74h-12z" />
    <glyph glyph-name="Scommaaccent" unicode="&#x218;" horiz-adv-x="1183" 
d="M82 281q0 45 26.5 73.5t67.5 28.5q32 0 59.5 -17t59.5 -57q111 -147 309 -147q130 0 202.5 51.5t72.5 145.5q0 77 -53 126.5t-165 77.5l-216 56q-342 84 -342 369q0 183 133.5 293.5t353.5 110.5q116 0 214.5 -32t164.5 -92q100 -91 100 -189q0 -42 -26 -68t-68 -26
q-62 0 -98 58q-41 76 -114.5 117.5t-168.5 41.5q-118 0 -188.5 -53.5t-70.5 -143.5q0 -69 48.5 -117.5t143.5 -72.5l215 -54q186 -47 274 -138t88 -239q0 -190 -138.5 -301.5t-373.5 -111.5q-128 0 -235 33.5t-173 94.5q-102 93 -102 182zM434 -400l54 233q7 32 31.5 50.5
t57.5 18.5q50 0 73.5 -33.5t10.5 -72.5l-83 -233q-19 -52 -73 -52q-45 0 -62 26.5t-9 62.5z" />
    <glyph glyph-name="scommaaccent" unicode="&#x219;" horiz-adv-x="1014" 
d="M86 213q0 41 24 65t65 24q23 0 44 -11.5t52 -41.5q105 -99 242 -99q91 0 143.5 36.5t52.5 100.5q0 51 -37 86.5t-108 51.5l-182 42q-143 32 -212 103.5t-69 185.5q0 146 111.5 233.5t297.5 87.5q159 0 274 -69q53 -31 83 -72t30 -84q0 -38 -24 -60.5t-64 -22.5
q-24 0 -44.5 10t-54.5 39q-54 49 -102.5 69.5t-108.5 20.5q-85 0 -134 -37t-49 -100q0 -51 34.5 -83t108.5 -49l192 -44q140 -32 207 -102.5t67 -186.5q0 -151 -113.5 -238.5t-310.5 -87.5q-171 0 -293 67t-122 166zM372 -400l55 233q7 32 31.5 50.5t57.5 18.5q49 0 73 -34
t11 -72l-83 -233q-21 -52 -73 -52q-45 0 -62.5 26.5t-9.5 62.5z" />
    <glyph glyph-name="Tcommaaccent" unicode="&#x21a;" horiz-adv-x="1061" 
d="M530 -10q-53 0 -83 32.5t-30 89.5v1058h-310q-46 0 -75 27t-29 70t29 70.5t75 27.5h848q46 0 74.5 -27t28.5 -71t-28.5 -70.5t-74.5 -26.5h-311v-1058q0 -56 -30.5 -89t-83.5 -33zM392 -400l54 233q7 32 32 50.5t58 18.5q49 0 73 -34t11 -72l-83 -233q-21 -52 -73 -52
q-45 0 -62.5 26.5t-9.5 62.5z" />
    <glyph glyph-name="tcommaaccent" unicode="&#x21b;" horiz-adv-x="728" 
d="M213 281v592h-64q-46 0 -72 24t-26 65q0 42 26 65.5t72 23.5h68v155q0 57 28 88.5t80 31.5t80.5 -31.5t28.5 -88.5v-155h122q46 0 71.5 -23.5t25.5 -65.5q0 -41 -25.5 -65t-71.5 -24h-120v-576q0 -78 24 -107t90 -29q15 0 37 1.5t32 1.5q32 0 52 -19.5t20 -52.5
q0 -54 -49 -82q-50 -29 -146 -29q-151 0 -217 69t-66 231zM299 -400l55 233q7 32 31.5 50.5t57.5 18.5q49 0 73 -34t11 -72l-83 -233q-21 -52 -73 -52q-45 0 -62.5 26.5t-9.5 62.5z" />
    <glyph glyph-name="Hcaron" unicode="&#x21e;" horiz-adv-x="1386" 
d="M447 1747q0 26 17.5 44t45.5 18q31 0 59 -30l121 -161h4l122 158q30 33 59 33q27 0 45.5 -18t18.5 -44q0 -29 -26 -52l-130 -149q-39 -41 -90 -41q-50 0 -91 41l-129 147q-26 23 -26 54zM1119 -10q-54 0 -84 32.5t-30 91.5v491h-625v-491q0 -58 -30 -91t-83 -33
q-54 0 -84 32.5t-30 91.5v1137q0 59 30 91.5t84 32.5q53 0 83 -33t30 -91v-454h625v454q0 59 30 91.5t84 32.5q53 0 83 -33t30 -91v-1137q0 -58 -30 -91t-83 -33z" />
    <glyph glyph-name="hcaron" unicode="&#x21f;" horiz-adv-x="1176" 
d="M7 1819q0 26 17.5 44t45.5 18q31 0 59 -30l121 -161h4l122 158q30 33 59 33q27 0 45.5 -18t18.5 -44q0 -29 -26 -52l-130 -149q-39 -41 -90 -41q-50 0 -91 41l-129 147q-26 23 -26 54zM1049 113q0 -58 -29 -90.5t-82 -32.5t-82 32t-29 91v537q0 112 -56 172.5t-158 60.5
q-114 0 -181.5 -79.5t-67.5 -214.5v-476q0 -58 -29 -90.5t-82 -32.5t-82 32t-29 91v1208q0 58 29 90.5t82 32.5t82 -32.5t29 -90.5v-454h11q27 91 116.5 148.5t204.5 57.5q166 0 259.5 -95.5t93.5 -264.5v-600z" />
    <glyph glyph-name="Adotaccent" unicode="&#x226;" horiz-adv-x="1233" 
d="M501 1636q0 48 33 80.5t81 32.5t81.5 -32.5t33.5 -80.5t-33.5 -80t-81.5 -32q-49 0 -81.5 31.5t-32.5 80.5zM155 -12q-48 0 -77 26t-29 69q0 32 19 88l375 1061q27 76 67.5 110t107.5 34q68 0 108 -34t66 -110l375 -1061q17 -51 17 -85q0 -45 -29.5 -71.5t-78.5 -26.5
q-46 0 -74.5 25.5t-45.5 82.5l-94 282h-494l-94 -282q-18 -58 -45.5 -83t-73.5 -25zM422 552h386l-187 577h-11z" />
    <glyph glyph-name="adotaccent" unicode="&#x227;" horiz-adv-x="1076" 
d="M421 1310q0 50 34.5 84t83.5 34t84 -34t35 -84q0 -49 -34.5 -83t-84.5 -34t-84 34t-34 83zM724 137q-43 -73 -120 -112.5t-175 -39.5q-154 0 -249.5 89t-95.5 233q0 146 100.5 230t277.5 85h264v94q0 89 -53 135t-155 46q-61 0 -108.5 -22t-94.5 -70q-37 -36 -91 -36
q-37 0 -59 22.5t-22 58.5q0 98 131 169q99 54 258 54q200 0 308 -93t108 -265v-605q0 -57 -28 -88.5t-80 -31.5q-46 0 -73.5 26.5t-31.5 73.5v47h-11zM307 318q0 -73 52.5 -118.5t138.5 -45.5q97 0 162.5 58t65.5 144v114h-233q-89 0 -137.5 -39.5t-48.5 -112.5z" />
    <glyph glyph-name="Ecedilla" unicode="&#x228;" horiz-adv-x="1114" 
d="M563 -470q-61 0 -95 14q-52 18 -52 61q0 24 15 38t41 14q10 0 36 -5t46 -5q46 0 73.5 20t27.5 54q0 31 -23 45t-75 16q-99 4 -99 70q0 22 49 148h-183q-89 0 -130.5 39t-41.5 123v1041q0 83 42 122.5t130 39.5h594q47 0 75 -26.5t28 -69.5t-28 -69.5t-75 -26.5h-539v-388
h508q44 0 71 -25t27 -67t-26.5 -66.5t-71.5 -24.5h-508v-410h537q48 0 76.5 -26.5t28.5 -70.5q0 -43 -28.5 -69t-76.5 -26h-270l-44 -115q95 6 151.5 -39t56.5 -126q0 -87 -67 -138.5t-180 -51.5z" />
    <glyph glyph-name="ecedilla" unicode="&#x229;" horiz-adv-x="1099" 
d="M545 -470q-61 0 -95 14q-53 18 -53 61q0 24 15 38t41 14q10 0 36.5 -5t45.5 -5q47 0 74 20t27 54q0 31 -23 45t-75 16q-98 4 -98 70q0 20 44 134q-181 26 -283.5 149t-102.5 317v150q0 211 127.5 343t332.5 132q195 0 320.5 -126.5t125.5 -321.5q0 -88 -25 -120.5
t-91 -32.5h-564v-50q0 -123 72 -195t197 -72q121 0 199 70q41 35 59.5 45t43.5 10q36 0 58.5 -24t22.5 -62q0 -62 -65 -114q-97 -93 -291 -103l-36 -96q94 6 150.5 -39t56.5 -126q0 -87 -66.5 -138.5t-179.5 -51.5zM324 631h465v3q0 121 -62 193t-166 72q-107 0 -172 -73
t-65 -192v-3z" />
    <glyph glyph-name="Odieresismacron" unicode="&#x22a;" horiz-adv-x="1334" 
d="M384 1851q0 27 20.5 44.5t56.5 17.5h409q36 0 56.5 -17.5t20.5 -44.5q0 -28 -20.5 -46t-56.5 -18h-409q-36 0 -56.5 18t-20.5 46zM404 1586q0 42 26.5 69.5t65.5 27.5q42 0 70 -27.5t28 -69.5q0 -40 -28.5 -67t-69.5 -27q-39 0 -65.5 27t-26.5 67zM736 1586q0 41 27.5 69
t66.5 28q42 0 69 -27.5t27 -69.5q0 -41 -27 -67.5t-69 -26.5q-39 0 -66.5 27t-27.5 67zM102 582v188q0 290 151 456t414 166t413.5 -166.5t150.5 -455.5v-188q0 -286 -150 -448.5t-414 -162.5q-266 0 -415.5 162.5t-149.5 448.5zM329 771v-189q0 -195 90 -306t248 -111
q157 0 247.5 111t90.5 306v189q0 199 -90.5 313t-247.5 114t-247.5 -114t-90.5 -313z" />
    <glyph glyph-name="odieresismacron" unicode="&#x22b;" horiz-adv-x="1137" 
d="M283 1615q0 29 21 47.5t58 18.5h415q37 0 58.5 -18t21.5 -47t-21.5 -48.5t-58.5 -19.5h-415q-37 0 -58 19t-21 48zM282 1301q0 47 29.5 77t73.5 30q46 0 76 -30t30 -77q0 -45 -30 -74.5t-76 -29.5q-44 0 -73.5 29.5t-29.5 74.5zM648 1301q0 47 29.5 77t73.5 30
q47 0 77 -30t30 -77q0 -45 -30.5 -74.5t-76.5 -29.5q-44 0 -73.5 29.5t-29.5 74.5zM569 1077q210 0 341 -127.5t131 -348.5v-142q0 -224 -130.5 -351.5t-341.5 -127.5q-212 0 -342.5 127.5t-130.5 351.5v141q0 222 131 349.5t342 127.5zM569 897q-113 0 -179.5 -83
t-66.5 -224v-123q0 -143 66 -225.5t180 -82.5t179 82.5t65 225.5v123q0 142 -65 224.5t-179 82.5z" />
    <glyph glyph-name="Otildemacron" unicode="&#x22c;" horiz-adv-x="1334" 
d="M384 1851q0 27 20.5 44.5t56.5 17.5h409q36 0 56.5 -17.5t20.5 -44.5q0 -28 -20.5 -46t-56.5 -18h-409q-36 0 -56.5 18t-20.5 46zM386 1549q0 63 47 108t118 45q83 0 142 -57q49 -48 81 -48q18 0 32.5 16.5t20.5 42.5q13 45 56 45q57 0 57 -69q0 -63 -46.5 -106.5
t-115.5 -43.5q-78 0 -142 61q-52 47 -78 47q-37 0 -54 -57q-14 -47 -62 -47q-56 0 -56 63zM102 582v188q0 290 151 456t414 166t413.5 -166.5t150.5 -455.5v-188q0 -286 -150 -448.5t-414 -162.5q-266 0 -415.5 162.5t-149.5 448.5zM329 771v-189q0 -195 90 -306t248 -111
q157 0 247.5 111t90.5 306v189q0 199 -90.5 313t-247.5 114t-247.5 -114t-90.5 -313z" />
    <glyph glyph-name="otildemacron" unicode="&#x22d;" horiz-adv-x="1137" 
d="M283 1615q0 29 21 47.5t58 18.5h415q37 0 58.5 -18t21.5 -47t-21.5 -48.5t-58.5 -19.5h-415q-37 0 -58 19t-21 48zM243 1260q0 68 44 117q52 63 145 63q47 0 82 -16.5t72 -54.5q36 -37 54 -49t42 -12q30 0 45.5 17t23.5 58q12 52 58 52q30 0 46.5 -19.5t16.5 -55.5
q0 -72 -48 -122q-54 -59 -142 -59q-42 0 -74.5 16t-75.5 57q-42 40 -58.5 50.5t-39.5 10.5q-29 0 -44.5 -17.5t-26.5 -57.5q-15 -52 -58 -52q-62 0 -62 74zM569 1077q210 0 341 -127.5t131 -348.5v-142q0 -224 -130.5 -351.5t-341.5 -127.5q-212 0 -342.5 127.5
t-130.5 351.5v141q0 222 131 349.5t342 127.5zM569 897q-113 0 -179.5 -83t-66.5 -224v-123q0 -143 66 -225.5t180 -82.5t179 82.5t65 225.5v123q0 142 -65 224.5t-179 82.5z" />
    <glyph glyph-name="Odotaccent" unicode="&#x22e;" horiz-adv-x="1334" 
d="M551 1636q0 48 33 80.5t81 32.5t81.5 -32.5t33.5 -80.5t-33.5 -80t-81.5 -32t-81 32t-33 80zM102 582v188q0 290 151 456t414 166t413.5 -166.5t150.5 -455.5v-188q0 -286 -150 -448.5t-414 -162.5q-266 0 -415.5 162.5t-149.5 448.5zM329 771v-189q0 -195 90 -306
t248 -111q157 0 247.5 111t90.5 306v189q0 199 -90.5 313t-247.5 114t-247.5 -114t-90.5 -313z" />
    <glyph glyph-name="odotaccent" unicode="&#x22f;" horiz-adv-x="1137" 
d="M452 1310q0 50 34 84t84 34q49 0 83.5 -34t34.5 -84q0 -49 -34 -83t-84 -34t-84 33.5t-34 83.5zM569 1077q210 0 341 -127.5t131 -348.5v-142q0 -224 -130.5 -351.5t-341.5 -127.5q-212 0 -342.5 127.5t-130.5 351.5v141q0 222 131 349.5t342 127.5zM569 897
q-113 0 -179.5 -83t-66.5 -224v-123q0 -143 66 -225.5t180 -82.5t179 82.5t65 225.5v123q0 142 -65 224.5t-179 82.5z" />
    </font>
</defs>
</svg>
